<?xml version="1.0" encoding="UTF-8" standalone="no"?>
<svg
   xmlns:dc="http://purl.org/dc/elements/1.1/"
   xmlns:cc="http://creativecommons.org/ns#"
   xmlns:rdf="http://www.w3.org/1999/02/22-rdf-syntax-ns#"
   xmlns:svg="http://www.w3.org/2000/svg"
   xmlns="http://www.w3.org/2000/svg"
   xmlns:sodipodi="http://sodipodi.sourceforge.net/DTD/sodipodi-0.dtd"
   xmlns:inkscape="http://www.inkscape.org/namespaces/inkscape"
   width="67.845894mm"
   height="57.518616mm"
   viewBox="0 0 67.845894 57.518616"
   version="1.1"
   id="svg3651"
   inkscape:version="1.0.1 (3bc2e813f5, 2020-09-07)"
   sodipodi:docname="aji.svg">
  <defs
     id="defs3645" />
  <sodipodi:namedview
     id="base"
     pagecolor="#ffffff"
     bordercolor="#666666"
     borderopacity="1.0"
     inkscape:pageopacity="0.0"
     inkscape:pageshadow="2"
     inkscape:zoom="0.4609029"
     inkscape:cx="1133.5463"
     inkscape:cy="343.24844"
     inkscape:document-units="mm"
     inkscape:current-layer="layer1"
     inkscape:document-rotation="0"
     showgrid="false"
     inkscape:snap-global="false"
     inkscape:window-width="1920"
     inkscape:window-height="1027"
     inkscape:window-x="-8"
     inkscape:window-y="-8"
     inkscape:window-maximized="1" />
  <metadata
     id="metadata3648">
    <rdf:RDF>
      <cc:Work
         rdf:about="">
        <dc:format>image/svg+xml</dc:format>
        <dc:type
           rdf:resource="http://purl.org/dc/dcmitype/StillImage" />
        <dc:title></dc:title>
      </cc:Work>
    </rdf:RDF>
  </metadata>
  <g
     inkscape:label="Layer 1"
     inkscape:groupmode="layer"
     id="layer1"
     transform="translate(194.08413,-57.34885)">
    <g
       id="g3643"
       style="fill:#d4ab00;fill-opacity:1"
       transform="matrix(-0.26341138,-0.02487536,0.02487536,-0.26341138,-146.9188,205.51691)">
      <g
         id="g1141"
         transform="matrix(1.3333333,0,0,-1.3333333,-21.142625,554.43569)"
         style="fill:#d4ab00;fill-opacity:1">
        <path
           d="M 0,0 C 0.58,0.857 1.341,1.36 2.191,1.641 2.003,1.482 1.821,1.316 1.649,1.136 1.456,0.931 1.685,0.575 1.948,0.724 2.2,0.865 2.435,1.025 2.665,1.194 2.71,0.244 2.756,-0.705 2.802,-1.655 2.815,-1.93 2.798,-2.275 2.806,-2.62 1.831,-2.977 0.685,-3.457 -0.431,-3.854 -0.787,-2.539 -0.728,-1.076 0,0 M 10.894,2.464 C 9.992,1.618 9.039,0.828 8.021,0.12 6.585,-0.88 5.017,-1.739 3.383,-2.387 L 3.377,-2.114 C 3.368,-1.678 3.358,-1.24 3.348,-0.803 3.329,0.071 3.31,0.946 3.291,1.821 c 0,0.022 -0.006,0.041 -0.01,0.062 0.806,0.105 1.651,0.081 2.473,0.013 1.813,-0.146 3.531,-0.007 5.14,0.568 m 15.04,39.188 c 0.145,-0.289 0.375,-0.513 0.714,-0.643 -0.393,-1.32 -0.723,-2.663 -1.018,-4.007 0.129,1.547 0.215,3.099 0.304,4.65 M 24.82,59.698 c -0.215,0.701 -0.634,1.495 -1.047,2.308 0.546,-0.167 1.102,-0.294 1.648,-0.388 0.927,-0.157 1.827,0.052 2.733,0.076 -0.012,-4.36 -0.03,-8.693 -0.363,-13.044 -0.135,-0.275 -0.277,-0.545 -0.403,-0.825 -0.255,-0.564 -0.912,-1.899 -1.319,-3.25 0.116,3.367 0.014,6.778 -0.324,10.114 -0.172,1.694 -0.426,3.378 -0.925,5.009 m -1.414,37.739 c 3.532,8.97 9.553,17.181 15.985,24.649 -0.072,-0.33 -0.144,-0.66 -0.213,-0.991 -0.027,-0.132 0.16,-0.195 0.203,-0.063 0.313,0.962 0.348,1.233 1.21,0.698 -0.651,-0.77 -1.303,-1.539 -1.962,-2.309 -2.547,-2.979 -4.819,-6.27 -6.705,-9.768 -1.229,-0.093 -2.177,-0.757 -2.852,-1.784 -0.1,-0.154 0.137,-0.298 0.241,-0.15 0.634,0.908 1.489,1.416 2.399,1.535 -0.573,-1.087 -1.111,-2.191 -1.606,-3.314 -3.338,-2.325 -3.694,-6.035 -3.092,-9.672 -0.399,-1.985 -0.656,-3.993 -0.757,-6.009 -0.453,0.439 -0.943,0.816 -1.483,1.122 0.506,-0.387 1.037,-0.89 1.472,-1.335 -0.068,-1.528 -0.05,-3.062 0.069,-4.593 -0.98,1.43 -1.877,2.909 -2.659,4.463 -0.263,0.522 -1.019,1.458 -0.447,1.997 0.044,0.041 0.097,0.067 0.155,0.084 -0.261,0.084 -0.53,0.16 -0.811,0.223 -0.072,0.015 -0.124,-0.051 -0.095,-0.117 0.938,-2.173 2.034,-4.256 3.346,-6.228 0.197,-0.296 0.405,-0.551 0.541,-0.744 0.011,-0.127 0.025,-0.253 0.038,-0.381 -0.117,-0.012 -0.335,0.028 -0.698,0.134 -1.385,0.401 -2.747,1.691 -3.731,2.655 -0.072,0.07 -0.198,0.066 -0.252,-0.025 -0.135,-0.229 -0.244,-0.463 -0.342,-0.699 0.024,3.589 0.698,7.199 2.046,10.622 m 26.254,35.895 c -0.67,-0.847 -1.32,-1.717 -1.959,-2.608 -0.733,-1.023 -1.484,-2.025 -2.248,-3.014 -0.034,0.016 -0.064,0.036 -0.099,0.049 0.242,0.416 0.504,0.826 0.792,1.227 0.006,0.01 -0.008,0.019 -0.015,0.01 -0.288,-0.402 -0.55,-0.812 -0.792,-1.23 -0.014,0.005 -0.026,0.015 -0.042,0.02 -1.108,0.353 -1.201,-0.459 -0.96,-1.485 -1.153,-1.453 -2.326,-2.888 -3.524,-4.31 -0.292,0.24 -0.588,0.476 -0.89,0.707 1.914,2.202 3.857,4.343 5.778,6.415 1.304,1.407 2.624,2.817 3.959,4.219 m 34.937,24.587 c -0.145,-0.316 -0.114,-0.636 0.05,-1.127 -0.725,-0.393 -1.446,-0.795 -2.164,-1.205 -0.025,0.044 -0.049,0.089 -0.075,0.133 -0.08,0.137 -0.293,0.023 -0.218,-0.118 0.025,-0.047 0.049,-0.094 0.074,-0.141 -0.748,-0.428 -1.493,-0.86 -2.235,-1.299 -0.187,-0.11 -0.376,-0.22 -0.564,-0.329 -0.214,0.495 -0.375,0.97 -0.876,1.216 -0.046,0.022 -0.105,0.026 -0.143,-0.014 -0.069,-0.073 -0.137,-0.145 -0.206,-0.218 -0.026,-0.028 -0.04,-0.076 -0.017,-0.11 l 0.133,-0.204 c 0.05,-0.076 0.16,-0.016 0.124,0.068 0.46,-0.067 0.73,-0.351 0.832,-0.829 -1.055,-0.617 -2.118,-1.229 -3.188,-1.838 -0.257,0.431 -0.517,0.86 -0.782,1.285 -0.066,0.106 -0.235,0.017 -0.172,-0.092 0.253,-0.436 0.5,-0.873 0.751,-1.308 -0.949,-0.539 -1.901,-1.078 -2.856,-1.616 -0.147,0.33 -0.291,0.661 -0.441,0.99 -0.058,0.126 -0.238,0.023 -0.186,-0.101 0.138,-0.336 0.283,-0.669 0.425,-1.004 -3.257,-1.837 -6.529,-3.687 -9.707,-5.649 -0.057,0.027 -0.114,0.051 -0.171,0.079 -0.12,0.058 -0.233,-0.113 -0.112,-0.18 0.022,-0.012 0.044,-0.022 0.065,-0.034 -1.739,-1.077 -3.446,-2.192 -5.108,-3.355 0.817,0.901 1.636,1.802 2.452,2.706 4.593,3.988 9.505,7.568 14.922,10.322 3.034,1.542 6.177,2.861 9.393,3.972 m 6.103,1.837 c -0.666,-0.285 -1.328,-0.58 -1.984,-0.889 -0.053,0.102 -0.105,0.205 -0.158,0.307 0.711,0.204 1.425,0.397 2.142,0.582 m 23.528,3.46 c -0.042,-0.072 -0.077,-0.147 -0.11,-0.223 -0.88,0.055 -1.759,0.098 -2.636,0.131 0.56,0.029 1.121,0.061 1.681,0.077 0.355,0.01 0.71,0.009 1.065,0.015 m 36.6,-6.462 c 2.96,-1.054 5.886,-2.196 8.782,-3.414 3.133,-1.317 6.561,-2.529 9.266,-4.632 0.236,-0.183 0.566,-0.448 0.923,-0.762 -4.114,2.779 -9.629,3.619 -14.464,4.63 -8.711,1.821 -16.352,6.602 -25.123,8.299 -3.479,0.672 -7.101,1.241 -10.758,1.648 -0.214,0.223 -0.447,0.444 -0.697,0.652 10.96,-0.38 21.713,-2.734 32.071,-6.421 m 20.622,-13.26 c -0.758,-0.709 -2.419,-0.702 -3.346,-0.768 -0.617,-0.044 -1.235,-0.076 -1.854,-0.108 -0.046,0.91 -0.595,1.788 -1.374,2.312 -1.094,0.737 -2.238,0.519 -3.023,-0.128 -0.087,0.586 -0.192,1.169 -0.34,1.749 -0.159,0.622 -0.327,1.64 -0.996,1.938 0.546,0.654 1.075,1.325 1.581,2.021 3.535,-0.891 6.87,-2.158 9.496,-4.62 0.476,-0.835 0.603,-1.699 -0.144,-2.396 m -10.086,-1.076 c -0.116,0.482 -0.042,0.979 0.183,1.407 0.046,-0.465 0.069,-0.931 0.083,-1.398 -0.088,-0.003 -0.177,-0.006 -0.266,-0.009 m 4.516,0.179 c -1.276,-0.063 -2.552,-0.111 -3.829,-0.155 -0.019,0.633 -0.058,1.264 -0.134,1.891 0.492,0.505 1.232,0.784 2.064,0.559 0.844,-0.228 1.477,-0.772 1.79,-1.6 0.072,-0.189 0.107,-0.432 0.109,-0.695 m -12.421,-0.571 c 1.208,0.839 2.353,1.746 3.44,2.719 0.027,-0.025 0.06,-0.045 0.106,-0.055 0.869,-0.187 1.561,-0.528 2.228,-1.136 0.198,-0.181 0.515,0.028 0.387,0.281 -0.256,0.506 -0.89,1.969 -0.575,2.621 1.241,0.852 1.919,0.85 2.035,-0.007 0.083,-0.303 0.154,-0.608 0.216,-0.916 0.075,-0.364 0.136,-0.728 0.186,-1.094 -0.469,-0.564 -0.707,-1.308 -0.565,-2.037 -0.982,-0.036 -1.963,-0.075 -2.944,-0.127 -1.499,-0.078 -3.005,-0.16 -4.514,-0.249 m 5.454,2.386 c -0.48,0.325 -0.996,0.555 -1.592,0.706 0.447,0.413 0.883,0.838 1.308,1.273 0.006,-0.687 0.13,-1.412 0.284,-1.979 m -39.419,-7.805 c 4.233,4.081 4.676,10.941 3.781,16.48 -0.413,2.559 -1.129,5.47 -2.546,7.767 0.705,-0.13 1.416,-0.29 2.134,-0.488 0.033,-0.009 0.049,0.042 0.016,0.051 -0.731,0.203 -1.459,0.367 -2.184,0.496 -0.198,0.316 -0.411,0.621 -0.637,0.911 1.753,-0.22 3.486,-0.457 5.181,-0.688 4.544,-0.619 9.043,-1.556 13.347,-3.167 3.961,-1.482 7.726,-3.459 11.759,-4.755 3.681,-1.182 7.804,-1.714 11.693,-2.689 -0.516,-0.69 -1.054,-1.36 -1.61,-2.014 -0.072,0.025 -0.144,0.051 -0.227,0.058 -1.176,0.103 -1.551,-0.889 -1.571,-2.031 -0.415,-0.42 -0.839,-0.831 -1.278,-1.229 -0.057,-0.052 -0.118,-0.101 -0.175,-0.152 -0.009,0.002 -0.017,0.005 -0.026,0.007 -0.205,0.044 -0.335,-0.146 -0.312,-0.302 -0.601,-0.524 -1.214,-1.035 -1.849,-1.519 -0.611,-0.465 -1.237,-0.908 -1.873,-1.336 -0.456,-0.027 -0.913,-0.057 -1.369,-0.085 -0.023,0.088 -0.044,0.182 -0.061,0.291 0.086,0.054 0.016,0.188 -0.077,0.141 -0.258,-0.134 -0.434,-0.295 -0.534,-0.474 -10.67,-0.685 -21.472,-1.859 -31.582,-5.273 m 0.296,25.25 c 0.2,-0.26 0.401,-0.521 0.601,-0.781 0.027,-0.041 0.048,-0.086 0.074,-0.127 -1.743,0.291 -3.465,0.376 -5.159,0.279 0.192,0.412 0.386,0.77 0.585,1.071 1.307,-0.13 2.608,-0.28 3.899,-0.442 m -1.229,1.326 c 0.224,-0.159 0.451,-0.371 0.681,-0.636 -0.984,0.107 -1.97,0.202 -2.956,0.285 0.141,0.159 0.285,0.284 0.429,0.39 0.616,-0.008 1.232,-0.019 1.846,-0.039 m -32.288,-5.968 c 0.158,-0.25 0.308,-0.605 0.448,-1.083 0.167,-0.263 0.334,-0.527 0.501,-0.79 0.568,-0.932 1.075,-1.898 1.527,-2.891 0.857,-1.888 1.443,-3.824 1.869,-5.833 -0.548,-0.658 -1.089,-1.321 -1.616,-1.996 -0.134,-0.173 -0.421,-0.628 -0.773,-1.179 -1.602,4.029 -3.387,8.022 -5.543,11.786 1.184,0.683 2.379,1.348 3.587,1.986 m -0.26,0.305 c -0.365,-0.19 -0.729,-0.384 -1.092,-0.58 0.398,0.637 0.763,0.833 1.092,0.58 m 0.035,0.018 c -0.165,0.234 -0.335,0.466 -0.507,0.697 0.93,0.308 1.865,0.602 2.806,0.875 0.054,-0.113 0.111,-0.225 0.167,-0.338 -0.828,-0.395 -1.65,-0.808 -2.466,-1.234 m 2.842,0.991 c 0.891,0.425 1.79,0.828 2.699,1.203 1.145,-2.707 2.519,-5.322 4.002,-7.855 -0.779,-0.714 -1.536,-1.451 -2.264,-2.209 -1.469,2.958 -2.916,5.93 -4.437,8.861 m 4.31,-8.992 c -0.602,-0.632 -1.186,-1.275 -1.75,-1.928 -0.241,-0.278 -0.474,-0.562 -0.71,-0.844 -0.788,3.79 -2.279,7.277 -4.465,10.451 0.796,0.42 1.598,0.826 2.407,1.215 1.462,-2.986 3.003,-5.935 4.518,-8.894 m -19.926,0.168 c 0.971,0.55 1.935,1.105 2.888,1.664 1.392,-2.434 2.737,-4.885 3.995,-7.39 -1.382,-0.009 -2.785,-0.37 -4.146,-0.706 -0.909,2.144 -1.798,4.3 -2.737,6.432 m -3.366,-1.897 c 0.402,-1.142 0.802,-2.285 1.203,-3.427 0.041,-0.117 0.232,-0.074 0.19,0.044 -0.412,1.157 -0.824,2.314 -1.236,3.471 1.003,0.564 2.004,1.125 2.998,1.689 0.912,-2.126 1.876,-4.231 2.817,-6.344 -0.051,-0.012 -0.103,-0.025 -0.154,-0.038 -4.292,-1.047 -8.122,-0.788 -12.092,0.985 2.067,1.244 4.173,2.438 6.274,3.62 M 43.787,123.964 c -0.068,0.063 -0.191,-0.022 -0.136,-0.105 0.025,-0.039 0.055,-0.076 0.08,-0.114 -0.024,-0.098 -0.051,-0.196 -0.073,-0.294 0.022,0.098 0.05,0.195 0.074,0.293 1.324,-1.959 3.198,-3.606 5.06,-5.046 -0.237,-0.579 -0.514,-1.148 -0.814,-1.698 -0.238,-0.433 -0.625,-1.102 -1.124,-1.896 -1.562,2.487 -3.46,4.685 -5.685,6.584 1.12,1.336 2.188,2.738 3.241,4.165 -0.248,-0.619 -0.455,-1.249 -0.623,-1.889 m 1.882,3.198 c 0.549,-0.106 1.444,-2.305 1.806,-2.783 0.585,-0.772 1.267,-1.436 2.051,-1.921 0.072,-1.204 -0.208,-2.424 -0.671,-3.602 -1.893,1.539 -3.417,3.318 -5.063,5.106 0,10e-4 -0.002,10e-4 -0.004,0.002 0.172,0.649 0.386,1.289 0.643,1.917 l 0.013,0.018 c 0.329,-1.11 0.925,-2.319 1.021,-2.556 0.019,-0.046 0.098,-0.016 0.082,0.031 -0.215,0.62 -0.43,1.239 -0.646,1.859 -0.084,0.242 -0.278,0.595 -0.311,0.864 0.196,0.265 0.391,0.531 0.587,0.799 0.164,0.088 0.328,0.177 0.492,0.266 m 9.626,11.363 c -1.022,-1.112 -2.049,-2.22 -3.069,-3.334 -1.509,-1.648 -3.131,-3.237 -4.545,-4.965 -0.528,-0.645 -1.142,-1.269 -1.11,-2.178 0.042,-1.214 1.299,-1.733 1.909,-2.6 0.618,-0.88 0.931,-1.8 1.027,-2.733 -0.863,0.594 -1.585,1.409 -2.173,2.322 -0.465,0.724 -0.848,2.007 -1.648,2.555 2.876,3.938 5.771,7.889 9.519,10.864 0.029,0.023 0.06,0.046 0.09,0.069 m 0.389,0.848 c -0.083,-0.061 -0.16,-0.128 -0.242,-0.191 1.069,1.032 2.155,2.047 3.257,3.042 -0.607,-0.659 -1.213,-1.317 -1.819,-1.976 -0.401,-0.289 -0.801,-0.579 -1.196,-0.875 m -11.212,-12.859 0.06,0.032 c -0.017,-0.021 -0.034,-0.042 -0.051,-0.063 -0.003,0.011 -0.006,0.021 -0.009,0.031 m -8.529,-11.306 c 0.904,-1.943 1.939,-3.845 3.227,-5.562 0.923,-1.23 0.575,-0.736 -0.402,0.027 -1.172,0.915 -2.438,1.732 -3.65,2.593 -0.1,0.071 -0.239,0.004 -0.275,-0.103 -0.247,-0.73 -0.265,-2.186 -0.863,-2.67 -0.269,-0.218 -1.093,0.075 -1.611,0.156 1.074,1.921 2.272,3.767 3.574,5.559 m 2.172,2.834 c 0.477,-1.748 1.216,-3.287 2.229,-4.656 -1.232,0.924 -2.582,1.676 -4.067,2.272 0.594,0.804 1.207,1.598 1.838,2.384 M 27.098,96.701 c -0.521,3.563 -0.012,6.914 2.965,9.138 -1.292,-2.95 -2.304,-6.013 -2.965,-9.138 m 60.837,15.805 c -0.017,0.604 -0.232,1.239 -0.714,1.904 -0.033,0.045 -0.11,0.005 -0.077,-0.042 0.507,-0.741 0.655,-1.47 0.542,-2.179 -0.872,-1.136 -1.717,-2.288 -2.543,-3.453 -0.89,-0.696 -1.928,-1.346 -2.991,-1.931 0.873,0.445 1.838,0.966 2.726,1.559 -4.863,-6.912 -8.944,-14.305 -12.415,-22.095 -1.606,-3.605 -3.271,-6.893 -5.349,-9.916 -5.807,-3.989 -12.615,-6.885 -19.356,-7.157 7.004,0.096 13.601,3.075 19.32,7.103 -1.737,-2.519 -3.761,-4.854 -6.287,-7.029 -3.096,-2.666 -6.933,-6.219 -11.097,-8.274 -2.628,-0.088 -5.307,0.359 -7.828,1.288 -0.635,0.234 -1.243,0.508 -1.839,0.8 4.283,-0.789 8.741,-0.339 11.848,2.344 0.093,0.079 0,0.213 -0.104,0.195 -0.856,-0.139 -1.708,-0.292 -2.562,-0.445 -0.09,-0.017 -0.056,-0.15 0.033,-0.138 0.574,0.077 1.148,0.153 1.722,0.231 -0.333,-0.572 -0.812,-0.961 -1.434,-1.171 -1.238,-0.688 -2.993,-0.922 -4.356,-1.003 -1.915,-0.116 -3.891,0.099 -5.785,0.495 -0.283,1.444 -1.106,2.663 -2.37,3.538 -0.756,0.523 -1.587,0.872 -2.503,1.003 -0.162,0.022 -0.637,-0.026 -0.986,-0.009 -0.634,0.727 -1.223,1.494 -1.768,2.297 -0.064,0.252 -0.125,0.5 -0.199,0.725 -0.299,0.917 -0.98,2.011 -1.821,2.819 -0.722,1.525 -1.316,3.119 -1.765,4.751 -0.162,0.586 -0.302,1.178 -0.431,1.771 1.262,-2.203 2.383,-4.143 4.51,-5.944 4.803,-4.064 10.229,-5.567 15.702,-5.347 -0.628,-0.008 -1.259,0.005 -1.894,0.044 -7.659,0.472 -15.179,4.751 -18.421,11.739 -0.077,0.381 -0.148,0.765 -0.212,1.149 1.019,0.835 2.179,1.542 3.584,2.105 0.087,0.035 0.143,0.168 0.115,0.255 -0.971,2.965 -2.783,6.987 -3.597,10.895 0.321,1.889 0.763,3.757 1.313,5.582 0.893,2.964 2.088,5.713 3.517,8.318 0.663,-0.007 1.341,-0.215 1.974,-0.626 0.127,-0.083 0.265,0.018 0.283,0.15 0.328,2.289 0.278,2.865 2.327,1.847 1.275,-0.634 2.485,-1.766 3.649,-2.593 0.183,-0.13 0.355,0.13 0.233,0.285 -0.989,1.255 -1.921,2.547 -2.737,3.922 -0.19,0.319 -1.453,2.178 -1.377,2.551 0.127,0.624 2.786,-0.969 4.464,-2.226 0.572,-0.664 1.207,-1.291 1.925,-1.878 0.107,-0.088 0.258,0.042 0.161,0.153 -0.456,0.518 -0.931,0.997 -1.424,1.447 -1.343,1.696 -4.065,4.935 -2.718,5.329 0.383,0.111 2.034,-1.36 2.295,-1.554 0.976,-0.722 1.895,-1.507 2.785,-2.329 0.012,-0.046 0.025,-0.091 0.038,-0.137 -0.013,0.044 -0.022,0.089 -0.034,0.133 0.233,-0.215 0.465,-0.431 0.694,-0.651 0.09,-0.086 0.231,0.045 0.141,0.134 -0.3,0.298 -0.613,0.577 -0.92,0.862 -0.059,0.237 -0.125,0.472 -0.176,0.711 0.051,-0.235 0.107,-0.468 0.165,-0.701 -1.716,1.589 -3.544,2.998 -5.55,4.235 0.723,0.893 1.466,1.778 2.23,2.657 0.13,0.149 0.256,0.303 0.384,0.454 0.861,-0.625 1.674,-1.483 2.391,-2.229 1.272,-1.323 2.377,-2.777 3.364,-4.319 -0.59,-0.93 -1.319,-2.008 -2.134,-3.078 -0.039,0.111 -0.078,0.223 -0.116,0.335 0.038,-0.114 0.07,-0.23 0.109,-0.344 -2.965,-3.893 -7.024,-7.615 -9.351,-3.219 -0.038,0.073 -0.151,0.117 -0.224,0.066 -1.884,-1.298 -3.188,-3.007 -3.634,-5.283 -0.029,-0.153 0.189,-0.229 0.237,-0.074 0.453,1.455 1.273,4.005 2.99,4.299 1.086,0.187 0.877,-0.279 1.85,-0.756 1.11,-0.544 2.385,-0.466 3.496,0 1.987,0.834 3.333,2.764 4.587,4.43 0.054,0.072 0.109,0.146 0.164,0.219 0.923,-2.561 2.219,-4.982 3.738,-7.073 0.129,-0.178 0.267,-0.344 0.399,-0.518 -1.688,2.234 -3.132,4.838 -4.133,7.596 0.755,1.007 1.511,2.038 2.211,3.104 0.089,-0.142 0.184,-0.281 0.271,-0.425 0.064,-0.106 0.234,-0.015 0.171,0.093 -0.103,0.177 -0.215,0.347 -0.321,0.522 0.678,1.048 1.301,2.128 1.809,3.252 0.576,1.275 1.068,2.734 1.076,4.174 0.08,-0.041 0.164,-0.076 0.246,-0.114 0.136,-3.694 1.215,-7.31 2.768,-10.755 1.949,-4.326 4.323,-9.415 9.511,-10.219 5.958,-0.923 12.072,1.716 17.257,4.422 -1.375,-0.647 -2.606,-1.161 -3.367,-1.503 -4.514,-2.033 -10.745,-4.189 -15.668,-2.372 -4.294,1.585 -6.598,7.08 -8.227,11.027 -1.25,3.03 -2.082,6.174 -2.208,9.372 0.523,-0.23 1.083,-0.389 1.691,-0.442 0.092,-0.007 0.095,0.132 0.006,0.142 -0.619,0.067 -1.182,0.25 -1.705,0.505 -0.049,1.654 0.088,3.322 0.462,4.996 0.008,0.033 -0.043,0.049 -0.05,0.016 -0.377,-1.669 -0.52,-3.332 -0.475,-4.979 -0.083,0.041 -0.167,0.077 -0.247,0.122 -0.01,0.345 -0.039,0.688 -0.113,1.026 -0.152,0.691 -0.441,1.293 -0.859,1.855 -0.327,0.441 -0.822,0.751 -1.135,1.189 -1.168,1.64 -0.107,3.069 0.83,4.32 1.876,2.506 4.318,4.727 6.432,7.041 0.478,0.523 0.951,1.051 1.428,1.576 2.191,1.64 4.512,3.149 6.89,4.587 2.627,-1.344 5.555,-1.965 8.514,-1.768 1.02,0.069 2.478,0.434 4.057,0.781 0.039,-0.086 0.078,-0.172 0.116,-0.258 0.032,-0.073 0.14,-0.014 0.109,0.059 -0.032,0.076 -0.064,0.151 -0.096,0.227 1.381,0.302 2.845,0.581 4.193,0.634 0.331,-0.663 0.664,-1.325 0.982,-1.997 0.033,-0.073 0.142,-0.013 0.108,0.059 -0.299,0.649 -0.605,1.296 -0.914,1.942 0.852,0.021 1.654,-0.048 2.348,-0.272 -0.805,0.368 -1.633,0.514 -2.471,0.527 -1.227,2.553 -2.536,5.072 -3.971,7.514 0.186,0.109 0.374,0.218 0.559,0.328 0.831,0.495 1.666,0.995 2.503,1.495 0.301,-0.612 0.603,-1.224 0.904,-1.836 0.648,-1.317 1.297,-2.634 1.945,-3.951 1.172,-2.381 2.344,-4.762 3.516,-7.144 -0.161,0.059 -0.417,0.351 -0.718,0.73 0.13,-0.451 0.209,-0.966 0.217,-1.568 10e-4,-0.089 0.112,-0.123 0.163,-0.05 0.149,0.215 0.304,0.431 0.457,0.647 l 0.254,-0.515 c 0.04,-0.082 0.164,-0.014 0.124,0.068 -0.094,0.194 -0.188,0.389 -0.282,0.583 0.108,0.151 0.212,0.301 0.321,0.453 -0.148,-0.162 -0.278,-0.278 -0.381,-0.329 -1.403,2.904 -2.806,5.807 -4.209,8.711 -0.698,1.443 -1.384,2.893 -2.093,4.331 0.931,0.556 1.867,1.109 2.809,1.654 2.043,-3.877 4.001,-7.75 5.675,-11.806 -0.187,-0.293 -0.387,-0.605 -0.593,-0.916 0.207,0.276 0.42,0.551 0.631,0.827 0.04,-0.098 0.082,-0.194 0.122,-0.291 0.034,-0.085 0.157,-0.016 0.124,0.067 -0.047,0.12 -0.096,0.239 -0.143,0.358 0.773,1.006 1.575,2.006 2.407,2.99 0.036,-0.178 0.08,-0.353 0.114,-0.533 0.017,-0.089 0.153,-0.057 0.138,0.033 -0.038,0.217 -0.089,0.43 -0.131,0.645 0.814,0.959 1.658,1.899 2.528,2.816 0.104,-0.204 0.21,-0.407 0.313,-0.61 0.047,-0.092 0.186,-0.016 0.14,0.076 -0.11,0.22 -0.218,0.441 -0.328,0.662 0.735,0.771 1.487,1.524 2.261,2.252 0.036,-0.062 0.07,-0.123 0.106,-0.184 0.047,-0.078 0.17,-0.011 0.125,0.068 -0.042,0.072 -0.08,0.144 -0.121,0.216 3.829,3.578 8.122,6.544 12.844,8.16 -4.757,-1.593 -9.152,-4.475 -12.964,-7.947 -1.445,2.556 -2.689,5.177 -3.856,7.857 0.443,0.18 0.889,0.353 1.337,0.52 0.135,0.03 0.268,0.065 0.403,0.095 0.092,0.02 0.185,0.039 0.277,0.059 1.078,-2.095 2.445,-4.059 3.86,-5.927 0.069,-0.091 0.196,0.032 0.129,0.122 -1.401,1.876 -2.577,3.853 -3.751,5.856 1.017,0.221 2.04,0.433 3.067,0.637 1.205,-1.688 2.102,-3.485 2.633,-5.568 0.028,-0.11 0.199,-0.071 0.172,0.04 -0.49,2 -1.317,3.916 -2.513,5.586 0.778,0.154 1.558,0.3 2.341,0.441 0.843,-1.511 1.915,-2.853 3.223,-4.019 0.034,-0.031 0.086,0.017 0.052,0.048 -1.277,1.165 -2.322,2.499 -3.143,3.995 1.453,0.26 2.911,0.494 4.373,0.697 0.524,-1.035 1.053,-2.069 1.574,-3.106 0.005,-0.01 0.021,-0.002 0.015,0.008 -0.501,1.035 -0.996,2.075 -1.495,3.111 0.87,0.121 1.74,0.228 2.611,0.324 2.301,0.021 4.629,-0.091 6.951,-0.282 -0.176,-0.971 0.154,-2.109 0.568,-2.955 1.823,-3.734 4.133,-6.756 5.188,-10.908 0.53,-2.086 0.802,-4.245 0.722,-6.398 -0.008,-0.208 -0.077,-1.467 -0.198,-2.445 0.486,2.949 0.335,5.925 -0.408,8.87 -0.46,1.83 -1.124,3.612 -1.928,5.317 -0.805,1.708 -2.818,3.848 -3.251,5.631 0.21,0.621 0.426,1.159 0.645,1.633 1.687,0.085 3.419,-0.015 5.194,-0.324 0.735,-1.177 1.248,-2.511 1.663,-3.824 0.827,-2.621 1.273,-5.368 1.302,-8.118 0.048,-4.467 -0.809,-9.216 -4.076,-12.382 -0.144,-0.049 -0.289,-0.092 -0.433,-0.142 -10.913,-3.781 -19.31,-10.188 -26.83,-18.816 -1.454,-1.667 -2.847,-3.371 -4.187,-5.107 m -47.362,-56.9 c -2.263,-0.808 -4.406,-1.777 -6.344,-3.133 0.834,0.977 1.726,1.896 2.7,2.745 0.678,0.591 1.504,1.437 2.329,1.808 0.03,0.015 0.066,0.028 0.1,0.04 0.836,-0.127 1.722,-0.151 2.622,-0.1 0.073,-0.193 0.014,-0.462 -0.258,-0.837 -0.02,-0.028 0.025,-0.054 0.046,-0.028 0.247,0.305 0.443,0.608 0.566,0.886 0.741,0.059 1.491,0.167 2.231,0.317 0.118,-0.048 0.236,-0.096 0.354,-0.138 -1.386,-0.57 -2.855,-1.027 -4.346,-1.56 m -12.048,6.087 c 2.716,-0.095 4.024,-1.498 4.934,-3.879 0.132,-0.345 0.621,-0.273 0.793,-0.022 0.215,0.31 0.589,0.821 0.997,1.292 0.143,-0.158 0.294,-0.306 0.453,-0.444 -3.053,-2.551 -5.594,-5.594 -7.46,-9.088 0.337,4.045 0.47,8.113 0.283,12.141 M 33.03,51.551 c -0.216,-0.179 -0.432,-0.355 -0.641,-0.545 -0.646,-0.589 -1.224,-1.222 -1.755,-1.884 1.187,3.417 2.774,6.649 5.284,9.348 0.78,-0.619 1.709,-1.032 2.735,-1.269 -2.071,-1.329 -4.081,-3.715 -5.243,-5.15 -0.132,-0.162 -0.253,-0.334 -0.38,-0.5 m -8.123,28.221 c -0.324,-1.983 -0.091,-3.99 0.577,-5.875 -0.042,-0.062 -0.084,-0.123 -0.125,-0.191 -0.095,-0.157 0.136,-0.297 0.241,-0.149 0.002,0.003 0.004,0.005 0.005,0.007 1.062,-2.758 3.051,-5.228 5.57,-6.93 2.012,-1.359 4.584,-2.516 7.306,-3.209 0.067,-0.039 0.133,-0.081 0.201,-0.119 0.06,-0.187 0.116,-0.377 0.165,-0.576 0.086,-0.344 0.666,-0.319 0.646,0.062 -0.001,0.029 -0.008,0.058 -0.01,0.088 1.058,-0.537 2.169,-0.995 3.346,-1.341 2.045,-0.6 4.178,-0.876 6.286,-0.817 -1.534,-0.701 -3.11,-1.181 -4.706,-1.331 -0.765,0.065 -1.544,0.234 -2.337,0.514 -2.129,0.755 -3.838,2.344 -6.07,2.894 -0.835,0.206 -2.026,-0.347 -1.943,-1.375 0.056,-0.698 -0.076,-1.423 -0.27,-2.12 -0.946,1.813 -2.267,2.886 -3.976,4.057 0.75,0.681 1.05,1.879 0.161,2.729 -3.268,3.122 -5.62,6.923 -7.035,11.031 0.656,0.949 1.295,1.835 1.968,2.651 m -0.773,0.08 c -0.551,-0.734 -1.003,-1.527 -1.318,-2.37 -0.484,1.473 -0.85,2.984 -1.093,4.516 0.546,-0.905 1.363,-1.665 2.411,-2.146 m 1.412,1.586 c 0.277,1.023 0.42,1.543 0.939,0.833 -0.322,-0.261 -0.634,-0.542 -0.939,-0.833 m 0.093,-7.326 c -0.356,1.085 -0.574,2.215 -0.625,3.351 -0.041,0.897 0.024,1.795 0.202,2.674 0.5,0.581 1.021,1.124 1.585,1.625 0.299,-1.629 0.708,-3.252 1.249,-4.86 0.262,-0.778 0.561,-1.542 0.887,-2.292 -1.089,0.699 -2.31,0.789 -3.298,-0.498 m 8.628,-6.792 c 2.034,-0.389 3.404,-1.548 4.174,-3.369 -1.544,0.942 -2.935,2.079 -4.174,3.369 m -3.845,4.349 c 0.359,-0.728 0.623,-1.428 0.76,-1.896 0.177,-0.61 0.318,-1.408 0.827,-1.856 0.523,-0.462 0.929,-0.438 1.526,-0.492 1.168,-1.273 2.479,-2.403 3.918,-3.362 -3.976,1.126 -7.841,3.247 -10.196,6.734 -0.619,0.916 -1.121,1.919 -1.497,2.968 1.532,1.921 3.05,0.614 4.106,-1.089 0.18,-0.339 0.363,-0.676 0.556,-1.007 m -3.276,12.606 c -0.084,0.116 -0.163,0.233 -0.246,0.348 -0.157,1.625 -0.207,3.26 -0.157,4.894 0.197,-0.219 0.347,-0.396 0.407,-0.479 0.046,-0.063 0.155,-0.006 0.109,0.06 -0.164,0.229 -0.335,0.443 -0.511,0.648 0.063,1.744 0.241,3.485 0.518,5.211 0.218,-0.978 0.487,-1.938 0.77,-2.85 0.574,-1.847 1.415,-3.753 1.786,-5.65 0.27,-1.383 0.333,-1.557 -0.785,-2.498 -0.521,-0.438 -1.245,-0.712 -1.806,-1.116 -0.036,-0.026 -0.07,-0.055 -0.106,-0.081 -0.07,0.468 -0.131,0.938 -0.182,1.409 0.037,-0.014 0.074,-0.027 0.112,-0.041 0.092,-0.032 0.138,0.081 0.091,0.145 m -5.779,1.6 c 0.161,0.535 0.522,0.868 1.222,0.667 0.63,-0.182 1.359,-1.003 1.95,-1.331 0.613,-0.34 1.236,-0.609 1.883,-0.853 0.037,-0.343 0.08,-0.686 0.128,-1.03 -0.015,0.051 -0.033,0.101 -0.048,0.151 -0.032,0.109 -0.187,0.149 -0.25,0.042 -0.454,-0.786 -0.796,-1.591 -1.039,-2.408 -0.288,-0.295 -0.561,-0.603 -0.819,-0.923 -0.021,0.024 -0.048,0.045 -0.082,0.06 -1.288,0.557 -2.301,1.612 -2.753,2.945 -0.103,0.889 -0.169,1.784 -0.192,2.68 m 6.271,-42.014 c 0.201,1.621 0.386,3.247 0.533,4.882 0.541,1.086 1.148,2.139 1.817,3.153 1.354,2.051 2.968,3.825 4.706,5.545 -0.593,-0.795 -1.163,-1.587 -1.663,-2.449 -1.134,-1.947 -1.942,-4.024 -2.623,-6.149 -1.165,-1.52 -2.056,-3.205 -2.77,-4.982 m -1.442,-0.226 c 0.158,0.56 0.332,1.116 0.523,1.666 0.292,0.838 0.634,1.656 1,2.463 -0.013,-0.156 -0.023,-0.311 -0.037,-0.467 -0.112,-1.209 0.009,-3.036 -0.455,-4.157 0.001,-0.141 -0.002,-0.262 -0.007,-0.375 -0.081,-0.228 -0.158,-0.457 -0.234,-0.688 -0.172,0.066 -0.434,0.582 -0.79,1.558 M 4.68,-6.395 c 3.795,1.449 7.211,3.81 10.053,6.703 6.501,6.613 9.242,14.899 10.251,23.937 0.682,6.106 0.794,14.346 4.133,20.134 l -0.06,-0.22 c 0.031,0.089 0.067,0.191 0.104,0.296 0.031,0.053 0.06,0.107 0.091,0.159 -10e-4,-0.004 -0.003,-0.009 -0.004,-0.012 -0.119,-0.311 -0.194,-0.507 -0.243,-0.632 -0.09,-0.332 -0.18,-0.665 -0.272,-0.997 -0.021,-0.077 0.094,-0.114 0.12,-0.037 0.302,0.903 0.647,1.782 1.028,2.641 0.887,1.257 1.958,2.366 3.269,3.266 3.242,2.222 7.288,2.874 10.709,4.783 1.708,0.954 3.361,1.942 4.815,3.159 3.163,0.387 6.293,2.343 8.973,4.284 5.353,3.877 10.709,8.313 14.211,13.998 6.675,10.839 9.708,23.666 16.211,34.591 7.009,11.774 17.221,21.676 30.605,25.69 14.876,4.462 30.293,2.099 45.54,2.761 3.926,0.171 12.028,-0.094 11.607,5.853 -0.166,2.359 -1.89,3.563 -3.817,4.6 -3.198,1.721 -6.499,3.276 -9.839,4.698 -12.795,5.448 -26.263,9.398 -40.024,11.453 -6.504,0.971 -12.964,1.36 -19.36,1.019 -0.027,0.054 -0.052,0.108 -0.079,0.162 -0.031,0.061 -0.123,0.01 -0.093,-0.051 0.018,-0.039 0.039,-0.078 0.058,-0.117 -7.329,-0.402 -14.572,-1.767 -21.691,-4.372 C 68.196,156.677 56.446,148.026 48.175,137.21 43.213,130.723 38.471,124.086 33.638,117.504 29.288,111.578 24.966,105.642 22.119,98.813 17.941,88.788 16.19,75.444 23.418,66.851 22.543,67.079 21.647,67.167 20.736,67.03 19.554,66.853 19.313,65.616 19.77,64.756 l -0.061,-0.015 c 0.725,-1.107 1.853,-1.87 3.105,-2.387 1.218,-3.032 0.242,-9.55 0.035,-11.182 C 22.314,46.961 22.01,42.817 21.799,38.58 21.6,34.586 21.781,30.632 21.702,26.644 21.631,23.078 20.738,19.337 19.641,15.892 18.723,13.772 17.693,11.689 16.522,9.649 15.673,8.171 14.707,6.752 13.633,5.419 13.146,5.006 12.63,4.63 12.078,4.311 8.161,2.052 5.103,5.428 1.181,4.585 -3.257,3.631 -4.704,-1.26 -2.739,-4.551 c -0.002,0 -0.002,0 -0.004,-10e-4 -0.243,-0.095 -0.454,-0.447 -0.438,-0.705 0.232,-3.764 5.82,-1.917 7.861,-1.138"
           style="fill:#d4ab00;fill-opacity:1;fill-rule:nonzero;stroke:none"
           id="path1143" />
      </g>
      <g
         id="g1145"
         transform="matrix(1.3333333,0,0,-1.3333333,45.568974,417.82903)"
         style="fill:#d4ab00;fill-opacity:1">
        <path
           d="M 0,0 C 0.097,-0.113 0.192,-0.229 0.291,-0.34 0.191,-0.229 0.098,-0.113 0,0"
           style="fill:#d4ab00;fill-opacity:1;fill-rule:nonzero;stroke:none"
           id="path1147" />
      </g>
      <g
         id="g1149"
         transform="matrix(1.3333333,0,0,-1.3333333,45.956974,418.28276)"
         style="fill:#d4ab00;fill-opacity:1">
        <path
           d="M 0,0 C 0.385,-0.433 0.781,-0.858 1.193,-1.27 0.783,-0.862 0.387,-0.436 0,0"
           style="fill:#d4ab00;fill-opacity:1;fill-rule:nonzero;stroke:none"
           id="path1151" />
      </g>
      <g
         id="g1153"
         transform="matrix(1.3333333,0,0,-1.3333333,44.752574,416.8745)"
         style="fill:#d4ab00;fill-opacity:1">
        <path
           d="M 0,0 C 0.197,-0.243 0.406,-0.478 0.612,-0.716 0.276,-0.327 -0.056,0.067 -0.375,0.477 -0.251,0.317 -0.127,0.156 0,0"
           style="fill:#d4ab00;fill-opacity:1;fill-rule:nonzero;stroke:none"
           id="path1155" />
      </g>
      <g
         id="g1157"
         transform="matrix(1.3333333,0,0,-1.3333333,49.99804,422.22543)"
         style="fill:#d4ab00;fill-opacity:1">
        <path
           d="M 0,0 C 4.826,-4.118 10.977,-6.834 17.294,-7.026 10.846,-6.455 4.839,-4.072 0,0"
           style="fill:#d4ab00;fill-opacity:1;fill-rule:nonzero;stroke:none"
           id="path1159" />
      </g>
      <g
         id="g1161"
         transform="matrix(1.3333333,0,0,-1.3333333,37.110707,400.98916)"
         style="fill:#d4ab00;fill-opacity:1">
        <path
           d="M 0,0 C 0.019,-0.091 0.036,-0.182 0.056,-0.272 0.036,-0.182 0.019,-0.091 0,0"
           style="fill:#d4ab00;fill-opacity:1;fill-rule:nonzero;stroke:none"
           id="path1163" />
      </g>
      <g
         id="g1165"
         transform="matrix(1.3333333,0,0,-1.3333333,37.578041,402.93703)"
         style="fill:#d4ab00;fill-opacity:1">
        <path
           d="M 0,0 C 0.068,-0.254 0.142,-0.506 0.218,-0.759 0.141,-0.507 0.069,-0.254 0,0"
           style="fill:#d4ab00;fill-opacity:1;fill-rule:nonzero;stroke:none"
           id="path1167" />
      </g>
      <g
         id="g1169"
         transform="matrix(1.3333333,0,0,-1.3333333,37.110707,400.98916)"
         style="fill:#d4ab00;fill-opacity:1">
        <path
           d="M 0,0 C -0.1,0.487 -0.19,0.975 -0.259,1.465 -0.189,0.975 -0.101,0.487 0,0"
           style="fill:#d4ab00;fill-opacity:1;fill-rule:nonzero;stroke:none"
           id="path1171" />
      </g>
      <g
         id="g1173"
         transform="matrix(1.3333333,0,0,-1.3333333,38.164707,404.88036)"
         style="fill:#d4ab00;fill-opacity:1">
        <path
           d="M 0,0 C -0.077,0.232 -0.151,0.465 -0.222,0.699 -0.151,0.465 -0.078,0.232 0,0"
           style="fill:#d4ab00;fill-opacity:1;fill-rule:nonzero;stroke:none"
           id="path1175" />
      </g>
      <g
         id="g1177"
         transform="matrix(1.3333333,0,0,-1.3333333,73.05724,431.59329)"
         style="fill:#d4ab00;fill-opacity:1">
        <path
           d="M 0,0 C 0.305,-0.026 0.609,-0.061 0.916,-0.079 0.953,-0.082 0.955,-0.022 0.918,-0.022 0.612,-0.025 0.306,-0.009 0,0"
           style="fill:#d4ab00;fill-opacity:1;fill-rule:nonzero;stroke:none"
           id="path1179" />
      </g>
      <g
         id="g1181"
         transform="matrix(1.3333333,0,0,-1.3333333,85.133373,413.68316)"
         style="fill:#d4ab00;fill-opacity:1">
        <path
           d="M 0,0 C 0.788,0.371 1.622,0.787 2.445,1.24 1.691,0.856 1.005,0.528 0.5,0.261 0.335,0.174 0.167,0.087 0,0"
           style="fill:#d4ab00;fill-opacity:1;fill-rule:nonzero;stroke:none"
           id="path1183" />
      </g>
      <g
         id="g1185"
         transform="matrix(1.3333333,0,0,-1.3333333,139.18297,368.07903)"
         style="fill:#d4ab00;fill-opacity:1">
        <path
           d="M 0,0 C -0.056,-0.343 -0.118,-0.686 -0.192,-1.029 -0.119,-0.825 -0.054,-0.44 0,0"
           style="fill:#d4ab00;fill-opacity:1;fill-rule:nonzero;stroke:none"
           id="path1187" />
      </g>
      <g
         id="g1189"
         transform="matrix(1.3333333,0,0,-1.3333333,138.7819,369.65783)"
         style="fill:#d4ab00;fill-opacity:1">
        <path
           d="m 0,0 c -0.761,-0.111 -0.861,1.533 -1.049,2.106 -1.314,3.989 -3.069,7.795 -5.161,11.434 -0.028,0.049 -0.106,0.007 -0.078,-0.043 2.621,-4.558 4.633,-9.353 6.044,-14.42 0.013,-0.045 0.082,-0.053 0.096,-0.004 0.098,0.361 0.178,0.721 0.256,1.082 C 0.074,0.062 0.038,0.005 0,0"
           style="fill:#d4ab00;fill-opacity:1;fill-rule:nonzero;stroke:none"
           id="path1191" />
      </g>
      <g
         id="g1193"
         transform="matrix(1.3333333,0,0,-1.3333333,92.291639,366.28663)"
         style="fill:#d4ab00;fill-opacity:1">
        <path
           d="M 0,0 C -0.369,1.274 -1.189,1.988 -2.267,2.337 -2.169,2.292 -2.072,2.249 -1.975,2.198 -1.404,1.895 -0.61,0.767 0,0"
           style="fill:#d4ab00;fill-opacity:1;fill-rule:nonzero;stroke:none"
           id="path1195" />
      </g>
      <g
         id="g1197"
         transform="matrix(1.3333333,0,0,-1.3333333,93.964173,366.79583)"
         style="fill:#d4ab00;fill-opacity:1">
        <path
           d="M 0,0 C 0.343,0.376 0.781,1.001 1.208,1.646 0.797,1.097 0.393,0.548 0,0"
           style="fill:#d4ab00;fill-opacity:1;fill-rule:nonzero;stroke:none"
           id="path1199" />
      </g>
      <g
         id="g1201"
         transform="matrix(1.3333333,0,0,-1.3333333,73.826173,379.54903)"
         style="fill:#d4ab00;fill-opacity:1">
        <path
           d="M 0,0 C -0.749,1.193 -1.492,2.395 -2.275,3.565 -1.693,3.7 -1.088,3.788 -0.711,3.658 1.008,3.067 0.349,1.115 0,0 m -0.94,-2.507 c -0.909,1.645 -1.783,3.322 -2.768,4.92 -0.054,0.087 -0.188,0.015 -0.14,-0.076 0.885,-1.678 1.899,-3.299 2.864,-4.934 -0.302,-0.655 -0.636,-1.292 -1.005,-1.908 -1.153,1.889 -2.241,3.893 -3.577,5.645 -0.062,0.081 -0.187,-0.017 -0.142,-0.104 1.03,-1.968 2.405,-3.815 3.638,-5.675 -0.429,-0.701 -0.9,-1.377 -1.41,-2.027 -0.002,0.005 10e-4,0.008 -0.002,0.013 -1.147,1.865 -2.242,3.781 -3.465,5.598 -0.074,0.111 -0.257,0.018 -0.186,-0.102 1.106,-1.892 2.358,-3.711 3.542,-5.555 0.013,-0.02 0.031,-0.027 0.05,-0.027 -0.037,-0.046 -0.075,-0.091 -0.112,-0.136 -1.089,0.522 -2.378,0.135 -3.469,0.757 -2.114,1.206 -2.09,3.844 -0.454,5.418 0.1,0.096 -0.04,0.238 -0.146,0.154 -0.284,-0.227 -0.521,-0.496 -0.721,-0.787 -2.016,2.156 3.846,4.266 4.905,4.556 0.255,0.07 0.625,0.184 1.025,0.286 C -1.725,2.261 -0.884,1.04 -0.058,-0.184 -0.304,-0.983 -0.6,-1.757 -0.94,-2.507 m 0.844,6.372 C -0.751,4.128 -1.614,4.124 -2.538,3.954 -2.644,4.108 -2.747,4.267 -2.854,4.42 -2.925,4.52 -3.092,4.437 -3.025,4.328 -2.94,4.186 -2.849,4.047 -2.762,3.906 -4.702,3.498 -6.853,2.409 -7.897,1.537 -8.713,0.854 -9.902,-0.772 -8.544,-1.472 c -0.635,-1.021 -0.741,-2.323 -0.119,-3.44 0.39,-0.699 1.036,-1.263 1.775,-1.565 1.009,-0.412 2.141,-0.106 3.119,-0.54 -0.386,-0.471 -0.787,-0.933 -1.214,-1.375 -0.071,-0.073 0.037,-0.189 0.11,-0.115 0.445,0.451 0.865,0.922 1.269,1.405 0.049,-0.027 0.1,-0.045 0.148,-0.077 0.096,-0.062 0.188,0.087 0.094,0.15 -0.04,0.028 -0.083,0.042 -0.124,0.066 0.559,0.68 1.072,1.394 1.541,2.135 0.034,-0.051 0.069,-0.102 0.102,-0.154 0.044,-0.066 0.152,-0.009 0.109,0.059 -0.045,0.073 -0.089,0.147 -0.134,0.22 0.374,0.602 0.717,1.224 1.027,1.865 0.007,-0.012 0.014,-0.024 0.021,-0.036 0.023,-0.039 0.085,-0.006 0.063,0.034 -0.016,0.027 -0.031,0.055 -0.046,0.083 0.247,0.517 0.478,1.042 0.68,1.584 0.072,0.192 0.167,0.428 0.268,0.687 0.076,-0.113 0.153,-0.225 0.229,-0.339 0.043,-0.066 0.152,-0.008 0.108,0.059 -0.092,0.145 -0.183,0.292 -0.275,0.438 0.558,1.447 1.239,3.572 -0.303,4.193"
           style="fill:#d4ab00;fill-opacity:1;fill-rule:nonzero;stroke:none"
           id="path1203" />
      </g>
      <g
         id="g1205"
         transform="matrix(1.3333333,0,0,-1.3333333,62.65364,384.52623)"
         style="fill:#d4ab00;fill-opacity:1">
        <path
           d="M 0,0 C 0.452,-0.654 0.905,-1.309 1.357,-1.963 1.402,-2.028 1.511,-1.97 1.466,-1.904 L 0.125,0.067 C 0.073,0.142 -0.052,0.075 0,0"
           style="fill:#d4ab00;fill-opacity:1;fill-rule:nonzero;stroke:none"
           id="path1207" />
      </g>
    </g>
  </g>
</svg>
