<?xml version="1.0" encoding="UTF-8" standalone="no"?>
<svg
   xmlns:dc="http://purl.org/dc/elements/1.1/"
   xmlns:cc="http://creativecommons.org/ns#"
   xmlns:rdf="http://www.w3.org/1999/02/22-rdf-syntax-ns#"
   xmlns:svg="http://www.w3.org/2000/svg"
   xmlns="http://www.w3.org/2000/svg"
   xmlns:sodipodi="http://sodipodi.sourceforge.net/DTD/sodipodi-0.dtd"
   xmlns:inkscape="http://www.inkscape.org/namespaces/inkscape"
   width="49.240208mm"
   height="54.077473mm"
   viewBox="0 0 49.240208 54.077473"
   version="1.1"
   id="svg5869"
   inkscape:version="1.0.1 (3bc2e813f5, 2020-09-07)"
   sodipodi:docname="ajo.svg">
  <defs
     id="defs5863" />
  <sodipodi:namedview
     id="base"
     pagecolor="#ffffff"
     bordercolor="#666666"
     borderopacity="1.0"
     inkscape:pageopacity="0.0"
     inkscape:pageshadow="2"
     inkscape:zoom="0.4609029"
     inkscape:cx="93.052358"
     inkscape:cy="102.19364"
     inkscape:document-units="mm"
     inkscape:current-layer="layer1"
     inkscape:document-rotation="0"
     showgrid="false"
     inkscape:window-width="1920"
     inkscape:window-height="1027"
     inkscape:window-x="-8"
     inkscape:window-y="-8"
     inkscape:window-maximized="1" />
  <metadata
     id="metadata5866">
    <rdf:RDF>
      <cc:Work
         rdf:about="">
        <dc:format>image/svg+xml</dc:format>
        <dc:type
           rdf:resource="http://purl.org/dc/dcmitype/StillImage" />
        <dc:title></dc:title>
      </cc:Work>
    </rdf:RDF>
  </metadata>
  <g
     inkscape:label="Layer 1"
     inkscape:groupmode="layer"
     id="layer1"
     transform="translate(-81.21323,-121.12793)">
    <g
       id="g1113"
       transform="matrix(0.35277777,0,0,-0.35277777,123.94047,170.10116)"
       style="fill:#d4aa00;fill-opacity:1">
      <path
         d="M 0,0 C -0.246,0.077 -0.498,0.731 -0.664,1.019 -0.836,1.315 -0.99,1.622 -1.154,1.925 -0.562,2.357 0.018,2.808 0.577,3.278 0.854,2.793 1.13,2.305 1.424,1.831 1.502,1.704 1.676,1.822 1.615,1.95 1.369,2.473 1.103,2.987 0.836,3.503 1.479,4.057 2.097,4.638 2.688,5.25 2.805,5.034 2.917,4.816 3.035,4.602 3.131,4.428 3.433,4.561 3.355,4.748 3.241,5.027 3.125,5.306 3.009,5.584 3.532,6.144 4.03,6.731 4.505,7.345 4.659,7.097 4.813,6.848 4.975,6.603 5.081,6.44 5.37,6.554 5.295,6.749 5.16,7.1 5.02,7.467 4.878,7.839 5.267,8.368 5.636,8.918 5.986,9.488 6.072,9.371 6.3,9.375 6.354,9.519 c 0.137,0.357 0.212,0.705 0.259,1.049 0.013,0.022 0.026,0.043 0.038,0.066 0.35,0.649 0.678,1.319 0.995,1.999 C 7.846,12.24 8.052,11.85 8.272,11.461 8.343,11.336 8.469,11.31 8.586,11.339 7.456,9.294 6.176,7.32 4.743,5.442 3.277,3.521 1.703,1.684 0,0 m -2.835,-2.538 c -0.174,0.39 -0.351,0.779 -0.535,1.165 0.397,0.697 0.766,1.413 1.118,2.142 0.298,-0.677 0.619,-1.339 0.976,-1.971 -0.508,-0.46 -1.028,-0.907 -1.559,-1.336 M -21.46,-9.741 c 0.81,0.322 1.425,0.83 1.93,1.563 0.066,0.098 -0.095,0.215 -0.169,0.122 -0.401,-0.494 -0.84,-0.834 -1.36,-1.087 0.675,0.813 1.352,1.625 2.027,2.44 1.19,0.386 2.362,0.821 3.507,1.282 l 0.237,0.097 c -0.733,-0.902 -1.466,-1.803 -2.2,-2.705 -0.146,-0.18 0.056,-0.474 0.27,-0.329 1.14,0.764 2.289,1.505 3.465,2.21 -0.311,-0.738 -0.625,-1.474 -0.939,-2.21 -2.219,-0.558 -4.495,-1.022 -6.768,-1.383 m -3.982,-0.528 c 0.584,0.814 1.172,1.616 1.77,2.407 1.336,0.223 2.658,0.55 3.959,0.945 -0.725,-0.859 -1.449,-1.72 -2.176,-2.575 -0.085,-0.1 -0.054,-0.244 0.034,-0.313 -1.062,-0.163 -2.122,-0.304 -3.174,-0.42 -0.137,-0.015 -0.276,-0.029 -0.413,-0.044 m -3.546,-0.268 c 1.327,0.751 2.591,1.576 3.789,2.469 0.329,0.034 0.658,0.074 0.986,0.122 -0.554,-0.752 -1.083,-1.522 -1.578,-2.312 -0.011,-0.016 -0.016,-0.033 -0.02,-0.049 -1.04,-0.103 -2.105,-0.185 -3.177,-0.23 m -7.626,0.546 c -0.263,0.182 -0.515,0.382 -0.742,0.617 0.267,0.019 0.539,-0.037 0.815,-0.177 0.681,-0.281 1.245,0.685 0.559,1.03 -0.027,0.012 -0.051,0.021 -0.077,0.034 0.653,0.44 1.275,0.679 1.889,0.796 -0.284,-0.394 -0.562,-0.79 -0.827,-1.195 -0.041,-0.061 0.055,-0.127 0.103,-0.075 0.416,0.444 0.826,0.892 1.233,1.34 0.796,0.068 1.59,-0.044 2.43,-0.185 -0.153,-0.164 -0.31,-0.325 -0.461,-0.49 -0.1,-0.107 0.06,-0.258 0.164,-0.156 0.198,0.197 0.39,0.4 0.588,0.598 0.369,-0.063 0.75,-0.126 1.143,-0.179 -0.088,-0.211 -0.14,-0.419 -0.138,-0.618 10e-4,-0.064 0.048,-0.105 0.103,-0.123 0.077,-0.028 0.153,-0.055 0.23,-0.082 0.047,-0.017 0.096,0.016 0.12,0.053 0.037,0.056 0.073,0.112 0.109,0.167 0.057,0.086 -0.074,0.173 -0.143,0.104 0.132,0.134 0.262,0.277 0.392,0.422 0.574,-0.053 1.149,-0.078 1.724,-0.078 -0.283,-0.36 -0.561,-0.723 -0.832,-1.09 -0.09,-0.122 -0.002,-0.369 0.18,-0.29 0.324,0.14 0.474,0.209 0.791,0.361 0.12,0.059 0.026,0.235 -0.093,0.204 -0.592,-0.155 -0.068,0.371 0.38,0.823 0.517,0.011 1.032,0.04 1.546,0.088 -1.204,-0.892 -2.468,-1.712 -3.789,-2.454 -2.499,-0.094 -5.033,0.022 -7.397,0.555 m 3.877,6.355 c 2.369,2.501 4.751,4.916 7.425,7.109 0.303,-0.339 0.657,-0.633 1.051,-0.884 -3.25,-2.857 -6.622,-5.97 -9.298,-9.458 -0.449,0.057 -0.901,0.094 -1.352,-0.015 -0.183,-0.044 -0.453,-0.187 -0.753,-0.359 1.081,1.079 2.061,2.281 2.927,3.607 m -18.252,-6.099 c 0.965,0.342 1.927,0.759 2.872,1.187 -0.006,-0.032 -0.012,-0.063 -0.019,-0.095 -0.005,-0.026 0.011,-0.051 0.036,-0.058 0.057,-0.014 0.114,-0.028 0.169,-0.041 0.027,-0.007 0.051,0.011 0.058,0.035 0.029,0.096 0.037,0.19 0.03,0.284 0.771,0.352 1.527,0.703 2.261,1.022 0.158,-0.319 0.26,-0.529 0.254,-0.528 -0.086,0.017 -0.145,-0.111 -0.058,-0.149 0.155,-0.068 0.309,-0.135 0.463,-0.203 0.131,-0.057 0.247,0.069 0.185,0.196 -0.144,0.289 -0.303,0.566 -0.453,0.852 0.141,0.059 0.283,0.119 0.422,0.174 0.566,0.228 1.155,0.447 1.75,0.666 0.174,-0.322 0.347,-0.646 0.52,-0.971 -0.281,-0.155 -0.563,-0.312 -0.857,-0.45 -2.442,-1.15 -5.018,-1.741 -7.633,-1.921 M -82.091,2.416 c -0.548,0.705 -1.04,1.462 -1.493,2.254 0.644,-0.641 1.304,-1.265 1.98,-1.868 5.433,-4.836 12.033,-7.958 18.721,-10.659 0.612,-0.247 1.266,-0.544 1.942,-0.848 -0.842,0.214 -1.675,0.452 -2.497,0.712 -6.282,1.989 -14.469,5.027 -18.653,10.409 m -24.645,6.506 c 0.083,0.19 0.173,0.377 0.259,0.565 0.484,-0.291 0.977,-0.563 1.478,-0.82 0,-0.002 -0.001,-0.003 -0.001,-0.005 -0.02,-0.081 0.074,-0.105 0.121,-0.057 0.973,-0.492 1.974,-0.918 2.995,-1.271 -0.018,-0.086 -0.044,-0.171 -0.062,-0.258 -0.01,-0.049 0.019,-0.091 0.065,-0.104 0.335,-0.104 0.494,-0.069 0.741,0.122 0.512,-0.157 1.027,-0.299 1.546,-0.417 0.017,-0.1 0.04,-0.197 0.072,-0.284 -2.558,0.429 -4.984,1.295 -7.214,2.529 m -12.78,17.538 c -1.63,7.231 -1.04,14.692 1.306,21.59 -0.226,-1.877 -0.363,-3.831 -0.397,-5.813 -0.816,-5.846 -0.538,-11.871 0.726,-17.565 1.027,-4.627 3.755,-8.937 7.417,-12.232 -0.062,-0.172 -0.127,-0.345 -0.183,-0.522 -0.025,-0.077 0.104,-0.127 0.134,-0.051 0.062,0.153 0.126,0.302 0.189,0.452 0.585,-0.519 1.194,-1.01 1.823,-1.475 -0.096,-0.217 -0.187,-0.437 -0.274,-0.658 -5.287,3.659 -9.207,9.474 -10.741,16.274 m 7.903,33.996 c -0.809,-1.187 -1.568,-2.402 -2.256,-3.649 -2.209,-3.996 -3.672,-8.371 -4.472,-12.881 0.036,1.582 0.139,3.134 0.303,4.63 1.506,4.255 3.685,8.283 6.425,11.9 m 64.24,36.079 c 0.395,0.392 0.796,0.789 1.194,1.184 -2.477,-3.476 -5.553,-6.482 -9.697,-8.618 -0.699,-0.361 -1.409,-0.698 -2.127,-1.016 3.83,2.429 7.423,5.27 10.63,8.45 m 22.169,40.947 c 2.085,-0.033 4.176,-0.75 5.359,-2.439 -0.02,-0.01 -0.042,-0.019 -0.062,-0.027 -3.48,0.093 -6.894,0.611 -10.252,1.534 1.598,0.656 4.456,0.941 4.955,0.932 M -5.699,74.008 c -1.256,1.128 -2.525,2.245 -3.769,3.387 -1.373,2.224 -2.698,4.479 -3.983,6.765 1.471,-1.958 2.942,-3.916 4.417,-5.868 1.093,-1.446 2.206,-2.871 3.335,-4.284 M 13.767,43.557 c 1.525,-8.052 0.934,-16.289 -1.572,-23.932 -0.114,-0.283 -0.227,-0.566 -0.34,-0.851 -0.399,-0.027 -0.8,-0.061 -1.203,-0.106 3.959,7.045 3.246,15.146 1.278,22.719 -0.371,2.316 -1.001,4.509 -1.835,6.607 C 8.797,52.409 7.269,56.845 5.158,60.895 9.297,55.752 12.52,50.136 13.767,43.557 M 9.017,15.906 c 0.081,0.22 0.16,0.441 0.239,0.662 0.327,-0.664 0.646,-1.333 0.952,-2.013 C 9.9,13.883 9.577,13.218 9.238,12.56 9.466,13.643 9.151,14.774 9.017,15.906 M 8.62,14.883 C 8.675,14.54 8.715,14.186 8.711,13.805 8.694,12.284 8.329,12.59 7.952,13.303 c 0.232,0.519 0.454,1.046 0.668,1.58 M 7.344,14.692 c -0.298,0.762 -0.532,1.537 -0.732,2.323 0.577,0.162 1.161,0.306 1.747,0.434 C 8.276,16.776 8.382,16.162 8.504,15.531 8.276,14.902 8.034,14.279 7.775,13.663 7.615,14.01 7.462,14.39 7.344,14.692 m -1.22,0.092 c -0.052,0.312 -0.347,1.7 -0.111,2.054 0.008,0.003 0.015,0.006 0.023,0.008 -0.018,-0.318 0.566,-1.79 0.616,-1.933 0.24,-0.67 0.519,-1.31 0.825,-1.939 C 7.222,12.399 6.951,11.833 6.664,11.276 6.666,12.428 6.33,13.552 6.124,14.784 M 6.118,10.262 c -0.102,0.148 -0.259,0.559 -0.455,0.809 -1,1.271 -1.696,3.224 -2.454,4.686 0.74,0.356 1.52,0.666 2.325,0.931 C 5.383,15.594 5.649,14.522 5.898,13.351 6.03,12.73 6.22,12.089 6.243,11.454 6.26,11 6.262,10.699 6.253,10.503 6.208,10.422 6.164,10.342 6.118,10.262 M 3.335,14.151 C 3.327,16.102 3.851,13.806 4.203,13.083 4.743,11.977 5.291,10.875 5.836,9.772 5.502,9.205 5.15,8.649 4.777,8.108 4.052,10.042 3.343,12.194 3.335,14.151 M 2.188,7.266 C 2.237,7.112 2.284,6.958 2.334,6.805 1.859,7.73 1.37,8.649 0.879,9.566 1.138,10.672 1.36,11.782 1.552,12.896 2.407,11.068 3.317,9.272 4.377,7.548 3.926,6.93 3.448,6.329 2.938,5.754 2.723,6.269 2.506,6.782 2.296,7.3 2.269,7.366 2.165,7.336 2.188,7.266 M -0.275,5.569 C 0.114,6.699 0.455,7.844 0.742,9.002 1.347,7.79 1.968,6.587 2.609,5.396 2.521,5.302 2.437,5.205 2.347,5.111 1.846,4.587 1.317,4.097 0.773,3.628 0.435,4.279 0.084,4.927 -0.275,5.569 M -1.468,2.506 c 0.073,0.174 0.152,0.345 0.223,0.52 -0.073,-0.171 -0.154,-0.338 -0.23,-0.509 -0.067,0.129 -0.142,0.254 -0.208,0.385 -0.391,0.781 -0.749,1.576 -1.08,2.381 0.014,0.557 -0.003,1.15 0.011,1.795 0.016,0.74 0.106,1.425 0.248,2.068 C -1.83,7.819 -1.156,6.484 -0.458,5.162 -0.704,4.441 -0.962,3.728 -1.245,3.026 -0.953,3.715 -0.687,4.414 -0.435,5.119 -0.129,4.541 0.185,3.968 0.506,3.4 -0.055,2.932 -0.636,2.489 -1.232,2.069 -1.311,2.215 -1.393,2.358 -1.468,2.506 M -1.832,1.655 c 0.096,0.213 0.185,0.431 0.276,0.647 C -1.498,2.189 -1.442,2.076 -1.384,1.964 -1.532,1.861 -1.681,1.757 -1.832,1.655 M -2.107,1.249 c 0.022,0.016 0.045,0.032 0.068,0.048 C -2.054,1.266 -2.07,1.234 -2.086,1.202 -2.094,1.218 -2.101,1.233 -2.107,1.249 m -1.94,-1.24 c 0.565,0.34 1.12,0.691 1.665,1.055 0.034,-0.08 0.07,-0.16 0.106,-0.24 -0.36,-0.713 -0.737,-1.416 -1.141,-2.099 -0.207,0.428 -0.415,0.858 -0.63,1.284 m -0.798,-3.488 c -0.38,0.796 -0.757,1.591 -1.118,2.394 0.567,0.307 1.126,0.623 1.677,0.95 0.218,-0.49 0.442,-0.977 0.67,-1.462 -0.39,-0.641 -0.799,-1.269 -1.229,-1.882 m -0.458,-0.877 c 0.116,0.16 0.239,0.316 0.352,0.478 0.032,-0.056 0.065,-0.11 0.097,-0.167 -0.15,-0.103 -0.297,-0.211 -0.449,-0.311 m -13.021,2.935 c 0.435,0.542 0.852,1.098 1.26,1.661 -0.002,-0.726 -0.705,-1.569 -1.187,-2.21 -0.094,-0.125 -0.029,-0.304 0.139,-0.304 0.766,-0.002 1.457,-0.16 2.101,-0.41 -1.173,-1.277 -2.308,-2.589 -3.43,-3.914 -1.316,-0.408 -2.65,-0.738 -4.002,-0.964 1.597,2.096 3.269,4.112 5.143,6.01 0.048,0.048 0.021,0.105 -0.024,0.131 m -4.409,-4.641 c -0.43,-0.519 -0.849,-1.046 -1.253,-1.584 -0.266,-0.039 -0.532,-0.077 -0.799,-0.107 0.706,0.542 1.391,1.105 2.052,1.691 m 0.784,7.655 c 0.37,-0.107 0.745,-0.194 1.124,-0.263 -2.098,-1.967 -4.13,-3.999 -6.071,-6.12 -0.613,-0.669 -1.991,-1.739 -2.66,-2.785 -0.313,0.054 -0.626,0.113 -0.939,0.174 2.903,2.942 5.711,5.987 8.546,8.994 m -1.178,0.405 c 0.343,-0.144 0.697,-0.265 1.057,-0.372 -2.919,-2.976 -5.878,-5.924 -8.726,-8.969 -0.738,0.145 -1.483,0.289 -2.252,0.402 2.899,3.22 5.68,6.498 8.903,9.455 0.32,-0.195 0.662,-0.366 1.018,-0.516 M -3.07,3.386 C -2.884,3.878 -2.807,4.393 -2.776,4.94 -2.409,4.05 -2.001,3.177 -1.563,2.318 -1.667,2.088 -1.767,1.855 -1.875,1.628 -1.979,1.559 -2.084,1.491 -2.189,1.423 -2.494,2.071 -2.788,2.726 -3.07,3.386 M -4.733,1.367 c 0.111,0.082 0.212,0.159 0.296,0.228 0.61,0.494 0.998,0.99 1.246,1.507 C -2.96,2.482 -2.72,1.86 -2.461,1.246 -3.017,0.892 -3.583,0.554 -4.157,0.228 -4.35,0.607 -4.541,0.988 -4.733,1.367 M -6.546,0.284 c 0.619,0.293 1.203,0.653 1.648,0.966 0.169,-0.384 0.338,-0.768 0.509,-1.151 -0.56,-0.314 -1.126,-0.616 -1.697,-0.909 -0.16,0.361 -0.312,0.727 -0.46,1.094 m -1.911,-0.7 c -0.043,0.06 -0.084,0.12 -0.127,0.179 0.083,-0.007 0.168,-0.013 0.256,-0.009 -0.041,-0.051 -0.086,-0.114 -0.129,-0.17 m 0.798,-1.178 c -0.126,0.203 -0.252,0.407 -0.387,0.605 0.104,0.27 0.169,0.541 0.177,0.805 0.385,0.078 0.792,0.228 1.192,0.409 0.124,-0.379 0.256,-0.758 0.395,-1.136 -0.457,-0.233 -0.916,-0.459 -1.377,-0.683 m 1.933,-3.03 c 0.005,0.05 0.012,0.098 0.005,0.156 -0.008,0.068 -0.116,0.089 -0.128,0.012 -0.105,-0.746 -0.531,0.401 -0.512,0.355 -0.071,0.172 -0.145,0.342 -0.22,0.511 -0.176,0.39 -0.365,0.773 -0.568,1.149 -0.105,0.192 -0.226,0.374 -0.338,0.561 0.441,0.222 0.878,0.449 1.312,0.682 0.331,-0.872 0.708,-1.729 1.151,-2.541 -0.205,-0.286 -0.419,-0.564 -0.633,-0.842 -0.023,-0.015 -0.046,-0.028 -0.069,-0.043 m -3.479,1.912 0.05,0.024 c 0.192,-0.423 0.387,-0.845 0.581,-1.267 0.282,-0.614 0.559,-1.233 0.846,-1.847 -0.296,-0.157 -0.6,-0.303 -0.904,-0.451 -1.059,0.252 -2.166,0.899 -3.238,1.609 0.801,0.346 1.843,1.068 2.665,1.932 m 0.538,0.635 c 0.22,0.293 0.405,0.593 0.542,0.895 0.103,-0.163 0.193,-0.332 0.29,-0.497 -0.277,-0.133 -0.554,-0.266 -0.832,-0.398 m 1.17,-3.595 c -0.462,1.035 -0.966,2.059 -1.462,3.076 0.433,0.204 0.863,0.413 1.291,0.626 0.535,-0.952 0.992,-1.946 1.347,-2.991 0.003,-0.009 0.013,-0.017 0.018,-0.025 -0.391,-0.239 -0.79,-0.467 -1.194,-0.686 m -4.866,1.556 c -0.013,-0.055 -0.025,-0.113 -0.036,-0.171 -0.047,0.032 -0.094,0.064 -0.14,0.096 0.059,0.025 0.117,0.049 0.176,0.075 M 1.878,15.031 c 0.334,0.206 0.678,0.403 1.035,0.583 0.123,-1.215 0.287,-2.419 0.53,-3.617 0.078,-0.376 0.539,-3.014 0.941,-4.089 -0.439,0.81 -1.234,2.437 -1.395,2.739 -0.474,0.888 -0.923,1.79 -1.362,2.696 0.092,0.561 0.176,1.124 0.251,1.688 M 1.074,14.496 c 0.232,0.169 0.472,0.328 0.718,0.483 C 1.725,14.471 1.65,13.965 1.57,13.459 1.403,13.804 1.239,14.149 1.074,14.496 M -0.81,12.71 c 0.492,0.612 1.063,1.154 1.694,1.638 0.203,-0.449 0.407,-0.895 0.615,-1.34 C 1.311,11.883 1.089,10.765 0.83,9.658 0.284,10.677 -0.264,11.693 -0.81,12.71 M -0.984,12.483 C -0.424,11.355 0.133,10.224 0.695,9.095 0.406,7.919 0.072,6.759 -0.304,5.62 -1.01,6.88 -1.736,8.127 -2.455,9.372 c 0.296,1.193 0.803,2.222 1.471,3.111 m 10.905,6.089 c 1.992,6.48 2.759,13.596 2.333,20.005 1.43,-6.727 1.65,-13.61 -1.751,-19.928 C 10.31,18.627 10.115,18.6 9.921,18.572 M 9.645,17.706 c 0.641,0.117 1.279,0.219 1.908,0.309 -0.337,-0.868 -0.669,-1.737 -1,-2.606 -0.321,0.683 -0.653,1.36 -0.993,2.032 0.029,0.088 0.056,0.177 0.085,0.265 M 8.975,17.142 C 8.99,17.11 9.005,17.08 9.021,17.049 9.002,16.991 8.982,16.934 8.963,16.876 c 0.003,0.088 0.005,0.177 0.012,0.266 M 3.363,63.058 C 5.528,59.425 7.127,55.507 8.527,51.421 6.33,55.663 3.396,59.572 0.293,63.446 c -3.36,4.196 -6.379,8.537 -9.18,13.007 1.496,-1.356 3.015,-2.694 4.494,-4.066 2.547,-3.14 5.156,-6.228 7.756,-9.329 M -26.005,6.006 c 0.102,0.103 0.201,0.208 0.303,0.31 0.073,0.075 -0.044,0.185 -0.117,0.112 l -0.205,-0.205 c -0.063,1.131 0.234,2.338 0.736,3.472 1.292,2.921 3.506,5.047 3.96,8.321 0.004,0.033 -0.047,0.045 -0.051,0.011 -0.315,-3.082 -2.98,-5.655 -4.291,-8.506 -0.658,-0.713 -1.362,-1.385 -2.069,-2.053 0.218,0.703 0.425,1.411 0.617,2.122 1.219,1.213 2.415,2.451 3.627,3.667 0.051,0.052 -0.03,0.128 -0.083,0.077 -1.137,-1.116 -2.293,-2.219 -3.432,-3.338 0.27,1.021 0.512,2.049 0.732,3.08 1.256,1.275 2.546,2.446 4.132,3.414 0.043,0.028 0.001,0.095 -0.043,0.07 -1.401,-0.819 -2.814,-1.819 -3.993,-3.007 0.166,0.81 0.323,1.623 0.46,2.435 0.944,0.9 1.914,1.766 2.969,2.569 0.049,0.037 -0.001,0.12 -0.051,0.082 -0.981,-0.729 -1.95,-1.501 -2.867,-2.329 0.131,0.794 0.25,1.588 0.356,2.38 0.866,0.9 1.722,1.81 2.59,2.703 0.051,0.051 -0.031,0.128 -0.082,0.077 -0.812,-0.812 -1.64,-1.614 -2.46,-2.423 0.061,0.475 0.119,0.951 0.171,1.426 0.08,0.717 0.141,1.434 0.193,2.15 1.054,0.88 2.101,1.769 3.147,2.659 0.08,0.068 -0.039,0.177 -0.117,0.112 -1.009,-0.846 -2.016,-1.693 -3.016,-2.547 0.025,0.347 0.051,0.697 0.07,1.045 1.531,1.338 3.019,2.733 4.53,4.09 0.085,0.078 -0.044,0.198 -0.129,0.122 -1.456,-1.292 -2.944,-2.557 -4.389,-3.867 0.034,0.723 0.053,1.446 0.062,2.168 1.361,1.427 2.67,2.845 4.212,4.101 0.063,0.052 -0.004,0.162 -0.069,0.109 -1.465,-1.18 -2.951,-2.479 -4.14,-3.96 0.008,0.763 0.006,1.526 -0.011,2.286 1.464,1.436 2.963,2.778 4.701,3.932 -0.005,-0.031 -0.014,-0.061 -0.018,-0.092 -0.069,-0.49 -0.093,-0.975 0.106,-1.442 0.147,-0.343 0.719,-0.646 0.814,-0.902 0.133,-0.366 0.089,-0.829 -0.059,-1.339 0.238,0.413 0.477,0.826 0.72,1.236 0.024,0.04 -0.004,0.082 -0.042,0.095 -3.651,1.245 3.211,10.406 2.355,12.856 -0.231,0.662 -0.458,0.75 -1.038,1.16 -0.733,0.519 -1.49,0.894 -2.243,1.269 0.415,0.296 0.836,0.586 1.265,0.868 0.06,0.04 0.002,0.136 -0.06,0.097 -0.452,-0.291 -0.899,-0.591 -1.343,-0.897 -0.513,0.257 -1.025,0.52 -1.525,0.832 0.394,0.319 0.79,0.637 1.195,0.946 0.058,0.043 -10e-4,0.139 -0.059,0.095 -0.424,-0.313 -0.847,-0.633 -1.27,-0.953 -0.393,0.255 -0.781,0.54 -1.157,0.888 -0.048,0.045 -0.089,0.095 -0.137,0.139 0.277,0.181 0.55,0.366 0.835,0.536 0.045,0.026 0.002,0.094 -0.043,0.068 -0.292,-0.171 -0.573,-0.356 -0.856,-0.539 -0.398,0.381 -0.773,0.774 -1.126,1.18 0.408,0.303 0.837,0.584 1.29,0.833 0.072,0.04 0.004,0.15 -0.069,0.109 -0.458,-0.253 -0.889,-0.538 -1.3,-0.846 -0.317,0.368 -0.62,0.745 -0.902,1.132 0.049,0.042 0.097,0.086 0.148,0.126 0.03,0.024 -0.009,0.067 -0.033,0.039 -0.042,-0.048 -0.088,-0.093 -0.132,-0.138 -2.335,3.211 -3.534,7.023 -4.191,10.981 0.045,-0.069 0.086,-0.139 0.138,-0.205 0.089,-0.113 0.281,0.005 0.192,0.12 -0.219,0.28 -0.366,0.603 -0.464,0.95 -0.05,0.343 -0.102,0.685 -0.145,1.029 -0.051,1.968 0.947,4.402 1.314,5.932 0.291,1.213 0.599,2.426 0.885,3.643 0.09,0.095 0.179,0.19 0.269,0.285 0.043,0.046 -0.029,0.112 -0.071,0.067 -0.052,-0.055 -0.104,-0.111 -0.156,-0.166 0.256,1.095 0.494,2.193 0.683,3.299 0.162,0.947 0.678,3.259 0.599,5.071 0.43,-1.655 0.924,-3.292 1.503,-4.904 -0.57,1.636 -1.067,3.287 -1.504,4.954 -0.027,0.525 -0.107,1.002 -0.26,1.393 0.024,0.022 0.047,0.046 0.07,0.069 0.046,0.042 -0.025,0.108 -0.07,0.066 -0.014,-0.012 -0.027,-0.026 -0.04,-0.039 -0.037,0.083 -0.08,0.16 -0.124,0.233 -0.07,0.295 -0.143,0.588 -0.207,0.884 0.061,-0.291 0.132,-0.579 0.198,-0.869 -0.155,0.25 -0.355,0.446 -0.617,0.554 -0.722,0.297 -3.579,-0.942 -4.045,-1.564 -0.528,-0.705 -0.45,-1.853 -0.456,-2.684 -0.285,-0.481 -0.54,-0.982 -0.765,-1.505 -0.024,-0.056 0.06,-0.103 0.085,-0.046 0.208,0.461 0.436,0.906 0.681,1.338 -0.028,-2.189 0.144,-4.403 0.385,-6.618 0.916,-11.101 2.494,-22.123 2.717,-33.249 -0.448,0.286 -0.9,0.566 -1.352,0.846 0.526,1.678 0.862,3.389 0.945,5.072 0.006,0.121 -0.18,0.132 -0.207,0.02 -0.404,-1.66 -0.853,-3.211 -1.383,-4.691 -0.055,0.035 -0.111,0.069 -0.167,0.105 -0.263,0.167 -0.513,-0.174 -0.386,-0.41 0.086,-0.16 0.173,-0.321 0.259,-0.482 -0.432,-1.121 -0.92,-2.202 -1.478,-3.254 -0.124,0.099 -0.247,0.197 -0.371,0.296 -0.168,0.134 -0.428,-0.048 -0.303,-0.248 0.125,-0.199 0.251,-0.398 0.376,-0.599 -0.444,-0.791 -0.933,-1.566 -1.472,-2.334 -0.007,0.003 -0.015,0.007 -0.021,0.01 -0.094,0.041 -0.171,-0.098 -0.078,-0.142 l 0.006,-0.003 c -0.602,-0.849 -1.267,-1.689 -2.008,-2.527 -0.249,-0.28 -0.102,-0.661 0.232,-0.771 2.195,-0.725 3.397,-2.577 3.802,-4.662 -0.113,0.117 -0.228,0.23 -0.338,0.348 -0.111,0.119 -0.309,-0.045 -0.219,-0.178 0.185,-0.274 0.413,-0.574 0.66,-0.889 0.077,-0.734 0.066,-1.483 -0.034,-2.21 -0.014,-0.106 -0.033,-0.21 -0.051,-0.315 -0.272,0.188 -0.543,0.376 -0.816,0.563 -0.04,0.027 -0.08,-0.028 -0.061,-0.064 0.129,-0.241 0.297,-0.516 0.482,-0.812 0.002,0.02 0,0.044 0.008,0.057 0.046,0.07 0.172,0.056 0.343,-0.006 -0.029,-0.153 -0.062,-0.305 -0.097,-0.456 -0.087,0.138 -0.173,0.274 -0.254,0.405 -0.016,-0.111 0.062,-0.337 0.199,-0.63 -0.166,-0.667 -0.38,-1.323 -0.617,-1.968 -0.178,0.136 -0.356,0.27 -0.532,0.394 -0.059,0.042 -0.134,-0.061 -0.076,-0.104 0.188,-0.136 0.375,-0.274 0.563,-0.411 -0.117,-0.313 -0.238,-0.626 -0.362,-0.934 -0.324,-0.81 -1.412,-4.068 -3.017,-3.827 -0.231,0.101 -0.458,0.203 -0.683,0.305 -0.056,0.043 -0.113,0.088 -0.171,0.14 -0.042,0.037 -0.09,0.026 -0.121,-0.005 -1.567,0.744 -2.869,1.649 -3.042,3.85 -0.007,0.098 -0.082,0.156 -0.176,0.163 -1.415,0.092 -2.433,-0.531 -2.945,-1.859 -0.029,-0.077 0.026,-0.161 0.114,-0.137 1.527,-1.675 1.997,-3.048 1.416,-4.121 -0.268,0.485 -0.536,0.967 -0.807,1.444 -0.028,0.049 -0.116,0.065 -0.153,0.015 -0.482,-0.657 -0.532,-0.935 -0.23,-1.694 0.012,-0.03 0.062,-0.015 0.049,0.016 0.191,0.233 0.383,0.467 0.574,0.701 l 0.382,-0.766 c -0.263,-0.345 -0.644,-0.659 -1.15,-0.935 -0.339,-0.251 -0.687,-0.49 -1.042,-0.715 -0.413,-0.271 -0.834,-0.527 -1.262,-0.773 -0.121,0.031 -0.245,0.051 -0.372,0.06 -0.072,0.004 -0.085,-0.12 -0.013,-0.128 0.065,-0.007 0.127,-0.022 0.191,-0.037 -0.361,-0.203 -0.722,-0.401 -1.09,-0.588 -1.754,-0.887 -3.596,-1.589 -5.466,-2.183 -0.004,-0.001 -0.008,-0.002 -0.012,-0.003 -0.062,0.068 -0.125,0.136 -0.187,0.204 -0.058,0.061 -0.144,-0.033 -0.089,-0.094 0.045,-0.051 0.086,-0.104 0.131,-0.154 -1.244,-0.392 -2.507,-0.747 -3.783,-1.067 -0.069,0.06 -0.134,0.123 -0.205,0.183 -0.032,0.026 -0.076,-0.02 -0.045,-0.047 0.058,-0.051 0.113,-0.105 0.169,-0.155 -0.245,-0.062 -0.49,-0.124 -0.736,-0.182 -0.401,2.138 -0.627,4.317 -0.727,6.468 -0.427,9.269 0.864,18.615 2.745,27.673 1.882,9.059 4.197,18.19 7.272,26.922 3.129,8.885 8.3,16.678 12.302,25.149 2.132,4.512 3.786,9.214 4.973,14.032 0.814,-0.213 1.629,-0.436 2.433,-0.695 -0.162,-3.168 -0.216,-6.34 -0.098,-9.515 0.153,-4.109 0.646,-8.109 1.496,-12.018 -0.383,1.812 -0.689,3.643 -0.913,5.489 -0.646,5.326 -0.694,10.677 -0.423,16.022 0.313,-0.101 0.625,-0.207 0.933,-0.321 0.961,-1.261 1.737,-2.692 2.281,-4.25 0.012,-0.036 0.065,-0.036 0.075,0.003 0.061,0.266 0.11,0.53 0.162,0.795 0.215,-1.131 0.522,-2.238 0.936,-3.311 0.326,-3.793 0.955,-7.55 2.05,-11.221 2.491,-8.356 7.394,-15.64 11.745,-23.101 5.292,-9.072 9.291,-19.362 10.988,-29.935 -1.093,7.391 -3.238,14.628 -6.374,21.41 -3.949,8.537 -9.657,16.114 -13.619,24.642 -2.663,5.735 -4.035,11.722 -4.634,17.827 0.176,-0.426 0.369,-0.847 0.583,-1.26 -0.069,-0.002 -0.136,-0.005 -0.209,-0.002 -0.124,0.005 -0.118,-0.191 0.007,-0.194 0.103,-0.003 0.2,0 0.292,0.009 0.338,-0.634 0.725,-1.249 1.157,-1.846 0.688,-2.609 1.712,-5.134 3.075,-7.504 2.141,-3.721 5.06,-6.752 8.159,-9.626 1.785,-3.004 3.686,-5.937 5.78,-8.745 C 0.233,62.74 5.65,57.091 8.921,50.257 9.254,49.256 9.577,48.247 9.896,47.229 10.552,45.136 11.191,42.992 11.733,40.824 12.755,33.421 11.495,25.519 9.461,18.508 9.306,18.483 9.15,18.454 8.995,18.427 8.884,18.48 8.747,18.448 8.646,18.366 7.894,18.224 7.147,18.05 6.416,17.833 6.412,17.849 6.408,17.865 6.404,17.881 6.354,18.109 5.996,18.14 5.898,17.931 5.85,17.828 5.818,17.728 5.78,17.626 4.433,17.178 3.149,16.587 1.979,15.828 2.702,21.882 2.488,28.018 1.519,34.061 1.761,32.427 1.952,30.785 2.09,29.139 2.448,24.859 2.428,20.294 1.895,15.774 1.528,15.534 1.171,15.282 0.829,15.007 0.755,15.164 0.679,15.32 0.604,15.478 0.554,15.584 0.365,15.5 0.414,15.391 c 0.08,-0.178 0.16,-0.356 0.24,-0.535 -0.489,-0.409 -0.955,-0.851 -1.382,-1.339 -0.11,-0.125 -0.211,-0.259 -0.317,-0.39 -0.083,0.1 -0.251,-0.014 -0.187,-0.143 0.009,-0.018 0.018,-0.036 0.027,-0.054 -0.68,-0.881 -1.236,-1.865 -1.627,-2.907 -0.023,0.041 -0.048,0.083 -0.071,0.124 -0.032,0.055 -0.112,0.004 -0.083,-0.05 C -2.951,10.028 -2.917,9.96 -2.882,9.892 -3.209,8.979 -3.41,8.024 -3.435,7.05 -3.435,7.044 -3.436,7.038 -3.436,7.032 -3.464,7.111 -3.494,7.189 -3.522,7.269 -3.55,7.347 -3.673,7.31 -3.646,7.23 -3.583,7.048 -3.509,6.87 -3.444,6.688 -3.466,5.888 -3.497,5.198 -3.604,4.588 -3.66,4.601 -3.728,4.562 -3.702,4.492 -3.686,4.445 -3.668,4.397 -3.65,4.35 -3.846,3.462 -4.246,2.741 -5.09,2.076 -5.199,2.296 -5.312,2.516 -5.42,2.735 -5.452,2.801 -5.567,2.749 -5.537,2.683 -5.43,2.448 -5.326,2.211 -5.222,1.975 -5.503,1.767 -5.824,1.562 -6.204,1.361 -6.444,1.234 -6.646,1.121 -6.834,1.012 -6.85,1.052 -6.867,1.09 -6.882,1.13 -6.899,1.179 -6.974,1.156 -6.959,1.106 -6.944,1.059 -6.929,1.012 -6.914,0.964 -7.311,0.728 -7.619,0.509 -7.906,0.226 c -0.185,0.872 -1.08,1.195 -1.597,0.302 -0.074,-0.13 -0.033,-0.281 0.062,-0.384 0.173,-0.192 0.398,-0.297 0.65,-0.35 0.082,-0.111 0.155,-0.229 0.233,-0.342 -0.127,-0.172 -0.26,-0.356 -0.41,-0.576 -0.125,-0.213 -0.26,-0.42 -0.395,-0.625 -0.228,0.445 -0.585,0.977 -0.903,0.58 -0.046,-0.057 0.033,-0.133 0.082,-0.078 0.119,0.132 0.432,-0.333 0.666,-0.735 -0.156,-0.226 -0.315,-0.45 -0.485,-0.666 -0.014,-0.029 -0.027,-0.048 -0.041,-0.076 -0.227,-0.105 -0.455,-0.212 -0.684,-0.318 -0.076,0.116 -0.148,0.289 -0.213,0.531 0.122,0.11 -0.052,0.325 -0.183,0.224 -0.588,-0.455 -0.92,-0.873 -1.128,-1.458 -0.187,-0.086 -0.376,-0.171 -0.563,-0.256 -1.001,0.688 -1.948,1.343 -2.765,1.664 -10e-4,0.001 -10e-4,0.001 -0.002,0.001 -0.01,0.038 -0.055,0.065 -0.09,0.027 -0.535,0.165 -1.61,0.176 -1.859,0.717 0.01,-0.022 0.437,1.284 0.717,2.186 6.211,8.811 8.969,20.115 8.286,30.996 -0.583,9.284 -3.298,18.337 -7.177,26.755 -2.434,5.283 -5.385,10.318 -7.602,15.702 -0.31,0.755 -0.597,1.517 -0.873,2.284 0.832,-2.386 1.805,-4.742 2.931,-7.07 4.476,-9.247 9.134,-18.121 11.285,-28.263 2.028,-9.557 2.034,-19.694 -1.156,-29.003 -1.347,-3.93 -3.227,-7.663 -5.585,-11.039 0.072,0.239 0.121,0.415 0.125,0.459 0.01,0.095 -0.048,0.217 -0.166,0.201 -1.587,-0.212 -3.366,-0.218 -4.996,0.196 0.047,0.05 0.094,0.101 0.14,0.151 0.043,0.046 -0.027,0.111 -0.07,0.066 -0.061,-0.062 -0.124,-0.125 -0.185,-0.187 -0.682,0.182 -1.339,0.433 -1.94,0.787 -1.432,0.846 -2.077,2.053 -2.208,3.377 m -3.651,-3.744 c 1.118,1.133 2.223,2.279 3.334,3.418 0.025,-0.163 0.057,-0.328 0.098,-0.495 0.155,-0.624 0.434,-1.147 0.802,-1.592 -2.333,-1.881 -4.614,-3.904 -6.641,-6.13 0.898,1.543 1.696,3.149 2.407,4.799 m -1.234,21.595 c 0.002,0.104 0.007,0.208 0.007,0.312 0.566,-0.509 1.314,-1.01 2.019,-1.439 -0.053,-0.491 -0.111,-0.982 -0.171,-1.472 -0.125,0.171 -0.248,0.343 -0.374,0.513 0.137,-0.227 0.256,-0.451 0.354,-0.669 -0.032,-0.258 -0.064,-0.516 -0.098,-0.774 -0.186,0.181 -0.421,0.422 -0.657,0.586 -0.442,0.306 -0.886,0.61 -1.329,0.915 0.145,0.656 0.229,1.324 0.248,1.99 0.05,-0.062 0.1,-0.123 0.15,-0.186 -0.051,0.075 -0.099,0.149 -0.149,0.224 m -0.022,2.345 c 0.442,-0.426 1.61,-1.353 2.184,-2.136 -0.033,-0.344 -0.066,-0.688 -0.102,-1.033 -0.526,0.331 -1.029,0.696 -1.505,1.1 -0.197,0.163 -0.38,0.341 -0.565,0.514 -0.035,0.622 -0.127,1.231 -0.283,1.817 0.09,-0.087 0.18,-0.174 0.271,-0.262 m 2.59,3.259 c -0.041,-0.72 -0.085,-1.44 -0.136,-2.162 -0.313,0.367 -0.722,0.662 -1.265,0.924 -0.065,0.031 -0.118,-0.065 -0.053,-0.1 -0.22,0.121 0.723,-0.865 1.272,-1.436 -10e-4,-0.009 -0.002,-0.018 -0.002,-0.026 -0.067,0.066 -0.141,0.139 -0.229,0.227 -0.55,0.544 -1.072,1.098 -1.671,1.592 -1.202,0.99 -2.543,1.758 -3.958,2.401 -0.07,0.031 -0.176,-0.029 -0.14,-0.115 0.015,-0.037 0.033,-0.069 0.049,-0.105 -0.07,0.036 -0.136,0.077 -0.208,0.11 0.6,0.706 1.173,1.459 1.714,2.25 1.74,-0.934 3.273,-2.122 4.627,-3.56 m -1.854,3.222 c 0.364,-0.579 0.727,-1.158 1.09,-1.736 0.016,-0.024 0.043,-0.061 0.071,-0.099 -1.066,0.958 -2.593,1.764 -3.82,2.34 0.408,0.607 0.795,1.237 1.159,1.883 0.5,-0.796 0.999,-1.592 1.5,-2.388 m 1.774,2.187 c 0.485,-2.165 -0.389,-0.898 -1.316,-0.159 -0.501,0.4 -1.002,0.801 -1.503,1.2 0.484,0.933 0.914,1.895 1.284,2.874 0.645,-1.252 1.227,-2.541 1.535,-3.915 m 0.289,0.738 c -0.355,1.342 -0.921,2.615 -1.556,3.877 0.513,-0.343 1.026,-0.69 1.549,-1.02 0.014,-0.951 0.016,-1.903 0.007,-2.857 m 2.097,7.072 c -0.091,0.655 -0.187,1.31 -0.283,1.966 1.075,1.104 2.252,2.085 3.528,2.941 0.397,-0.374 0.819,-0.733 1.264,-1.075 -1.568,-1.199 -3.102,-2.461 -4.509,-3.832 m 0.274,-2.014 c -0.078,0.594 -0.158,1.188 -0.241,1.781 0.001,10e-4 0.003,0 0.004,10e-4 1.526,1.34 3.031,2.684 4.601,3.962 0.44,-0.332 0.899,-0.637 1.374,-0.917 -2.047,-1.44 -3.983,-3.042 -5.738,-4.827 m 0.394,-3.252 c -0.108,0.989 -0.229,1.978 -0.357,2.966 1.829,1.821 3.754,3.51 5.838,5.032 0.234,-0.135 0.471,-0.265 0.713,-0.386 0.416,-0.208 0.931,-0.549 1.404,-0.964 -2.624,-2.101 -5.203,-4.284 -7.598,-6.648 m -6.059,-1.857 c 0.119,-0.105 0.265,-0.23 0.45,-0.379 0.93,-0.754 1.86,-1.507 2.788,-2.263 -0.017,-0.484 -0.025,-0.968 -0.049,-1.452 -0.017,-0.391 -0.038,-0.781 -0.058,-1.172 -0.962,1.559 -1.925,3.117 -2.887,4.676 -0.118,0.191 -0.221,0.346 -0.308,0.475 0.021,0.038 0.043,0.077 0.064,0.115 m -2.265,-5.368 c 0.119,0.06 0.407,-0.025 0.941,-0.33 1.632,-0.934 3.001,-2.139 4.198,-3.552 -0.056,-0.718 -0.117,-1.436 -0.186,-2.154 -0.752,1.002 -1.664,1.865 -2.591,2.753 -0.431,1.311 -1.207,2.463 -2.362,3.283 m 5.721,-23.391 c 0.722,0.723 1.409,1.492 2.073,2.238 -0.396,-0.997 -0.601,-2.032 -0.472,-3.139 -1.018,-1.02 -2.043,-2.037 -3.06,-3.061 0.539,1.297 1.023,2.62 1.459,3.962 m 7.935,26.252 c -0.025,0.016 -0.054,0.024 -0.087,0.003 -1.639,-1.063 -3.27,-2.287 -4.663,-3.702 -0.024,0.863 -0.062,1.725 -0.113,2.587 2.069,1.782 4.082,3.635 6.121,5.449 0.055,0.049 -0.027,0.125 -0.082,0.078 -2.014,-1.754 -4.063,-3.478 -6.054,-5.262 -0.056,0.915 -0.127,1.83 -0.21,2.744 2.451,2.509 4.958,4.771 8.029,6.585 0.08,0.048 0.004,0.17 -0.077,0.123 -2.894,-1.651 -5.756,-3.721 -7.993,-6.252 -0.053,0.579 -0.112,1.158 -0.174,1.737 2.481,2.357 4.965,4.696 7.591,6.898 0.002,0.001 0,0.003 0,0.004 0.664,-0.587 1.236,-1.317 1.316,-2.032 0.067,-0.605 -0.583,-1.63 -0.813,-2.2 -0.842,-2.099 -2.383,-4.486 -2.791,-6.76 m -11.168,46.361 c 0.063,1.186 0.362,2.29 1.216,2.917 0.484,0.355 1.139,0.576 1.783,0.584 -1.193,-1.011 -2.205,-2.179 -2.999,-3.501 m 3.029,3.502 c 0.61,0.002 1.206,-0.196 1.632,-0.663 -1.764,-1.747 -3.296,-3.71 -4.49,-5.894 -0.092,0.84 -0.21,1.854 -0.182,2.832 0.8,1.399 1.802,2.643 3.04,3.725 m -2.592,-9.337 c -0.065,0.7 -0.136,1.4 -0.196,2.1 -0.014,0.155 -0.032,0.325 -0.05,0.501 0.005,0.004 0.011,0.004 0.014,0.011 1.273,2.202 2.742,4.193 4.522,5.985 0.149,-0.181 0.276,-0.394 0.37,-0.652 0.268,-0.742 -0.049,-2.982 -0.111,-3.54 -0.201,-1.796 -0.566,-3.58 -0.988,-5.351 -0.592,-0.63 -1.184,-1.261 -1.777,-1.892 -0.043,-0.046 0.028,-0.112 0.07,-0.066 0.554,0.589 1.108,1.179 1.662,1.767 -0.417,-1.733 -0.883,-3.457 -1.299,-5.173 -0.225,-0.921 -0.611,-1.998 -0.799,-3.065 -0.241,2.269 -0.362,4.546 -0.465,6.748 -0.005,0.083 -0.133,0.078 -0.13,-0.005 0.071,-1.745 0.155,-3.55 0.304,-5.369 -0.408,2.662 -0.788,5.328 -1.127,8.001 m 3.904,-25.333 c -0.475,3.088 -0.98,6.171 -1.485,9.255 0.721,-2.692 1.79,-5.24 3.405,-7.466 -0.006,-0.005 -0.011,-0.011 -0.015,-0.015 0.005,0.004 0.01,0.008 0.016,0.013 0.279,-0.384 0.577,-0.759 0.891,-1.124 -0.913,-0.718 -1.708,-1.568 -2.372,-2.549 -0.041,-0.06 0.058,-0.113 0.099,-0.053 0.658,0.965 1.448,1.801 2.352,2.508 0.348,-0.401 0.721,-0.788 1.113,-1.161 -1.256,-0.829 -2.416,-1.781 -3.483,-2.851 -0.14,0.946 -0.282,1.892 -0.427,2.838 -0.028,0.187 -0.059,0.375 -0.088,0.562 0.151,0.153 0.303,0.3 0.454,0.453 -0.155,-0.136 -0.305,-0.273 -0.46,-0.41 m -2.721,-30.65 c -0.046,-0.029 -0.092,-0.056 -0.138,-0.083 -0.166,0.276 -0.42,0.682 -0.704,1.141 0.029,-0.119 0.053,-0.235 0.064,-0.345 0.07,-0.712 0.507,-0.666 -0.629,-0.068 -0.36,0.191 -0.708,0.435 -1.048,0.69 0.208,0.566 0.383,1.101 0.521,1.555 0.326,-0.583 0.73,-1.247 1.092,-1.832 -0.158,0.642 -0.565,1.399 -1.003,2.127 0.088,0.301 0.156,0.554 0.201,0.734 0.013,0.051 0.021,0.104 0.034,0.155 0.598,-0.36 1.37,-0.932 2.01,-1.423 -0.119,-0.886 -0.253,-1.77 -0.4,-2.651 m -1.344,-6.276 c -0.13,0.665 -0.293,1.51 -0.383,2.294 -0.002,-1.234 0.009,-2.376 0.052,-2.373 -0.364,-0.026 -2.194,2.968 -2.771,3.857 0.788,0.939 1.456,2.4 1.95,3.723 0.682,-0.499 1.364,-0.998 2.045,-1.496 -0.371,-0.222 -0.741,-0.445 -1.111,-0.668 -0.042,0.064 -0.132,0.031 -0.135,-0.041 -0.006,-0.142 -0.012,-0.621 -0.019,-1.232 0.034,0.134 0.076,0.254 0.136,0.343 0.035,0.049 0.062,0.092 0.085,0.131 0.058,-0.06 0.186,-0.105 0.446,-0.097 0.28,0.009 0.517,0.035 0.733,0.077 -0.291,-1.518 -0.632,-3.025 -1.028,-4.518 m -1.67,-5.309 c -0.362,1.428 -0.79,2.827 -1.37,4.154 -0.024,0.098 -0.047,0.197 -0.071,0.297 0.009,-0.067 0.018,-0.135 0.028,-0.203 -0.574,1.294 -1.29,2.518 -2.238,3.626 0.477,-0.165 0.952,-0.316 1.392,-0.463 0.244,-0.081 0.383,0.305 0.159,0.42 -0.213,0.109 -0.428,0.212 -0.645,0.311 0.343,0.082 0.671,0.292 0.984,0.592 0.008,-0.35 0.015,-0.702 0.031,-1.047 0.024,0.116 0.053,0.226 0.091,0.324 0.377,0.957 0.773,-0.245 1.199,-0.897 0.612,-0.936 1.223,-1.873 1.835,-2.809 -0.106,-0.375 -0.214,-0.748 -0.329,-1.12 -0.324,-1.055 -0.678,-2.123 -1.066,-3.185 m -7.885,9.319 c -0.188,1 -0.851,1.138 -1.443,1.779 -0.113,0.123 -0.566,0.058 -0.571,0.101 -0.41,-0.072 -0.052,0.073 1.074,0.438 0.898,0.765 1.278,0.702 1.14,-0.188 0.7,-1.092 0.224,-1.499 1.442,-2.359 0.694,-0.492 1.564,-0.854 2.434,-1.161 -0.07,-0.031 -0.123,-0.11 -0.068,-0.181 1.184,-1.531 1.997,-3.221 2.603,-5.061 0.047,-0.142 0.56,-2.398 0.691,-2.413 0.003,0 0.005,0.001 0.007,0 0.074,-0.265 0.145,-0.53 0.226,-0.798 0.021,-0.068 0.061,-0.11 0.108,-0.135 -0.742,-1.948 -1.618,-3.861 -2.679,-5.637 -1.631,4.387 -3.704,8.764 -5.973,12.893 0.721,0.777 1.203,1.688 1.009,2.722 M -51.886,7.101 c 2.301,0.725 4.553,1.622 6.652,2.81 1.189,-0.419 2.107,-2.175 2.701,-3.106 0.582,-0.914 1.128,-1.853 1.633,-2.812 1.125,-2.139 1.9,-4.377 2.788,-6.614 0.068,-0.173 0.324,-0.097 0.277,0.086 -0.735,2.887 -2.163,5.723 -3.687,8.266 -0.78,1.3 -1.885,3.748 -3.533,4.287 0.277,0.159 0.554,0.318 0.825,0.488 0.742,0.467 1.748,1.097 2.54,1.873 0.345,-0.468 0.565,-1.15 0.819,-1.67 0.621,-1.277 1.225,-2.563 1.822,-3.852 1.126,-2.431 2.144,-4.913 3.281,-7.337 0.024,-0.051 0.067,-0.072 0.113,-0.075 -0.604,-0.983 -1.274,-1.914 -2.008,-2.786 -0.138,-0.091 -0.276,-0.181 -0.423,-0.266 -0.568,-0.329 -1.162,-0.622 -1.766,-0.902 -1.592,4.692 -4.66,8.988 -8.041,12.523 -0.086,0.09 -0.216,-0.051 -0.132,-0.142 3.504,-3.776 5.769,-7.93 7.832,-12.542 -0.877,-0.392 -1.781,-0.742 -2.689,-1.079 -2.244,4.717 -5.487,9.043 -9.004,12.85 M -55.81,6.003 c 0.623,0.157 1.243,0.318 1.855,0.485 0.642,0.176 1.282,0.366 1.92,0.566 3.53,-4.009 6.233,-8.333 8.751,-12.952 -0.734,-0.269 -1.468,-0.533 -2.193,-0.799 -2.638,4.851 -6.128,9.098 -10.333,12.7 m -35.716,1.711 c 0.148,-0.053 0.294,-0.11 0.443,-0.161 0.374,-0.267 0.86,-0.326 1.484,-0.014 0.271,0.135 0.064,0.582 -0.219,0.481 -1.62,-0.581 -1.727,1.354 -1.758,2.254 -0.009,0.25 -0.409,0.379 -0.512,0.119 -0.178,-0.45 -0.361,-0.896 -0.55,-1.341 -0.276,0.355 -0.546,0.715 -0.803,1.083 0.338,0.166 0.666,0.348 0.968,0.499 0.589,0.292 1.269,0.702 1.822,0.515 0.141,-0.048 0.227,-0.411 0.403,-0.506 0.339,-1.23 0.726,-2.44 1.17,-3.621 -0.148,-0.007 -0.302,-0.031 -0.466,-0.077 -0.344,-0.094 -0.686,-0.174 -1.029,-0.254 -0.328,0.332 -0.645,0.675 -0.953,1.023 m -0.975,0.362 c 0.188,-0.077 0.382,-0.143 0.573,-0.216 0.363,-0.42 0.739,-0.828 1.127,-1.224 -0.876,-0.194 -1.746,-0.334 -2.607,-0.426 0.316,0.615 0.619,1.237 0.907,1.866 m -4.355,-1.828 c 0.534,-0.048 1.071,-0.072 1.608,-0.075 0.001,-0.027 0.003,-0.052 0.004,-0.077 -0.566,-0.015 -1.128,-0.009 -1.685,0.018 0.025,0.044 0.048,0.089 0.073,0.134 m -2.125,3.476 c 0.157,0.623 0.372,1.222 0.622,1.808 0.435,-0.347 0.882,-0.679 1.341,-0.997 -0.586,-1.245 -0.795,-2.565 -0.62,-3.934 -0.565,0.084 -1.125,0.188 -1.677,0.318 -0.066,0.939 0.264,2.531 0.334,2.805 m -3.373,3.952 c 0.409,-0.119 0.822,-0.227 1.237,-0.318 -0.995,-1.465 -1.668,-3.164 -1.752,-4.946 -0.003,-0.071 0.118,-0.084 0.128,-0.012 0.228,1.803 0.723,3.418 1.727,4.935 0.25,-0.054 0.5,-0.099 0.75,-0.139 0.089,-0.087 0.182,-0.168 0.272,-0.253 -0.784,-1.702 -1.387,-3.456 -1.813,-5.283 -1.004,0.361 -1.982,0.793 -2.934,1.288 0.632,1.695 1.316,3.25 2.385,4.728 m -1.582,0.529 c 0.485,-0.183 0.986,-0.351 1.496,-0.503 -1.058,-1.393 -1.984,-2.975 -2.457,-4.671 -0.481,0.254 -0.956,0.52 -1.42,0.804 0.702,1.508 1.495,2.963 2.381,4.37 m -4.271,2.138 c 0.693,-0.459 1.432,-0.874 2.208,-1.25 -0.926,-1.213 -1.705,-2.509 -2.341,-3.891 -0.545,0.402 -1.079,0.822 -1.598,1.264 -0.081,0.069 -0.155,0.139 -0.235,0.209 0.557,1.287 1.185,2.508 1.966,3.668 m -0.066,0.048 c -0.828,-1.108 -1.537,-2.301 -2.05,-3.582 -4.593,4.052 -6.932,8.787 -7.868,14.858 -0.608,3.937 -0.746,7.928 -0.394,11.858 0.311,-9.072 3.044,-18.278 10.312,-23.134 m 68.627,88.105 c 0.955,1.081 1.721,2.319 2.373,3.629 0.559,-0.197 1.124,-0.379 1.693,-0.55 -2.654,-6.843 -6.044,-13.463 -11.496,-18.42 -3.403,-3.092 -7.445,-5.1 -11.577,-6.967 -0.014,1.013 -0.278,1.974 -0.938,2.792 -0.046,0.058 -0.122,0.076 -0.179,0.019 -1.619,-1.624 -3.106,-3.339 -4.482,-5.136 -0.048,-0.001 -0.096,-0.038 -0.08,-0.098 0,-0.001 10e-4,-0.003 10e-4,-0.005 -0.067,-0.089 -0.136,-0.178 -0.202,-0.268 -3.228,-1.59 -6.326,-3.39 -9.247,-5.526 -10.053,-7.35 -18.837,-18.619 -22.918,-31.001 -0.023,-0.026 -0.033,-0.055 -0.031,-0.09 -0.02,-0.062 -0.038,-0.127 -0.058,-0.19 -0.062,-0.054 -0.119,-0.104 -0.171,-0.149 -1.802,-1.545 -3.313,-3.412 -4.656,-5.36 -0.497,-0.721 -0.979,-1.501 -1.408,-2.317 -0.136,0.105 -0.267,0.214 -0.404,0.318 -0.015,0.012 -0.038,-0.01 -0.021,-0.024 0.134,-0.112 0.265,-0.228 0.399,-0.341 -0.467,-0.892 -0.863,-1.828 -1.14,-2.785 -0.368,0.301 -0.73,0.606 -1.103,0.9 -0.023,0.019 -0.058,-0.015 -0.033,-0.035 0.374,-0.313 0.741,-0.633 1.11,-0.95 -0.571,-2.025 -0.594,-4.136 0.464,-6.11 0.932,-1.736 2.578,-2.686 4.305,-3.495 0.295,-0.138 0.595,-0.271 0.896,-0.403 0.517,-2.769 1.387,-5.463 2.609,-7.974 -0.44,-0.154 -0.908,-0.261 -1.373,-0.347 -0.048,-0.009 -0.07,-0.046 -0.08,-0.088 -0.775,-0.028 -1.524,-0.012 -2.249,0.038 -0.016,0.016 -0.04,0.02 -0.059,0.004 -0.257,0.019 -0.511,0.041 -0.762,0.07 -3.242,3.269 -5.641,7.407 -6.989,11.875 -2.881,9.545 -0.628,19.895 3.767,28.603 4.376,8.67 10.737,16.073 19.344,20.706 7.418,3.993 15.604,6.283 23.085,10.144 2.67,1.378 5.238,2.927 7.696,4.63 0.092,0.051 0.186,0.096 0.277,0.148 2.517,1.433 4.686,3.211 6.562,5.238 2.904,2.586 5.605,5.405 8.073,8.43 0.012,0.016 -0.01,0.038 -0.024,0.023 -2.349,-2.867 -4.909,-5.547 -7.653,-8.017 1.87,2.104 3.436,4.462 4.755,6.979 0.654,0.694 1.299,1.394 1.924,2.1 m 21.595,25.452 c -0.101,-0.31 -0.217,-0.616 -0.333,-0.921 -0.09,0.364 -0.26,0.733 -0.53,1.094 -1.343,1.795 -9.143,2.258 -10.825,3.924 3.918,-1.384 7.959,-1.826 12.032,-1.342 0.328,-0.812 -0.088,-1.98 -0.344,-2.755 m -5.004,-8.632 c 0.102,0.527 0.177,1.056 0.318,1.575 -0.009,1.307 0.702,2.282 2.132,2.923 0.091,0.052 0.172,0.09 0.255,0.129 0.163,0.046 0.318,0.104 0.465,0.172 0.089,0.021 0.17,0.031 0.242,0.028 -0.786,-1.658 -1.604,-3.303 -2.173,-5.054 -0.02,-0.058 -0.038,-0.116 -0.056,-0.174 -0.395,0.126 -0.789,0.261 -1.183,0.401 m -2.144,-16.881 c 0.223,-0.11 0.448,-0.225 0.67,-0.348 0.064,-0.791 0.163,-1.575 0.305,-2.35 -0.595,-0.299 -0.819,1.08 -1.1,1.625 -0.277,0.534 -0.594,1.047 -0.94,1.54 0.36,-0.144 0.716,-0.297 1.065,-0.467 m -2.395,2.07 c 0.042,0.717 0.09,1.433 0.142,2.151 0.371,-0.009 1.018,0.024 1.725,0.126 0.739,-0.596 1.172,-1.379 0.965,-2.439 -0.021,-0.111 0.062,-0.181 0.149,-0.192 0.003,-0.629 0.027,-1.255 0.073,-1.88 -0.602,0.326 -1.237,0.606 -1.884,0.851 -0.357,0.487 -0.753,0.945 -1.17,1.383 m -0.018,-0.358 c 0.257,-0.277 0.507,-0.563 0.742,-0.861 -0.259,0.092 -0.516,0.169 -0.775,0.253 0.011,0.202 0.021,0.405 0.033,0.608 m -2.099,1.85 c 0.735,-0.525 1.418,-1.123 2.04,-1.786 -0.013,-0.217 -0.023,-0.435 -0.035,-0.652 -0.664,0.213 -1.323,0.411 -1.944,0.587 -0.154,0.043 -0.307,0.084 -0.46,0.126 0.139,0.574 0.273,1.149 0.399,1.725 m -3.24,-0.979 c 0.263,0.791 0.513,1.585 0.75,2.382 0.864,-0.369 1.68,-0.829 2.439,-1.366 -0.129,-0.583 -0.264,-1.165 -0.408,-1.745 -0.923,0.253 -1.853,0.487 -2.781,0.729 m -1.583,3.129 c 0.742,-0.164 1.46,-0.387 2.146,-0.668 -0.244,-0.807 -0.505,-1.609 -0.774,-2.407 -0.762,0.199 -1.521,0.407 -2.275,0.634 0.31,0.812 0.612,1.625 0.903,2.441 m -1.727,0.266 c 0.565,-0.05 1.115,-0.135 1.654,-0.25 -0.295,-0.812 -0.6,-1.623 -0.913,-2.433 -0.404,0.124 -0.807,0.251 -1.207,0.39 -0.109,0.038 -0.276,0.09 -0.474,0.151 0.342,0.699 0.652,1.417 0.94,2.142 m 1.381,3.85 c 1.286,3.756 2.297,7.63 3.07,11.522 0.063,0.318 0.13,0.64 0.199,0.963 0.486,-1.349 1.204,-2.542 2.097,-3.555 -0.349,-2.871 -0.85,-5.721 -1.501,-8.537 -0.389,0.064 -0.781,0.097 -1.175,0.069 -0.284,-0.02 -0.555,-0.066 -0.821,-0.125 0.082,0.247 0.166,0.496 0.247,0.743 0.01,0.029 -0.037,0.04 -0.047,0.011 -0.085,-0.256 -0.173,-0.514 -0.26,-0.77 -0.726,-0.171 -1.388,-0.48 -2.001,-0.885 0.064,0.189 0.129,0.377 0.192,0.564 m 12.245,12.91 c -0.604,0.11 -1.23,0.519 -1.776,0.791 -1.495,0.743 -3,1.442 -4.516,2.122 0.004,0.157 0.013,0.314 0.016,0.472 0.001,0.02 -0.031,0.019 -0.032,-0.001 -0.005,-0.153 -0.015,-0.303 -0.021,-0.455 -0.593,0.265 -1.187,0.529 -1.785,0.789 0.135,0.702 0.254,1.405 0.352,2.104 1.322,-1.13 3.946,-1.37 5.309,-1.669 1.027,-0.225 2.769,-0.278 3.649,-0.883 1.043,-0.119 1.057,-0.739 0.043,-1.859 0.082,-1.515 -0.331,-1.985 -1.239,-1.411 m -1.065,-7.245 c -1.085,0.28 -2.031,0.616 -2.287,0.734 -0.081,0.037 -0.159,0.08 -0.239,0.119 0.063,0.516 0.124,1.032 0.187,1.547 0.588,-0.319 1.194,-0.608 1.811,-0.857 0.094,-0.038 0.445,-0.165 0.91,-0.328 -0.108,-0.414 -0.236,-0.819 -0.382,-1.215 m 1.418,-0.305 c -0.393,0.065 -0.797,0.151 -1.189,0.247 0.066,0.177 0.137,0.352 0.195,0.531 0.071,0.22 0.126,0.443 0.173,0.665 0.354,-0.123 0.752,-0.258 1.153,-0.392 -0.112,-0.35 -0.223,-0.7 -0.332,-1.051 m -4.565,-9.895 c -0.165,0.07 -0.338,0.13 -0.507,0.197 0.083,1.025 0.173,2.051 0.272,3.074 0.179,-0.078 0.357,-0.156 0.535,-0.23 0.635,-0.264 1.775,-0.479 2.289,-0.955 0.033,-0.002 0.056,-0.01 0.087,-0.014 -0.121,-0.805 -0.221,-1.618 -0.296,-2.436 -0.244,-0.265 -0.567,-0.422 -0.972,-0.463 -0.393,0.325 -0.87,0.597 -1.408,0.827 m -0.525,-0.04 c 0.551,-0.22 1.072,-0.476 1.502,-0.793 -0.019,0.001 -0.035,-10e-4 -0.055,0.001 -0.501,-0.06 -1.007,-0.06 -1.512,-0.025 0.02,0.273 0.043,0.544 0.065,0.817 m -2.091,-0.513 c 0.075,0.369 0.146,0.739 0.215,1.109 0.6,-0.155 1.224,-0.343 1.817,-0.575 -0.022,-0.278 -0.043,-0.557 -0.063,-0.835 -0.661,0.051 -1.321,0.165 -1.969,0.301 m -0.053,-0.253 c 0.637,-0.121 1.277,-0.214 1.914,-0.26 0.027,-0.002 0.06,-0.003 0.091,-0.004 -0.051,-0.697 -0.099,-1.394 -0.141,-2.091 -0.587,0.609 -1.223,1.171 -1.909,1.662 -0.029,0.021 -0.059,0.039 -0.088,0.059 0.045,0.212 0.089,0.423 0.133,0.634 m -0.05,0.011 c -0.042,-0.204 -0.088,-0.408 -0.133,-0.612 -0.608,0.424 -1.241,0.791 -1.897,1.1 0.67,-0.192 1.348,-0.358 2.03,-0.488 m -6.418,2.198 c 0.433,-0.315 0.927,-0.533 1.458,-0.734 -0.543,0.115 -1.093,0.194 -1.647,0.244 0.064,0.163 0.127,0.326 0.189,0.49 m 1.931,0.589 c -0.54,0.103 -1.075,0.202 -1.605,0.3 0.161,0.449 0.317,0.897 0.47,1.343 0.614,0.41 1.28,0.73 2.015,0.919 -0.288,-0.851 -0.58,-1.706 -0.88,-2.562 m 2.377,0.271 c -0.15,-0.056 -0.299,-0.117 -0.451,-0.169 -0.068,-0.023 -0.036,-0.131 0.033,-0.108 0.13,0.042 0.254,0.095 0.382,0.14 -0.053,-0.195 -0.105,-0.39 -0.16,-0.585 -0.704,0.158 -1.412,0.302 -2.116,0.438 0.299,0.865 0.591,1.729 0.877,2.591 0.079,0.018 0.155,0.042 0.235,0.058 0.61,0.123 1.21,0.12 1.801,0.037 -0.189,-0.803 -0.388,-1.604 -0.601,-2.402 m 2.949,1.719 c -0.009,-0.066 -0.018,-0.133 -0.028,-0.198 -0.84,-0.573 -1.744,-1.056 -2.699,-1.437 0.197,0.761 0.38,1.526 0.554,2.292 0.738,-0.124 1.462,-0.369 2.173,-0.657 m 1.851,1.335 c 0.197,1.879 0.413,3.755 0.638,5.628 0.782,-0.388 1.618,-0.677 2.49,-0.869 -0.688,-1.807 -1.763,-3.424 -3.128,-4.759 m -1.282,-1.341 c 0.416,0.301 0.808,0.634 1.189,0.982 -0.05,-0.48 -0.099,-0.959 -0.146,-1.44 -0.342,0.147 -0.689,0.301 -1.043,0.458 m -0.546,-0.157 c 0.007,0.049 0.013,0.098 0.019,0.145 0.039,-0.015 0.08,-0.032 0.119,-0.047 -0.046,-0.033 -0.092,-0.066 -0.138,-0.098 m -0.031,-0.229 c 0.123,0.08 0.246,0.16 0.367,0.244 0.414,-0.176 0.824,-0.361 1.231,-0.54 -0.098,-1.024 -0.192,-2.048 -0.275,-3.074 -0.582,0.228 -1.174,0.44 -1.782,0.624 0.168,0.913 0.323,1.828 0.459,2.746 m -2.95,-2.09 c 0.065,0.236 0.133,0.471 0.195,0.708 0.956,0.358 1.86,0.807 2.703,1.348 -0.135,-0.902 -0.287,-1.802 -0.454,-2.698 -0.8,0.242 -1.618,0.453 -2.444,0.642 m -0.09,-0.334 c 0.173,-0.044 0.349,-0.081 0.522,-0.126 0.514,-0.134 1.21,-0.28 1.956,-0.471 -0.07,-0.371 -0.139,-0.742 -0.214,-1.112 -0.23,0.048 -0.459,0.098 -0.685,0.151 -0.469,0.107 -1.166,0.231 -1.907,0.393 0.114,0.386 0.22,0.776 0.328,1.165 m -2.731,-0.446 c -0.352,0.16 -0.65,0.34 -0.848,0.547 -1.126,1.184 0.399,0.734 1.216,0.486 -0.121,-0.343 -0.245,-0.688 -0.368,-1.033 m 0.29,-0.123 c -0.076,0.03 -0.15,0.061 -0.222,0.093 0.123,0.348 0.244,0.696 0.365,1.045 0.139,-0.043 0.256,-0.077 0.324,-0.093 0.597,-0.132 1.189,-0.282 1.782,-0.431 -0.109,-0.389 -0.22,-0.779 -0.335,-1.167 -0.111,0.026 -0.221,0.051 -0.333,0.078 -0.517,0.191 -1.045,0.349 -1.581,0.475 m 10.107,1.863 c -1.032,0.422 -2.286,0.755 -2.79,0.965 -0.054,0.022 -0.109,0.047 -0.163,0.07 0.05,0.507 0.103,1.013 0.155,1.52 0.662,0.614 1.273,1.292 1.812,2.049 0.654,0.917 1.179,1.909 1.58,2.957 0.4,-0.079 0.808,-0.13 1.221,-0.165 -0.753,-2.426 -1.414,-4.893 -1.815,-7.396 m -2.179,8.511 c -0.229,-1.902 -0.449,-3.807 -0.65,-5.715 -0.445,-0.428 -0.92,-0.827 -1.42,-1.194 -0.099,0.043 -0.197,0.085 -0.295,0.127 0.304,2.189 0.522,4.393 0.642,6.605 10e-4,0.022 -0.031,0.02 -0.032,-0.001 -0.123,-2.208 -0.345,-4.405 -0.652,-6.586 -0.7,0.294 -1.418,0.559 -2.147,0.698 0.624,2.789 1.097,5.611 1.421,8.455 0.893,-0.986 1.951,-1.796 3.133,-2.389 m -2.965,3.985 c 0.916,-0.915 2,-1.691 3.167,-2.33 -0.063,-0.516 -0.126,-1.032 -0.188,-1.548 -1.215,0.605 -2.265,1.427 -3.133,2.407 0.055,0.49 0.108,0.979 0.154,1.471 m -2.134,3.119 c 0.472,-1.136 1.182,-2.146 2.051,-3.032 -0.05,-0.485 -0.104,-0.969 -0.163,-1.453 -0.903,1.046 -1.605,2.261 -2.082,3.578 0.063,0.299 0.129,0.603 0.194,0.907 m 0.553,2.636 c 0.4,-0.207 0.883,-0.558 1.329,-0.821 0.167,-0.098 0.339,-0.191 0.507,-0.288 -0.068,-1.449 -0.174,-2.895 -0.316,-4.338 -0.863,0.891 -1.558,1.932 -1.995,3.175 0.163,0.752 0.325,1.512 0.475,2.272 m 6.257,-22.672 c -0.164,0.415 -0.435,0.769 -0.785,1.074 0.291,0.052 0.584,0.116 0.868,0.195 -0.035,-0.423 -0.064,-0.846 -0.083,-1.269 m 1.428,14.099 c -0.032,-0.161 -0.074,-0.317 -0.112,-0.474 -0.942,0.344 -1.867,0.74 -2.746,1.2 l 0.188,1.532 c 0.004,0.03 -0.044,0.042 -0.047,0.011 l -0.188,-1.518 c -1.184,0.625 -2.272,1.374 -3.179,2.289 0.132,1.462 0.225,2.929 0.279,4.4 0.925,-0.531 1.86,-1.043 2.799,-1.544 1.417,-0.758 3.115,-1.92 4.798,-1.949 -0.192,-0.093 -0.377,-0.201 -0.547,-0.338 -1.133,-0.916 -0.986,-2.294 -1.245,-3.609 m 3.542,4.351 c -0.027,-0.002 -0.053,-0.004 -0.079,-0.005 0.038,0.019 0.071,0.044 0.107,0.066 -0.01,-0.02 -0.02,-0.041 -0.028,-0.061 M -82.724,18.784 c 0.047,0.17 -0.161,0.313 -0.304,0.219 -0.95,-0.619 -1.667,-0.711 -2.217,-0.476 0.193,0.31 0.385,0.619 0.585,0.924 0.052,0.078 -0.075,0.146 -0.127,0.07 -0.207,-0.306 -0.402,-0.617 -0.6,-0.926 -1.641,0.921 -1.648,4.97 -1.851,6.228 -0.163,1.008 -0.455,1.88 -1.068,2.609 -0.074,3.455 0.091,6.946 0.66,10.295 1.153,2.514 2.747,4.734 4.628,6.771 -1.845,-1.954 -3.474,-4.117 -4.588,-6.53 0.144,0.82 0.312,1.633 0.508,2.432 1.887,7.704 6.006,14.193 11.581,19.75 5.135,5.119 11.125,9.421 15.408,15.343 0.107,0.148 -0.144,0.329 -0.259,0.188 -1.175,-1.441 -2.425,-2.794 -3.722,-4.096 -0.018,0.128 -0.076,0.253 -0.176,0.366 1.378,1.199 2.662,2.484 3.741,3.953 0.236,-0.002 0.469,0.074 0.62,0.241 0.217,0.242 0.173,0.484 0.031,0.703 0.292,0.46 0.564,0.938 0.812,1.438 0.009,0.019 -0.018,0.033 -0.028,0.015 -0.252,-0.479 -0.533,-0.938 -0.828,-1.388 -0.058,0.076 -0.124,0.149 -0.196,0.218 0.776,1.508 1.425,3.224 1.464,4.825 4.658,2.142 9.202,4.448 12.866,8.184 4.788,4.881 7.852,11.042 10.289,17.41 0.753,-0.225 1.513,-0.435 2.278,-0.636 -0.516,-1.52 -1.082,-3.025 -1.691,-4.514 0.116,0.865 0.232,1.729 0.331,2.595 -0.14,-0.907 -0.264,-1.817 -0.386,-2.727 -0.652,-1.584 -1.35,-3.152 -2.108,-4.692 -4.863,-9.886 -11.957,-18.242 -19.16,-26.479 -4.643,-5.31 -9.516,-10.993 -13.642,-17.083 -3.733,-1.031 -6.951,-3.807 -9.828,-6.316 -1.175,-1.024 -2.287,-2.087 -3.317,-3.2 0.863,0.912 1.769,1.779 2.693,2.606 3.012,2.694 6.422,5.676 10.38,6.804 -1.746,-2.585 -3.356,-5.244 -4.756,-7.979 -0.795,-0.027 -1.597,-0.104 -2.386,-0.161 0.086,-0.066 0.566,0.038 0.719,0.046 0.547,0.034 1.103,0.053 1.656,0.091 -4.141,-8.098 -6.435,-16.867 -4.94,-26.381 0.805,-5.125 2.635,-10.016 5.318,-14.391 -0.876,0.216 -1.742,0.482 -2.591,0.814 -3.096,1.208 -6.512,3.565 -7.548,6.773 0.415,2.016 1.167,3.971 1.749,6.064 m -16.31,12.396 c -0.078,-1.217 -0.107,-2.436 -0.078,-3.655 -1.532,1.477 -3.124,2.893 -4.77,4.252 0.258,0.965 0.652,1.897 1.12,2.79 1.283,-1.09 2.528,-2.218 3.728,-3.387 m -1.998,6.19 c 0.822,-0.782 1.629,-1.58 2.412,-2.399 -0.177,-1.166 -0.309,-2.335 -0.392,-3.507 -1.19,1.104 -2.429,2.16 -3.717,3.166 0.228,0.432 0.468,0.857 0.725,1.27 0.308,0.496 0.633,0.987 0.972,1.47 m 3.129,1.302 c -0.309,0.344 -0.619,0.686 -0.934,1.025 -0.064,0.07 -0.16,-0.036 -0.101,-0.105 0.333,-0.382 0.658,-0.769 0.979,-1.156 -0.241,-1.05 -0.446,-2.106 -0.614,-3.165 -0.766,0.768 -1.556,1.512 -2.372,2.226 1.076,1.524 2.299,2.971 3.644,4.231 0.08,0.075 0.185,0.175 0.308,0.292 -0.343,-1.109 -0.647,-2.225 -0.91,-3.348 m 32.011,38.933 c -0.038,0.066 -0.081,0.127 -0.118,0.193 -0.032,0.055 -0.113,0.003 -0.083,-0.051 0.044,-0.079 0.094,-0.154 0.138,-0.232 -1.185,-1.739 -2.273,-3.549 -3.259,-5.438 -0.034,-0.065 -0.019,-0.142 0.031,-0.194 0.544,-0.556 0.941,-0.33 1.566,-1.01 0.74,-0.29 0.874,-0.698 0.402,-1.226 -0.004,-0.008 -0.008,-0.016 -0.011,-0.024 -1.692,-1.301 -3.42,-2.539 -5.023,-3.797 -4.234,-3.322 -9.248,-6.511 -12.362,-10.99 -1.284,-1.845 -2.193,-3.906 -2.898,-6.054 -0.098,-0.019 -0.194,-0.046 -0.298,-0.051 -0.153,-0.007 -0.282,-0.118 -0.319,-0.264 -0.665,-2.601 -1.388,-5.201 -1.883,-7.842 -0.607,-0.608 -1.35,-1.242 -1.842,-1.271 -0.138,0.189 -0.277,0.381 -0.413,0.571 0.053,0.724 0.449,2.107 0.47,2.532 0.041,0.811 0.127,1.906 -0.754,2.326 -1.073,0.511 -2.646,-0.711 -3.701,-1.625 1.607,4.675 3.842,9.153 6.44,13.265 5.121,8.106 12.052,15.1 20.235,20.118 1.531,0.939 3.124,1.773 4.744,2.561 -0.363,-0.493 -0.716,-0.992 -1.062,-1.497 m -0.693,-6.797 c -0.076,0.493 -0.107,0.671 -0.555,0.943 -0.163,0.1 -0.452,-0.003 -0.604,0.101 -0.484,-0.209 -0.706,-0.071 -0.667,0.416 -0.212,0.452 -0.106,0.86 0.32,1.227 0.175,0.444 0.383,0.888 0.612,1.328 0.718,-1.223 1.583,-2.33 2.578,-3.332 -0.561,-0.476 -1.134,-0.94 -1.715,-1.395 0.051,0.242 0.066,0.481 0.031,0.712 m -0.058,-0.813 c 0.604,0.477 1.203,0.958 1.788,1.45 0.103,-0.103 0.205,-0.209 0.311,-0.31 -0.971,-0.957 -1.966,-1.888 -2.976,-2.804 0.411,0.541 0.739,1.11 0.877,1.664 M -88.242,43.047 c -0.203,-0.511 -0.4,-1.026 -0.592,-1.541 0,0.01 -0.004,0.017 -0.004,0.027 -0.021,0.118 -0.192,0.143 -0.266,0.062 -0.028,-0.032 -0.062,-0.072 -0.1,-0.114 0.083,0.395 0.168,0.789 0.254,1.18 0.086,0.39 0.174,0.777 0.262,1.162 0.014,0.047 0.027,0.093 0.041,0.14 0.445,1.561 0.515,3.143 1.779,4.159 2.497,2.007 2.982,5.479 5.651,7.299 0.152,0.103 0.048,0.379 -0.139,0.306 -2.681,-1.04 -3.472,-6.145 -5.924,-6.903 1.235,3.572 3.01,6.83 6.026,9.566 4.167,3.779 8.853,7.078 13.275,10.553 0.23,0.181 0.46,0.363 0.691,0.543 -0.264,-0.609 -0.612,-1.17 -1.053,-1.678 -0.483,-0.609 -1.042,-1.132 -1.625,-1.642 -0.009,-0.008 -0.006,-0.016 -0.011,-0.023 -2.264,-1.99 -4.551,-3.958 -6.746,-6.048 -5.058,-4.816 -8.932,-10.564 -11.519,-17.048 m -1.113,-2.297 c 0.117,0.056 0.209,0.087 0.276,0.089 -0.197,-0.546 -0.387,-1.096 -0.569,-1.648 0.089,0.521 0.187,1.04 0.293,1.559 m -2.791,-17.39 c 0.004,-0.089 0.004,-0.177 0.009,-0.266 0.056,-1.154 0.145,-2.326 0.264,-3.506 -2.179,2.713 -4.515,5.284 -7.003,7.703 -0.03,1.224 -0.007,2.446 0.075,3.664 2.401,-2.358 4.623,-4.885 6.655,-7.595 m -3.846,8.657 c 0.798,-0.973 1.56,-1.97 2.282,-2.999 0.322,-0.46 0.637,-0.925 0.943,-1.396 0.046,-0.071 0.404,-0.583 0.619,-0.834 -0.045,-0.021 -0.081,-0.065 -0.068,-0.129 0.033,-0.157 0.054,-0.267 0.073,-0.352 -0.032,-0.79 -0.04,-1.582 -0.02,-2.375 -2.017,2.617 -4.215,5.064 -6.612,7.314 0.087,1.161 0.214,2.319 0.395,3.471 0.825,-0.873 1.625,-1.77 2.388,-2.7 m 4.176,-1.996 c -0.126,-0.937 -0.222,-1.877 -0.283,-2.821 -1.795,2.817 -3.884,5.446 -6.225,7.827 0.17,1.039 0.378,2.073 0.618,3.1 2.123,-2.595 4.032,-5.313 5.89,-8.106 m 1.723,10.184 c -0.064,-0.365 -0.179,-2.223 -0.48,-2.299 -0.13,-0.033 -0.606,0.547 -1.126,1.244 0.49,0.362 1.105,0.823 1.631,1.174 -0.008,-0.04 -0.018,-0.079 -0.025,-0.119 m 0.566,0.456 c 0.013,0.008 0.029,0.018 0.043,0.026 -0.154,-0.745 -0.295,-1.493 -0.418,-2.244 0.083,0.752 0.211,1.49 0.375,2.218 m 0.247,1.015 c -0.026,-0.122 -0.051,-0.242 -0.075,-0.363 -0.008,-0.008 -0.017,-0.018 -0.024,-0.026 0.031,0.129 0.065,0.259 0.099,0.389 m -2.99,-1.878 c 0.114,-0.138 0.228,-0.288 0.344,-0.448 -0.118,0.009 -0.219,0.058 -0.294,0.163 -0.038,0.051 -0.051,0.153 -0.05,0.285 M -92.491,38.6 c 0.121,0.061 0.394,0.258 0.736,0.509 0.567,-0.817 1.116,-1.758 1.391,-2.109 0.008,-0.011 0.019,-0.013 0.028,-0.021 -0.224,-0.778 -0.429,-1.56 -0.617,-2.346 -0.382,0.985 -0.867,1.928 -1.327,2.921 -0.246,0.532 -1.334,3.05 -0.804,2.931 0.19,-0.042 0.424,-0.239 0.673,-0.519 -0.124,-0.472 -0.246,-0.898 -0.318,-1.196 -0.035,-0.143 0.121,-0.23 0.238,-0.17 m 0.111,1.487 c -0.44,0.619 -0.815,1.163 -0.922,1.299 -0.113,0.144 -0.36,0.096 -0.355,-0.11 0.028,-1.185 0.285,-2.169 0.748,-3.263 0.288,-0.681 1.556,-2.569 1.884,-3.69 -0.051,-0.218 -0.099,-0.435 -0.146,-0.653 -0.004,0.007 -0.007,0.012 -0.01,0.018 -0.265,0.383 -0.526,0.769 -0.782,1.159 -0.513,0.776 -1.01,1.564 -1.489,2.362 -1.052,1.754 -2.001,3.561 -2.89,5.401 1.306,1.12 3.366,2.472 4.241,0.252 0.23,-0.583 -0.018,-1.764 -0.279,-2.775 m -4.183,2.152 c 0.04,-0.146 0.078,-0.294 0.119,-0.44 0.014,-0.052 0.102,-0.039 0.095,0.016 -0.171,1.353 0.647,-1.12 0.842,-1.504 0.422,-0.831 0.862,-1.653 1.321,-2.462 0.902,-1.593 1.88,-3.134 2.914,-4.642 -0.179,-0.858 -0.333,-1.72 -0.462,-2.586 -0.228,0.358 -0.491,0.703 -0.721,1.047 -0.68,1.013 -1.386,2.007 -2.118,2.98 -0.973,1.293 -2.003,2.533 -3.075,3.74 0.31,1.296 0.673,2.58 1.085,3.851 m 8.666,-21.509 c -0.165,1.71 -0.291,3.462 -0.364,5.231 0.851,-2.44 0.114,-5.632 2.401,-7.232 0.142,-0.1 0.282,-0.166 0.421,-0.216 -0.627,-0.991 -1.212,-2.001 -1.749,-3.041 -0.321,1.796 -0.548,3.575 -0.709,5.258 m 0.899,-6.27 c 0.423,0.34 0.813,0.707 1.167,1.107 -0.366,-0.632 -0.696,-1.286 -0.992,-1.958 -0.063,0.284 -0.118,0.567 -0.175,0.851 m 22.512,56.84 c -0.068,0.061 -0.136,0.123 -0.204,0.184 -0.022,0.013 -0.042,0.031 -0.063,0.047 0.099,0.084 0.196,0.17 0.295,0.255 -0.009,-0.162 -0.019,-0.324 -0.028,-0.486 m 0.259,8.091 c 0.302,-1.011 0.801,-2.092 1.562,-2.8 0.31,-0.288 1.062,-0.585 1.258,-0.083 0.05,-0.145 0.133,-0.278 0.261,-0.39 0.085,-0.074 0.193,-0.129 0.309,-0.165 -0.226,-0.403 -0.462,-0.799 -0.707,-1.187 -0.849,-0.979 -1.784,-1.895 -2.772,-2.766 -0.021,0.02 -0.039,0.041 -0.063,0.061 -0.048,0.039 -0.112,-0.028 -0.066,-0.071 -0.003,-0.036 -0.005,-0.072 -0.007,-0.108 -0.118,-0.104 -0.236,-0.207 -0.355,-0.309 -0.1,0.09 -0.196,0.207 -0.282,0.292 -0.293,0.29 -0.576,0.591 -0.846,0.905 -0.564,0.656 -1.068,1.353 -1.527,2.086 0.449,0.862 0.988,1.713 1.575,2.544 0.771,-1.357 1.6,-2.675 2.507,-3.946 0.051,-0.071 0.144,-0.048 0.172,0.028 0.089,0.244 0.159,0.486 0.231,0.733 0.021,0.069 -0.09,0.113 -0.12,0.046 -0.079,-0.187 -0.153,-0.372 -0.224,-0.561 -0.899,1.223 -1.729,2.488 -2.501,3.793 0.432,0.607 0.888,1.201 1.353,1.781 0.08,0.039 0.161,0.078 0.242,0.117 m 2.037,2.607 c 0.002,-0.006 -0.001,-0.012 0.003,-0.018 0.248,-0.343 0.488,-0.696 0.733,-1.044 -0.088,-0.04 -0.175,-0.079 -0.263,-0.118 -0.762,-0.341 -1.516,-0.696 -2.266,-1.058 -0.001,10e-4 -0.003,0.002 -0.005,0.003 -0.034,0.018 -0.062,-0.008 -0.067,-0.038 -0.028,-0.014 -0.055,-0.028 -0.084,-0.04 0.659,0.807 1.323,1.582 1.949,2.313 m 0.967,-0.959 c -0.266,0.349 -0.539,0.694 -0.798,1.044 -0.018,0.023 -0.042,0.034 -0.065,0.038 0.026,0.03 0.053,0.062 0.078,0.092 0.242,0.283 1.42,1.911 1.785,1.988 1.195,0.251 1.397,-0.988 1.352,-2.112 -0.782,-0.353 -1.567,-0.7 -2.352,-1.05 m -2.632,-1.472 c 0.9,-0.525 1.772,-1.094 2.602,-1.727 -0.139,-0.35 -0.251,-0.756 -0.204,-1.116 -0.035,-0.001 -0.07,-0.016 -0.082,-0.062 -0.057,-0.216 -0.543,-0.174 -0.692,-0.111 -0.197,0.083 -0.334,0.247 -0.471,0.401 -0.238,0.27 -0.446,0.569 -0.634,0.875 -0.315,0.515 -0.554,1.066 -0.735,1.638 0.072,0.034 0.143,0.069 0.216,0.102 m 3.128,-3.419 c -0.169,0.233 -0.338,0.466 -0.508,0.699 -0.01,0.266 0.04,0.519 0.149,0.757 0.018,0.03 0.033,0.053 0.049,0.079 0.151,-0.107 0.324,-0.22 0.43,-0.351 l 0.266,-0.223 c -0.105,-0.277 -0.212,-0.554 -0.317,-0.832 -0.024,-0.042 -0.045,-0.086 -0.069,-0.129 m 0.106,-0.236 c -0.241,-0.32 -0.491,-0.634 -0.75,-0.941 0.193,0.3 0.393,0.623 0.597,0.967 0.05,-0.012 0.1,-0.021 0.153,-0.026 m 1.565,4.656 c -0.221,-1.168 -0.628,-2.289 -1.135,-3.364 -0.106,0.095 -0.213,0.179 -0.302,0.249 -0.15,0.12 -0.305,0.233 -0.458,0.349 0.155,0.181 0.309,0.177 0.68,0.128 0.142,-0.02 0.197,0.189 0.051,0.219 -0.241,0.057 -0.484,0.102 -0.729,0.135 -0.052,0.009 -0.113,-0.01 -0.137,-0.061 -0.035,-0.073 -0.072,-0.153 -0.108,-0.237 -0.815,0.599 -1.672,1.137 -2.553,1.634 0.807,0.38 1.617,0.753 2.43,1.121 0.267,-0.376 0.542,-0.746 0.839,-1.094 0.074,-0.084 0.207,0.031 0.15,0.123 -0.231,0.371 -0.487,0.727 -0.752,1.08 0.732,0.332 1.465,0.664 2.195,0.999 -0.039,-0.554 -0.127,-1.05 -0.171,-1.281 M -103.91,31.683 c 1.647,-1.424 3.252,-2.897 4.803,-4.426 0.016,-0.567 0.044,-1.133 0.086,-1.698 0.033,-0.454 0.083,-0.905 0.134,-1.356 -1.591,1.543 -3.092,3.181 -4.49,4.939 -0.025,0.032 -0.08,-0.001 -0.055,-0.034 1.414,-1.821 2.941,-3.537 4.569,-5.145 0.065,-0.532 0.145,-1.062 0.237,-1.589 -2.888,1.351 -5.378,3.015 -5.575,6.525 -0.054,0.954 0.059,1.883 0.291,2.784 m 8.181,-17.645 c -1.191,2.453 -2.048,5.081 -2.567,7.783 1.081,-0.48 2.164,-0.99 3.035,-1.795 0.74,-0.683 1.571,-1.939 1.567,-2.98 -0.005,-1.729 -0.897,-2.555 -2.035,-3.008 m 0.404,-0.802 c 0.024,-0.009 0.05,-0.013 0.074,-0.024 0.101,-0.031 0.131,0.122 0.036,0.157 -0.039,0.015 -0.074,0.027 -0.111,0.04 0.013,0.124 -0.072,0.262 -0.215,0.252 -0.011,0.024 -0.023,0.046 -0.035,0.069 0.168,0.065 0.356,0.154 0.563,0.275 0.914,0.538 1.513,1.313 1.659,2.378 0.418,3.087 -2.674,4.775 -5.023,5.873 -0.085,0.48 -0.159,0.963 -0.224,1.447 2.003,-1.95 4.163,-3.735 6.498,-5.315 0.087,-0.059 0.161,0.083 0.078,0.141 -2.353,1.66 -4.555,3.465 -6.609,5.43 -0.124,0.995 -0.206,1.996 -0.239,2.998 -10e-4,0.022 0,0.044 -10e-4,0.066 0.319,-0.316 0.642,-0.628 0.954,-0.95 2.112,-2.168 4.047,-4.739 6.084,-6.869 0.176,-1.634 0.419,-3.28 0.737,-4.915 -0.641,0.879 -1.275,1.761 -1.892,2.648 -0.093,0.133 -0.276,0.011 -0.209,-0.129 0.594,-1.264 1.187,-2.527 1.781,-3.79 0.071,-0.151 0.29,-0.012 0.22,0.136 -0.358,0.756 -0.737,1.505 -1.075,2.271 -0.754,1.703 -0.001,0.056 0.375,-0.484 0.307,-0.443 0.622,-0.882 0.933,-1.324 0.11,-0.524 0.229,-1.048 0.355,-1.569 -0.497,-0.068 -0.91,-0.187 -1.39,-0.411 -0.378,-0.178 -0.71,-0.427 -1.073,-0.628 -0.222,-0.15 -0.456,-0.275 -0.701,-0.381 -0.562,0.841 -1.079,1.711 -1.55,2.608 m 0.762,-2.914 c 0.004,0.08 0.009,0.159 0.013,0.24 0.01,0.16 -0.224,0.196 -0.294,0.068 -0.032,-0.06 -0.065,-0.119 -0.097,-0.179 -0.38,0.305 -0.544,1.152 -0.493,2.54 0.452,-0.846 0.943,-1.669 1.475,-2.465 -0.227,-0.132 -0.429,-0.202 -0.604,-0.204 m -0.784,-1.279 c -0.003,-0.005 0.079,0.144 0.175,0.325 0.051,-0.028 0.105,-0.053 0.155,-0.081 -0.026,-0.466 -0.034,-1.001 -0.044,-1.114 -0.037,-0.443 -0.183,-1.139 -0.19,-1.786 -0.496,0.015 -0.989,0.046 -1.478,0.096 0.462,0.852 0.922,1.705 1.382,2.56 m -0.023,0.628 c -0.002,0.001 -0.005,0.003 -0.008,0.005 0.003,-10e-4 0.007,-10e-4 0.01,-0.002 0,-10e-4 -0.001,-0.002 -0.002,-0.003 m 0.381,-0.024 C -94.995,9.59 -95,9.53 -95.005,9.466 c -0.03,0.016 -0.061,0.031 -0.092,0.048 0.024,0.045 0.045,0.089 0.067,0.132 0.013,0 0.027,0 0.041,10e-4 m -1.655,1.081 c 0.061,-0.137 0.131,-0.266 0.218,-0.378 0.016,-0.021 0.033,-0.036 0.049,-0.055 -0.119,0.078 -0.238,0.155 -0.356,0.235 0.031,0.066 0.057,0.132 0.089,0.198 m 0.739,2.901 c 0.039,0.01 0.078,0.018 0.121,0.031 0.004,-0.007 0.007,-0.013 0.011,-0.019 -0.045,-0.004 -0.088,-0.008 -0.132,-0.012 m -4.014,-0.524 -0.047,0.044 c 0.021,-0.003 0.042,-0.006 0.063,-0.009 -0.005,-0.011 -0.01,-0.023 -0.016,-0.035 m 2.067,-0.286 c -0.196,-0.337 -0.379,-0.685 -0.553,-1.04 -0.496,0.403 -0.977,0.822 -1.441,1.26 0.013,0.029 0.027,0.06 0.041,0.089 0.915,-0.117 1.818,-0.139 2.66,-0.02 1.601,0.227 0.769,0.378 0.415,-0.648 -0.147,-0.427 -0.154,-0.952 -0.025,-1.422 -0.066,-0.117 -0.136,-0.234 -0.195,-0.352 -0.459,0.318 -0.905,0.652 -1.341,1.001 0.162,0.367 0.334,0.73 0.524,1.085 0.03,0.056 -0.053,0.101 -0.085,0.047 m 0.623,-6.534 -0.011,-0.02 c -0.001,0.007 -0.002,0.014 -0.004,0.022 0.006,-0.001 0.011,-0.001 0.015,-0.002 m -0.055,0.266 c -0.211,1.325 -0.047,2.615 0.485,3.83 0.441,-0.298 0.892,-0.582 1.353,-0.851 -0.551,-1.002 -1.104,-2.002 -1.652,-3.006 -0.062,0.008 -0.124,0.018 -0.186,0.027 m 4.173,1.423 C -93.203,7.772 -93.476,7 -93.757,6.393 c -0.35,-0.016 -0.699,-0.024 -1.046,-0.02 -0.011,0.491 0.08,1.072 0.092,1.287 l 0.079,1.424 c 0.54,-0.287 1.093,-0.553 1.657,-0.799 -0.046,-0.103 -0.088,-0.209 -0.136,-0.311 m 0.201,0.459 c -0.584,0.254 -1.154,0.531 -1.711,0.829 0.008,0.146 0.016,0.293 0.024,0.439 0.323,0.069 0.649,0.195 0.969,0.344 0.287,-0.41 0.587,-0.812 0.897,-1.206 C -92.79,8.703 -92.85,8.567 -92.91,8.433 m 0.638,0.157 c 0.093,0.212 0.189,0.424 0.281,0.638 0.116,-0.52 0.314,-1.035 0.615,-1.397 -0.127,0.044 -0.252,0.091 -0.377,0.137 -0.177,0.205 -0.35,0.412 -0.519,0.622 m 0.118,-0.476 c -0.093,0.037 -0.189,0.07 -0.282,0.108 0.024,0.049 0.045,0.101 0.068,0.151 0.071,-0.086 0.141,-0.173 0.214,-0.259 m 7.412,5.442 c -0.529,-2.286 -0.48,-4.628 0.107,-6.817 -0.783,1.746 -1.395,3.615 -1.871,5.516 0.644,-0.063 1.446,-0.176 1.231,-0.463 -0.043,-0.057 0.028,-0.128 0.082,-0.077 0.318,0.301 0.17,0.719 -0.245,0.912 -0.278,0.131 -0.38,-0.029 -0.633,0.013 -0.283,0.047 -0.46,0.108 -0.572,0.187 -0.036,0.154 -0.073,0.308 -0.107,0.463 0.052,0.176 0.152,0.39 0.268,0.664 0.215,0.512 0.457,1.015 0.719,1.504 0.145,0.27 0.318,0.526 0.479,0.788 0.252,0.345 0.484,0.707 0.696,1.094 0.022,0.039 -0.037,0.085 -0.064,0.047 -0.297,-0.403 -0.575,-0.814 -0.836,-1.232 -0.266,-0.286 -1.068,-1.029 -1.558,-1.463 -0.04,0.207 -0.076,0.413 -0.114,0.62 0.301,0.575 0.738,1.213 0.876,1.463 0.315,0.574 0.652,1.133 0.998,1.688 0.463,-0.128 0.912,-0.089 1.371,-0.293 0.74,-0.33 0.822,0.774 0.305,-0.985 -0.29,-0.986 -0.679,-1.941 -0.962,-2.93 -0.053,-0.187 -0.091,-0.374 -0.137,-0.562 -0.135,0.848 -0.104,1.748 0.139,2.696 0.007,0.03 -0.039,0.041 -0.047,0.01 -0.259,-1.003 -0.282,-1.951 -0.125,-2.843 m 29.61,25.039 c -1.762,-8.834 -2.951,-17.988 -2.422,-27.01 0.113,-1.914 0.329,-3.846 0.687,-5.746 -2.478,-0.578 -4.992,-1.01 -7.502,-1.249 -3.212,-0.306 -6.49,-0.261 -9.63,0.462 -2.805,4.503 -4.701,9.562 -5.484,14.864 -1.335,9.046 0.963,17.968 5.025,26.008 0.081,0.007 0.163,0.009 0.243,0.016 -0.079,0 -0.158,-0.003 -0.237,-0.005 0.524,1.038 1.074,2.062 1.654,3.069 0.982,1.705 2.027,3.362 3.123,4.983 0.994,0.26 2.022,0.406 3.088,0.394 0.031,-10e-4 0.028,0.047 -0.002,0.048 -1.044,0.031 -2.047,-0.099 -3.017,-0.343 10.363,15.286 25.183,27.256 33.181,44.221 0.468,0.992 0.907,1.995 1.332,3.004 -0.13,-0.999 -0.256,-1.998 -0.383,-2.997 0.149,1.047 0.299,2.094 0.445,3.141 0.743,1.778 1.419,3.581 2.027,5.404 0.658,-0.171 1.319,-0.34 1.983,-0.512 0.27,-0.071 0.542,-0.141 0.814,-0.212 -1.27,-5.115 -3.064,-10.099 -5.392,-14.874 -4.045,-8.299 -9.046,-16.005 -12.097,-24.772 -3.152,-9.051 -5.563,-18.501 -7.436,-27.894 m 40.621,46.973 c 1.26,-2.405 2.558,-4.79 3.925,-7.132 -1.425,1.347 -2.8,2.741 -4.064,4.242 -2.777,3.295 -4.785,7.084 -5.996,11.108 2.037,-2.742 4.083,-5.482 6.135,-8.218 m -96.263,-24.633 c 0.932,1.29 1.914,2.63 2.944,3.966 5.538,5.904 12.27,10.742 19.75,13.773 1.443,0.398 2.89,0.769 4.308,1.159 2.922,0.801 5.934,1.53 8.96,2.287 4.524,0.773 9.041,1.574 13.104,3.783 0.054,0.03 0.105,0.061 0.159,0.09 2.489,0.909 4.909,1.951 7.219,3.185 -2.481,-1.664 -5.067,-3.176 -7.753,-4.514 -8.38,-4.173 -17.638,-6.518 -25.575,-11.584 -14.688,-9.376 -25.275,-30.749 -19.852,-47.976 1.353,-4.294 3.681,-8.261 6.786,-11.436 -1.099,0.139 -2.138,0.368 -3.121,0.681 0.176,0.275 0.346,0.553 0.529,0.825 0.028,0.044 -0.042,0.081 -0.072,0.039 -0.188,-0.275 -0.363,-0.558 -0.545,-0.836 -0.666,0.216 -1.306,0.468 -1.921,0.757 0.135,0.179 0.271,0.357 0.412,0.532 0.033,0.04 -0.026,0.096 -0.059,0.056 -0.148,-0.181 -0.291,-0.364 -0.434,-0.547 -0.774,0.37 -1.506,0.799 -2.199,1.277 0.186,0.273 0.378,0.542 0.582,0.807 0.013,0.016 -0.01,0.039 -0.023,0.022 -0.214,-0.256 -0.419,-0.519 -0.621,-0.786 -7.121,4.973 -9.963,15.376 -10.15,25.156 0.937,6.898 3.417,13.539 7.572,19.284 m 4.178,-51.374 c -0.088,-0.19 -0.18,-0.376 -0.265,-0.567 -0.609,0.341 -1.205,0.705 -1.783,1.099 0.085,0.222 0.172,0.443 0.264,0.661 0.579,-0.423 1.175,-0.821 1.784,-1.193 m -1.627,1.552 c 0.62,1.398 1.386,2.708 2.305,3.938 0.028,-0.014 0.054,-0.029 0.081,-0.042 0.563,-0.266 1.174,-0.528 1.815,-0.771 -0.895,-1.393 -1.698,-2.835 -2.411,-4.33 -0.609,0.378 -1.207,0.78 -1.79,1.205 m 6.893,-3.961 c -0.107,-0.034 -0.179,-0.006 -0.222,0.068 0.074,-0.025 0.149,-0.044 0.222,-0.068 m -0.278,0.437 c 0.013,0.438 0.182,1.029 0.172,0.992 0.13,0.512 0.276,1.019 0.436,1.521 0.303,0.949 0.671,1.871 1.08,2.776 0.464,-0.435 0.945,-0.85 1.44,-1.249 -0.627,-1.318 -1.07,-2.742 -1.15,-4.196 -0.006,-0.113 -0.009,-0.268 10e-4,-0.436 -0.669,0.167 -1.329,0.364 -1.979,0.592 m 2.45,-1.251 c -0.051,0.066 -0.091,0.157 -0.117,0.274 0.555,-0.118 1.115,-0.217 1.678,-0.289 0.009,-0.056 0.023,-0.113 0.033,-0.17 -0.537,0.042 -1.068,0.105 -1.594,0.185 m 4.376,-0.234 c -0.003,0.024 -0.007,0.046 -0.009,0.071 0.316,0.006 0.634,0.02 0.951,0.043 -0.008,-0.015 -0.015,-0.031 -0.022,-0.046 -0.308,-0.026 -0.616,-0.054 -0.92,-0.068 m 37.361,-15.528 c -2.639,0.761 -5.273,2.046 -7.778,3.082 -5.638,2.333 -11.114,5.156 -15.743,9.184 -1.072,0.933 -2.098,1.921 -3.093,2.942 -0.238,0.681 -0.44,1.38 -0.57,2.108 -0.297,1.658 -0.19,3.197 0.109,4.7 1.239,-3.68 5.599,-6.241 9.182,-7.296 0.348,-0.103 0.699,-0.191 1.051,-0.276 2.091,-3.384 4.693,-6.457 7.731,-9.083 0.118,-0.103 0.284,0.074 0.166,0.175 -2.958,2.556 -5.498,5.541 -7.559,8.824 5.574,-1.273 11.508,-0.517 17.075,0.811 0.156,-0.812 0.331,-1.619 0.542,-2.415 -0.437,0.426 -0.88,0.845 -1.336,1.254 -0.039,0.035 -0.094,-0.024 -0.055,-0.059 0.489,-0.441 0.967,-0.892 1.436,-1.351 1.181,-4.384 3.268,-8.447 6.804,-11.516 -1.444,-0.628 -2.945,-1.223 -4.448,-1.429 -1.174,0.048 -2.347,0.165 -3.514,0.345 m 9.404,0.887 c 0.002,0.013 -0.002,0.022 -0.006,0.031 0.002,0.002 0.005,0.003 0.009,0.005 -0.002,-0.012 -10e-4,-0.025 -0.003,-0.036 m -0.109,0.784 c -0.385,-0.169 -0.775,-0.343 -1.171,-0.516 -3.478,2.995 -5.545,6.946 -6.737,11.218 1.469,-1.457 2.836,-3.007 4.075,-4.676 0.726,-0.976 1.41,-1.984 2.044,-3.022 0.187,-0.306 0.519,-0.765 0.853,-1.272 -0.647,1.153 -1.35,2.273 -2.108,3.356 -1.457,2.081 -3.105,3.997 -4.907,5.772 -0.24,0.881 -0.445,1.774 -0.617,2.676 0.268,0.065 0.535,0.132 0.801,0.198 2.313,-2.054 4.421,-4.292 6.297,-6.758 0.844,-1.111 1.64,-2.255 2.38,-3.439 0.105,-0.168 0.832,-1.59 1.353,-2.624 -0.318,-0.119 -0.634,-0.237 -0.946,-0.359 -0.42,-0.166 -0.852,-0.351 -1.291,-0.542 -0.025,0.043 -0.049,0.088 -0.076,0.131 0.02,-0.049 0.033,-0.096 0.05,-0.143 m 5.902,0.533 c -0.136,0.324 -0.279,0.645 -0.425,0.964 0.898,0.332 1.805,0.678 2.684,1.069 0.049,-0.112 0.098,-0.222 0.147,-0.334 -0.743,-0.63 -1.54,-1.202 -2.406,-1.699 m 2.629,1.9 c -0.026,0.087 -0.053,0.173 -0.081,0.259 0.272,0.126 0.536,0.261 0.799,0.398 -0.231,-0.227 -0.474,-0.443 -0.718,-0.657 m 19.46,4.83 c -2.497,-2.281 -4.883,-4.714 -6.996,-7.362 -0.555,0.024 -1.098,0.076 -1.635,0.153 1.074,1.262 2.117,2.771 3.241,3.986 1.562,1.691 3.183,3.321 4.844,4.913 0.035,0.032 0.03,0.07 0.013,0.101 0.386,-0.065 0.772,-0.117 1.158,-0.143 0.077,-0.006 1.687,0.121 1.864,0.013 0.348,-0.214 0.515,-0.47 0.565,-0.747 -0.544,-0.753 -1.109,-1.49 -1.701,-2.204 -1.135,-1.116 -2.238,-2.278 -3.281,-3.488 -0.939,-0.883 -1.923,-1.72 -2.951,-2.504 -0.281,-0.029 -0.561,-0.056 -0.843,-0.074 -0.276,-0.017 -0.544,-0.02 -0.812,-0.018 0.033,0.036 0.064,0.07 0.088,0.1 0.704,0.874 1.433,1.728 2.177,2.568 1.406,1.588 2.884,3.101 4.423,4.562 0.098,0.093 -0.054,0.235 -0.154,0.144 m 5.701,-3.784 c -0.181,-0.224 -0.364,-0.449 -0.545,-0.672 -1.247,-0.524 -2.508,-1.012 -3.788,-1.435 0.987,1.197 1.959,2.404 2.9,3.636 0.898,-0.372 1.711,-0.921 2.509,-1.5 -0.4,-0.177 -0.799,-0.353 -1.202,-0.525 l 0.267,0.363 c 0.072,0.097 -0.061,0.231 -0.141,0.133 m 1.395,-3.651 c -0.321,-0.088 -0.647,-0.172 -0.971,-0.257 0.337,0.846 0.673,1.692 1.015,2.535 0.091,0.223 -0.122,0.471 -0.355,0.334 -1.023,-0.606 -2.035,-1.237 -3.016,-1.912 l 1.534,2.085 c 0.576,0.234 1.152,0.47 1.728,0.711 1.19,-0.872 2.375,-1.757 3.811,-2.134 -1.198,-0.541 -2.443,-1.002 -3.746,-1.362 m 8.394,4.026 c -0.043,0.092 -0.088,0.186 -0.132,0.279 0.425,0.622 0.827,1.263 1.211,1.917 0.162,-0.345 0.333,-0.684 0.504,-1.023 -0.515,-0.409 -1.045,-0.797 -1.583,-1.173 m 3.584,2.889 c -0.327,0.727 -0.665,1.448 -1.004,2.169 0.028,0.06 0.057,0.118 0.085,0.179 0.226,0.156 0.451,0.314 0.673,0.474 0.356,-0.671 0.732,-1.332 1.132,-1.979 -0.292,-0.285 -0.586,-0.567 -0.886,-0.843 m 19.522,33.421 c 0.053,6.747 -2.103,13.172 -5.244,19.079 -3.498,6.577 -8.87,11.974 -13.621,17.64 -5.138,6.125 -10.114,12.439 -14.453,19.159 -3.977,6.157 -6.342,13.689 -5.518,21.093 0.444,3.993 1.609,7.784 2.571,11.664 0.484,1.954 0.762,3.97 1.099,5.954 0.268,1.583 0.896,3.201 0.899,4.814 10e-4,0.263 -0.018,0.529 -0.052,0.791 0.132,-0.071 0.298,-0.08 0.462,0.024 0.355,0.202 0.689,0.433 1.003,0.694 0.54,0.41 0.192,1.261 -0.498,1.09 -0.472,-0.117 -0.946,-0.215 -1.42,-0.305 -0.389,0.738 -1.017,1.269 -1.945,1.309 -2.692,4.783 -9.153,3.736 -13.524,1.642 -0.608,0.01 -1.178,-0.327 -1.542,-0.872 -1.702,-2.553 -1.823,-6.525 -2.478,-9.475 -0.862,-3.885 -1.763,-7.755 -3.033,-11.53 -0.556,-1.651 -1.245,-3.246 -1.918,-4.847 -0.19,-0.042 -0.381,-0.084 -0.57,-0.133 -0.111,-0.029 -0.114,-0.181 -0.024,-0.234 0.119,-0.07 0.241,-0.128 0.36,-0.194 -0.519,-1.249 -1.017,-2.504 -1.419,-3.796 -1.283,-4.122 -3.236,-7.365 -6.478,-10.244 -11.146,-9.896 -26.878,-7.864 -40.075,-12.924 -11.665,-4.474 -20.84,-12.893 -26.296,-24.106 -5.057,-10.391 -7.679,-22.558 -4.435,-33.902 3.861,-13.499 16.606,-22.549 30.746,-21.346 0.522,0.044 0.905,0.248 1.172,0.532 0.259,-0.53 0.528,-1.054 0.815,-1.565 3.609,-6.417 10.525,-9.641 17.053,-12.35 6.976,-2.896 14.496,-4.883 22.068,-3.529 3.368,0.602 6.45,1.842 9.122,3.675 0.185,-0.24 0.382,-0.459 0.587,-0.661 -0.063,-0.237 -0.012,-0.491 0.22,-0.666 2.425,-1.837 5.344,-3.235 8.426,-3.344 3.886,-0.139 7.765,0.613 11.564,1.34 0.991,0.189 1.959,0.395 2.91,0.619 -1.176,-0.602 -2.403,-1.128 -3.698,-1.55 -0.049,-0.017 -0.026,-0.094 0.024,-0.077 1.47,0.478 2.84,1.067 4.13,1.738 5.844,1.424 10.959,3.63 15.662,7.862 10.398,9.358 17.238,22.837 17.348,36.931"
         style="fill:#d4aa00;fill-opacity:1;fill-rule:nonzero;stroke:none"
         id="path1115" />
    </g>
  </g>
</svg>
