<?xml version="1.0" encoding="UTF-8" standalone="no"?>
<svg
   xmlns:dc="http://purl.org/dc/elements/1.1/"
   xmlns:cc="http://creativecommons.org/ns#"
   xmlns:rdf="http://www.w3.org/1999/02/22-rdf-syntax-ns#"
   xmlns:svg="http://www.w3.org/2000/svg"
   xmlns="http://www.w3.org/2000/svg"
   xmlns:sodipodi="http://sodipodi.sourceforge.net/DTD/sodipodi-0.dtd"
   xmlns:inkscape="http://www.inkscape.org/namespaces/inkscape"
   version="1.1"
   id="svg833"
   width="232.60175"
   height="197.23622"
   viewBox="0 0 232.60175 197.23622"
   sodipodi:docname="berenjena.svg"
   inkscape:version="1.0.1 (3bc2e813f5, 2020-09-07)">
  <metadata
     id="metadata839">
    <rdf:RDF>
      <cc:Work
         rdf:about="">
        <dc:format>image/svg+xml</dc:format>
        <dc:type
           rdf:resource="http://purl.org/dc/dcmitype/StillImage" />
        <dc:title></dc:title>
      </cc:Work>
    </rdf:RDF>
  </metadata>
  <defs
     id="defs837">
    <clipPath
       clipPathUnits="userSpaceOnUse"
       id="clipPath863">
      <path
         d="M 0,0 H 500 V 500 H 0 Z"
         id="path861" />
    </clipPath>
    <clipPath
       clipPathUnits="userSpaceOnUse"
       id="clipPath1675">
      <path
         d="M 0,500 H 500 V 0 H 0 Z"
         id="path1673" />
    </clipPath>
  </defs>
  <sodipodi:namedview
     pagecolor="#ffffff"
     bordercolor="#666666"
     borderopacity="1"
     objecttolerance="10"
     gridtolerance="10"
     guidetolerance="10"
     inkscape:pageopacity="0"
     inkscape:pageshadow="2"
     inkscape:window-width="1920"
     inkscape:window-height="1027"
     id="namedview835"
     showgrid="false"
     inkscape:zoom="0.28522727"
     inkscape:cx="-11.991969"
     inkscape:cy="-452.6234"
     inkscape:window-x="-8"
     inkscape:window-y="-8"
     inkscape:window-maximized="1"
     inkscape:current-layer="g841" />
  <g
     inkscape:groupmode="layer"
     inkscape:label="Image"
     id="g841"
     transform="translate(98.472353,-1457.6334)">
    <g
       id="g1081"
       transform="matrix(-0.72609869,-1.1182837,-1.1182837,0.72609869,121.59464,1613.1736)"
       style="fill:#d4aa00;fill-opacity:1">
      <path
         d="m 0,0 c 0.245,-0.041 0.503,-0.052 0.771,-0.022 0.298,0.033 0.523,0.47 0.18,0.639 -1.412,0.695 -1.465,2.988 -0.008,3.759 0.019,0.01 0.04,0.014 0.059,0.022 0.031,-4.158 5.415,-9.687 7.713,-11.553 4.957,-4.025 11.428,-6.149 17.075,-2.665 -0.031,-2.131 0.745,-5.046 3.094,-4.13 0.284,-0.955 1.017,-1.378 1.928,-1.511 -5.534,-1.786 -11.435,-1.849 -17.18,1.001 C 7.362,-11.35 2.968,-6.09 0,0 m -5.243,22.19 c 0.127,-0.201 0.311,-0.393 0.587,-0.626 0.087,-0.073 0.214,0.04 0.131,0.125 -0.209,1.003 0.011,1.159 0.656,0.482 0.102,-1.05 0.278,-2.085 0.508,-3.107 -0.57,0.363 -1.153,0.705 -1.748,1.028 -0.056,0.699 -0.099,1.398 -0.134,2.098 M 3.17,58.805 c 3.476,0.319 6.947,0.844 10.41,1.281 -0.522,-0.923 -1.025,-1.857 -1.487,-2.81 C 9.509,56.008 7.222,54.217 5.301,51.943 3.77,52.13 2.231,52.252 0.684,52.293 0.59,52.295 0.589,52.153 0.682,52.147 2.179,52.056 3.67,51.937 5.156,51.777 4.441,50.915 3.778,49.987 3.173,48.989 c -1.409,0.244 -2.826,0.44 -4.244,0.585 0.427,1.154 0.879,2.3 1.372,3.431 0.87,1.993 1.833,3.923 2.869,5.8 m 1.549,2.679 c 4.142,0.317 8.288,1.421 11.936,3.431 C 16.642,64.896 16.628,64.878 16.614,64.858 15.541,63.359 14.552,61.797 13.64,60.192 10.203,59.826 6.739,59.545 3.314,59.07 c 0.455,0.816 0.92,1.622 1.405,2.414 m 94.978,41.538 c 0.209,-0.007 0.417,-0.024 0.626,-0.033 0.428,-0.175 0.852,-0.36 1.273,-0.556 -4.18,0.332 -8.393,0.577 -12.599,0.588 -0.168,0.015 -0.336,0.036 -0.505,0.048 -0.023,0.002 -0.023,-0.033 0,-0.035 0.048,-0.005 0.097,-0.011 0.145,-0.014 -5.708,-0.002 -11.399,-0.434 -16.962,-1.662 -6.203,-1.368 -12.15,-3.647 -17.819,-6.499 -0.575,0.924 -1.214,1.777 -1.937,2.576 2.102,0.73 4.223,1.399 6.356,2 13.402,3.768 27.6,4.088 41.422,3.587 m 22.239,-3.644 c -3.247,0.857 -6.553,1.5 -9.88,1.978 0.02,0.028 0.042,0.057 0.062,0.084 0.063,0.081 -0.075,0.192 -0.139,0.113 -0.045,-0.056 -0.093,-0.111 -0.139,-0.165 -1.773,0.25 -3.55,0.46 -5.327,0.622 -1.42,0.13 -2.846,0.256 -4.276,0.373 -0.424,0.201 -0.851,0.392 -1.283,0.572 7.093,-0.364 14.131,-1.617 20.982,-3.577 m 17.605,-7.044 c 0.205,-0.414 0.425,-0.822 0.657,-1.223 -0.002,-0.009 -0.005,-0.02 -0.007,-0.031 -0.002,-0.01 0.011,-0.015 0.017,-0.007 -0.016,-0.022 -0.385,0.177 -0.953,0.502 0.016,0.066 -0.06,0.148 -0.129,0.103 -0.008,-0.005 -0.016,-0.011 -0.022,-0.016 -0.856,0.491 -2.089,1.222 -3.277,1.925 0.073,0.062 0.146,0.126 0.218,0.186 0.081,0.069 -0.031,0.183 -0.112,0.119 -0.088,-0.071 -0.179,-0.139 -0.268,-0.208 -1.564,0.926 -3.011,1.781 -3.346,1.943 -0.6,0.29 -1.208,0.565 -1.819,0.831 0.014,0.028 0.013,0.058 -0.004,0.082 2.99,-1.128 5.929,-2.384 8.81,-3.741 0.079,-0.155 0.158,-0.308 0.235,-0.465 m 1.13,6.125 c -2.541,3.49 -6.077,5.503 -10.224,6.072 8.152,3.7 17.153,-7.701 19.236,-14.451 0.796,-2.577 3.334,-5.999 6.439,-8.505 -1.751,0.536 -3.379,1.465 -4.887,2.477 -0.107,0.072 -0.247,-0.097 -0.145,-0.183 1.205,-1.017 2.478,-1.957 3.817,-2.793 -5.088,1.262 -10.53,1.038 -15.587,-0.57 -8.139,-2.592 -13.965,-8.166 -19.154,-14.7 -1.287,-1.622 -2.606,-3.279 -4.186,-4.632 -0.568,-0.488 -1.168,-0.945 -1.805,-1.345 -1.263,0.02 -2.545,0.214 -3.841,0.602 1.309,0.478 2.537,1.153 3.671,1.965 4.134,2.958 7.238,7.307 10.81,10.881 1.684,1.685 3.593,3.194 5.455,4.679 1.887,1.506 3.686,3.237 5.738,4.514 3.944,2.454 7.973,2.26 12.36,1.869 0.209,-0.019 0.312,0.225 0.233,0.39 -0.644,1.346 -1.534,2.274 -2.58,2.879 -0.49,1.027 -0.817,2.123 -1.264,3.296 0.542,0.464 0.669,1.402 -0.111,1.966 -0.371,0.27 -0.746,0.525 -1.119,0.786 -0.826,1.674 -1.772,3.313 -2.856,4.803 m 31.044,-21.155 c 0.231,0.024 0.817,0.155 1.507,0.306 0.008,-0.323 0.08,-0.647 0.208,-0.946 0.036,-0.812 0.215,-1.666 0.488,-2.509 -2.452,1.678 -5.931,2.172 -8.766,2.465 -6.014,0.621 -12.14,0.063 -17.956,-1.582 -6.077,-1.719 -11.353,-4.753 -16.534,-8.299 -4.101,-2.807 -8.682,-5.81 -13.577,-6.667 -0.569,0.007 -1.147,-0.016 -1.743,-0.096 -0.059,-0.008 -0.118,-0.017 -0.177,-0.026 1.193,0.881 2.271,1.968 3.278,3.146 3.352,3.922 6.138,8.133 10.246,11.364 7.721,6.073 17.619,8.611 26.844,6.227 1.695,-0.999 3.404,-2.414 5.19,-3.192 3.199,-1.394 7.649,-0.551 10.992,-0.191 m 6.613,-1.967 c 0.368,-0.642 0.815,-1.244 1.297,-1.829 -0.059,-1.202 -0.366,-2.462 -0.193,-3.517 -0.124,0.296 -0.207,0.606 -0.236,0.936 -0.365,1.266 -0.525,2.572 -0.779,3.86 -0.031,0.162 -0.06,0.352 -0.089,0.55 m 3.289,-4.269 c -0.241,0.063 -0.481,0.124 -0.723,0.188 -0.041,0.012 -0.078,-0.043 -0.045,-0.074 0.435,-0.423 0.861,-0.846 1.282,-1.277 -0.129,-0.076 -0.267,-0.156 -0.421,-0.244 -0.213,-0.269 -0.405,-0.473 -0.587,-0.637 -0.866,0.828 -0.68,2.046 -0.45,3.234 0.327,-0.39 0.647,-0.782 0.944,-1.19 M 163.53,69.996 c -0.412,-0.188 -0.813,-0.399 -1.21,-0.622 -5.093,-0.643 -9.822,-3.074 -13.098,-7.094 -2.132,-2.616 -3.385,-5.857 -5.682,-8.348 -2.499,-2.709 -5.769,-3.987 -9.324,-4.265 -0.793,0.078 -1.581,0.165 -2.355,0.237 -3.235,0.303 -6.398,0.303 -9.614,-0.191 -1.647,-0.253 -3.269,-0.628 -4.908,-0.925 0.822,0.93 1.602,1.905 2.393,2.859 0.121,0.145 0.239,0.293 0.358,0.445 8.007,1.269 16.392,5.186 23.4,9.058 4.425,2.445 8.427,5.736 12.983,7.916 4.844,2.32 10.005,2.299 15.233,2.079 0.241,-0.05 0.481,-0.114 0.722,-0.167 -3.035,0.382 -6.066,0.312 -8.898,-0.982 M 150.299,56.984 c -2.142,-2.838 -4.818,-5.627 -8.253,-6.84 -1.876,-0.664 -3.865,-0.739 -5.856,-0.629 3.899,0.773 7.153,3.285 9.383,6.713 1.946,2.989 3.448,6.11 6.218,8.477 2.995,2.559 6.586,4.09 10.456,4.626 -4.89,-2.771 -8.67,-8.004 -11.948,-12.347 m -40.114,2.437 c 0.028,0.037 0.057,0.075 0.097,0.116 0.298,0.301 1.583,0.215 2.795,0.096 -0.959,-0.141 -1.922,-0.243 -2.892,-0.212 m -2.438,0.503 c 0.648,0.037 1.28,0.096 1.839,0.25 -0.033,-0.235 -0.064,-0.469 -0.096,-0.703 -0.646,0.078 -1.217,0.234 -1.743,0.453 m 21.716,-0.587 c 4.248,3.381 8.88,6.552 13.868,8.729 8.294,3.62 17.548,4.866 26.445,3.434 -3.768,0.206 -7.59,0.078 -11.173,-1.18 -4.342,-1.524 -7.986,-4.541 -11.878,-6.906 -7.996,-4.857 -16.85,-8.717 -25.996,-10.878 3.307,1.587 5.831,4.489 8.734,6.801 m -2.362,-0.048 c -0.283,0.011 -0.558,0.007 -0.83,-0.004 0.667,0.171 1.339,0.34 2.018,0.515 -0.262,-0.313 -0.523,-0.626 -0.786,-0.944 -1.252,-1.508 -2.57,-2.943 -4.104,-4.17 -0.832,-0.667 -1.701,-1.246 -2.64,-1.719 1.776,2.379 3.581,5.103 6.367,6.108 0.112,0.04 0.105,0.209 -0.025,0.214 m 47.318,13.56 c 0.235,-0.528 0.503,-1.038 0.792,-1.518 -13.311,4.716 -28.649,2.888 -40.346,-5.159 -2.496,-1.717 -4.404,-3.799 -6.303,-6.05 -0.026,0.073 -0.087,0.129 -0.184,0.123 -2.156,-0.134 -4.361,-0.487 -6.522,-0.473 -1.116,0.008 -2.169,0.132 -3.225,0.22 0.693,0.171 1.382,0.366 2.056,0.602 4.375,1.532 8.104,4.333 11.906,6.903 3.953,2.674 8.071,4.922 12.61,6.441 4.86,1.625 9.979,2.468 15.105,2.473 4.103,0.004 11.071,-0.045 14.111,-3.562 m -61.917,21.662 c -4.772,3.35 -10.104,5.771 -15.722,7.195 2.569,-0.199 5.136,-0.469 7.689,-0.801 2.911,-1.743 5.613,-3.955 8.033,-6.394 m 3.788,-3.215 c -0.049,-0.131 -0.08,-0.217 -0.082,-0.218 -0.24,-0.111 -1.243,1.02 -2.059,1.99 0.732,-0.569 1.445,-1.16 2.141,-1.772 m 2.581,3.123 c -0.785,-0.328 -1.483,-0.845 -1.98,-1.57 -0.06,-0.087 -0.331,-0.819 -0.513,-1.314 -0.576,0.475 -1.145,0.926 -1.693,1.357 0.318,-0.035 0.635,-0.069 0.954,-0.1 0.082,-0.008 0.097,0.122 0.019,0.143 -1.248,0.323 -0.266,0.982 0.321,1.626 0.35,0.383 0.716,0.752 1.098,1.105 0.999,0.922 2.099,1.712 3.265,2.409 0.807,-0.195 1.607,-0.406 2.4,-0.629 -1.377,-0.909 -2.671,-1.908 -3.871,-3.027 m 4.661,0.005 c -0.909,0.278 -1.839,0.451 -2.779,0.412 -0.413,-0.017 -0.822,-0.082 -1.219,-0.188 1.057,0.992 2.173,1.915 3.36,2.757 1.03,-0.292 2.05,-0.6 3.058,-0.938 -0.847,-0.632 -1.653,-1.312 -2.42,-2.043 m 5.263,2.734 c 0.537,-0.192 1.075,-0.382 1.609,-0.583 -0.013,-0.003 -0.028,-0.002 -0.042,-0.014 -0.009,-0.01 -0.021,-0.019 -0.031,-0.029 -0.509,0.219 -1.021,0.424 -1.536,0.626 m -1.511,-3.749 c 0.713,0.535 1.369,1.181 2.013,1.831 0.793,-0.312 1.581,-0.639 2.364,-0.982 -0.776,-0.85 -1.596,-1.647 -2.406,-2.473 -0.622,0.338 -1.246,0.672 -1.882,0.986 -1.108,0.547 -2.29,1.135 -3.513,1.546 0.157,0.146 0.302,0.268 0.358,0.322 0.307,0.293 0.621,0.58 0.94,0.86 0.349,0.305 0.71,0.593 1.074,0.877 0.929,-0.316 1.849,-0.656 2.762,-1.013 -0.657,-0.57 -1.306,-1.154 -1.86,-1.797 -0.093,-0.107 0.039,-0.24 0.15,-0.157 m 12.665,-5.153 c 0.034,0.307 0.154,0.613 0.335,0.862 0.203,0.278 0.466,0.493 0.749,0.682 0.313,-0.447 0.644,-0.881 0.997,-1.293 -0.679,-0.022 -1.377,-0.109 -2.081,-0.251 m -7.391,2.64 c 0.799,0.568 1.553,1.213 2.302,1.861 1.115,-0.554 2.224,-1.132 3.326,-1.747 -0.957,-0.748 -1.833,-1.686 -2.231,-2.801 -0.032,-0.089 0.102,-0.175 0.164,-0.099 0.796,0.96 1.462,1.916 2.334,2.754 0.027,-0.015 0.056,-0.029 0.082,-0.045 0.341,-0.192 1.636,-1.041 2.237,-0.632 0.047,-0.073 0.096,-0.144 0.145,-0.215 -0.521,-0.337 -0.987,-0.76 -1.152,-1.373 -0.036,-0.132 -0.051,-0.262 -0.054,-0.391 -4.196,-0.923 -8.581,-3.765 -10.683,-6.187 -1.488,-1.716 -2.658,-3.717 -3.939,-5.587 -0.132,-0.193 -0.269,-0.381 -0.403,-0.571 -0.501,1.112 -1.274,2.222 -1.279,3.271 -0.006,1.384 0.435,2.288 -0.044,3.746 -1.088,3.312 -3.975,6.153 -6.779,8.483 0.166,0.839 0.602,1.494 1.203,1.98 -0.077,-0.081 -0.16,-0.155 -0.237,-0.237 -0.1,-0.106 -0.012,-0.305 0.143,-0.26 0.34,0.096 0.679,0.197 1.016,0.301 0.092,0.028 0.056,0.153 -0.035,0.141 -0.199,-0.025 -0.399,-0.055 -0.598,-0.082 0.242,0.255 0.493,0.499 0.741,0.746 1.224,0.524 2.737,0.61 4.045,0.311 0.133,-0.031 0.265,-0.069 0.398,-0.105 -0.161,-0.157 -0.327,-0.307 -0.484,-0.47 -0.084,-0.086 -0.069,-0.22 0.032,-0.286 0.404,-0.26 0.707,-0.3 1.168,-0.17 0.093,0.028 0.086,0.19 -0.021,0.179 -0.853,-0.09 -0.678,0.286 -0.349,0.65 1.419,-0.436 2.786,-1.146 4.094,-1.804 0.48,-0.242 0.95,-0.501 1.423,-0.756 0.028,-0.044 0.072,-0.07 0.129,-0.068 0.927,-0.503 1.846,-1.023 2.744,-1.577 0.4,-0.247 2.157,-1.677 3.067,-2.08 -0.383,0.117 -0.88,0.298 -1.053,0.294 -0.487,-0.009 -0.968,-0.12 -1.355,-0.427 -0.777,-0.616 -0.853,-1.49 -0.431,-2.311 0.117,-0.228 0.471,-0.034 0.349,0.191 l 3.498,1.574 c 0.169,-0.086 0.302,0.14 0.151,0.252 -2.14,1.566 -4.358,3.005 -6.674,4.282 0.881,0.723 1.657,1.598 2.347,2.521 0.915,-0.404 1.824,-0.832 2.726,-1.276 -0.753,-0.578 -1.504,-1.164 -2.19,-1.807 -0.088,-0.081 0.024,-0.246 0.127,-0.173 m -22.885,7.424 c 0.467,0.502 0.895,1.051 1.313,1.608 0.94,-0.159 1.876,-0.324 2.807,-0.495 -1.004,-0.759 -1.966,-1.588 -2.785,-2.526 -0.106,-0.121 0.055,-0.298 0.175,-0.183 0.953,0.918 1.88,1.82 2.884,2.656 0.954,-0.178 1.902,-0.363 2.844,-0.554 -1.479,-1.084 -2.851,-2.381 -3.838,-3.932 -0.083,-0.131 0.113,-0.24 0.202,-0.122 1.144,1.512 2.323,2.862 3.816,4.018 0.41,-0.083 0.822,-0.165 1.23,-0.25 0.62,-0.13 1.229,-0.278 1.84,-0.424 -2.233,-1.286 -4.142,-2.945 -5.734,-4.979 -0.009,-0.011 -0.008,-0.024 -0.013,-0.035 -0.259,0.202 -0.522,0.395 -0.785,0.591 -0.269,0.326 -0.476,0.577 -0.559,0.665 -2.333,2.459 -5.011,4.686 -7.922,6.455 1.846,-0.248 3.684,-0.526 5.507,-0.831 -0.411,-0.492 -0.811,-0.993 -1.165,-1.516 -0.073,-0.11 0.092,-0.243 0.183,-0.146 M 22.638,72.102 c -1.363,-1.435 -2.666,-2.92 -3.904,-4.462 -1.41,1.973 -3.024,3.785 -4.888,5.343 -0.035,0.03 -0.088,-0.019 -0.053,-0.05 1.834,-1.618 3.47,-3.364 4.902,-5.343 -0.36,-0.449 -0.716,-0.902 -1.064,-1.361 -1.288,1.219 -2.576,2.438 -3.865,3.657 -0.077,0.071 -0.195,-0.041 -0.118,-0.113 1.295,-1.225 2.59,-2.451 3.885,-3.675 -0.261,-0.348 -0.522,-0.695 -0.776,-1.047 -3.84,-1.81 -7.711,-3.002 -11.938,-3.399 3.175,5.165 6.976,9.854 11.25,14.072 0.006,-0.029 0.022,-0.054 0.053,-0.069 2.239,-1.092 4.425,-2.193 6.516,-3.553 m 4.959,4.801 c -0.591,-0.529 -1.175,-1.065 -1.752,-1.609 -1.837,1.317 -3.875,2.408 -6.067,2.997 -0.124,0.033 -0.174,-0.15 -0.052,-0.192 2.148,-0.74 4.13,-1.631 5.995,-2.922 -0.409,-0.387 -0.814,-0.778 -1.214,-1.172 -2.136,1.313 -4.44,2.394 -6.876,3.011 -0.091,0.023 -0.128,-0.111 -0.039,-0.14 2.393,-0.769 4.647,-1.696 6.794,-2.991 -0.561,-0.555 -1.113,-1.116 -1.656,-1.687 -2.05,1.408 -4.211,2.719 -6.514,3.671 1.476,1.449 3.009,2.843 4.592,4.179 0.001,-0.021 0.008,-0.041 0.033,-0.05 2.338,-0.853 4.584,-1.888 6.756,-3.095 m 5.126,6.445 c -1.686,0.576 -3.398,1.06 -5.147,1.44 -0.056,0.013 -0.081,-0.075 -0.023,-0.087 1.788,-0.385 3.54,-0.877 5.263,-1.466 0.33,-0.399 0.662,-0.797 0.992,-1.196 -0.667,-0.513 -1.33,-1.03 -1.987,-1.558 -1.85,1.171 -3.855,2.087 -6.002,2.562 -0.067,0.015 -0.096,-0.086 -0.028,-0.105 2.123,-0.585 4.111,-1.358 5.99,-2.488 -0.7,-0.562 -1.394,-1.135 -2.081,-1.715 -2.162,1.035 -4.388,1.953 -6.687,2.632 -0.056,0.017 -0.079,-0.069 -0.024,-0.087 2.278,-0.748 4.5,-1.573 6.675,-2.576 -0.679,-0.573 -1.347,-1.157 -2.009,-1.748 -2.18,1.227 -4.434,2.276 -6.783,3.146 2.855,2.404 5.868,4.629 9.017,6.667 0.945,-1.141 1.889,-2.281 2.834,-3.421 m 1.825,-0.744 c -0.227,-0.171 -0.452,-0.343 -0.677,-0.516 -0.297,0.364 -0.593,0.728 -0.89,1.093 0.526,-0.182 1.046,-0.376 1.567,-0.577 m 1.112,0.832 c -0.349,-0.259 -0.697,-0.518 -1.044,-0.78 -0.572,0.223 -1.146,0.436 -1.725,0.636 -0.962,1.184 -1.924,2.366 -2.887,3.549 0.517,0.333 1.039,0.66 1.562,0.983 1.496,-1.35 2.862,-2.792 4.094,-4.388 m 2.016,1.465 c -0.641,-0.457 -1.278,-0.92 -1.911,-1.388 -1.214,1.593 -2.561,3.074 -4.068,4.393 0.638,0.393 1.282,0.778 1.929,1.156 1.436,-1.333 2.8,-2.673 4.05,-4.161 m 4.278,2.96 c -0.667,-0.447 -1.332,-0.9 -1.996,-1.357 -1.206,0.691 -2.193,1.636 -2.947,2.826 -0.019,0.03 -0.067,0.004 -0.048,-0.025 0.754,-1.192 1.741,-2.141 2.945,-2.836 -0.703,-0.485 -1.402,-0.976 -2.099,-1.473 -1.199,1.515 -2.524,2.947 -4.013,4.166 1.454,0.845 2.931,1.653 4.428,2.424 1.301,-1.206 2.562,-2.402 3.73,-3.725 m 3.643,2.352 c -0.502,-0.312 -1,-0.628 -1.496,-0.946 -0.737,1.352 -1.675,2.56 -2.853,3.583 -0.087,0.075 -0.219,-0.047 -0.131,-0.125 1.153,-1.032 2.134,-2.187 2.919,-3.499 -0.644,-0.414 -1.285,-0.833 -1.922,-1.258 -1.115,1.343 -2.334,2.63 -3.689,3.719 1.415,0.724 2.847,1.416 4.296,2.075 1.072,-1.116 2.04,-2.265 2.876,-3.549 m 1.596,0.975 c -0.49,-0.293 -0.977,-0.593 -1.464,-0.894 -0.791,1.293 -1.721,2.51 -2.816,3.553 0.521,0.235 1.042,0.467 1.566,0.694 0.897,-1.124 1.803,-2.24 2.714,-3.353 m 1.705,1.001 c -0.52,-0.299 -1.039,-0.603 -1.554,-0.912 -0.899,1.116 -1.803,2.227 -2.716,3.33 0.529,0.229 1.062,0.448 1.596,0.667 0.94,-1.02 1.861,-1.976 2.674,-3.085 m 1.566,0.88 c -0.486,-0.268 -0.971,-0.538 -1.452,-0.814 -0.739,1.13 -1.599,2.236 -2.623,3.088 0.612,0.251 1.227,0.495 1.844,0.734 0.83,-0.946 1.579,-1.935 2.231,-3.008 m 1.81,0.978 c -0.568,-0.299 -1.134,-0.604 -1.698,-0.914 -0.619,1.074 -1.339,2.09 -2.166,3.013 0.507,0.196 1.015,0.388 1.525,0.577 0.863,-0.823 1.651,-1.666 2.339,-2.676 m 0.04,0.021 c -0.619,0.977 -1.34,1.926 -2.19,2.724 0.536,0.196 1.073,0.392 1.612,0.58 0.744,-0.799 1.433,-1.65 2.062,-2.542 -0.496,-0.25 -0.991,-0.503 -1.484,-0.762 m 54.41,-62.989 c -12,-1.656 -24.58,-3.558 -34.712,-10.702 -2.83,-1.996 -5.39,-4.251 -7.809,-6.644 -0.021,0.066 -0.051,0.13 -0.074,0.195 0.128,0.531 0.389,1.06 0.772,1.542 0.332,0.417 0.71,0.482 0.913,1.034 0.352,0.958 -0.175,2.26 -0.377,3.177 -0.025,0.113 -0.052,0.251 -0.083,0.398 0.603,-1.615 1.218,-3.414 0.798,-3.959 -0.014,-0.018 0.017,-0.036 0.032,-0.018 0.514,0.647 0.306,0.891 0.109,1.666 -0.266,1.044 -0.689,1.936 -1.037,2.774 -0.116,0.525 -0.277,1.125 -0.521,1.627 -0.222,1.225 0.073,2.475 1.698,4.095 1.144,1.14 2.802,1.932 4.005,3.071 1.23,1.163 2.298,2.449 3.297,3.811 0.035,0.047 -0.043,0.092 -0.078,0.046 -1.428,-1.881 -3.01,-3.577 -4.875,-5.031 -1.152,-0.899 -3.302,-1.768 -4.054,-3.168 -0.408,-0.757 -0.382,-1.512 -0.253,-2.34 0.002,-0.013 0.007,-0.033 0.01,-0.048 -0.349,0.493 -0.829,0.767 -1.501,0.529 -0.134,-0.048 -0.134,-0.277 0.032,-0.268 1.311,0.071 1.734,-3.77 1.792,-4.652 0.087,-1.332 -0.728,-2.121 -1.189,-3.178 -0.182,0.324 -0.382,0.647 -0.619,0.961 -0.197,0.263 -0.633,-0.062 -0.463,-0.34 0.227,-0.373 0.537,-0.905 0.823,-1.489 -0.074,-0.452 -0.062,-0.872 0.027,-1.255 -1.234,-1.253 -2.436,-2.536 -3.616,-3.842 -1.151,0.251 -1.647,1.247 -1.609,2.353 0.089,2.572 1.958,4.974 3.078,7.207 1.586,3.163 2.055,6.497 1.358,9.978 -1.737,8.675 -9.537,16.089 -16.172,21.377 -6.843,5.453 -15.152,9.563 -24.063,9.568 -3.551,0.003 -6.843,-0.705 -9.78,-2.054 3.022,5.891 7.293,11.289 12.195,16.147 0.005,-0.002 0.009,-0.004 0.013,-0.006 0.079,-0.05 0.146,0.052 0.1,0.116 1.011,0.999 2.049,1.974 3.109,2.928 0.006,-0.003 0.012,-0.006 0.018,-0.01 0.039,-0.022 0.072,0.034 0.038,0.059 0.67,0.602 1.348,1.195 2.035,1.778 0.024,-0.012 0.049,-0.022 0.073,-0.033 0.021,-0.01 0.039,0.021 0.019,0.031 -0.021,0.01 -0.041,0.018 -0.061,0.028 0.672,0.571 1.351,1.132 2.035,1.685 0.025,-0.015 0.049,-0.029 0.072,-0.044 0.02,-0.013 0.039,0.018 0.019,0.031 -0.019,0.013 -0.04,0.024 -0.06,0.038 0.622,0.501 1.248,0.995 1.876,1.481 0.097,-0.117 0.195,-0.234 0.291,-0.351 0.03,-0.036 0.082,0.015 0.052,0.051 -0.094,0.115 -0.188,0.231 -0.282,0.346 0.288,0.223 0.577,0.444 0.866,0.663 10e-4,0 10e-4,-0.001 0.002,-0.001 0.026,-0.01 0.037,0.008 0.038,0.031 0.288,0.218 0.577,0.434 0.867,0.649 0.099,-0.131 0.2,-0.261 0.296,-0.394 0.048,-0.066 0.16,-0.005 0.112,0.061 -0.1,0.138 -0.203,0.274 -0.305,0.409 0.642,0.475 1.284,0.942 1.93,1.401 0.283,-0.346 0.561,-0.698 0.832,-1.062 0.042,-0.056 0.143,0.017 0.101,0.074 -0.262,0.362 -0.534,0.72 -0.809,1.076 0.752,0.533 1.506,1.056 2.26,1.569 0.034,-0.018 0.066,-0.036 0.099,-0.053 0.031,-0.015 0.06,0.031 0.028,0.046 -0.026,0.013 -0.05,0.028 -0.076,0.041 0.626,0.424 1.251,0.84 1.876,1.248 0.209,-0.243 0.415,-0.491 0.617,-0.745 0.066,-0.082 0.182,0.031 0.119,0.113 -0.192,0.245 -0.387,0.489 -0.584,0.731 0.625,0.407 1.249,0.807 1.871,1.199 0.089,-0.159 0.176,-0.319 0.259,-0.483 0.011,-0.021 0.041,-0.003 0.033,0.017 -0.078,0.168 -0.161,0.333 -0.243,0.497 0.513,0.324 1.025,0.64 1.536,0.952 0.161,-0.261 0.318,-0.527 0.467,-0.801 0.039,-0.073 0.15,-0.011 0.112,0.061 -0.147,0.274 -0.299,0.546 -0.456,0.816 0.378,0.23 0.756,0.46 1.131,0.685 0.133,0.079 0.268,0.154 0.401,0.234 0.247,-0.302 0.495,-0.604 0.741,-0.907 0.067,-0.081 0.184,0.033 0.118,0.114 -0.238,0.292 -0.474,0.587 -0.711,0.88 0.508,0.3 1.018,0.598 1.533,0.89 0.097,-0.143 0.196,-0.286 0.29,-0.436 0.031,-0.049 0.109,-0.006 0.079,0.044 -0.089,0.147 -0.182,0.296 -0.276,0.445 0.477,0.269 0.955,0.535 1.437,0.798 0.091,-0.16 0.189,-0.313 0.277,-0.477 0.032,-0.062 0.127,-0.01 0.095,0.052 -0.084,0.164 -0.18,0.321 -0.268,0.482 8.114,4.409 16.836,7.656 26.003,8.828 2.34,-0.418 4.694,-0.759 7.028,-1.208 3.981,-0.766 5.648,-3.601 6.966,-7.157 1.583,-4.267 2.194,-8.843 2.115,-13.382 -0.03,-1.723 -0.166,-3.444 -0.377,-5.159 0.396,2.885 0.552,5.817 0.366,8.813 -0.279,4.481 -1.255,9.217 -3.469,13.173 -2.299,4.105 -7.257,4.501 -11.647,5.04 0.901,0.1 1.805,0.187 2.715,0.246 5.158,0.333 10.451,0.247 15.746,-0.145 4.663,-1.162 9.14,-3.005 13.292,-5.514 1.257,-0.76 2.48,-1.583 3.664,-2.458 1.087,-1.142 2.113,-2.327 3.07,-3.529 0.068,-0.085 0.226,-0.02 0.219,0.087 -0.016,0.264 -10e-4,0.51 0.027,0.746 0.492,-0.439 0.98,-0.886 1.452,-1.346 2.73,-2.656 7.187,-7.015 4.805,-11.158 -0.032,-0.055 -0.024,-0.126 0.019,-0.173 0.843,-0.907 1.338,-1.807 1.615,-2.898 -1.615,-2.219 -3.451,-4.308 -5.254,-6.369 -1.604,-1.835 -3.29,-3.683 -5.231,-5.168 -1.124,-0.86 -5.463,-3.563 -7.794,-3.145 -0.556,0.385 -1.107,0.822 -1.71,1.286 0,-0.026 0,-0.052 -0.001,-0.079 -1.107,0.594 -2.816,-0.138 -2.309,-1.635 1.418,-4.188 6.55,-5.075 10.446,-4.765 2.305,0.184 4.676,0.474 6.8,1.42 0.695,0.31 1.395,0.583 2.098,0.832 -4.156,-2.361 -7.095,-7.115 -10.983,-9.927 -1.956,-1.415 -0.446,-4.142 1.792,-3.262 1.831,0.721 3.349,1.791 5.321,2.226 1.766,0.39 3.581,0.483 5.387,0.496 3.476,0.024 6.78,-0.534 10.18,-1.182 2.093,-0.4 4.099,-0.554 6.029,-0.423 -2.647,-3.596 -5.912,-6.267 -9.55,-8.292 0.304,0.503 0.551,1.053 0.727,1.647 0.556,1.889 0.754,6.237 -1.94,6.486 -0.071,0.005 -0.089,-0.114 -0.018,-0.125 2.931,-0.487 1.965,-5.692 1.192,-7.239 -0.222,-0.447 -0.495,-0.846 -0.794,-1.218 -6.673,-3.487 -14.51,-4.938 -22.093,-5.985 M -1.882,4.508 C -1.887,4.507 -1.89,4.504 -1.895,4.503 -2.15,5.212 -2.389,5.927 -2.612,6.647 -2.205,6 -1.332,4.617 -1.882,4.508 m 0.36,8.196 c -0.797,0.564 -1.602,1.115 -2.427,1.645 -0.169,0.108 -0.445,-0.069 -0.368,-0.274 0.646,-1.745 1.819,-2.912 3.073,-4.249 0.376,-0.401 2.181,-2.103 1.818,-2.61 0,0 -3.474,2.491 -4.158,2.982 -0.445,1.868 -0.795,3.748 -1.059,5.609 1.016,-1.058 2.051,-2.098 3.121,-3.103 m 1.83,1.243 c 0.791,-0.784 1.563,-1.602 2.373,-2.367 0.53,-0.5 0.766,-0.727 0.818,-0.783 V 10.79 c -0.128,0.099 -1.415,1.275 -1.663,1.485 -1.854,1.574 -3.867,3.781 -5.983,4.999 -0.297,0.171 -0.518,0.311 -0.726,0.392 -0.058,0.5 -0.108,1 -0.155,1.501 1.793,-1.725 3.569,-3.467 5.336,-5.22 M 2.304,7.168 C 2.367,7.235 2.272,7.337 2.204,7.272 1.935,7.021 1.717,6.751 1.542,6.466 c -0.637,2.018 -2.068,3.27 -3.456,4.804 -0.363,0.401 -1.266,1.163 -1.339,1.672 -0.132,0.912 0.722,-0.074 1.177,-0.379 0.694,-0.465 1.351,-1.016 2.065,-1.45 0.279,-0.17 1.028,-0.826 1.381,-1 0.323,-0.276 0.641,-0.56 0.967,-0.832 0.181,-0.15 0.449,0.103 0.267,0.255 -0.396,0.331 -0.797,0.652 -1.2,0.972 -0.004,0.007 -0.006,0.011 -0.009,0.017 -0.668,1.167 -2.499,2.157 -3.487,3.132 -0.616,0.609 -1.206,1.248 -1.79,1.888 -0.935,1.024 -1.319,1.554 0.271,0.71 C -1.056,14.9 1.173,12.395 3.506,10.518 3.518,9.946 3.514,9.379 3.451,8.822 3.159,6.24 2.485,5.909 1.496,5.729 1.634,6.247 1.894,6.732 2.304,7.168 m -5.94,14.745 c 0.296,-0.217 0.591,-0.434 0.887,-0.65 1.031,-0.763 2.056,-1.534 3.073,-2.315 1.299,-0.994 2.587,-2.002 3.872,-3.014 -0.413,-0.713 -0.608,-1.471 -0.688,-2.253 -2.147,1.906 -4.344,3.763 -6.753,5.311 -0.194,0.98 -0.328,1.959 -0.406,2.939 0.005,-0.007 0.009,-0.011 0.015,-0.018 m -0.093,2.974 C -0.498,22.377 2.979,20.037 6.369,17.838 5.69,17.557 5.084,17.14 4.603,16.539 4.496,16.405 4.401,16.271 4.312,16.134 1.7,18.28 -0.97,20.353 -3.686,22.368 c -0.053,0.84 -0.065,1.68 -0.043,2.519 m 0.083,5.006 c -0.1,-0.71 -0.185,-1.42 -0.244,-2.128 -0.299,0.186 -0.598,0.377 -0.9,0.56 -0.062,0.037 -0.111,-0.052 -0.056,-0.093 0.312,-0.232 0.627,-0.46 0.941,-0.689 -0.053,-0.682 -0.082,-1.361 -0.093,-2.039 -0.343,0.216 -0.685,0.433 -1.029,0.642 -0.084,0.051 -0.194,-0.075 -0.113,-0.14 0.377,-0.306 0.76,-0.608 1.145,-0.909 -0.003,-0.865 0.029,-1.723 0.101,-2.576 -0.446,0.332 -0.888,0.665 -1.336,0.992 -0.022,0.015 -0.045,0.019 -0.07,0.022 -0.073,2.42 -0.019,4.841 0.157,7.252 0.006,-0.01 0.009,-0.02 0.022,-0.028 0.495,-0.287 0.985,-0.577 1.475,-0.866 m 1.597,7.133 c 0.007,-0.004 0.015,-0.007 0.022,-0.011 -0.231,-0.747 -0.44,-1.501 -0.636,-2.258 -0.288,0.14 -0.574,0.285 -0.864,0.422 -0.114,0.053 -0.217,-0.11 -0.103,-0.171 0.305,-0.161 0.606,-0.324 0.908,-0.487 -0.145,-0.573 -0.28,-1.147 -0.403,-1.723 -0.542,0.31 -1.084,0.62 -1.623,0.922 -0.082,0.046 -0.152,-0.074 -0.075,-0.125 0.545,-0.362 1.094,-0.714 1.641,-1.073 -0.163,-0.789 -0.305,-1.579 -0.422,-2.371 -0.476,0.252 -0.951,0.508 -1.433,0.747 -0.04,0.02 -0.075,0.004 -0.099,-0.022 0.167,2.237 0.439,4.465 0.822,6.674 0.752,-0.183 1.507,-0.359 2.265,-0.524 m -2.084,1.251 c 0.364,-0.225 0.733,-0.444 1.1,-0.665 -0.408,0.082 -0.817,0.163 -1.225,0.242 0.029,0.159 0.059,0.317 0.088,0.475 0.007,-0.018 0.015,-0.038 0.037,-0.052 m 2.77,0.761 c -0.192,-0.545 -0.371,-1.095 -0.546,-1.647 -0.134,0.027 -0.267,0.051 -0.4,0.079 -0.574,0.326 -1.149,0.649 -1.722,0.978 -0.049,0.029 -0.094,0.008 -0.121,-0.026 0.064,0.349 0.123,0.699 0.193,1.047 0.864,-0.151 1.73,-0.295 2.596,-0.431 m -1.587,3.986 c 0.148,-0.044 0.199,0.171 0.062,0.228 0.34,0.426 0.765,0.519 1.276,0.278 0.508,-0.063 1.015,-0.128 1.523,-0.191 0.137,-0.017 0.273,-0.034 0.408,-0.051 -0.217,-0.498 -0.429,-1.002 -0.636,-1.512 -0.69,0.102 -1.378,0.2 -2.068,0.284 -0.132,0.015 -0.164,-0.206 -0.033,-0.232 0.657,-0.127 1.317,-0.24 1.98,-0.35 -0.273,-0.678 -0.535,-1.364 -0.784,-2.058 -0.888,0.136 -1.777,0.256 -2.668,0.365 0.231,1.11 0.494,2.212 0.78,3.31 0.047,-0.026 0.093,-0.05 0.16,-0.071 m 1.729,-6.173 C 1.816,36.214 4.883,35.693 7.938,35.182 8.07,34.017 8.245,32.851 8.5,31.687 5.206,33.313 1.977,35.048 -1.221,36.851 m 6.825,15.051 c 1.804,2.145 3.939,3.758 6.279,4.913 -0.856,-1.812 -1.604,-3.671 -2.215,-5.569 -1.35,0.261 -2.704,0.483 -4.064,0.656 M 3.508,48.928 c 0.247,0.408 0.499,0.811 0.764,1.205 0.381,0.568 0.786,1.101 1.206,1.61 1.39,-0.154 2.776,-0.348 4.16,-0.589 C 8.016,46.076 7.343,40.743 7.913,35.396 c -3.103,0.583 -6.19,1.25 -9.283,1.884 0.169,0.56 0.344,1.12 0.524,1.68 2.706,-0.417 5.421,-0.794 8.122,-1.235 0.113,-0.018 0.164,0.153 0.048,0.174 -2.672,0.503 -5.354,1.015 -8.046,1.439 0.228,0.691 0.465,1.38 0.715,2.064 2.355,-0.382 4.729,-0.687 7.082,-1.045 0.124,-0.019 0.181,0.171 0.053,0.192 -2.336,0.378 -4.676,0.81 -7.021,1.167 0.19,0.511 0.389,1.019 0.593,1.524 0.499,-0.062 0.998,-0.125 1.497,-0.188 1.778,-0.223 3.555,-0.446 5.333,-0.669 0.08,-0.01 0.101,0.131 0.02,0.142 -2.027,0.29 -4.053,0.579 -6.08,0.869 -0.223,0.032 -0.447,0.064 -0.669,0.095 0.344,0.836 0.711,1.659 1.101,2.469 1.852,-0.218 3.697,-0.473 5.54,-0.819 0.079,-0.015 0.115,0.106 0.035,0.122 -1.805,0.36 -3.63,0.677 -5.464,0.924 0.438,0.892 0.908,1.762 1.414,2.607 1.552,-0.232 3.101,-0.488 4.647,-0.802 0.011,-0.002 0.016,0.015 0.005,0.018 -1.513,0.334 -3.038,0.647 -4.571,0.92 m -4.635,0.496 C 0.281,49.236 1.687,49.05 3.09,48.844 2.859,48.458 2.633,48.068 2.419,47.663 2.172,47.193 1.928,46.711 1.686,46.225 c -1.262,0.164 -2.527,0.292 -3.793,0.364 0.303,0.952 0.633,1.896 0.98,2.835 m -1.047,-3.036 c 1.252,-0.12 2.5,-0.25 3.744,-0.393 -0.391,-0.797 -0.769,-1.619 -1.138,-2.453 -0.414,0.06 -0.828,0.118 -1.242,0.178 -0.454,0.064 -1.471,0.428 -1.951,0.245 -0.049,-0.019 -0.096,-0.043 -0.143,-0.069 0.228,0.834 0.469,1.666 0.73,2.492 m -1.95,-27.311 c 0.298,-0.186 0.59,-0.378 0.883,-0.567 0.012,-0.05 0.019,-0.101 0.032,-0.15 0.015,-0.056 0.101,-0.035 0.088,0.023 -0.004,0.018 -0.008,0.038 -0.012,0.056 0.597,-0.387 1.188,-0.782 1.767,-1.203 1.685,-1.225 3.271,-2.583 4.84,-3.955 -0.047,-0.79 -0.003,-1.599 0.023,-2.406 -1.323,1.289 -2.607,2.618 -3.898,3.94 -1.354,1.388 -3.193,2.821 -4.263,4.426 -0.634,0.949 -0.005,0.178 0.54,-0.164 M -0.515,5.168 C -0.63,5.107 -0.739,5.038 -0.845,4.964 -1.708,6.307 -2.458,7.684 -3.113,9.13 -1.691,8.138 -0.268,7.146 1.149,6.147 1.217,6.101 1.293,6.107 1.363,6.133 1.293,5.983 1.231,5.832 1.183,5.676 0.684,5.596 0.116,5.5 -0.515,5.168 m 33.831,-19.694 c -1.765,-0.177 -3.722,-0.098 -3.578,1.299 0.04,0.383 -0.425,0.589 -0.725,0.435 -2.123,0.747 -2.853,2.011 -2.189,3.788 0.081,0.493 -0.412,0.778 -0.806,0.483 -4.878,-3.649 -10.627,-2.414 -15.407,0.703 -2.142,1.397 -4.051,3.163 -5.632,5.173 -1.254,1.599 -3.475,4.579 -3.6,7.155 0.249,0.048 0.51,0.077 0.73,0.172 0.722,0.31 1.208,0.706 1.603,1.395 0.664,1.161 0.643,2.518 0.525,3.875 0,-10e-4 0.001,-10e-4 0.001,-0.002 0.07,-0.05 0.156,0.059 0.094,0.117 -0.039,0.037 -0.077,0.075 -0.116,0.112 -0.083,0.887 -0.191,1.77 -0.166,2.595 0.178,-0.155 0.355,-0.31 0.532,-0.466 0.148,-0.129 0.371,0.08 0.224,0.213 -0.243,0.216 -0.485,0.432 -0.726,0.648 0.073,0.762 0.306,1.578 0.679,2.319 0.396,-0.312 0.794,-0.624 1.189,-0.938 0.079,-0.064 0.19,0.074 0.112,0.14 -0.397,0.335 -0.8,0.661 -1.201,0.992 0.338,0.617 0.768,1.169 1.289,1.56 0.159,0.118 0.339,0.21 0.53,0.29 0.136,-0.101 0.274,-0.202 0.412,-0.303 0.053,-0.038 0.124,0.05 0.073,0.091 -0.112,0.091 -0.227,0.182 -0.34,0.273 0.828,0.302 1.859,0.32 2.66,0.363 0.566,0.03 1.366,-0.102 1.876,0.244 1.185,0.805 0.668,2.353 0.263,3.442 -0.013,0.032 -0.064,0.02 -0.053,-0.014 1.214,-3.598 -2.258,-3.085 -4.12,-3.463 -0.34,-0.068 -0.667,-0.166 -0.981,-0.288 -3.249,2.604 -6.663,5.211 -10.184,7.451 0.027,0.658 0.073,1.317 0.14,1.973 4.223,-3.073 8.636,-5.922 12.954,-8.851 0.067,-0.046 0.131,0.062 0.064,0.109 -4.262,3.064 -8.543,6.197 -12.994,8.995 0.076,0.705 0.176,1.409 0.293,2.111 5.13,-3.044 10.04,-6.284 14.635,-10.145 0.097,-0.083 0.242,0.054 0.144,0.137 -4.558,3.874 -9.45,7.447 -14.729,10.288 0.134,0.766 0.289,1.531 0.464,2.292 4.732,-3.09 9.537,-6.068 14.223,-9.235 0.043,-0.029 0.081,0.038 0.041,0.069 -0.262,0.199 -0.524,0.397 -0.785,0.595 -0.024,0.018 -0.057,-0.023 -0.034,-0.042 -4.099,3.276 -8.765,6.258 -13.376,8.917 0.136,0.575 0.283,1.148 0.439,1.721 3.987,-2.154 7.86,-4.413 11.632,-6.956 0.039,-0.027 0.074,0.035 0.037,0.061 -3.659,2.674 -7.539,5.117 -11.601,7.148 0.008,0.029 0.015,0.058 0.023,0.087 0.196,0.705 0.399,1.416 0.61,2.127 3.767,-2.179 7.661,-4.134 11.619,-5.947 0.063,-0.029 0.119,0.063 0.056,0.093 -0.535,0.256 -1.062,0.526 -1.594,0.789 0.015,0.006 0.029,0.019 0.025,0.039 -0.222,1.164 -0.386,2.316 -0.5,3.457 0.034,-0.006 0.067,-0.012 0.101,-0.017 0.124,-0.021 0.18,0.169 0.053,0.192 -0.059,0.011 -0.118,0.023 -0.177,0.034 -0.523,5.533 0.197,10.789 1.842,15.744 0.016,-0.003 0.033,-0.005 0.049,-0.008 0.056,-0.009 0.082,0.077 0.024,0.088 -0.015,0.003 -0.029,0.005 -0.045,0.008 0.669,1.998 1.488,3.947 2.438,5.847 6.858,3.169 15.379,2.486 22.584,-0.522 C 44.542,52.519 53.841,44.516 59.341,35.664 62.46,30.645 63.803,24.689 61.176,19.168 59.61,15.877 57.232,12.876 57.982,9.041 57.991,8.995 58.037,8.942 58.085,8.935 58.525,8.87 59.024,8.83 59.541,8.82 54.663,3.407 50.082,-2.304 44.61,-7.186 c -3.353,-2.993 -7.195,-5.609 -11.294,-7.34 m 1.364,-4.436 c 12.353,5.087 20.151,16.195 28.876,25.711 5.424,5.917 11.562,10.775 18.537,14.752 7.092,4.043 14.614,5.852 22.598,7.139 13.627,2.198 29.775,4.066 38.473,16.135 0.46,0.639 0.426,1.28 0.126,1.791 2.058,0.653 4.027,1.714 5.917,3.272 2.179,1.797 4.187,4.078 5.647,6.501 1.624,2.696 2.636,5.736 4.408,8.349 5.023,7.409 13.231,5.749 19.804,1.743 1.011,-0.617 1.879,-0.053 2.252,0.746 0.577,0.05 1.134,0.247 1.63,0.66 0.744,0.619 1.082,1.376 1.163,2.18 0.922,3.362 -0.663,5.987 -2.794,8.642 -1.166,1.454 -3.2,2.604 -4.943,2.399 -0.887,0.528 -1.978,0.792 -2.919,0.842 -3.359,0.18 -6.742,-0.545 -10.148,-0.326 -0.09,0.006 -0.179,0.001 -0.269,0.003 -0.534,0.356 -1.067,0.71 -1.571,1.091 -2.058,1.554 -3.972,3.177 -5.699,5.094 -0.895,0.993 -1.703,2.297 -2.777,3.105 -0.912,0.688 -1.635,0.986 -2.504,1.883 -1.589,1.644 -2.893,3.595 -4.337,5.363 -4.401,5.396 -10.221,9.3 -17.239,6.506 -0.277,-0.11 -0.269,-0.57 -0.014,-0.696 2.771,-1.36 4.938,-3.186 6.736,-5.362 -3.202,1.716 -6.536,3.18 -10.091,4.362 -6.519,2.167 -13.306,3.535 -20.143,4.172 -13.265,1.236 -26.776,-0.843 -39.637,-4.09 C 58.22,101.102 50.87,98.627 43.877,95.509 43.835,95.541 43.782,95.51 43.773,95.462 38.742,93.213 33.897,90.63 29.306,87.678 29.265,87.693 29.219,87.663 29.214,87.618 18.504,80.717 9.166,71.822 2.028,60.537 -4.938,49.523 -8.817,36.744 -9.06,23.708 -9.288,11.486 -6.387,-1.929 2.003,-11.221 c 8.444,-9.353 20.995,-12.551 32.677,-7.741"
         style="fill:#d4aa00;fill-opacity:1;fill-rule:nonzero;stroke:none"
         id="path1083" />
    </g>
  </g>
</svg>
