<?xml version="1.0" encoding="UTF-8" standalone="no"?>
<svg
   xmlns:dc="http://purl.org/dc/elements/1.1/"
   xmlns:cc="http://creativecommons.org/ns#"
   xmlns:rdf="http://www.w3.org/1999/02/22-rdf-syntax-ns#"
   xmlns:svg="http://www.w3.org/2000/svg"
   xmlns="http://www.w3.org/2000/svg"
   xmlns:sodipodi="http://sodipodi.sourceforge.net/DTD/sodipodi-0.dtd"
   xmlns:inkscape="http://www.inkscape.org/namespaces/inkscape"
   width="52.01112mm"
   height="59.118309mm"
   viewBox="0 0 52.01112 59.118309"
   version="1.1"
   id="svg4337"
   inkscape:version="1.0.1 (3bc2e813f5, 2020-09-07)"
   sodipodi:docname="frutilla.svg">
  <defs
     id="defs4331" />
  <sodipodi:namedview
     id="base"
     pagecolor="#ffffff"
     bordercolor="#666666"
     borderopacity="1.0"
     inkscape:pageopacity="0.0"
     inkscape:pageshadow="2"
     inkscape:zoom="0.4609029"
     inkscape:cx="42.661308"
     inkscape:cy="164.02049"
     inkscape:document-units="mm"
     inkscape:current-layer="layer1"
     inkscape:document-rotation="0"
     showgrid="false"
     inkscape:window-width="1920"
     inkscape:window-height="1027"
     inkscape:window-x="-8"
     inkscape:window-y="-8"
     inkscape:window-maximized="1" />
  <metadata
     id="metadata4334">
    <rdf:RDF>
      <cc:Work
         rdf:about="">
        <dc:format>image/svg+xml</dc:format>
        <dc:type
           rdf:resource="http://purl.org/dc/dcmitype/StillImage" />
        <dc:title></dc:title>
      </cc:Work>
    </rdf:RDF>
  </metadata>
  <g
     inkscape:label="Layer 1"
     inkscape:groupmode="layer"
     id="layer1"
     transform="translate(-94.545862,-104.76958)">
    <g
       id="g3607"
       transform="matrix(0.19118504,-0.18290058,0.18290058,0.19118504,75.334412,112.04031)"
       style="fill:#d4aa00;fill-opacity:1">
      <g
         id="g1377"
         transform="matrix(1.3333333,0,0,-1.3333333,24.014974,253.14277)"
         style="fill:#d4aa00;fill-opacity:1">
        <path
           d="M 0,0 C 0.144,0.094 0.283,0.219 0.425,0.387 0.469,0.438 0.463,0.49 0.442,0.534 1.589,0.521 2.724,0.6 3.849,0.772 3.826,0.715 3.802,0.659 3.779,0.602 2.526,0.397 1.266,0.193 0,0 m -21.451,0.059 c 0.001,0.007 0.003,0.012 0.004,0.02 0.03,0.191 0.08,0.382 0.132,0.573 0.944,0.104 1.946,0.252 2.913,0.479 -0.082,-0.36 -0.163,-0.719 -0.245,-1.079 -0.044,-0.198 0.246,-0.258 0.304,-0.068 0.125,0.412 0.239,0.829 0.353,1.246 0.742,0.195 1.448,0.446 2.082,0.764 -0.147,-0.56 -0.282,-1.12 -0.395,-1.681 -0.026,-0.128 0.164,-0.206 0.222,-0.08 0.326,0.704 0.615,1.432 0.891,2.17 0.328,0.218 0.625,0.46 0.879,0.733 0.71,0.76 0.23,0.371 0.664,1.222 0.084,0.165 -0.238,0.531 -0.177,0.665 0.426,0.944 1.254,1.181 2.153,1.122 -0.793,-2.411 -1.667,-4.792 -2.557,-7.187 -2.446,0.121 -4.862,0.461 -7.223,1.101 m -10.992,6.968 c 1.561,-0.383 3.157,-0.535 4.736,-0.458 -0.263,-1.152 -0.511,-2.336 -0.675,-3.52 -1.713,1.133 -3.046,2.476 -4.061,3.978 m -0.74,1.206 c 0.043,-0.031 0.084,-0.064 0.128,-0.094 0.232,-0.159 0.431,0.232 0.201,0.39 -0.331,0.227 -0.602,0.479 -0.842,0.741 -0.431,0.97 -0.762,1.986 -1.008,3.037 0.233,1.692 1.662,3.183 3.829,3.319 0.168,0.011 0.25,0.187 0.171,0.329 -2.289,4.165 0.33,9.526 5.363,9.363 4.259,-0.137 5.82,-4.226 7.841,-7.312 -0.22,-0.582 -0.221,-1.256 0.027,-1.793 0.259,-0.56 0.668,-0.939 1.249,-1.149 0.32,-0.116 0.71,-0.171 1.083,-0.132 0.668,-0.772 1.372,-1.512 2.105,-2.222 -0.879,0.332 -1.731,0.516 -2.439,0.344 -0.19,-0.046 -0.356,-0.132 -0.508,-0.239 -0.055,0.045 -0.145,0.043 -0.157,-0.045 -0.004,-0.029 -0.008,-0.057 -0.012,-0.085 -0.335,-0.29 -0.602,-0.681 -0.902,-0.991 -0.671,-0.694 -1.373,-1.339 -2.125,-1.918 0.068,0.321 0.138,0.641 0.206,0.962 0.015,0.069 -0.09,0.092 -0.107,0.024 -0.093,-0.375 -0.189,-0.749 -0.282,-1.123 -0.649,-0.485 -1.333,-0.924 -2.071,-1.301 -0.351,-0.179 -0.709,-0.339 -1.068,-0.49 0.092,0.542 0.184,1.085 0.283,1.624 0.021,0.116 -0.156,0.156 -0.178,0.04 -0.117,-0.591 -0.241,-1.182 -0.365,-1.773 -0.571,-0.227 -1.153,-0.416 -1.74,-0.572 0.016,0.048 0.029,0.098 0.045,0.146 0.063,0.19 -0.24,0.255 -0.303,0.067 -0.034,-0.101 -0.063,-0.204 -0.096,-0.305 -0.859,-0.207 -1.731,-0.338 -2.609,-0.398 0.038,0.206 0.068,0.412 0.112,0.618 0.025,0.115 -0.151,0.154 -0.178,0.04 -0.052,-0.223 -0.104,-0.448 -0.155,-0.673 -1.607,-0.088 -3.23,0.066 -4.82,0.455 -0.243,0.364 -0.472,0.735 -0.678,1.116 M 86.465,63.759 c -0.031,0.358 -0.063,0.715 -0.102,1.072 -0.176,1.594 -0.431,3.179 -0.767,4.747 -0.056,0.261 -0.175,0.944 -0.333,1.755 0.152,-0.512 0.294,-1.025 0.418,-1.544 0.47,-1.978 0.714,-4 0.784,-6.03 M -32.046,35.025 c 1.737,5.857 3.072,11.624 3.72,17.706 0.649,6.081 0.889,12.202 1.606,18.274 0.445,3.774 0.987,7.541 1.703,11.264 -0.159,-2.119 -0.038,-4.236 0.559,-6.362 0.611,-2.18 1.531,-4.257 1.867,-6.509 0.42,-2.818 -0.373,-5.337 -1.546,-7.878 -0.894,-1.937 -1.667,-3.819 -2.25,-5.702 1.102,3.13 2.95,5.952 3.784,9.188 1.051,4.074 -0.807,7.557 -1.797,11.427 -0.62,2.423 -0.632,4.925 -0.301,7.407 0.536,2.591 1.168,5.156 1.916,7.686 0.043,0.128 0.085,0.257 0.129,0.385 3.598,10.502 10.267,19.529 18.79,26.257 1.999,-1.404 3.991,-3.045 6.321,-2.107 0.746,0.301 1.493,0.518 2.242,0.679 -0.002,-0.021 -0.005,-0.042 -0.007,-0.062 -0.012,-0.137 0.192,-0.191 0.214,-0.048 0.009,0.053 0.014,0.107 0.023,0.161 3.216,0.633 6.466,0.125 9.739,-0.541 -0.033,-0.051 -0.069,-0.098 -0.097,-0.154 -0.286,-0.579 -0.16,-1.292 0.315,-1.732 0.953,-0.882 2.176,-0.361 2.993,0.402 0.177,0.165 0.345,0.407 0.472,0.679 1.644,-0.407 3.266,-0.909 4.811,-1.604 0.602,-0.271 1.193,-0.568 1.766,-0.895 -0.004,-0.043 -0.012,-0.086 -0.016,-0.129 -0.014,-0.165 0.244,-0.183 0.285,-0.032 0.404,-0.241 0.801,-0.493 1.18,-0.774 0.474,-0.351 0.792,-0.604 1.041,-0.771 -0.499,0.566 -1.284,1.117 -2.199,1.635 0.403,1.867 0.904,3.596 1.823,5.255 0.82,-0.638 1.669,-1.154 2.543,-1.574 -0.653,-1.029 -1.226,-2.129 -1.573,-3.279 -0.042,-0.137 0.181,-0.219 0.239,-0.086 0.488,1.125 0.966,2.214 1.562,3.262 0.617,-0.284 1.246,-0.524 1.885,-0.724 -0.246,-0.853 -0.127,-1.745 0.352,-2.511 0.044,-0.07 0.153,-0.001 0.108,0.069 -0.465,0.733 -0.588,1.589 -0.354,2.411 4.7,-1.439 9.912,-0.896 14.841,-1.957 -2.621,-2.913 -4.345,-6.792 -5.778,-10.335 -0.918,-2.269 -1.636,-4.621 -2.623,-6.863 -0.61,-1.385 -1.688,-4.03 -3.054,-5.93 -1.443,-0.68 -2.778,-1.565 -3.945,-2.733 0.023,-0.008 0.045,-0.016 0.067,-0.024 -0.952,-1.09 -0.13,-3.248 1.646,-2.668 4.304,1.403 8.359,2.663 12.901,3.091 4.346,0.41 8.746,0.489 13.039,1.344 2.092,0.417 3.853,1.09 5.361,2.085 -0.329,-1.638 -0.392,-3.326 -0.115,-5.015 0.415,-2.524 1.88,-4.647 2.411,-7.12 0.578,-2.694 -0.718,-5.094 -1.87,-7.431 -0.692,-1.403 -3.312,-6.084 -1.068,-7.231 2.065,-1.056 5.793,3.33 7.091,4.594 3.184,3.102 5.515,6.346 7.045,10.55 0.713,1.96 1.199,4.029 1.448,6.128 0.567,-1.154 1.117,-2.315 1.756,-3.454 1.388,-2.478 2.731,-4.916 3.766,-7.57 2.022,-5.184 3.199,-10.661 3.434,-16.222 0.432,-10.218 -2.538,-20.35 -8.279,-28.774 -0.182,1.021 -0.821,1.786 -1.663,2.267 2.249,3.266 4.159,6.754 5.54,10.561 1.925,5.306 2.901,10.949 2.897,16.593 0.422,4.824 -0.141,9.691 -1.975,14.307 -0.195,0.685 -0.404,1.235 -0.615,1.439 -0.144,0.314 -0.292,0.626 -0.449,0.936 -0.081,0.161 -0.352,0.036 -0.289,-0.133 2.018,-5.434 3.025,-11.168 3.002,-16.916 -0.842,-8.57 -4.792,-16.524 -9.997,-23.349 -0.939,-1.231 -1.92,-2.45 -2.93,-3.657 -0.617,-0.477 -1.069,-1.106 -1.502,-1.753 -0.735,-0.839 -1.481,-1.672 -2.249,-2.495 -3.127,-1.968 -5.956,0.692 -7.765,3.391 -0.002,0.041 -0.002,0.082 -0.008,0.122 0.007,0.066 0.017,0.132 0.014,0.193 -0.016,0.101 -0.033,0.201 -0.051,0.301 -0.004,0.016 -0.006,0.025 -0.01,0.037 0.015,0.083 0.05,0.355 0.047,0.312 0.011,0.14 0.019,0.279 0.021,0.42 0.007,0.636 -0.681,0.782 -1.105,0.494 -1.41,3.068 0.477,4.468 1.07,7.353 0.221,1.071 -0.018,1.806 -0.803,2.562 -1.206,1.163 -2.859,2.023 -4.666,2.711 -0.042,0.141 -0.091,0.283 -0.157,0.424 -0.601,1.293 -2.253,1.26 -3.394,0.707 -1.303,0.358 -2.594,0.672 -3.774,0.982 1.191,-0.349 2.376,-0.713 3.552,-1.1 -0.108,-0.063 -0.213,-0.129 -0.306,-0.201 -0.913,-0.698 -1.506,-2.106 -0.702,-3.154 0.009,-0.011 0.017,-0.022 0.026,-0.034 0.24,-0.427 0.574,-0.734 1.027,-0.858 0.838,-0.42 1.844,-0.034 2.501,0.529 0.163,0.147 0.394,0.349 0.415,0.338 -0.379,-0.331 -0.305,-0.271 0.222,0.179 0.052,0.044 0.098,0.093 0.139,0.146 0.452,0.513 0.605,1.07 0.534,1.646 0.108,-0.044 0.217,-0.083 0.325,-0.128 1.001,-0.417 2.135,-0.835 3.021,-1.474 2.73,-1.971 1.945,-3.346 0.981,-5.481 -0.609,-1.349 -1.036,-2.525 -0.662,-4.023 0.102,-0.407 0.26,-0.851 0.457,-1.312 C 60.591,33.04 60.585,33.036 60.582,33.03 60.556,32.99 60.357,32.735 60.388,32.72 60.358,32.704 60.329,32.688 60.294,32.673 60.093,32.662 59.9,32.628 59.708,32.54 59.705,32.538 59.63,32.504 59.554,32.47 59.047,32.362 58.63,32.056 58.314,31.556 L 58.241,31.44 c -0.493,-0.78 -0.051,-1.998 0.76,-2.371 0.46,-0.212 0.911,-0.23 1.315,-0.097 0.002,-0.007 0.004,-0.014 0.006,-0.02 0.044,0.015 0.087,0.031 0.131,0.048 0.642,0.236 1.094,0.74 1.23,1.378 0.059,0.149 0.097,0.296 0.126,0.445 1.367,-2.05 3.336,-3.92 5.293,-4.172 0.511,-0.066 0.978,-0.009 1.412,0.125 -4.3,-4.465 -9.065,-8.618 -14.181,-12.224 -0.525,0 -1.048,-0.021 -1.541,-0.244 -1.159,-0.527 -1.606,-1.943 -2.946,-2.234 -0.011,-0.002 -0.008,-0.019 0.003,-0.018 0.769,0.12 0.573,0.251 1.256,0.536 l 0.011,0.009 c 0.463,0.668 1.114,1.021 1.949,1.066 C 49.978,11.571 46.772,9.674 43.47,8.035 43.039,8.008 42.605,7.982 42.167,7.957 41.725,7.932 41.282,7.896 40.839,7.86 c -1.79,1.106 -3.566,2.237 -5.35,3.351 -0.03,0.018 -0.054,-0.03 -0.025,-0.049 1.324,-0.843 2.648,-1.686 3.972,-2.529 C 39.847,8.372 40.257,8.11 40.668,7.848 40.017,7.795 39.366,7.734 38.715,7.665 38.722,7.776 38.667,7.889 38.526,7.922 37.27,8.221 36.497,9.032 36.276,10.288 36.229,10.549 35.888,10.459 35.821,10.27 35.536,9.458 35.125,8.732 34.503,8.134 34.244,7.884 32.492,6.497 32.246,7.051 c -0.323,0.727 0.708,3.241 0.903,4.002 0.043,0.166 -0.187,0.232 -0.269,0.097 C 31.937,9.6 30.975,8.063 30.009,6.527 29.849,6.506 29.688,6.484 29.528,6.463 c 0.087,1.483 0.28,2.949 0.605,4.407 0.043,0.195 -0.257,0.262 -0.304,0.068 C 29.471,9.438 29.24,7.935 29.131,6.411 27.644,6.22 26.157,6.055 24.67,5.932 c 0.246,1.086 0.672,2.102 1.286,3.12 0.774,0.231 1.447,0.212 2.217,0.618 0.136,0.072 0.031,0.302 -0.114,0.247 C 26.793,9.434 25.429,9.731 24.209,9.176 22.735,8.505 21.61,6.991 20.261,6.101 20.069,5.974 19.873,5.853 19.675,5.732 17.163,5.763 14.651,6.014 12.14,6.617 5.908,8.113 0,11.664 -1.231,18.359 c -0.641,3.481 -2.471,5.468 -5.671,6.963 -3.963,1.852 -8.161,2.712 -11.656,5.503 -3.276,2.615 -5.724,6.152 -7.237,10.046 -1.475,3.796 -1.986,8.016 -1.323,12.045 -0.583,-3.035 -0.579,-6.144 0.326,-9.555 1.593,-6.008 5.516,-11.5 11.003,-14.525 3.546,-1.954 7.749,-2.526 11.088,-4.877 C -0.785,21.203 -1.926,16.284 0.94,12.792 5.299,7.482 12.728,5.787 19.378,5.557 17.798,4.634 16.082,3.913 14.367,3.304 13.318,2.931 12.251,2.605 11.183,2.294 10.992,2.238 10.672,2.143 10.282,2.04 8.653,2.28 7.039,2.602 5.449,3.007 5.454,3.156 5.474,3.317 5.516,3.495 5.558,3.676 5.288,3.736 5.235,3.565 5.257,3.626 5.28,3.687 5.302,3.748 5.349,3.877 5.161,3.981 5.106,3.848 L 4.831,3.174 C 3.793,3.454 2.768,3.77 1.756,4.121 2.059,4.643 2.363,5.165 2.664,5.687 2.715,5.775 2.675,5.922 2.577,5.961 1.505,6.381 0.439,6.813 -0.625,7.249 c 0.16,0.295 0.322,0.59 0.489,0.885 0.051,0.089 -0.048,0.219 -0.149,0.178 C -0.557,8.201 -0.83,8.09 -1.103,7.979 -1.179,7.948 -1.146,7.836 -1.065,7.856 c 0.616,0.155 0.407,-0.142 0.134,-0.481 -0.892,0.366 -1.782,0.735 -2.672,1.107 0.005,0.011 0.01,0.021 0.015,0.032 0.089,0.215 -0.228,0.384 -0.326,0.168 -0.008,-0.02 -0.018,-0.038 -0.026,-0.058 -0.427,0.179 -0.854,0.358 -1.281,0.538 0.176,0.115 0.348,0.24 0.481,0.399 0.295,0.351 0.432,0.729 0.484,1.153 0.099,0.396 0.088,0.783 -0.156,1.166 -0.194,0.306 -0.505,0.524 -0.851,0.622 -0.065,0.029 -0.131,0.056 -0.198,0.081 -0.087,0.049 -0.177,0.094 -0.27,0.131 -0.022,0.009 -0.044,0.018 -0.065,0.027 -0.02,0.008 -0.041,0.013 -0.061,0.021 -0.128,0.047 -0.258,0.09 -0.386,0.135 0.034,-0.012 0.068,-0.024 0.102,-0.036 -0.77,0.213 -1.585,0.075 -2.18,-0.503 -0.271,-0.189 -0.487,-0.438 -0.617,-0.798 -0.101,-0.282 -0.107,-0.543 -0.075,-0.805 -0.271,0.117 -0.571,0.265 -0.892,0.43 0.032,0.13 0.065,0.259 0.096,0.389 0.039,0.161 -0.209,0.215 -0.25,0.055 -0.026,-0.107 -0.057,-0.212 -0.085,-0.319 -0.594,0.312 -1.247,0.665 -1.912,0.979 -0.926,0.859 -1.816,1.767 -2.655,2.735 0.155,0.056 0.301,0.133 0.428,0.238 0.311,0.257 0.645,0.506 0.908,0.815 0.25,0.293 0.398,0.577 0.496,0.888 0.26,0.647 0.392,1.301 10e-4,1.924 -0.191,0.452 -0.622,0.778 -1.122,0.754 -0.256,0.05 -0.516,0.053 -0.802,-0.026 -0.074,-0.021 -0.249,-0.077 -0.258,-0.088 -0.177,-0.034 -0.323,-0.054 -0.514,-0.121 -0.183,-0.063 -0.363,-0.113 -0.552,-0.151 -0.478,-0.096 -0.851,-0.377 -1.11,-0.747 -1.393,2.356 -2.682,4.985 -4.949,6.328 -2.264,1.342 -5.341,1.16 -7.417,-0.45 -1.889,-1.465 -2.772,-4.03 -2.344,-6.37 0.304,-1.671 0.842,-1.436 -0.523,-2.23 -1.091,-0.635 -1.962,-1.155 -2.463,-2.366 -1.214,6.953 0.982,15.185 2.886,21.603 m 34.341,88.634 c -0.126,-0.327 -0.244,-0.666 -0.357,-1.008 -2.041,-1.248 -4.003,-2.628 -5.877,-4.121 -0.257,0.254 -0.23,0.473 0.436,0.571 0.114,0.017 0.113,0.193 -0.006,0.183 -0.476,-0.039 -0.951,-0.082 -1.426,-0.13 -0.13,-0.013 -0.165,-0.175 -0.054,-0.242 0.282,-0.17 0.563,-0.356 0.843,-0.549 -4.237,-3.407 -8.012,-7.401 -11.172,-11.818 -2.491,-3.481 -4.589,-7.244 -6.234,-11.194 1.196,3.395 2.635,6.712 4.4,9.915 4.511,8.193 11.138,14.792 19.447,18.393 m 17.25,17.625 c 1.327,-3.661 3.244,-7.074 5.621,-10.139 -1.239,0.084 -2.479,0.109 -3.719,0.072 -1.067,3.227 -1.61,6.705 -1.902,10.067 m 15.789,-4.471 c -0.48,1.1 -0.924,2.218 -1.338,3.348 0.958,-1.557 2.003,-3.059 3.162,-4.48 2.809,-3.442 5.892,-6.655 9.295,-9.514 1.905,-1.602 4.053,-2.906 5.937,-4.524 0.354,-0.304 0.747,-0.668 1.141,-1.072 -1.374,0.577 -2.899,0.91 -4.287,1.159 -0.212,1.896 -2.465,2.109 -4.24,2.327 -0.777,0.095 -1.379,0.27 -1.895,0.535 -0.541,0.48 -1.096,0.96 -1.663,1.421 -0.264,0.319 -0.535,0.677 -0.833,1.085 -0.629,0.861 -1.175,1.777 -1.709,2.698 -1.315,2.27 -2.519,4.614 -3.57,7.017 m 26.634,-22.235 c 1.67,-1.53 2.197,-3.532 3.336,-5.39 0.679,-1.107 1.653,-1.755 2.905,-2.042 0.473,-0.109 0.996,-0.033 1.457,-0.138 0.369,-0.012 0.738,0.003 1.105,0.046 0.556,-1.094 0.786,-1.955 0.699,-2.589 -0.199,0.036 -0.398,0.005 -0.576,-0.077 -0.063,0.168 -0.139,0.334 -0.228,0.497 -0.519,0.933 -1.61,1.679 -2.675,1.799 -0.264,0.03 -0.463,0.01 -0.632,-0.034 -0.921,0.523 -1.872,0.946 -2.907,1.383 0.067,0.045 0.133,0.09 0.201,0.134 0.085,0.055 0.085,0.194 -0.011,0.239 -0.344,0.162 -0.69,0.272 -1.036,0.357 -0.117,0.56 -0.143,1.17 -0.262,1.626 -0.276,1.059 -0.635,1.899 -1.299,2.792 -1.042,1.4 -2.512,2.425 -4.124,3.062 -0.043,0.016 -0.087,0.03 -0.129,0.047 0.045,0.07 0.089,0.141 0.131,0.212 1.481,-0.246 2.822,-0.804 4.045,-1.924 m 33.125,-11.305 c -1.379,0.126 -2.78,0.099 -4.166,-0.068 2.526,0.787 5.239,0.988 7.796,0.219 1.573,-0.472 3.171,-1.346 4.426,-2.401 0.734,-0.616 1.5,-0.953 0.807,-1.477 -0.654,-0.493 -1.891,-0.087 -2.625,0.047 -2.462,0.448 -4.781,1.307 -7.301,1.474 -2.479,0.163 -6.52,0.116 -8.598,-1.701 -0.216,0.16 -0.432,0.313 -0.65,0.466 0.111,0.118 0.249,0.244 0.443,0.386 2.526,1.854 6.802,1.908 9.773,2.008 0.582,0.019 0.709,0.991 0.095,1.047 M 86.568,92.449 c 4.922,-3.855 11.374,-6.037 17.209,-8.087 6.069,-2.132 13.04,-2.784 18.559,-6.232 3.819,-2.385 6.198,-6.169 6.739,-10.633 0.116,-0.957 0.193,-2.001 0.206,-3.076 -1.262,2.812 -3.107,5.435 -5.326,7.675 -4.712,7.514 -15.688,8.476 -23.88,9.559 -6.103,0.806 -14.858,2.804 -17.068,9.389 -0.707,2.105 -1.208,3.567 -3.095,4.873 -0.588,0.408 -1.213,0.752 -1.84,1.085 -0.257,0.683 -0.55,1.367 -0.887,2.031 0.043,-0.014 0.087,-0.027 0.13,-0.041 3.809,-1.279 6.201,-4.153 9.253,-6.543 M 110.555,79.24 c -7.264,0.997 -14.714,0.041 -21.637,2.991 -1.177,0.502 -2.338,1.087 -3.466,1.741 -1.597,2.651 -3.836,4.738 -6.11,6.825 -0.045,0.792 -0.113,1.582 -0.234,2.362 -0.105,0.677 -0.272,1.42 -0.49,2.188 0.495,-0.292 0.966,-0.615 1.372,-1.008 1.416,-1.37 1.463,-2.832 2.098,-4.504 1.774,-4.669 7.075,-6.719 11.579,-7.698 5.371,-1.167 10.925,-1.193 16.305,-2.303 3.007,-0.621 6.014,-1.624 8.646,-3.231 1.383,-0.846 2.698,-1.827 3.798,-3.026 0.055,-0.062 0.109,-0.127 0.165,-0.19 -3.516,3.1 -7.759,5.268 -12.026,5.853 m -40.892,0.029 c 1.905,2.906 2.879,6.458 3.007,9.916 0.113,3.075 -0.553,6.098 -0.803,9.145 0.859,-1.32 1.825,-2.622 2.307,-4.078 1.1,-3.324 0.663,-7.092 0.075,-10.469 -0.551,-3.159 -1.519,-6.147 -2.781,-9.093 -0.715,-1.669 -1.435,-3.306 -2.496,-4.791 -0.422,-0.591 -0.878,-1.16 -1.347,-1.716 -0.981,-1.163 -1.044,-1.755 -2.612,-1.193 -1.766,0.632 -0.991,1.149 -0.348,2.477 0.346,0.716 0.759,1.402 1.165,2.084 0.678,1.14 1.457,2.228 2.09,3.393 0.773,1.42 1.262,2.848 1.469,4.33 0.051,-0.088 0.198,-0.12 0.274,-0.005 m 1.506,20.198 c 0.213,-0.382 0.451,-0.759 0.695,-1.134 0.176,-2.403 0.52,-4.788 0.601,-7.218 0.143,-4.25 -1.121,-7.928 -3.048,-11.642 0.131,1.082 0.115,2.194 -0.073,3.36 -0.555,3.435 -1.685,6.315 -0.629,9.804 0.193,0.635 1.425,4.375 2.454,6.83 M 46.515,96.042 c 3.808,3.372 6.674,7.867 10.916,10.737 0.435,0.076 0.888,0.136 1.349,0.177 0.638,-0.514 1.34,-0.956 2.074,-1.321 -1.256,-0.903 -2.664,-1.721 -3.763,-2.623 -3.489,-2.862 -6.693,-6.025 -9.659,-9.423 -0.062,-0.07 0.046,-0.169 0.109,-0.098 4.012,4.542 8.482,8.583 13.372,12.115 0.14,-0.068 0.279,-0.134 0.42,-0.197 2.145,-0.955 4.019,-1.346 6.072,-1.125 0.06,-0.131 0.112,-0.249 0.139,-0.332 0.185,-0.57 0.384,-1.139 0.494,-1.732 0.323,-1.732 -0.712,-2.207 -1.686,-3.354 -0.684,-0.804 -1.203,-1.918 -0.996,-2.907 -1.447,-0.753 -3.136,-1.107 -4.71,-1.427 -3.576,-0.729 -7.162,-1.099 -10.798,-1.352 -2.559,-0.178 -5.319,-0.305 -8.014,-0.705 1.637,1.076 3.203,2.259 4.681,3.567 m -6.798,-1.924 c 2.232,2.597 4.7,5.004 7.358,7.164 2.482,2.016 5.134,3.879 8.175,4.944 0.41,0.144 0.877,0.275 1.377,0.391 -0.635,-0.475 -1.233,-0.978 -1.779,-1.47 -4.831,-4.354 -8.568,-9.326 -14.099,-12.851 -1.166,-0.209 -2.313,-0.481 -3.418,-0.841 0.68,0.955 1.832,2.018 2.386,2.663 m 7.973,16.806 c 2.588,1.283 5.789,2.006 8.38,1.049 -0.157,-0.187 -0.245,-0.445 -0.19,-0.676 0.354,-1.455 1.151,-2.697 2.192,-3.714 -0.033,-0.02 -0.069,-0.036 -0.102,-0.056 -0.487,-0.064 -0.972,-0.143 -1.45,-0.257 -7.948,-1.889 -14.882,-9.391 -19.707,-15.995 -0.396,-0.14 -0.785,-0.294 -1.167,-0.461 0.409,0.621 0.824,1.224 1.14,1.81 0.988,1.836 1.794,3.758 2.597,5.68 1.879,4.494 3.6,10.287 8.307,12.62 m -29.76,6.359 c -0.387,0.151 -0.713,0.18 -1.094,0.042 0.985,3.198 1.97,6.364 3.226,9.471 0.336,-0.004 0.672,-0.007 1.008,-0.017 0.4,-1.124 0.876,-2.213 1.448,-3.253 -1.5,-2.345 -2.457,-5.103 -2.343,-7.907 0.003,-0.073 0.105,-0.065 0.11,0.004 0.207,2.794 0.841,5.382 2.297,7.785 0.604,-1.082 1.315,-2.108 2.148,-3.068 -1.245,-1.461 -2.036,-3.355 -1.948,-5.288 0.009,-0.193 0.279,-0.173 0.293,0.011 0.141,1.901 0.697,3.593 1.88,5.023 0.437,-0.485 0.904,-0.954 1.411,-1.399 0.156,-0.139 0.316,-0.268 0.475,-0.396 -0.957,-1.597 -1.7,-3.41 -1.904,-5.261 -2.103,1.14 -4.8,2.089 -6.507,2.61 0.235,0.636 0.209,1.366 -0.5,1.643 m -9.779,0.169 c 0.005,0.008 0.013,0.01 0.015,0.02 0.65,2.797 1.066,5.666 1.583,8.49 0.511,0.1 1.025,0.193 1.546,0.271 0.244,0.037 0.492,0.062 0.737,0.095 -0.464,-2.92 -1.188,-5.76 -2.055,-8.594 -0.036,-0.118 0.161,-0.192 0.205,-0.074 1.034,2.807 1.693,5.744 2.12,8.703 0.987,0.127 1.979,0.235 2.981,0.306 -1.286,-2.896 -2.204,-6.034 -2.339,-9.192 -0.004,-0.103 0.166,-0.12 0.181,-0.017 0.479,3.219 1.144,6.254 2.405,9.222 1.476,0.098 2.964,0.133 4.449,0.116 -1.306,-3.089 -2.524,-6.274 -3.354,-9.527 -0.122,-0.028 -0.234,-0.062 -0.358,-0.106 0.132,0.047 0.09,0.009 -0.035,-0.011 -0.266,-0.042 -0.477,-0.113 -0.712,-0.214 -0.068,-0.041 -0.45,-0.234 -0.519,-0.293 -0.053,-0.044 -0.096,-0.097 -0.143,-0.147 -2.187,0.469 -4.478,0.896 -6.707,0.952 m -2.262,7.539 c 0.234,0.073 0.467,0.145 0.703,0.214 -0.241,-0.118 -0.48,-0.238 -0.719,-0.359 0.005,0.048 0.01,0.097 0.016,0.145 M 5.753,124.95 c -0.008,-0.059 -0.017,-0.117 -0.024,-0.176 -1.207,-0.616 -2.391,-1.277 -3.55,-1.979 0.079,0.263 0.167,0.526 0.263,0.79 0.02,0.055 -0.017,0.099 -0.06,0.113 1.095,0.471 2.219,0.888 3.371,1.252 m -3.988,-2.837 c -0.476,-1.59 -0.758,-3.283 -0.618,-4.904 0.012,-0.143 0.211,-0.131 0.219,0.008 0.094,1.755 0.238,3.411 0.675,5.069 1.183,0.722 2.394,1.401 3.626,2.041 -0.325,-2.4 -0.689,-4.802 -0.929,-7.21 -0.823,-0.264 -1.59,-0.647 -2.42,-0.84 -2.068,-0.481 -2.752,0.183 -4.269,1.099 -0.308,0.186 -1.192,0.575 -1.721,0.942 1.739,1.363 3.554,2.631 5.437,3.795 m 3.217,-4.922 c 0.347,2.393 0.576,4.811 0.843,7.215 0.867,0.448 1.745,0.877 2.635,1.282 0.35,0.081 0.702,0.157 1.056,0.228 -0.526,-2.791 -1.156,-5.587 -1.547,-8.4 -0.003,-0.025 0.006,-0.044 0.015,-0.062 -0.733,0.012 -1.461,-0.005 -2.172,-0.09 -0.287,-0.034 -0.562,-0.097 -0.83,-0.173 m 42.692,-2.397 c -0.007,-0.007 -0.014,-0.014 -0.022,-0.021 -5.592,2.366 -12.149,2.228 -17.479,5.154 -2.995,1.645 -5.157,3.997 -6.726,6.739 1.321,-0.091 2.632,-0.222 3.923,-0.393 0.939,-0.125 1.872,-0.287 2.801,-0.468 0.883,-0.783 1.797,-1.532 2.747,-2.235 3.321,-2.458 6.831,-4.27 10.903,-5.06 2.908,-0.565 5.77,-1.007 8.633,-1.558 -1.762,-0.226 -3.441,-0.916 -4.78,-2.158 M 77.579,32.723 c 0.718,3.09 2.566,6.037 3.283,9.074 0.013,0.053 -0.019,0.093 -0.06,0.111 2.609,4.476 4.536,9.419 5.428,14.488 -0.149,-2.37 -0.469,-4.734 -0.972,-7.072 -1.331,-6.187 -3.919,-11.7 -7.356,-16.736 -0.106,0.049 -0.214,0.094 -0.323,0.135 M 77.414,31.89 c 0.028,0.173 0.056,0.346 0.092,0.518 0.074,-0.026 0.145,-0.055 0.215,-0.087 -0.1,-0.145 -0.205,-0.287 -0.307,-0.431 M 60.489,13.92 c -0.022,0.838 -0.978,1.92 0.051,2.455 0.442,0.23 1.924,0.11 2.385,0.168 0.206,0.027 0.431,0.057 0.664,0.089 -1.009,-0.942 -2.041,-1.849 -3.1,-2.712 m 0.765,-0.017 c 1.059,0.904 2.083,1.861 3.083,2.843 0.976,0.161 2.051,0.4 3.009,0.786 -1.941,-1.348 -3.977,-2.551 -6.092,-3.629 m 17.052,14.074 c -0.343,-0.446 -0.697,-0.877 -1.051,-1.308 -0.382,-0.092 -0.817,-0.112 -1.321,-0.018 -0.312,0.058 -0.42,-0.427 -0.107,-0.482 0.34,-0.059 0.677,-0.058 1.006,-0.016 -2.201,-2.603 -4.622,-4.907 -7.226,-6.944 0.331,0.522 0.505,1.143 0.427,1.899 -0.027,0.267 -0.437,0.256 -0.42,-0.016 0.152,-2.398 -2.335,-3.425 -4.819,-3.892 1.566,1.56 3.078,3.169 4.58,4.71 2.816,2.89 5.492,5.903 7.85,9.128 -0.017,-0.273 -0.027,-0.547 -0.015,-0.827 0.002,-0.046 0.074,-0.044 0.074,0.003 -0.005,0.323 0.013,0.642 0.042,0.961 0.236,0.324 0.468,0.65 0.696,0.979 0.196,-0.131 0.366,-0.29 0.493,-0.489 0.483,-0.757 0.687,-1.707 0.603,-2.581 -0.268,-0.371 -0.534,-0.744 -0.812,-1.107 m 2.013,13.119 c -0.777,-1.792 -1.299,-3.738 -1.934,-5.571 -0.321,-0.926 -0.651,-1.84 -0.882,-2.775 -1.007,0.356 -2.158,0.37 -3.126,0.007 2.184,2.658 4.185,5.439 5.942,8.339 M 70.716,28.351 c 0.333,0.381 0.638,0.82 0.945,1.265 0.664,0.733 1.316,1.474 1.953,2.227 0.064,0.045 0.124,0.096 0.19,0.137 0.847,0.514 2.463,0.82 3.625,0.453 -0.051,-0.233 -0.095,-0.468 -0.129,-0.704 -1.995,-2.811 -4.247,-5.476 -6.697,-8.022 -2.112,-2.196 -4.274,-4.479 -6.541,-6.63 -1.177,-0.174 -2.294,-0.239 -3.059,-0.281 -0.994,-0.055 -2.373,0.216 -2.925,-0.869 -0.448,-0.88 -0.108,-1.548 0.505,-2.039 -1.32,0.341 -2.668,0.641 -3.953,0.66 0.398,0.287 0.795,0.576 1.188,0.869 4.713,3.51 9.337,7.437 13.547,11.752 0.494,0.306 0.942,0.714 1.351,1.182 M 44.181,8.08 c 3.191,1.655 6.265,3.542 9.206,5.588 0.045,-10e-4 0.088,0.001 0.134,-0.002 1.721,0.452 1.8,0.516 3.208,0.19 0.589,-0.136 1.928,-0.643 2.79,-0.71 -0.107,-0.082 -0.216,-0.159 -0.323,-0.24 C 56.202,11.53 53.064,10.391 49.798,9.488 48.048,9.004 46.297,8.546 44.546,8.106 44.424,8.098 44.303,8.088 44.181,8.08 M 33.573,7.017 c 1.048,0.545 1.879,1.391 2.423,2.497 0.32,-0.922 0.963,-1.603 1.895,-1.94 C 36.451,7.409 35.012,7.216 33.573,7.017 M 30.498,6.592 c 0.658,1.055 1.317,2.114 1.886,3.204 0.808,1.547 0.096,-0.137 -0.028,-0.595 -0.219,-0.815 -0.44,-1.63 -0.66,-2.445 -0.4,-0.055 -0.799,-0.11 -1.198,-0.164 M 29.062,4.955 C 29.057,4.74 29.345,4.71 29.441,4.87 c 0.238,0.4 0.483,0.798 0.73,1.197 1.595,0.162 3.188,0.347 4.782,0.533 1.702,0.199 3.414,0.32 5.127,0.426 C 35.03,5.854 29.964,4.839 24.868,3.935 c 0.105,0.053 0.209,0.107 0.313,0.16 0.123,0.062 0.027,0.251 -0.098,0.214 -0.219,-0.064 -0.437,-0.129 -0.655,-0.193 0.023,0.522 0.084,1.021 0.177,1.506 1.504,0.077 3.005,0.198 4.504,0.341 -0.018,-0.336 -0.04,-0.671 -0.047,-1.008 m 0.425,0.741 C 29.49,5.798 29.499,5.898 29.503,6 29.565,6.006 29.626,6.011 29.688,6.017 29.621,5.91 29.554,5.803 29.487,5.696 m -8.491,0.266 c 1.43,0.981 2.657,2.152 4.263,2.835 C 25.224,8.763 25.188,8.729 25.152,8.695 25.101,8.646 25.176,8.556 25.234,8.598 25.272,8.625 25.31,8.653 25.347,8.68 24.801,7.845 24.412,6.884 24.192,5.895 23.013,5.806 21.833,5.752 20.653,5.741 c 0.114,0.074 0.231,0.144 0.343,0.221 m -9.6,-4.068 c 0.665,0.194 1.211,0.376 1.514,0.466 2.585,0.776 5.132,1.736 7.423,3.174 0.258,-0.004 0.518,-0.01 0.773,-0.009 1.01,0.002 2.019,0.032 3.026,0.078 C 24.022,5.009 23.972,4.41 23.993,3.823 23.994,3.809 24.001,3.8 24.004,3.787 19.955,3.079 15.886,2.438 11.791,1.842 11.658,1.857 11.527,1.877 11.396,1.894 M 6.029,1.875 C 5.755,2.034 5.562,2.27 5.485,2.604 6.111,2.442 6.74,2.293 7.373,2.157 6.967,2.07 6.515,1.973 6.029,1.875 M 7.953,2.031 C 8.378,1.945 8.806,1.87 9.233,1.795 8.561,1.661 7.827,1.562 7.186,1.591 7.393,1.662 7.602,1.725 7.809,1.803 7.924,1.847 7.963,1.941 7.953,2.031 M 5.068,3.11 C 5.121,3.254 5.174,3.399 5.227,3.544 5.187,3.381 5.163,3.231 5.146,3.088 5.12,3.096 5.094,3.103 5.068,3.11 M 4.937,2.753 C 5.001,2.735 5.066,2.717 5.132,2.7 5.148,2.302 5.273,1.995 5.482,1.766 5.168,1.705 4.842,1.645 4.508,1.587 4.651,1.976 4.794,2.364 4.937,2.753 M -0.457,1.168 c 0.029,0.077 0.059,0.152 0.088,0.228 0.181,0.467 0.362,0.935 0.542,1.402 C 0.345,3.241 0.517,3.685 0.688,4.129 0.858,4.064 1.03,4.004 1.201,3.942 0.864,3.487 0.49,3.045 0.362,2.845 0.167,2.542 0.681,2.268 0.866,2.586 1.102,2.993 1.337,3.399 1.573,3.806 2.598,3.441 3.637,3.112 4.687,2.821 4.51,2.39 4.334,1.958 4.158,1.528 2.669,1.284 1.045,1.106 -0.457,1.168 M -0.694,0.555 c 0.003,0.008 0.006,0.016 0.009,0.024 C -0.583,0.572 -0.481,0.57 -0.379,0.565 -0.484,0.562 -0.589,0.559 -0.694,0.555 M -2.328,0.731 C -2.297,0.728 -2.267,0.724 -2.237,0.72 -1.888,0.676 -1.54,0.644 -1.193,0.615 -1.245,0.483 -1.297,0.352 -1.35,0.22 c -0.059,-0.148 0,-0.313 0.166,-0.353 0.043,-0.011 0.083,-0.017 0.125,-0.025 -0.838,-0.123 -1.679,-0.238 -2.52,-0.344 0.497,0.343 0.901,0.767 1.251,1.233 m -8.235,-1.65 c 0.164,0.136 0.017,0.37 -0.176,0.278 0.102,0.049 0.846,2.698 0.973,3.025 0.307,0.789 0.616,1.577 0.919,2.367 0.073,0.189 0.144,0.378 0.217,0.567 1.398,-0.539 1.254,-0.881 2.157,-2.087 -0.532,-1.098 -1.065,-2.197 -1.614,-3.286 -0.124,-0.244 0.148,-0.439 0.364,-0.333 0.345,0.16 0.689,0.321 1.034,0.481 0.128,0.056 0.076,0.24 -0.064,0.21 C -6.969,0.252 -7.187,0.217 -7.405,0.176 -6.972,1.05 -6.562,1.935 -6.146,2.817 -6.014,2.657 -5.87,2.488 -5.699,2.3 -5.581,2.17 -5.664,1.799 -5.491,1.672 -5.002,1.312 -4.465,1.111 -3.903,0.979 -4.038,0.521 -4.166,0.06 -4.28,-0.405 c -0.017,-0.069 -10e-4,-0.128 0.027,-0.179 -2.176,-0.26 -4.356,-0.446 -6.521,-0.499 0.007,0.005 0.017,0.003 0.024,0.009 0.062,0.052 0.125,0.103 0.187,0.155 m 0.413,11.111 C -9.374,9.583 -8.576,9.003 -7.755,8.455 -7.952,7.832 -8.277,7.217 -8.525,6.613 -8.607,6.415 -8.687,6.215 -8.769,6.016 c -0.486,0.151 -0.977,0.27 -1.438,0.36 -0.282,0.056 -0.598,0.12 -0.927,0.175 0.353,1.21 0.678,2.426 0.984,3.641 m -2.126,1.685 c 0.032,-0.014 0.063,-0.028 0.096,-0.042 0.048,-0.02 0.095,-0.04 0.142,-0.06 0.535,-0.481 1.086,-0.943 1.648,-1.392 -0.346,-1.271 -0.724,-2.527 -1.127,-3.773 -0.826,0.115 -1.696,0.135 -2.358,-0.193 0.54,1.837 1.039,3.685 1.599,5.46 m 1.984,-1.127 c -0.229,0.187 -0.456,0.379 -0.681,0.572 0.25,-0.106 0.499,-0.212 0.748,-0.318 -0.022,-0.085 -0.045,-0.169 -0.067,-0.254 m 1.398,-0.599 c 0.071,-0.282 0.255,-0.578 0.483,-0.829 -0.559,0.398 -1.111,0.807 -1.649,1.237 0.029,0.113 0.057,0.226 0.084,0.339 0.336,-0.142 0.672,-0.285 1.008,-0.428 0.022,-0.104 0.048,-0.21 0.074,-0.319 M -7.645,8.789 C -7.646,8.788 -7.646,8.787 -7.646,8.785 -7.651,8.788 -7.655,8.791 -7.659,8.794 Z M -1.262,6.941 C -1.526,6.512 -1.777,6.073 -2.015,5.627 -2.805,5.99 -3.579,6.383 -4.343,6.795 -4.134,7.276 -3.915,7.753 -3.71,8.236 -2.847,7.871 -1.984,7.505 -1.122,7.137 -1.175,7.068 -1.224,7.001 -1.262,6.941 m 2.52,-1.34 C 1.331,5.789 1.142,6.017 0.946,5.886 0.507,5.591 0.139,5.236 -0.19,4.849 -0.651,5.034 -1.108,5.229 -1.562,5.431 -1.309,5.952 -1.043,6.47 -0.767,6.986 -0.75,6.979 -0.734,6.972 -0.717,6.965 0.13,6.602 1.736,6.299 1.816,5.117 1.829,4.917 1.651,4.59 1.413,4.241 1.213,4.312 1.013,4.381 0.815,4.456 0.962,4.837 1.11,5.219 1.258,5.601 M 0.229,4.685 C 0.334,4.8 0.443,4.912 0.559,5.02 L 0.399,4.618 C 0.342,4.64 0.286,4.662 0.229,4.685 M -0.01,4.401 C 0.083,4.364 0.174,4.323 0.267,4.287 -0.142,3.258 -0.551,2.229 -0.96,1.2 c -0.329,0.026 -0.649,0.067 -0.959,0.121 0.648,1.016 1.158,2.147 1.909,3.08 M -5.922,4.355 c -0.128,0.176 -0.283,0.35 -0.499,0.518 -0.563,0.438 -1.263,0.768 -1.989,1.022 0.306,0.797 0.611,1.594 0.915,2.392 0.296,-0.195 0.59,-0.394 0.892,-0.58 0.578,-0.358 1.166,-0.699 1.761,-1.027 -0.36,-0.775 -0.712,-1.554 -1.08,-2.325 m 1.444,2.134 C -3.718,6.08 -2.946,5.695 -2.163,5.333 -2.325,5.02 -2.487,4.707 -2.636,4.388 -3.021,3.558 -3.348,2.705 -3.634,1.838 c -0.575,0.271 -1.07,0.637 -1.452,1.117 -0.251,0.315 -0.392,0.627 -0.551,0.931 0.398,0.862 0.778,1.733 1.159,2.603 m 1.353,-4.857 c 0.398,1.198 0.874,2.355 1.414,3.49 C -1.284,4.93 -0.851,4.749 -0.417,4.57 -1.174,3.588 -1.723,2.432 -2.445,1.429 -2.68,1.486 -2.906,1.554 -3.125,1.632 M -3.563,0.196 c 0.062,0.229 0.131,0.453 0.199,0.679 C -3.222,0.851 -3.079,0.829 -2.934,0.81 -3.127,0.591 -3.335,0.385 -3.563,0.196 m -0.49,8.186 C -4.264,7.914 -4.486,7.451 -4.701,6.985 -5.613,7.489 -6.504,8.029 -7.374,8.604 l 0.03,0.077 0.07,-0.026 c 0.376,-0.082 0.748,-0.068 1.117,0.044 0.184,0.033 0.317,0.104 0.492,0.185 0.068,0.032 0.131,0.066 0.189,0.102 0.475,-0.201 0.949,-0.403 1.423,-0.604 m -17.07,-7.017 c 0.268,1.073 0.531,2.146 0.789,3.221 0.392,1.634 0.749,3.276 1.098,4.92 0.375,0.271 0.744,0.554 1.097,0.863 0.515,0.449 0.957,1.135 1.511,1.519 0.14,0.096 0.272,0.18 0.399,0.258 -0.501,-3.594 -1.284,-7.093 -2.084,-10.621 -0.961,-0.301 -1.958,-0.519 -2.954,-0.683 0.05,0.175 0.101,0.35 0.144,0.523 m -4.801,0.323 c 0.043,0.225 0.087,0.449 0.133,0.674 0.119,0.577 0.25,1.153 0.393,1.725 0.249,0.995 0.54,1.976 0.856,2.951 0.594,0.15 1.178,0.335 1.751,0.553 -0.465,-2.219 -0.942,-4.445 -1.301,-6.678 -0.616,0.233 -1.226,0.492 -1.832,0.775 m -0.604,0.284 c -0.534,0.265 -1.027,0.553 -1.503,0.851 0.156,1.255 0.318,2.508 0.549,3.758 0.873,0.054 1.738,0.179 2.588,0.373 -0.547,-1.681 -0.992,-3.389 -1.338,-5.121 -0.098,0.047 -0.198,0.09 -0.296,0.139 m 4.868,-1.356 c -0.041,-0.156 -0.08,-0.311 -0.12,-0.466 -0.385,0.109 -0.768,0.226 -1.15,0.352 0.4,0.032 0.827,0.069 1.27,0.114 m -1.525,-0.033 c -0.207,0.071 -0.413,0.148 -0.619,0.224 0.501,2.272 0.881,4.584 1.275,6.882 1.086,0.436 2.124,0.997 3.098,1.678 -0.714,-2.865 -1.444,-5.725 -2.186,-8.583 -0.526,-0.08 -1.05,-0.145 -1.568,-0.201 m 5.316,1.092 c 0.908,3.463 1.449,7.06 1.87,10.602 1.433,0.774 2.169,0.295 3.499,-0.302 -1.039,-3.085 -2.362,-6.239 -3.251,-9.416 -0.22,-0.1 -0.469,-0.212 -0.771,-0.352 -0.436,-0.201 -0.888,-0.374 -1.347,-0.532 M -15,2.91 c 0.156,0.436 0.306,0.878 0.45,1.321 0.001,-0.884 0.217,-0.98 -0.45,-1.321 m 1.146,-3.967 c 1.019,2.312 1.859,4.72 2.585,7.159 0.803,-0.122 1.623,-0.426 2.236,-0.637 0.012,-0.005 0.022,-0.008 0.034,-0.013 -0.435,-1.065 -0.871,-2.13 -1.302,-3.197 -0.252,-0.623 -1.758,-2.845 -0.642,-3.338 0.002,-0.001 0.006,-0.001 0.009,-0.002 -0.977,-0.021 -1.95,-0.012 -2.92,0.028 M 4.17,0.666 C 4.19,0.721 4.21,0.776 4.23,0.831 4.916,0.95 5.596,1.109 6.272,1.303 6.569,1.216 6.909,1.175 7.276,1.168 6.248,1.006 5.212,0.837 4.17,0.666 m 24.724,156.512 c 0.491,-0.656 0.752,-1.689 0.918,-2.744 -0.44,0.888 -0.782,1.803 -0.918,2.744 M 77.27,19.74 c 9.43,9.485 15.105,22.358 15.479,35.74 0.182,6.53 -0.892,13.147 -3.058,19.307 -0.968,2.754 -2.179,5.441 -3.576,8.008 4.134,-2.42 8.811,-4.172 13.56,-5.487 6.436,-1.784 13.532,-2.093 18.918,-6.473 2.379,-1.935 4.343,-4.335 5.74,-7.069 1.574,-3.082 1.837,-6.126 2.35,-9.474 0.409,-2.667 3.806,-2.465 4.246,-0.377 0.007,-0.003 0.013,-0.007 0.019,-0.01 0.35,2.417 0.144,4.861 -0.491,7.23 0.003,1.713 0.005,3.428 -0.262,5.104 -0.494,3.11 -1.558,6.269 -3.524,8.769 -4.161,5.288 -11.459,6.52 -17.499,8.463 -3.926,1.262 -7.767,2.752 -11.262,4.969 -3.684,2.337 -6.276,5.502 -9.444,8.408 -0.597,0.548 -1.2,1.064 -1.806,1.559 0.394,0.528 0.788,1.056 1.182,1.585 0.638,0.193 1.288,0.324 1.951,0.393 0.785,0.12 1.552,0.201 2.344,0.228 1.887,0.063 3.763,-0.146 5.598,-0.58 2.552,-0.603 4.837,-1.409 7.485,-1.024 0.197,0.028 0.314,0.216 0.209,0.4 -2.686,4.721 -7.77,7.773 -13.282,7.431 -3.137,-0.195 -5.095,-1.934 -7.852,-3.065 -1.819,-0.746 -3.673,-0.471 -5.588,-0.288 -0.554,0.054 -4.002,0.072 -5.092,0.617 0.444,0.586 0.671,1.295 0.491,2.143 -0.544,2.581 -3.927,2.698 -5.445,4.177 -1.293,1.259 -1.849,3.314 -3.001,4.75 -0.952,1.187 -2.11,2.196 -3.493,2.849 -1.103,0.52 -2.337,0.768 -3.522,0.669 0.123,1.394 -0.341,2.854 -1.382,4.299 -1.372,1.904 -3.421,3.183 -5.237,4.613 -2.078,1.637 -4.085,3.363 -5.982,5.207 -3.647,3.546 -6.817,7.567 -9.879,11.621 -1.48,1.959 -2.87,4.027 -4.1,6.153 -0.411,0.71 -0.883,1.444 -1.338,2.201 -0.182,1.25 -0.349,2.501 -0.593,3.735 -0.242,1.218 -0.534,1.933 -1.645,2.5 -0.382,0.195 -0.828,-0.032 -0.932,-0.437 -0.978,-3.828 1.423,-8.204 2.913,-11.616 0.541,-1.239 1.124,-2.46 1.747,-3.659 1.118,-3.623 2.498,-7.184 4.075,-10.625 0.742,-1.616 1.559,-3.186 2.385,-4.76 -2.224,1.191 -5.058,1.822 -7.498,2.359 -1.32,0.291 -2.649,0.515 -3.982,0.674 -3.698,3.63 -6.433,8.236 -7.865,13.289 -0.107,0.378 -0.706,0.28 -0.681,-0.115 0.262,-4.165 0.399,-8.705 1.246,-13.001 -1.475,-0.106 -2.947,-0.291 -4.411,-0.579 -10.524,-2.072 -20.458,-7.664 -27.482,-15.783 -8.061,-9.319 -11.635,-21.028 -14.327,-32.806 -3.08,-13.479 -5.099,-27.147 -8.623,-40.541 -3.117,-11.847 -8.992,-25.881 -1.042,-37.216 8.158,-11.631 22.435,-8.092 34.32,-6.395 14.884,2.125 29.853,3.752 44.714,5.992 12.911,1.945 24.892,6.55 34.224,15.938"
           style="fill:#d4aa00;fill-opacity:1;fill-rule:nonzero;stroke:none"
           id="path1379" />
      </g>
      <g
         id="g1381"
         transform="matrix(1.3333333,0,0,-1.3333333,33.655507,165.51517)"
         style="fill:#d4aa00;fill-opacity:1">
        <path
           d="m 0,0 c 1.713,-1.214 3.435,-2.327 5.122,-3.324 8.906,-5.262 18.664,-8.908 28.496,-12.024 1.787,-0.567 3.603,-1.082 5.422,-1.598 -5.335,1.592 -10.647,3.274 -15.861,5.232 C 15.069,-8.668 7.123,-4.941 0,0"
           style="fill:#d4aa00;fill-opacity:1;fill-rule:nonzero;stroke:none"
           id="path1383" />
      </g>
      <g
         id="g1385"
         transform="matrix(1.3333333,0,0,-1.3333333,87.449239,188.63303)"
         style="fill:#d4aa00;fill-opacity:1">
        <path
           d="M 0,0 C 0.469,-0.139 0.97,-0.274 1.489,-0.411 0.559,-0.138 -0.373,0.128 -1.306,0.392 -0.87,0.262 -0.436,0.128 0,0"
           style="fill:#d4aa00;fill-opacity:1;fill-rule:nonzero;stroke:none"
           id="path1387" />
      </g>
      <g
         id="g1389"
         transform="matrix(1.3333333,0,0,-1.3333333,24.483641,158.29584)"
         style="fill:#d4aa00;fill-opacity:1">
        <path
           d="M 0,0 C 2.183,-1.956 4.485,-3.753 6.879,-5.415 1.501,-1.601 -3.783,3.227 -7.583,8.696 -5.377,5.415 -2.729,2.445 0,0"
           style="fill:#d4aa00;fill-opacity:1;fill-rule:nonzero;stroke:none"
           id="path1391" />
      </g>
      <g
         id="g1393"
         transform="matrix(1.3333333,0,0,-1.3333333,44.585241,97.271703)"
         style="fill:#d4aa00;fill-opacity:1">
        <path
           d="M 0,0 C 0.033,0.015 0.061,0.023 0.092,0.037 0.118,0.052 0.103,0.046 0,0"
           style="fill:#d4aa00;fill-opacity:1;fill-rule:nonzero;stroke:none"
           id="path1395" />
      </g>
      <g
         id="g1397"
         transform="matrix(1.3333333,0,0,-1.3333333,28.223241,103.59264)"
         style="fill:#d4aa00;fill-opacity:1">
        <path
           d="M 0,0 C 0.101,-0.176 0.409,-0.221 0.536,-0.045 0.824,0.352 0.964,0.679 1.273,1.062 1.6,1.466 1.979,1.868 2.474,2.053 3.074,2.277 2.989,3.336 2.274,3.233 1.432,3.111 0.643,2.756 0.177,2.015 -0.182,1.444 -0.349,0.611 0,0"
           style="fill:#d4aa00;fill-opacity:1;fill-rule:nonzero;stroke:none"
           id="path1399" />
      </g>
      <g
         id="g1401"
         transform="matrix(1.3333333,0,0,-1.3333333,29.575508,145.6929)"
         style="fill:#d4aa00;fill-opacity:1">
        <path
           d="m 0,0 c -0.029,-0.08 -0.058,-0.16 -0.087,-0.24 -0.064,-0.24 0.001,-0.545 0.132,-0.751 0.28,-0.44 0.935,-0.615 1.376,-0.306 0.426,0.299 0.626,0.919 0.306,1.376 C 1.598,0.263 1.435,0.396 1.222,0.473 1.105,0.527 0.98,0.549 0.849,0.54 0.736,0.523 0.674,0.513 0.637,0.506 0.415,0.476 0.243,0.367 0.121,0.179 0.099,0.148 0.063,0.097 0,0"
           style="fill:#d4aa00;fill-opacity:1;fill-rule:nonzero;stroke:none"
           id="path1403" />
      </g>
      <g
         id="g1405"
         transform="matrix(1.3333333,0,0,-1.3333333,52.132174,135.81664)"
         style="fill:#d4aa00;fill-opacity:1">
        <path
           d="m 0,0 c -0.004,-0.716 0.616,-1.207 1.223,-1.416 0.455,-0.157 0.954,-0.153 1.392,0.049 0.209,0.097 0.339,0.172 0.514,0.32 0.173,0.121 0.305,0.278 0.395,0.473 0.152,0.444 0.18,0.509 0.083,0.197 C 3.842,-0.018 3.802,0.567 3.578,0.931 3.604,1.165 3.594,1.389 3.509,1.625 3.368,2.019 2.879,1.913 2.806,1.552 2.769,1.564 2.73,1.572 2.691,1.581 2.3,1.744 1.903,1.781 1.407,1.671 1.387,1.665 1.366,1.66 1.346,1.655 1.282,1.644 1.205,1.63 1.104,1.613 0.811,1.523 0.579,1.353 0.391,1.134 0.074,0.852 -0.084,0.437 0,0"
           style="fill:#d4aa00;fill-opacity:1;fill-rule:nonzero;stroke:none"
           id="path1407" />
      </g>
      <g
         id="g1409"
         transform="matrix(1.3333333,0,0,-1.3333333,51.45044,121.5185)"
         style="fill:#d4aa00;fill-opacity:1">
        <path
           d="M 0,0 C 0.345,-0.356 1.02,-0.818 1.528,-0.495 1.809,-0.316 1.905,-0.002 1.917,0.328 2.605,0.739 3.538,0.796 4.193,0.343 4.561,0.089 4.955,0.517 4.659,0.859 4.155,1.441 3.447,1.865 2.736,2.132 1.908,2.442 0.889,2.148 0.149,1.763 -0.534,1.407 -0.46,0.475 0,0"
           style="fill:#d4aa00;fill-opacity:1;fill-rule:nonzero;stroke:none"
           id="path1411" />
      </g>
      <g
         id="g1413"
         transform="matrix(1.3333333,0,0,-1.3333333,63.999373,188.31463)"
         style="fill:#d4aa00;fill-opacity:1">
        <path
           d="m 0,0 c 0.6,-1.298 2.033,-1.594 3.236,-0.966 0.403,0.211 0.757,0.492 1.07,0.825 0.186,0.2 0.352,0.42 0.475,0.664 C 4.866,0.701 4.934,0.884 4.986,1.075 4.887,0.791 4.876,0.752 4.956,0.959 5.253,1.711 5.226,2.644 4.546,3.206 3.855,3.777 3.065,3.771 2.285,3.396 2.462,3.481 2.601,3.541 2.325,3.46 2.211,3.436 2.105,3.391 2.005,3.326 1.66,3.165 1.663,3.167 2.017,3.333 1.802,3.303 1.575,3.156 1.367,3.089 0.076,2.67 -0.57,1.233 0,0"
           style="fill:#d4aa00;fill-opacity:1;fill-rule:nonzero;stroke:none"
           id="path1415" />
      </g>
      <g
         id="g1417"
         transform="matrix(1.3333333,0,0,-1.3333333,83.419906,181.94877)"
         style="fill:#d4aa00;fill-opacity:1">
        <path
           d="m 0,0 c 0.001,-0.032 0.002,-0.064 0.003,-0.096 0.017,-0.499 0.314,-0.963 0.758,-1.191 0.468,-0.24 0.942,-0.17 1.391,0.063 0.03,0.016 0.06,0.032 0.09,0.047 0.47,0.245 0.656,0.797 0.675,1.286 C 2.924,0.294 2.893,0.534 2.81,0.73 2.826,0.808 2.842,0.886 2.858,0.964 2.929,1.306 2.764,1.673 2.451,1.833 2.117,2.005 1.773,1.895 1.507,1.662 1.459,1.62 1.411,1.578 1.363,1.536 1.36,1.535 1.358,1.535 1.355,1.534 1.358,1.535 1.36,1.535 1.363,1.535 1.36,1.533 1.357,1.53 1.354,1.527 1.11,1.473 0.917,1.434 0.675,1.286 0.238,1.019 -0.017,0.507 0,0"
           style="fill:#d4aa00;fill-opacity:1;fill-rule:nonzero;stroke:none"
           id="path1419" />
      </g>
      <g
         id="g1421"
         transform="matrix(1.3333333,0,0,-1.3333333,97.658173,195.52957)"
         style="fill:#d4aa00;fill-opacity:1">
        <path
           d="M 0,0 C -0.021,-0.02 -0.047,-0.037 -0.069,-0.056 -0.244,-0.214 -0.339,-0.308 0,0"
           style="fill:#d4aa00;fill-opacity:1;fill-rule:nonzero;stroke:none"
           id="path1423" />
      </g>
      <g
         id="g1425"
         transform="matrix(1.3333333,0,0,-1.3333333,65.126973,216.2977)"
         style="fill:#d4aa00;fill-opacity:1">
        <path
           d="m 0,0 c 0.199,-0.557 0.543,-0.895 1.025,-1.226 l -0.312,0.211 c 0.217,-0.21 0.468,-0.354 0.753,-0.43 0.309,-0.112 0.647,-0.173 0.979,-0.148 0.381,0.029 0.705,0.147 1.057,0.271 1.754,0.615 1.931,2.926 0.343,3.846 C 2.521,3.292 0.867,2.939 0.138,1.544 -0.09,1.108 -0.167,0.471 0,0"
           style="fill:#d4aa00;fill-opacity:1;fill-rule:nonzero;stroke:none"
           id="path1427" />
      </g>
      <g
         id="g1429"
         transform="matrix(1.3333333,0,0,-1.3333333,35.304041,230.04383)"
         style="fill:#d4aa00;fill-opacity:1">
        <path
           d="M 0,0 C 1.026,-0.15 1.79,0.231 2.725,0.42 3.486,0.574 4.362,0.543 5.119,0.871 6.264,1.368 7.021,3.026 5.806,3.961 4.817,4.723 3.646,4.952 2.409,4.854 1.19,4.758 -0.313,4.541 -1.129,3.544 -2.081,2.381 -1.695,0.248 0,0"
           style="fill:#d4aa00;fill-opacity:1;fill-rule:nonzero;stroke:none"
           id="path1431" />
      </g>
      <g
         id="g1433"
         transform="matrix(1.3333333,0,0,-1.3333333,54.550707,236.79117)"
         style="fill:#d4aa00;fill-opacity:1">
        <path
           d="m 0,0 c 0.535,-1.157 2.146,-1.798 3.263,-0.974 0.393,0.29 0.795,0.567 1.089,0.963 C 4.42,0.088 4.489,0.187 4.557,0.286 4.54,0.253 4.573,0.279 4.669,0.382 4.869,0.546 4.996,0.777 5.124,0.998 5.616,1.847 5.053,3.261 4.011,3.371 3.666,3.407 3.361,3.45 3.019,3.359 2.948,3.364 2.87,3.369 2.772,3.375 2.288,3.386 1.834,3.255 1.378,3.114 0.07,2.709 -0.568,1.229 0,0"
           style="fill:#d4aa00;fill-opacity:1;fill-rule:nonzero;stroke:none"
           id="path1435" />
      </g>
      <g
         id="g1437"
         transform="matrix(1.3333333,0,0,-1.3333333,87.576173,230.9345)"
         style="fill:#d4aa00;fill-opacity:1">
        <path
           d="M 0,0 C 0.665,-0.24 1.374,-0.185 1.98,0.201 2.474,0.516 2.894,1.093 3.006,1.7 3.14,1.953 3.219,2.243 3.243,2.509 3.282,2.935 3.207,3.406 2.954,3.766 2.417,4.532 1.572,4.811 0.672,4.608 0.088,4.477 -0.512,4.064 -0.916,3.633 -2.017,2.46 -1.463,0.528 0,0"
           style="fill:#d4aa00;fill-opacity:1;fill-rule:nonzero;stroke:none"
           id="path1439" />
      </g>
      <g
         id="g1441"
         transform="matrix(1.3333333,0,0,-1.3333333,121.23311,193.34783)"
         style="fill:#d4aa00;fill-opacity:1">
        <path
           d="m 0,0 c -0.238,0.2 -0.509,0.305 -0.818,0.313 -0.158,0.004 -0.287,-0.036 -0.425,-0.1 -0.089,-0.028 -0.166,-0.077 -0.23,-0.146 -0.158,-0.134 -0.139,-0.118 0.056,0.046 -0.395,-0.245 -0.572,-0.689 -0.449,-1.136 0.012,-0.043 0.033,-0.083 0.053,-0.123 0.003,-0.012 0.01,-0.022 0.015,-0.034 0.002,-0.004 0.004,-0.009 0.006,-0.013 0.203,-0.508 0.838,-0.844 1.375,-0.679 C 0.364,-1.632 0.651,-0.546 0,0"
           style="fill:#d4aa00;fill-opacity:1;fill-rule:nonzero;stroke:none"
           id="path1443" />
      </g>
      <g
         id="g1445"
         transform="matrix(1.3333333,0,0,-1.3333333,129.26044,184.98983)"
         style="fill:#d4aa00;fill-opacity:1">
        <path
           d="m 0,0 c -0.316,-0.373 -0.57,-0.785 -0.739,-1.244 -0.095,-0.255 -0.178,-0.51 -0.222,-0.779 -0.068,-0.424 0.008,-0.721 0.233,-1.022 0.057,-0.138 0.119,-0.274 0.212,-0.386 0.319,-0.38 1.07,-0.539 1.3,0.059 0.046,0.119 0.081,0.236 0.113,0.355 0.158,0.22 0.232,0.451 0.236,0.748 0.003,0.235 -0.012,0.225 0.017,0.4 0.058,0.352 0.138,0.554 0.312,0.858 C 1.963,-0.133 0.658,0.776 0,0"
           style="fill:#d4aa00;fill-opacity:1;fill-rule:nonzero;stroke:none"
           id="path1447" />
      </g>
      <g
         id="g1449"
         transform="matrix(1.3333333,0,0,-1.3333333,47.324174,202.0829)"
         style="fill:#d4aa00;fill-opacity:1">
        <path
           d="m 0,0 c -0.008,0.052 -0.014,0.089 -0.02,0.133 0.004,0.059 0.013,0.118 0.015,0.178 0.022,0.625 -0.432,1.246 -0.968,1.522 -0.448,0.23 -0.91,0.238 -1.354,0.097 C -2.432,1.913 -2.537,1.895 -2.642,1.877 -2.74,1.832 -2.819,1.796 -2.89,1.764 c 0,-0.001 -10e-4,-0.001 -0.002,-0.001 -1.353,-0.159 -2.3,-1.527 -1.893,-2.852 0.409,-1.332 2.13,-2.063 3.324,-1.226 0.411,0.289 0.747,0.595 1.029,1.003 C -0.156,-0.913 0.018,-0.507 0,0"
           style="fill:#d4aa00;fill-opacity:1;fill-rule:nonzero;stroke:none"
           id="path1451" />
      </g>
      <g
         id="g1453"
         transform="matrix(1.3333333,0,0,-1.3333333,25.238308,181.67463)"
         style="fill:#d4aa00;fill-opacity:1">
        <path
           d="M 0,0 C 0.481,-0.096 1.166,0.145 1.21,0.707 1.223,0.866 1.029,0.92 0.915,0.861 0.765,0.784 0.565,0.626 0.39,0.754 -0.227,1.202 -0.661,0.131 0,0"
           style="fill:#d4aa00;fill-opacity:1;fill-rule:nonzero;stroke:none"
           id="path1455" />
      </g>
      <g
         id="g1457"
         transform="matrix(1.3333333,0,0,-1.3333333,47.974574,158.36024)"
         style="fill:#d4aa00;fill-opacity:1">
        <path
           d="m 0,0 c -0.011,-0.149 0.019,-0.308 0.07,-0.447 0.009,-0.022 0.165,-0.372 0.086,-0.189 -0.074,0.173 0.089,-0.196 0.107,-0.233 0.298,-0.61 1.248,-0.608 1.652,-0.139 0.07,0.082 0.132,0.177 0.189,0.269 C 2.267,-0.472 2.229,-0.08 2.062,0.174 2.087,0.114 2.113,0.055 2.138,-0.004 1.939,0.432 1.582,0.707 1.167,0.719 0.954,0.835 0.657,0.832 0.46,0.737 0.155,0.59 0.023,0.328 0,0"
           style="fill:#d4aa00;fill-opacity:1;fill-rule:nonzero;stroke:none"
           id="path1459" />
      </g>
      <g
         id="g1461"
         transform="matrix(1.3333333,0,0,-1.3333333,79.05924,147.36024)"
         style="fill:#d4aa00;fill-opacity:1">
        <path
           d="m 0,0 c -0.159,-0.109 -0.297,-0.251 -0.411,-0.411 -0.033,-0.041 -0.063,-0.084 -0.09,-0.13 -0.004,-0.005 -0.008,-0.011 -0.011,-0.016 0.001,0 0.001,0 0.002,0 -0.094,-0.167 -0.148,-0.359 -0.13,-0.576 0.054,-0.672 0.556,-1.091 1.206,-1.12 l 0.126,-0.005 c 0.399,-0.018 0.902,0.292 1.05,0.667 -0.081,-0.062 -0.072,-0.038 0.027,0.072 0.072,0.103 0.143,0.206 0.214,0.31 0.311,0.451 0.05,0.944 -0.35,1.201 0.06,0.32 0.129,0.639 0.196,0.957 C 1.965,1.603 0.998,1.994 0.703,1.356 0.488,0.89 0.299,0.411 0,0"
           style="fill:#d4aa00;fill-opacity:1;fill-rule:nonzero;stroke:none"
           id="path1463" />
      </g>
      <g
         id="g1465"
         transform="matrix(1.3333333,0,0,-1.3333333,66.234973,107.95464)"
         style="fill:#d4aa00;fill-opacity:1">
        <path
           d="m 0,0 c 0.309,-0.302 0.796,-0.466 1.246,-0.437 0.2,-0.004 0.39,0.021 0.554,0.083 0.124,0.032 0.248,0.075 0.378,0.138 0.027,0.012 0.05,0.031 0.073,0.047 0.273,0.116 0.541,0.244 0.767,0.434 C 3.162,0.357 3.273,0.479 3.352,0.631 3.536,0.908 3.539,0.9 3.36,0.609 3.433,0.715 3.506,0.821 3.579,0.926 3.934,1.256 4.146,1.65 4.058,2.171 3.972,2.678 3.566,3.169 3.036,3.26 2.998,3.267 2.958,3.273 2.919,3.28 2.836,3.323 2.751,3.362 2.659,3.387 2.376,3.488 2.381,3.487 2.674,3.386 2.522,3.44 2.37,3.495 2.218,3.55 2.013,3.595 1.807,3.606 1.601,3.585 1.465,3.577 1.33,3.555 1.196,3.54 0.329,3.445 -0.486,2.892 -0.665,1.988 -0.821,1.205 -0.552,0.54 0,0"
           style="fill:#d4aa00;fill-opacity:1;fill-rule:nonzero;stroke:none"
           id="path1467" />
      </g>
      <g
         id="g1469"
         transform="matrix(1.3333333,0,0,-1.3333333,96.430973,140.79184)"
         style="fill:#d4aa00;fill-opacity:1">
        <path
           d="M 0,0 C -0.024,0.032 -0.049,0.064 -0.074,0.096 0.133,-0.228 0.463,-0.324 0.778,-0.256 1.173,-0.22 1.462,0.031 1.619,0.371 2.457,0.772 2.213,2.109 1.213,2.094 0.727,2.086 0.214,1.844 -0.072,1.443 -0.374,1.021 -0.476,0.37 0,0"
           style="fill:#d4aa00;fill-opacity:1;fill-rule:nonzero;stroke:none"
           id="path1471" />
      </g>
      <g
         id="g1473"
         transform="matrix(1.3333333,0,0,-1.3333333,130.20311,181.42343)"
         style="fill:#d4aa00;fill-opacity:1">
        <path
           d="m 0,0 c -0.1,-0.083 -0.183,-0.191 -0.221,-0.338 -0.157,-0.596 0.326,-1.062 0.877,-1.158 0.418,-0.072 0.854,0.02 1.2,0.266 0.194,0.137 0.357,0.321 0.458,0.537 0.032,0.085 0.062,0.17 0.091,0.256 C 2.347,-0.612 2.361,-0.577 2.447,-0.33 2.485,-0.162 2.466,0.019 2.411,0.181 2.33,0.419 2.177,0.637 1.98,0.792 1.795,0.937 1.604,1.012 1.367,0.996 1.274,0.992 1.187,0.967 1.104,0.932 0.652,0.949 0.191,0.783 0.003,0.331 -0.044,0.218 -0.038,0.103 0,0"
           style="fill:#d4aa00;fill-opacity:1;fill-rule:nonzero;stroke:none"
           id="path1475" />
      </g>
      <g
         id="g1477"
         transform="matrix(1.3333333,0,0,-1.3333333,63.981773,104.1981)"
         style="fill:#d4aa00;fill-opacity:1">
        <path
           d="m 0,0 c 4.731,1.997 10.356,3.595 14.666,-0.23 0.035,-0.032 0.082,0.021 0.048,0.054 C 11.607,2.875 7.299,2.833 3.343,1.624 2.104,1.245 -0.632,0.578 -2.254,-0.645 -1.752,-0.869 -1.428,-0.602 0,0"
           style="fill:#d4aa00;fill-opacity:1;fill-rule:nonzero;stroke:none"
           id="path1479" />
      </g>
      <g
         id="g1481"
         transform="matrix(1.3333333,0,0,-1.3333333,60.976573,105.05757)"
         style="fill:#d4aa00;fill-opacity:1">
        <path
           d="M 0,0 C -0.093,0.041 -0.192,0.1 -0.305,0.176 -0.23,0.09 -0.162,0.005 -0.1,-0.081 -0.066,-0.055 -0.035,-0.026 0,0"
           style="fill:#d4aa00;fill-opacity:1;fill-rule:nonzero;stroke:none"
           id="path1483" />
      </g>
      <g
         id="g1485"
         transform="matrix(1.3333333,0,0,-1.3333333,59.376307,108.64864)"
         style="fill:#d4aa00;fill-opacity:1">
        <path
           d="M 0,0 C 0.026,-0.097 0.145,-0.132 0.226,-0.083 1.656,0.784 1.752,1.711 1.1,2.612 0.235,1.926 -0.283,1.073 0,0"
           style="fill:#d4aa00;fill-opacity:1;fill-rule:nonzero;stroke:none"
           id="path1487" />
      </g>
    </g>
  </g>
</svg>
