<?xml version="1.0" encoding="UTF-8" standalone="no"?>
<svg
   xmlns:dc="http://purl.org/dc/elements/1.1/"
   xmlns:cc="http://creativecommons.org/ns#"
   xmlns:rdf="http://www.w3.org/1999/02/22-rdf-syntax-ns#"
   xmlns:svg="http://www.w3.org/2000/svg"
   xmlns="http://www.w3.org/2000/svg"
   xmlns:sodipodi="http://sodipodi.sourceforge.net/DTD/sodipodi-0.dtd"
   xmlns:inkscape="http://www.inkscape.org/namespaces/inkscape"
   width="238.125mm"
   height="233.45154mm"
   viewBox="0 0 238.125 233.45154"
   version="1.1"
   id="svg1225"
   inkscape:version="1.0.1 (3bc2e813f5, 2020-09-07)"
   sodipodi:docname="portada_inicio.svg">
  <defs
     id="defs1219" />
  <sodipodi:namedview
     id="base"
     pagecolor="#ffffff"
     bordercolor="#666666"
     borderopacity="1.0"
     inkscape:pageopacity="0.0"
     inkscape:pageshadow="2"
     inkscape:zoom="0.11522572"
     inkscape:cx="3593.8268"
     inkscape:cy="1679.5787"
     inkscape:document-units="mm"
     inkscape:current-layer="layer1"
     inkscape:document-rotation="0"
     showgrid="false"
     inkscape:window-width="1920"
     inkscape:window-height="1027"
     inkscape:window-x="-8"
     inkscape:window-y="-8"
     inkscape:window-maximized="1" />
  <metadata
     id="metadata1222">
    <rdf:RDF>
      <cc:Work
         rdf:about="">
        <dc:format>image/svg+xml</dc:format>
        <dc:type
           rdf:resource="http://purl.org/dc/dcmitype/StillImage" />
        <dc:title></dc:title>
      </cc:Work>
    </rdf:RDF>
  </metadata>
  <g
     inkscape:label="Layer 1"
     inkscape:groupmode="layer"
     id="layer1"
     transform="translate(280.70875,243.81651)">
    <g
       id="g1956"
       transform="matrix(0.3318536,0,0,0.3318536,-2016.9266,-315.67583)">
      <path
         style="color:#000000;font-style:normal;font-variant:normal;font-weight:normal;font-stretch:normal;font-size:medium;line-height:normal;font-family:sans-serif;font-variant-ligatures:normal;font-variant-position:normal;font-variant-caps:normal;font-variant-numeric:normal;font-variant-alternates:normal;font-variant-east-asian:normal;font-feature-settings:normal;font-variation-settings:normal;text-indent:0;text-align:start;text-decoration:none;text-decoration-line:none;text-decoration-style:solid;text-decoration-color:#000000;letter-spacing:normal;word-spacing:normal;text-transform:none;writing-mode:lr-tb;direction:ltr;text-orientation:mixed;dominant-baseline:auto;baseline-shift:baseline;text-anchor:start;white-space:normal;shape-padding:0;shape-margin:0;inline-size:0;clip-rule:nonzero;display:inline;overflow:visible;visibility:visible;isolation:auto;mix-blend-mode:normal;color-interpolation:sRGB;color-interpolation-filters:linearRGB;solid-color:#000000;solid-opacity:1;vector-effect:none;fill:#d4aa00;fill-opacity:1;fill-rule:evenodd;stroke:none;stroke-width:0.0163379;stroke-linecap:round;stroke-linejoin:round;stroke-miterlimit:4;stroke-dasharray:none;stroke-dashoffset:0;stroke-opacity:1;paint-order:markers fill stroke;color-rendering:auto;image-rendering:auto;shape-rendering:auto;text-rendering:auto;enable-background:accumulate;stop-color:#000000"
         d="m 5249.7875,583.3202 c -2.0924,-0.6352 -3.7127,-2.4745 -5.0566,-4.1486 -0.5112,-1.1592 -1.2539,-2.2666 -1.3517,-3.558 a 0.011329,0.011329 0 0 0 0,-5e-4 c -0.245,-2.0482 -0.1877,-4.3197 0.2335,-6.342 0.5352,-1.7551 1.7236,-3.3595 2.5194,-5.038 1.4795,-2.3938 4.4823,-2.908 7.0206,-3.4827 a 0.011329,0.011329 0 0 0 0,-2e-4 c 3.2725,-1.1903 7.181,-1.1026 10.0956,0.954 2.2659,2.1026 3.9405,4.7715 5.325,7.5185 a 0.011329,0.011329 0 0 0 4e-4,9e-4 c 1.6123,2.6996 1.9858,6.3415 0.2124,9.0571 -1.3856,2.142 -3.8402,4.37 -6.0972,4.901 a 0.011329,0.011329 0 0 0 -8e-4,3e-4 c -3.586,1.1666 -7.5423,0.4654 -11.3748,0.3692 -0.5357,-9e-4 -1.0438,-0.084 -1.5267,-0.2305 z"
         id="path1817" />
      <path
         style="color:#000000;font-style:normal;font-variant:normal;font-weight:normal;font-stretch:normal;font-size:medium;line-height:normal;font-family:sans-serif;font-variant-ligatures:normal;font-variant-position:normal;font-variant-caps:normal;font-variant-numeric:normal;font-variant-alternates:normal;font-variant-east-asian:normal;font-feature-settings:normal;font-variation-settings:normal;text-indent:0;text-align:start;text-decoration:none;text-decoration-line:none;text-decoration-style:solid;text-decoration-color:#000000;letter-spacing:normal;word-spacing:normal;text-transform:none;writing-mode:lr-tb;direction:ltr;text-orientation:mixed;dominant-baseline:auto;baseline-shift:baseline;text-anchor:start;white-space:normal;shape-padding:0;shape-margin:0;inline-size:0;clip-rule:nonzero;display:inline;overflow:visible;visibility:visible;isolation:auto;mix-blend-mode:normal;color-interpolation:sRGB;color-interpolation-filters:linearRGB;solid-color:#000000;solid-opacity:1;vector-effect:none;fill:#d4aa00;fill-opacity:1;fill-rule:evenodd;stroke:none;stroke-width:0.0163379;stroke-linecap:round;stroke-linejoin:round;stroke-miterlimit:4;stroke-dasharray:none;stroke-dashoffset:0;stroke-opacity:1;paint-order:markers fill stroke;color-rendering:auto;image-rendering:auto;shape-rendering:auto;text-rendering:auto;enable-background:accumulate;stop-color:#000000"
         d="m 5920.4551,582.6929 c -2.0924,-0.6352 -3.7127,-2.4747 -5.0565,-4.1487 -0.5113,-1.1591 -1.254,-2.2665 -1.3518,-3.5581 a 0.011329,0.011329 0 0 0 0,-3e-4 c -0.245,-2.0484 -0.1877,-4.3197 0.2335,-6.342 0.5352,-1.7553 1.7235,-3.3597 2.5194,-5.038 1.4795,-2.3937 4.4823,-2.9082 7.0206,-3.4826 a 0.011329,0.011329 0 0 0 0,-5e-4 c 3.2726,-1.1901 7.181,-1.1024 10.0956,0.9542 2.2659,2.1024 3.9404,4.7715 5.325,7.5184 a 0.011329,0.011329 0 0 0 4e-4,9e-4 c 1.6123,2.6997 1.9858,6.3414 0.2124,9.057 -1.3857,2.142 -3.8402,4.37 -6.0972,4.901 a 0.011329,0.011329 0 0 0 -9e-4,5e-4 c -3.5859,1.1666 -7.5422,0.4654 -11.3747,0.3692 -0.5357,-8e-4 -1.0438,-0.084 -1.5268,-0.2305 z"
         id="path1819" />
      <g
         id="g1851"
         transform="matrix(1.0232777,0,0,1.0232777,5073.9728,47.5786)">
        <path
           d="m 188.82636,432.93605 q -1.74225,-0.5462 -3.80376,-0.8317 -2.13659,-0.4293 -4.04059,-0.064 -1.87017,0.2554 -3.43268,1.4488 -1.56251,1.1934 -2.3406,3.7147 -0.54126,1.754 -0.13624,3.9248 0.29603,2.1367 1.63972,4.3613 1.37756,2.115 3.97934,4.1328 2.63559,1.9082 6.66454,3.1711 2.72227,0.8533 6.00063,0.6787 3.16945,-0.2089 6.24163,-1.6504 3.10602,-1.5512 5.67918,-4.4716 2.5732,-2.9205 3.99401,-7.5247 1.42081,-4.6042 1.38803,-7.9808 0.001,-3.4863 -0.88811,-6.41 -0.88913,-2.9237 -2.45802,-5.5796 -1.53508,-2.7655 -3.26151,-6.0719 -0.7506,-1.4376 -0.1406,-3.4109 0.43976,-1.4251 1.25485,-2.1314 0.84894,-0.8159 1.78032,-1.1251 0.82248,-0.3433 1.76127,-0.2895 0.82992,0.019 1.37434,0.1903 0.98002,0.3072 1.74965,0.9091 0.76965,0.602 1.14496,1.3208 2.37237,3.1481 4.07976,7.2902 1.59852,4.1079 2.4496,8.7028 0.74219,4.5609 0.47794,9.2871 -0.15541,4.7604 -1.50853,9.1454 -1.35316,4.3849 -4.44117,8.5868 -3.088,4.2018 -7.5726,7.1242 -4.48457,2.9225 -10.05383,3.942 -5.712,1.095 -12.24545,-0.9529 -3.70232,-1.1605 -7.64459,-3.4783 -4.08501,-2.2423 -7.00921,-5.9242 -2.92423,-3.6818 -3.96669,-8.8177 -1.11749,-5.2796 1.04758,-12.2955 1.01487,-3.2887 3.38505,-5.5515 2.37022,-2.2627 5.70141,-3.3826 3.25613,-1.2637 7.18783,-1.2335 3.93168,0.03 7.96066,1.293 2.50449,0.7851 3.69066,2.3592 1.1862,1.5741 0.34036,4.3147 -0.87957,2.8502 -2.5996,3.393 -1.68622,0.4333 -3.42849,-0.1129 z"
           style="font-style:normal;font-variant:normal;font-weight:600;font-stretch:normal;font-size:70.5556px;line-height:1.25;font-family:Bimbo;-inkscape-font-specification:'Bimbo, Semi-Bold';font-variant-ligatures:normal;font-variant-caps:normal;font-variant-numeric:normal;font-variant-east-asian:normal;text-align:center;letter-spacing:-1.43404px;text-anchor:middle;fill:#1a1a1a;stroke:none;stroke-width:2.97271"
           id="path1821" />
        <path
           d="m 222.88423,397.09975 q -0.64102,1.4717 -1.79131,2.969 -1.25472,1.4511 -2.82274,2.7637 -1.67246,1.2664 -3.71681,2.243 -1.99859,0.8715 -4.33616,1.0917 1.5849,2.0797 2.38018,3.685 0.7366,1.4539 -0.31648,3.8717 -1.19045,2.7332 -3.21474,3.0919 -2.0243,0.3586 -3.48627,-0.2878 -1.67087,-0.7387 -3.34013,-3.4825 -1.71503,-2.6388 -2.86216,-5.1518 -1.59933,-0.331 -3.57063,-0.9519 -2.01705,-0.5157 -4.10561,-1.4391 -3.44613,-1.5236 -6.38858,-4.2036 -3.00111,-2.8313 -4.70893,-6.3444 -1.81225,-3.5593 -2.07656,-7.8132 -0.26425,-4.2539 1.7503,-8.8793 2.06042,-4.7305 5.92746,-7.0325 3.91281,-2.4071 8.57509,-3.1038 4.55787,-0.7429 9.19286,0.053 4.57634,0.6443 7.91805,2.1218 2.08855,0.9234 4.09839,2.3134 2.00984,1.3901 3.07983,2.3647 4.44622,0.085 6.85689,-1.7323 2.352,-1.9689 3.22196,-3.9663 1.00731,-2.3126 0.51248,-4.0358 -0.59927,-1.7693 -1.49896,-3.4208 -0.8997,-1.6514 -1.48609,-3.1643 -0.64508,-1.6643 0.27061,-3.7667 0.73261,-1.6819 2.58097,-2.4945 1.78972,-0.9638 3.87829,-0.04 1.04427,0.4617 1.80099,1.2977 1.23304,1.172 2.35446,3.1722 1.01696,1.954 1.60901,4.5977 0.4876,2.5976 0.28277,5.6411 -0.20487,3.0437 -1.62423,6.3024 -0.96152,2.2076 -2.65402,4.092 -1.69254,1.8843 -3.71121,3.3738 -2.01865,1.4894 -4.06302,2.466 -2.04439,0.9766 -3.70959,1.3687 0.90532,2.7822 0.75915,5.9771 -0.10041,3.0898 -1.56558,6.4537 z m -34.29253,-13.908 q -0.96152,2.2076 -0.34941,4.2333 0.61212,2.0258 2.12554,3.6978 1.5134,1.6721 3.62765,3.1083 2.05564,1.2849 3.93534,2.116 2.40184,1.0619 5.01976,1.3418 2.66372,0.1749 5.09288,-0.2555 2.32472,-0.4766 4.20602,-1.6507 1.92707,-1.2792 2.75124,-3.1714 0.73259,-1.682 0.32934,-3.6153 -0.50769,-1.9797 -1.72066,-3.7696 -1.16721,-1.8951 -2.77218,-3.3569 -1.60499,-1.4618 -3.1714,-2.1543 -1.67085,-0.7387 -4.40607,-1.3212 -2.79385,-0.7338 -5.59492,-0.5932 -2.80102,0.1414 -5.34188,1.3992 -2.49501,1.1535 -3.73126,3.9917 z"
           style="font-style:normal;font-variant:normal;font-weight:600;font-stretch:normal;font-size:70.5556px;line-height:1.25;font-family:Bimbo;-inkscape-font-specification:'Bimbo, Semi-Bold';font-variant-ligatures:normal;font-variant-caps:normal;font-variant-numeric:normal;font-variant-east-asian:normal;text-align:center;letter-spacing:-1.43404px;text-anchor:middle;fill:#1a1a1a;stroke:none;stroke-width:2.97271"
           id="path1823" />
        <path
           d="m 178.6428,344.71175 c -0.53784,0.024 -1.15223,-0.6095 -2.0106,-1.109 -0.85836,-0.4995 -1.35847,-0.9837 -1.50031,-1.4527 -0.42556,-1.4068 -0.32614,-2.6368 0.29813,-3.6902 0.56162,-1.0967 1.20916,-2.3197 1.94259,-3.6688 -0.90131,-0.4364 -1.93798,-1.0126 -3.10997,-1.7285 -1.21492,-0.6528 -2.40837,-1.3371 -3.58036,-2.0531 -1.27767,-0.696 -2.47114,-1.3804 -3.5804,-2.053 -1.17199,-0.7159 -2.19706,-1.3768 -3.07521,-1.9827 -0.62725,-0.4329 -1.16862,-0.9919 -1.62407,-1.6772 -0.56114,-0.6655 -0.627,-1.3139 -0.19758,-1.9453 0.55827,-0.8207 1.05379,-1.6847 1.48661,-2.5919 0.38987,-0.8442 0.94812,-1.6649 1.67477,-2.4622 0.64078,-0.671 1.31774,-0.8533 2.03087,-0.5467 0.71313,0.3065 1.85543,0.8628 3.42695,1.6689 0.79564,0.4562 1.70685,0.9458 2.7336,1.4687 0.98381,0.5861 2.03035,1.2155 3.13961,1.8881 1.04653,0.6294 2.12444,1.2804 3.23372,1.953 1.04652,0.6293 2.03034,1.2154 2.95142,1.7582 1.11654,-1.6414 2.15707,-3.1034 3.12158,-4.3859 0.94475,-1.3889 1.84656,-2.7146 2.70544,-3.9773 0.85885,-1.2626 1.73918,-2.5568 2.64098,-3.8826 0.94476,-1.3889 1.97539,-2.904 3.09193,-4.5455 0.57802,-0.7143 1.57198,-0.9561 2.98185,-0.7254 1.34715,0.1874 2.29139,0.5607 2.83273,1.1198 0.72619,0.9649 0.94209,2.2734 0.64774,3.9255 -0.25139,1.5891 -1.23595,3.6462 -2.95368,6.1715 l -7.24412,10.4465 c 3.82959,2.3642 21.97481,13.7443 26.08522,15.5601 4.15335,1.7527 8.08068,3.0248 11.78192,3.8162 3.7442,0.7282 7.11713,0.7829 10.11878,0.1639 3.04458,-0.6821 5.40427,-2.2542 7.07904,-4.7164 0.98771,-1.452 1.5643,-2.9094 1.72982,-4.3722 0.10286,-1.506 -0.006,-2.9724 -0.32566,-4.399 -0.3199,-1.4267 -0.73556,-2.7802 -1.24701,-4.0608 -0.57418,-1.3238 -1.06584,-2.4979 -1.47498,-3.5223 -0.44871,-1.2372 -0.58382,-2.2581 -0.40527,-3.0625 0.15878,-0.9109 0.45285,-1.682 0.88227,-2.3133 0.34354,-0.505 0.75969,-0.9136 1.24849,-1.2257 0.53173,-0.3752 1.03038,-0.6341 1.49599,-0.7766 0.78262,-0.2021 1.55195,-0.1815 2.30805,0.062 0.73628,0.137 1.38671,0.4002 1.95121,0.7898 0.75272,0.5193 1.35511,1.2597 1.8072,2.2209 0.65667,1.4735 1.38428,3.1815 2.1828,5.1239 0.79852,1.9425 1.36255,4.0941 1.69208,6.4551 0.30974,2.2545 0.20693,4.6416 -0.30914,7.1613 -0.41015,2.4999 -1.47407,5.0125 -3.19179,7.5378 -2.61953,3.851 -5.8364,6.5478 -9.65059,8.0903 -3.77124,1.4794 -7.99458,1.9975 -12.67001,1.5543 -4.71836,-0.38 -9.79474,-1.6564 -15.22914,-3.8292 -5.54007,-2.153 -25.52094,-14.2896 -31.59224,-17.8294 -0.66391,0.8405 -1.25354,1.6396 -1.76885,2.3972 -0.62101,0.7774 -1.1561,1.4286 -1.60529,1.9535 -0.55489,0.5448 -1.05526,0.9416 -1.5011,1.1906 -0.48877,0.312 -0.91835,0.084 -1.45617,0.1082 z"
           style="font-style:normal;font-variant:normal;font-weight:600;font-stretch:normal;font-size:70.5556px;line-height:1.25;font-family:Bimbo;-inkscape-font-specification:'Bimbo, Semi-Bold';font-variant-ligatures:normal;font-variant-caps:normal;font-variant-numeric:normal;font-variant-east-asian:normal;text-align:center;letter-spacing:-1.43404px;text-anchor:middle;fill:#1a1a1a;stroke:none;stroke-width:2.97271"
           id="path1825"
           sodipodi:nodetypes="ssscccccscsccsccccccsscccccccccscscccscccscsccscccccccss" />
        <path
           d="m 243.4977,284.50995 q 4.52923,3.3031 6.68161,7.3875 2.07558,3.9996 2.50293,8.7337 0.43485,4.5719 -0.52567,9.6466 -0.96054,5.0747 -2.49609,10.366 2.54738,0.7709 4.89429,0.6384 2.43116,-0.21 4.57013,-1.0838 2.13895,-0.8738 4.05501,-2.1647 1.9235,-1.453 3.60913,-2.9986 2.61273,-2.3956 4.20463,-5.4085 1.59188,-3.013 2.63867,-6.4581 1.04682,-3.4451 1.61786,-7.0754 0.57852,-3.7924 1.24132,-7.6621 0.31269,-1.5294 1.51509,-3.0979 1.2024,-1.5685 3.45756,-1.4615 1.2118,-0.024 2.15589,0.5085 0.94403,0.5324 1.63522,1.2966 0.69122,0.7643 1.05275,1.6754 0.36156,0.9112 0.32416,1.7221 0.24229,10.4958 -3.02378,18.3058 -3.26604,7.81 -9.97669,15.0503 -4.15225,4.2732 -9.34976,6.7089 -5.03644,2.4433 -10.45887,2.7551 -5.33818,0.2337 -10.64834,-1.8864 -5.39447,-2.0437 -9.85637,-6.8066 -3.84748,-4.0835 -6.53746,-8.7623 -2.7668,-4.7638 -3.6774,-9.5208 -0.9874,-4.842 0.0275,-9.3452 1.01488,-4.5032 4.57716,-8.2354 2.20628,-2.3337 4.437,-3.447 2.15394,-1.1983 4.17866,-1.3461 1.94794,-0.2328 3.77421,0.4227 1.83371,0.4933 3.39964,1.5428 z m -9.53681,10.7637 q -1.31659,2.2945 -0.968,5.2369 0.27176,2.8574 1.51002,5.7607 1.32256,2.826 3.2969,5.5203 2.05865,2.6171 4.23897,4.3459 0.70221,-2.9738 1.08972,-6.1251 0.38752,-3.1513 0.11566,-6.0088 -0.18747,-2.9347 -1.11856,-5.4983 -1.00785,-2.6486 -2.85852,-4.5243 -1.39739,-1.2041 -2.95384,-0.7089 -1.55647,0.4951 -2.35242,2.0016 z"
           style="font-style:normal;font-variant:normal;font-weight:600;font-stretch:normal;font-size:70.5556px;line-height:1.25;font-family:Bimbo;-inkscape-font-specification:'Bimbo, Semi-Bold';font-variant-ligatures:normal;font-variant-caps:normal;font-variant-numeric:normal;font-variant-east-asian:normal;text-align:center;letter-spacing:-1.43404px;text-anchor:middle;fill:#1a1a1a;stroke:none;stroke-width:2.97271"
           id="path1827" />
        <path
           d="m 277.38624,262.60035 q 0.72753,1.0356 1.47073,2.3276 0.7847,1.135 1.69943,2.725 2.4011,4.1738 4.42882,9.7596 1.97057,5.4864 1.55767,12.0966 -0.22208,3.0488 -2.49125,4.3714 -1.97313,1.15 -3.90024,0.5482 -1.92709,-0.6019 -3.01332,-2.4901 -0.7432,-1.2919 -0.68146,-2.7876 0.28395,-4.5444 -0.88632,-8.6396 -1.32602,-4.1369 -3.49846,-7.9132 -1.82942,-3.1801 -4.53109,-5.5864 -2.85749,-2.4482 -4.6869,-5.6282 -0.74322,-1.292 0.35215,-2.5939 0.9967,-1.2444 2.37789,-2.0494 1.08523,-0.6325 2.44062,-1.0245 1.45407,-0.4493 3.10545,-1.0138 1.65135,-0.5644 3.69736,-1.3588 2.14467,-0.8519 4.51243,-2.232 1.47986,-0.8625 2.92838,-2.2376 1.48996,-1.5319 2.72547,-3.0482 1.33415,-1.5738 2.38805,-2.7189 0.99667,-1.2444 1.78594,-1.7044 1.57852,-0.9201 3.58859,-0.632 2.01007,0.2882 2.92476,1.8782 0.62888,1.0931 2.73403,5.4395 2.04799,4.2469 5.24948,9.8121 1.71509,2.9813 3.62748,5.8476 1.95389,2.7094 3.81927,4.8069 1.90682,1.9407 3.55363,2.9713 1.68831,0.8738 2.97083,0.1264 0.59194,-0.345 1.19402,-1.3594 0.70074,-1.0719 1.22995,-2.442 0.5707,-1.5269 1.04275,-2.9963 0.41487,-1.5689 0.78826,-2.9807 0.13453,-1.1401 0.80951,-1.7989 0.71643,-0.8156 1.40701,-1.2181 1.87451,-1.0926 3.80158,-0.4907 1.96858,0.445 2.99766,2.2337 0.97187,1.6895 0.7285,3.5564 -0.23324,1.1975 -0.72098,2.4107 -0.38909,1.1557 -0.88691,3.0382 -1.03722,3.922 -3.15508,6.8815 -2.17503,2.8601 -4.3455,4.1252 -4.93285,2.8751 -9.63904,1.1063 -4.70617,-1.7687 -8.90435,-6.0894 -4.25538,-4.4201 -7.78421,-10.3252 -3.43018,-5.9626 -5.86821,-11.5746 -0.84088,1.2863 -2.51249,3.1895 -1.67163,1.9031 -3.44745,2.9382 -1.38122,0.8051 -3.27139,1.6414 -1.84868,0.6794 -3.71305,1.1025 z"
           style="font-style:normal;font-variant:normal;font-weight:600;font-stretch:normal;font-size:70.5556px;line-height:1.25;font-family:Bimbo;-inkscape-font-specification:'Bimbo, Semi-Bold';font-variant-ligatures:normal;font-variant-caps:normal;font-variant-numeric:normal;font-variant-east-asian:normal;text-align:center;letter-spacing:-1.43404px;text-anchor:middle;fill:#1a1a1a;stroke:none;stroke-width:2.97271"
           id="path1829" />
        <path
           d="m 308.10947,234.60525 q -0.59855,-2.0299 -0.23366,-4.2044 0.4092,-2.3305 4.09666,-4.3922 1.39528,-0.78 2.72431,-0.7349 1.329,0.046 2.42558,0.6143 1.04116,0.4687 1.89416,1.3054 0.79758,0.7364 1.18538,1.4391 1.27423,2.3089 0.87614,4.8959 -0.35379,2.431 -3.74229,4.3255 -2.29224,1.2816 -4.64016,1.2807 -2.24822,-0.057 -3.96564,-3.1687 -0.16614,-0.3012 -0.33241,-0.6023 -0.22159,-0.4016 -0.28814,-0.7584 z m 16.72087,34.7888 q -2.17086,-0.6253 -3.27888,-2.6331 -0.6648,-1.2047 -0.52116,-2.5986 -0.0113,-1.4386 0.17639,-2.9886 0.0883,-1.4943 0.1206,-3.089 -0.12223,-1.6393 -0.95321,-3.1452 -1.49582,-2.7104 -1.41873,-4.4612 0.12135,-1.9069 2.71257,-3.3556 1.79391,-1.003 3.01212,-1.1587 1.16284,-0.256 2.14861,0.1124 0.93036,0.2681 1.72794,1.0044 0.89727,0.6806 1.75025,1.5173 1.97181,1.9189 4.41998,4.2282 2.49242,2.1533 5.26156,3.6264 2.76912,1.4731 5.84809,1.8534 3.12322,0.2243 6.61139,-1.7259 2.5912,-1.4488 3.65377,-4.0133 1.16224,-2.6202 1.75963,-5.3187 0.64163,-2.8546 1.20592,-5.1405 0.66392,-2.3416 2.25851,-3.2331 1.2956,-0.7244 3.38879,-0.7124 2.03782,-0.088 3.47819,2.5216 0.38782,0.7027 0.63169,1.6173 0.18839,0.8141 0.0337,1.9515 -0.49685,6.1891 -3.55208,12.2322 -3.01096,5.8869 -8.99067,9.2302 -6.57769,3.6775 -12.60281,2.4485 -5.92548,-1.2848 -12.53833,-5.4692 l -0.33153,2.9439 q -0.15483,1.1374 -0.78587,1.8843 -0.63109,0.747 -1.42838,1.1927 -1.09629,0.613 -2.15946,0.8133 -1.11853,0.1 -1.63912,-0.1344 z"
           style="font-style:normal;font-variant:normal;font-weight:600;font-stretch:normal;font-size:70.5556px;line-height:1.25;font-family:Bimbo;-inkscape-font-specification:'Bimbo, Semi-Bold';font-variant-ligatures:normal;font-variant-caps:normal;font-variant-numeric:normal;font-variant-east-asian:normal;text-align:center;letter-spacing:-1.43404px;text-anchor:middle;fill:#1a1a1a;stroke:none;stroke-width:2.97271"
           id="path1831" />
        <path
           d="m 406.65357,214.94625 q -1.44617,0.6797 -2.40285,2.1432 -0.95668,1.4635 -1.51364,3.246 -0.55697,1.7826 -0.8108,3.6761 -0.15041,1.8451 -0.0876,3.3363 0.10432,1.852 0.45688,3.9676 0.35248,2.1155 0.14689,4.1132 -0.10217,1.949 -0.96234,3.6206 -0.86012,1.6715 -3.13274,2.7396 -2.06598,0.9709 -4.29811,0.4991 -2.23215,-0.4718 -3.05287,-2.2406 -1.30351,-2.8092 -2.29711,-5.7641 -1.04189,-3.059 -2.44195,-6.0763 -0.77244,-1.6647 -1.79977,-3.3364 -0.97229,-1.8243 -2.06138,-3.0868 -0.9858,-1.311 -2.14341,-1.9076 -1.0543,-0.6451 -1.98398,-0.2083 -2.99572,1.4079 -4.58567,3.6759 -1.58997,2.2681 -2.43554,5.3269 -0.89383,2.9547 -1.34641,6.5893 -0.45262,3.6345 -1.17359,7.7754 -0.29533,1.5328 -1.13521,2.4345 -0.8399,0.9017 -1.6663,1.29 -1.3429,0.6311 -2.66557,0.4923 -1.37093,-0.2428 -2.37022,-1.0406 -1.10258,-0.7491 -1.6819,-1.9977 -0.68266,-1.2 -0.43558,-2.8369 0.4998,-5.431 1.23424,-10.0852 0.83778,-4.7027 2.52321,-8.6631 1.68544,-3.9605 4.57004,-6.9637 2.93963,-3.1558 7.79471,-5.4374 2.8924,-1.3593 5.33788,-1.2413 2.3972,0.014 4.45753,1.2003 2.01204,1.0822 3.69396,3.0799 1.63365,1.8937 3.25378,4.3007 1.88532,-3.8009 4.77664,-7.0608 2.99465,-3.3083 7.12665,-5.2502 2.8924,-1.3593 5.79933,-1.3314 2.90698,0.028 5.84198,0.9299 2.93501,0.9019 5.95308,2.5251 3.01805,1.6233 6.07766,3.6073 3.51435,2.1504 5.84303,2.8303 2.38373,0.5273 3.9332,-0.2009 2.16932,-1.0194 3.16647,-4.0228 1.10043,-3.0518 1.71808,-7.1441 0.13705,-1.3318 0.92865,-2.3375 0.79161,-1.0057 1.92789,-1.5397 1.34291,-0.6311 2.4107,-0.4992 1.17108,0.083 1.92223,0.6174 0.85445,0.4856 1.44727,1.2209 0.54455,0.6312 0.78595,1.1514 0.24137,0.5203 0.42775,1.1931 0.24138,0.5202 0.13151,0.8254 -0.17747,2.8716 -0.71316,5.7848 -0.53566,2.9131 -1.72592,5.5003 -1.19025,2.5871 -3.18669,4.7927 -1.99641,2.2055 -4.9921,3.6134 -3.7188,1.7477 -7.0805,1.5532 -3.2584,-0.2429 -6.33823,-1.457 -2.97653,-1.2626 -5.73299,-3.1355 -2.75644,-1.873 -5.31979,-3.3298 -2.56334,-1.4567 -5.0986,-2.0395 -2.53532,-0.5828 -5.01452,0.5823 z"
           style="font-style:normal;font-variant:normal;font-weight:600;font-stretch:normal;font-size:70.5556px;line-height:1.25;font-family:Bimbo;-inkscape-font-specification:'Bimbo, Semi-Bold';font-variant-ligatures:normal;font-variant-caps:normal;font-variant-numeric:normal;font-variant-east-asian:normal;text-align:center;letter-spacing:-1.43404px;text-anchor:middle;fill:#1a1a1a;stroke:none;stroke-width:2.97271"
           id="path1833" />
        <path
           d="m 458.64263,170.63325 c -0.21756,-1.2828 0.1651,-2.4355 1.14821,-3.4582 0.98311,-1.0227 2.22397,-1.6625 3.72257,-1.9194 0.5245,-0.09 1.01795,-0.1357 1.48035,-0.1374 0.53732,-0.014 1.0189,0.097 1.44477,0.3347 2.58081,1.5766 4.96528,4.041 7.1534,7.3932 2.25022,3.2639 4.30865,6.9878 6.1752,11.1717 1.85377,4.1084 3.47087,8.4127 4.85135,12.9129 1.45538,4.4873 2.59091,8.68 3.40655,12.5781 0.89163,-2.0165 1.74668,-3.7938 2.56524,-5.3319 0.89351,-1.5509 1.72486,-3.0135 2.4941,-4.3878 l 2.26932,-4.3492 c 0.74363,-1.5253 1.49271,-3.2455 2.24724,-5.1609 0.28504,-0.5924 0.73273,-1.1351 1.34309,-1.628 0.61035,-0.4928 1.36512,-0.8164 2.26426,-0.9705 1.49864,-0.2569 2.78715,0.066 3.86555,0.9681 1.07843,0.9022 1.72007,1.957 1.92494,3.1644 0.20482,1.2073 0.0969,2.1577 -0.32585,2.8513 -2.53964,5.4828 -5.21089,10.8716 -8.01373,16.1665 -2.80282,5.2949 -5.19543,10.0536 -7.17783,14.276 0.67482,3.0681 1.4127,6.2807 2.21364,9.6377 3.72896,16.2601 6.99219,33.0614 9.60708,48.4389 0.40973,2.4147 0.45023,4.6985 0.12156,6.8514 -0.24091,2.2156 -0.87028,4.1872 -1.88804,5.9147 -1.00493,1.8029 -2.36723,3.3177 -4.08684,4.5443 -1.7196,1.2266 -3.81577,2.0519 -6.28848,2.4757 -3.82146,0.6551 -7.1651,0.4906 -10.03094,-0.4936 -2.7909,-0.9969 -5.1277,-2.4988 -7.01044,-4.5057 -1.86991,-1.9314 -3.37891,-4.2352 -4.52703,-6.9115 -1.07318,-2.6892 -1.84022,-5.392 -2.30117,-8.1085 -3.1369,-16.2829 -0.75659,-32.1476 5.92341,-46.2091 2.19435,-4.3364 4.64366,-8.9883 7.34785,-13.9557 -0.6236,-2.7663 -1.1092,-5.4009 -1.45678,-7.9038 -0.3348,-2.4275 -0.98944,-5.1496 -1.96399,-8.1663 -1.3611,3.3394 -3.06863,6.0005 -5.12263,7.9834 -1.96623,2.0454 -4.0733,3.2607 -6.32121,3.6461 -2.62258,0.4495 -5.27907,0.2444 -7.96943,-0.6141 -2.60261,-0.7962 -5.05087,-2.0461 -7.34476,-3.7495 -2.21895,-1.7162 -4.11447,-3.7985 -5.68656,-6.2469 -1.5721,-2.4483 -2.5886,-5.0307 -3.04953,-7.7472 -0.42253,-2.4901 -0.38906,-5.0195 0.1004,-7.5883 0.48945,-2.5688 1.32344,-4.9248 2.50196,-7.0682 1.24063,-2.2316 2.73263,-4.118 4.47597,-5.6594 1.74333,-1.5412 3.66401,-2.4917 5.76208,-2.8514 1.49861,-0.2568 3.01737,-0.1678 4.55627,0.2673 1.53893,0.435 2.92798,0.8958 4.16716,1.3822 -0.70565,-1.4321 -1.44238,-2.82 -2.21014,-4.1638 -0.76778,-1.3438 -1.55383,-2.5679 -2.35815,-3.6725 z m 33.10343,105.7954 c -0.17923,-1.0564 -0.5112,-2.7855 -0.99584,-5.1873 -1.78317,-8.7268 -3.23341,-17.1917 -5.16561,-25.6716 -0.51025,-2.5527 -0.94368,-4.6527 -1.30028,-6.2999 l -0.53493,-2.4708 c -1.11261,2.9862 -2.23067,6.1674 -3.35419,9.5438 -3.08794,10.0201 -5.96741,20.4086 -4.29981,30.5556 0.33289,1.9619 0.78457,3.9422 1.35507,5.941 0.64542,1.986 1.45254,3.789 2.4214,5.4089 1.04378,1.6071 2.3297,2.8232 3.85769,3.6484 1.61573,0.8878 3.54755,1.1391 5.79547,0.7537 1.1989,-0.2056 2.05326,-0.6237 2.56306,-1.2547 0.58476,-0.6438 0.95018,-1.4441 1.09626,-2.401 0.23379,-0.8943 0.28575,-1.9514 0.15584,-3.1716 -0.11722,-1.1447 -0.28449,-2.3585 -0.50219,-3.6412 -0.15361,-0.9055 -0.35115,-1.8423 -0.59253,-2.8104 l -0.49934,-2.9429 z m -21.60022,-84.3551 c -0.27791,-0.7289 -0.79339,-1.4947 -1.54646,-2.2974 -0.67818,-0.8156 -1.4934,-1.53 -2.44566,-2.1433 -0.96508,-0.6887 -2.01693,-1.2073 -3.1556,-1.5557 -1.15144,-0.4238 -2.32662,-0.533 -3.52552,-0.3275 -1.19889,0.2055 -2.31549,0.6688 -3.34984,1.3896 -1.04711,0.6454 -1.93704,1.5357 -2.66976,2.6708 -0.74553,1.0596 -1.30278,2.3199 -1.67176,3.7809 -0.30684,1.3727 -0.32583,2.8513 -0.057,4.4359 0.23043,1.3583 0.69853,2.7534 1.40417,4.1855 0.7678,1.3438 1.70369,2.5423 2.80772,3.5955 1.09123,0.9777 2.34416,1.7724 3.75882,2.3841 1.47679,0.5234 3.0394,0.6437 4.68789,0.3612 2.39778,-0.4111 4.23523,-1.852 5.51242,-4.3229 1.35208,-2.4836 1.72724,-5.4987 1.12548,-9.0453 -0.10244,-0.6036 -0.24231,-1.2009 -0.4197,-1.7917 -0.19006,-0.6663 -0.3419,-1.1062 -0.45524,-1.3197 z"
           style="font-style:normal;font-variant:normal;font-weight:600;font-stretch:normal;font-size:70.5556px;line-height:1.25;font-family:Bimbo;-inkscape-font-specification:'Bimbo, Semi-Bold';font-variant-ligatures:normal;font-variant-caps:normal;font-variant-numeric:normal;font-variant-east-asian:normal;text-align:center;letter-spacing:-1.43404px;text-anchor:middle;fill:#1a1a1a;stroke:none;stroke-width:2.97271"
           id="path1835"
           sodipodi:nodetypes="sssccccccccccsssscscccccsscccccccccsccssscssscssssccsccccccscccsccsccccscccscccscscc" />
        <path
           d="m 599.3584,212.43035 q 0.86527,-1.6117 1.53718,-3.5894 0.82651,-2.0235 0.83353,-3.9733 0.10759,-1.8948 -0.75889,-3.67 -0.86651,-1.7751 -3.17851,-3.0366 -1.60835,-0.8775 -3.80396,-0.9034 -2.14152,-0.1264 -4.56871,0.7632 -2.32669,0.9446 -4.79212,3.1158 -2.36489,2.226 -4.36591,5.953 -1.35202,2.5183 -1.80699,5.7864 -0.40089,3.1675 0.41976,6.4804 0.92123,3.3679 3.28023,6.4783 2.35903,3.1105 6.58098,5.4141 4.2219,2.3035 7.52324,2.9326 3.40187,0.684 6.42458,0.3797 3.02271,-0.3042 5.9137,-1.3317 2.99153,-0.9725 6.54741,-2.0278 1.54607,-0.4588 3.35542,0.5284 1.3068,0.713 1.84057,1.6555 0.63427,0.9972 0.75829,1.9766 0.17807,0.8786 -0.0527,1.7942 -0.17748,0.8148 -0.44791,1.3184 -0.48675,0.9066 -1.22095,1.5479 -0.73422,0.6413 -1.50724,0.8707 -3.52472,1.7235 -7.8924,2.5963 -4.3136,0.7721 -8.95993,0.7115 -4.59228,-0.1608 -9.15396,-1.3479 -4.61576,-1.0858 -8.63662,-3.2797 -4.0209,-2.1939 -7.53213,-6.0632 -3.51122,-3.8694 -5.50755,-8.8657 -1.99628,-4.9964 -1.9288,-10.6899 0.0211,-5.8492 3.266,-11.893 1.83876,-3.4248 4.85262,-6.8596 2.96745,-3.5904 7.11819,-5.7538 4.15076,-2.1633 9.36141,-2.1855 5.36528,-0.068 11.7987,3.4421 3.01567,1.6454 4.77156,4.4268 1.75591,2.7814 2.21325,6.2868 0.61206,3.4597 -0.16748,7.3322 -0.77945,3.8725 -2.78045,7.5995 -1.24387,2.3168 -3.00624,3.1786 -1.76233,0.8617 -4.27541,-0.5095 -2.61354,-1.426 -2.8152,-3.2291 -0.10121,-1.7482 0.76419,-3.3599 z"
           style="font-style:normal;font-variant:normal;font-weight:600;font-stretch:normal;font-size:70.5556px;line-height:1.25;font-family:Bimbo;-inkscape-font-specification:'Bimbo, Semi-Bold';font-variant-ligatures:normal;font-variant-caps:normal;font-variant-numeric:normal;font-variant-east-asian:normal;text-align:center;letter-spacing:-1.43404px;text-anchor:middle;fill:#1a1a1a;stroke:none;stroke-width:2.97271"
           id="path1837" />
        <path
           d="m 638.15009,200.76345 q 0.95318,0.2125 1.62497,0.6507 0.73358,0.3421 1.40536,0.7803 3.45486,2.2536 -0.87235,8.9802 -0.74183,1.1531 -2.03999,3.1711 -1.29816,2.018 -2.75409,4.0695 -1.35999,2.114 -2.59631,4.0359 -1.23638,1.9219 -1.91636,2.9789 -1.85451,2.8828 -2.97542,6.1077 -1.05911,3.1289 -1.07557,6.1194 0.0795,3.053 1.22946,5.7129 1.3077,2.6265 4.09073,4.4419 2.97501,1.9406 5.91759,1.8137 3.03855,-0.064 5.76973,-1.5566 2.88899,-1.526 5.57306,-4.0041 2.68408,-2.4781 5.08023,-5.144 2.55396,-2.6994 4.6964,-5.3945 2.23837,-2.6324 4.0782,-4.4335 0.96786,-0.8692 2.79949,-1.175 1.92758,-0.2432 3.84692,1.0087 0.86371,0.5634 2.08361,1.632 1.3159,1.1312 1.20524,2.1504 -0.12547,2.1009 -1.21865,5.071 -0.93548,2.9367 -2.27599,6.2912 -1.34052,3.3545 -2.74288,6.8051 -1.24454,3.4172 -1.89211,6.5416 -0.5516,3.187 -0.10108,5.6635 0.45039,2.4766 2.5617,3.8538 2.11128,1.3771 4.69767,0.7452 2.68233,-0.5695 7.25811,-1.5408 1.2623,-0.2679 2.05769,-0.022 0.95321,0.2125 1.72094,0.7133 2.49518,1.6276 2.36978,3.7286 0.0325,2.0674 -0.83302,3.4127 -0.49453,0.7687 -1.71617,1.6089 -1.19398,0.5853 -3.58842,1.3425 -2.29848,0.8198 -5.46065,1.0762 -3.10036,0.1603 -6.62524,-0.502 -3.4289,-0.5996 -6.88375,-2.8532 -3.07097,-2.0032 -4.37862,-4.6297 -1.21171,-2.5638 -1.51085,-5.4873 -0.14133,-2.9569 0.25254,-6.1105 0.48981,-3.0909 0.91774,-6.0858 -2.91014,2.1942 -6.49205,3.9502 -3.42419,1.7226 -7.11508,2.589 -3.62901,0.7704 -7.4353,0.3338 -3.71034,-0.374 -7.13103,-2.4689 -7.06746,-4.4737 -9.52501,-9.7601 -2.36148,-5.2237 -1.71873,-10.6704 0.60867,-5.6053 3.46697,-11.1074 2.82413,-5.6608 6.22406,-10.9459 1.42181,-2.2102 2.87777,-4.2617 1.35996,-2.114 2.5963,-4.0359 0.37091,-0.5766 1.14689,-1.571 0.67994,-1.0571 1.4901,-1.8928 0.87189,-0.9319 1.84627,-1.3876 1.03615,-0.5519 1.9894,-0.3393 z"
           style="font-style:normal;font-variant:normal;font-weight:600;font-stretch:normal;font-size:70.5556px;line-height:1.25;font-family:Bimbo;-inkscape-font-specification:'Bimbo, Semi-Bold';font-variant-ligatures:normal;font-variant-caps:normal;font-variant-numeric:normal;font-variant-east-asian:normal;text-align:center;letter-spacing:-1.43404px;text-anchor:middle;fill:#1a1a1a;stroke:none;stroke-width:2.97271"
           id="path1839" />
        <path
           d="m 710.05189,266.88055 q -0.38204,-0.2539 -3.10134,0.543 -2.65665,0.7016 -6.35519,1.9439 -3.69841,1.2428 -7.58495,2.7717 -3.82382,1.4335 -6.57302,2.4848 -1.83279,0.7008 -3.41192,1.4331 -1.51637,0.6371 -2.84469,0.9878 -2.4357,0.5743 -4.34585,-0.6954 -1.7191,-1.1427 -2.05019,-3.1447 -0.4265,-2.0655 0.70203,-3.7828 0.87775,-1.3356 2.23594,-1.9407 3.982,-1.4655 9.54313,-3.6632 5.62379,-2.2934 11.18787,-4.078 5.62672,-1.8801 10.24738,-2.6469 4.77887,-0.7987 6.97551,0.6614 3.82023,2.5393 5.08513,6.67 1.4232,4.0988 0.8553,8.9302 -0.4723,4.895 -2.5595,9.9503 -1.99168,5.1188 -4.93841,9.6028 -0.18802,0.2863 -0.43886,0.6678 -0.18812,0.2862 -0.40902,0.4135 0.85955,0.5714 2.16382,1.3012 1.36697,0.6345 2.79667,1.1736 1.5878,0.5071 3.0474,0.7919 1.5222,0.1894 2.7251,0.029 1.1074,-0.2235 1.9014,0.03 0.9521,0.2216 1.7162,0.7295 1.6236,1.0792 2.1128,3.0493 0.5847,2.0336 -0.6692,3.9417 -1.5674,2.3851 -4.418,2.5465 -2.8506,0.1614 -6.089,-0.7575 -3.0802,-0.9508 -6.19617,-2.4737 -3.11593,-1.5229 -5.15143,-2.6017 -2.58224,2.2588 -5.51662,4.0094 -2.9971,1.846 -6.28651,2.6752 -3.19391,0.8928 -6.49212,0.4824 -3.20271,-0.3468 -6.25889,-2.3783 -6.39888,-4.2533 -7.98607,-9.1465 -1.4917,-4.8297 1.26694,-9.0274 1.75552,-2.6714 4.88382,-3.8819 3.2865,-1.2423 7.1847,-1.1186 3.9609,0.028 8.18429,1.3278 4.31885,1.3629 8.26448,3.7114 1.22694,-1.2406 2.2928,-2.8625 1.81816,-2.7667 2.90514,-5.8823 1.08697,-3.1157 1.51123,-5.8494 0.58244,-2.7656 0.44248,-4.6407 -0.0773,-1.9705 -0.55477,-2.2879 z m -23.63588,31.581 q 3.24131,1.3321 5.61143,0.4401 2.46561,-0.8285 5.17326,-3.2781 -1.49526,-0.8569 -3.24424,-1.7452 -1.59079,-0.9204 -3.33687,-1.3956 -1.74607,-0.4752 -3.64448,-0.092 -1.89842,0.3831 -3.75536,2.1644 -0.31349,0.477 0.29529,1.43 0.60874,0.9529 1.94582,1.8417 z"
           style="font-style:normal;font-variant:normal;font-weight:600;font-stretch:normal;font-size:70.5556px;line-height:1.25;font-family:Bimbo;-inkscape-font-specification:'Bimbo, Semi-Bold';font-variant-ligatures:normal;font-variant-caps:normal;font-variant-numeric:normal;font-variant-east-asian:normal;text-align:center;letter-spacing:-1.43404px;text-anchor:middle;fill:#1a1a1a;stroke:none;stroke-width:2.97271"
           id="path1841" />
        <path
           d="m 741.23193,320.98265 q 1.4309,-1.1396 2.8285,-2.6918 1.5578,-1.5334 2.3334,-3.3223 0.8463,-1.6987 0.7504,-3.6717 -0.095,-1.973 -1.7228,-4.0442 -1.1317,-1.4409 -3.1391,-2.3308 -1.9179,-0.9611 -4.4992,-1.1011 -2.5106,-0.05 -5.6327,0.9727 -3.0512,1.1126 -6.3602,3.7479 -2.2358,1.7807 -3.9432,4.6043 -1.6179,2.7524 -2.1707,6.1204 -0.4821,3.4581 0.4586,7.2469 0.9406,3.7889 3.9114,7.5711 2.9708,3.7823 5.7562,5.6627 2.8562,1.9706 5.7538,2.8834 2.8976,0.9128 5.9594,1.1092 3.1326,0.2865 6.8164,0.7195 1.6017,0.1883 2.8748,1.8093 0.9196,1.1707 1.0383,2.2473 0.1895,1.1666 -0.083,2.1154 -0.183,0.8776 -0.7569,1.6275 -0.4846,0.6787 -0.9318,1.0349 -0.8049,0.641 -1.7325,0.9406 -0.9277,0.2997 -1.7285,0.2056 -3.9188,0.1924 -8.2766,-0.7278 -4.2683,-0.9921 -8.5139,-2.8808 -4.1562,-1.9599 -7.8798,-4.8498 -3.8131,-2.8187 -6.64242,-6.4208 -2.82934,-3.6021 -4.52936,-8.5428 -1.70001,-4.9407 -1.56344,-10.3194 0.13659,-5.3787 2.44474,-10.5839 2.3269,-5.3664 7.69278,-9.6399 3.0407,-2.4217 7.1652,-4.389 4.1432,-2.1286 8.8107,-2.4791 4.6676,-0.3504 9.4644,1.6848 4.957,2.054 9.4839,7.8174 2.122,2.7016 2.6382,5.9501 0.5163,3.2485 -0.4463,6.6501 -0.8024,3.4205 -3.0464,6.6714 -2.2439,3.251 -5.5529,5.8864 -2.057,1.6382 -4.0164,1.7348 -1.9594,0.096 -3.7276,-2.1547 -1.8391,-2.3414 -1.3131,-4.0778 0.5968,-1.6464 2.0277,-2.786 z"
           style="font-style:normal;font-variant:normal;font-weight:600;font-stretch:normal;font-size:70.5556px;line-height:1.25;font-family:Bimbo;-inkscape-font-specification:'Bimbo, Semi-Bold';font-variant-ligatures:normal;font-variant-caps:normal;font-variant-numeric:normal;font-variant-east-asian:normal;text-align:center;letter-spacing:-1.43404px;text-anchor:middle;fill:#1a1a1a;stroke:none;stroke-width:2.97271"
           id="path1843" />
        <path
           d="m 769.74473,331.77755 q 0.8653,0.4527 1.4003,1.0503 0.6195,0.5209 1.1545,1.1185 2.7512,3.0733 -3.1742,8.4456 -1.0158,0.921 -2.7934,2.5327 -1.7776,1.6117 -3.7163,3.2147 -1.8623,1.6885 -3.5552,3.2234 -1.693,1.5349 -2.6242,2.3792 -2.5394,2.3024 -4.4593,5.1256 -1.8352,2.7466 -2.6276,5.6302 -0.7159,2.969 -0.2961,5.8363 0.5806,2.8759 2.797,5.3516 2.3691,2.6465 5.2437,3.2881 2.951,0.727 5.976,0 3.1862,-0.7234 6.4216,-2.4196 3.2355,-1.6962 6.2417,-3.6485 3.1673,-1.9437 5.936,-3.99 2.8451,-1.9609 5.0895,-3.2225 1.1604,-0.5881 3.0086,-0.4078 1.9246,0.2656 3.453,1.973 0.6878,0.7684 1.5884,2.1171 0.9771,1.4341 0.6056,2.3895 -0.6666,1.9963 -2.4936,4.5807 -1.6659,2.593 -3.8314,5.4844 -2.1656,2.8914 -4.4158,5.8595 -2.0892,2.9768 -3.5258,5.8259 -1.3602,2.9345 -1.5683,5.4431 -0.2081,2.5085 1.4732,4.3866 1.6813,1.8782 4.343,1.9395 2.7382,0.1466 7.4093,0.3968 1.2885,0.069 1.9928,0.5131 0.8653,0.4527 1.4767,1.1357 1.9869,2.2197 1.3204,4.2159 -0.5056,2.005 -1.6906,3.0794 -0.6772,0.614 -2.0751,1.1081 -1.3051,0.2546 -3.814,0.3647 -2.4324,0.195 -5.5528,-0.3786 -3.0356,-0.6502 -6.2676,-2.205 -3.1556,-1.4694 -5.9068,-4.5428 -2.4455,-2.7319 -3.0263,-5.6078 -0.5044,-2.7905 -0.034,-5.6914 0.6313,-2.8923 1.8305,-5.8354 1.2756,-2.8577 2.4665,-5.6388 -3.3801,1.3633 -7.2951,2.1291 -3.7541,0.7738 -7.5433,0.6527 -3.7046,-0.1984 -7.267,-1.6083 -3.4859,-1.3246 -6.2453,-4.2359 -5.6635,-6.1554 -6.6641,-11.8985 -0.924,-5.6578 1.1108,-10.7507 2.0433,-5.255 6.2322,-9.8262 4.1972,-4.7333 8.8528,-8.9544 1.9469,-1.7652 3.8856,-3.3683 1.8623,-1.6884 3.5552,-3.2233 0.5079,-0.4605 1.5155,-1.2193 0.9312,-0.8443 1.9305,-1.441 1.084,-0.6735 2.1432,-0.8606 1.144,-0.264 2.0093,0.189 z"
           style="font-style:normal;font-variant:normal;font-weight:600;font-stretch:normal;font-size:70.5556px;line-height:1.25;font-family:Bimbo;-inkscape-font-specification:'Bimbo, Semi-Bold';font-variant-ligatures:normal;font-variant-caps:normal;font-variant-numeric:normal;font-variant-east-asian:normal;text-align:center;letter-spacing:-1.43404px;text-anchor:middle;fill:#1a1a1a;stroke:none;stroke-width:2.97271"
           id="path1845" />
        <path
           d="m 822.92683,420.71795 q -0.2243,-0.4002 -3.0079,-0.9305 -2.6843,-0.5868 -6.5426,-1.1667 -3.8583,-0.5799 -8.0145,-0.9908 -4.0569,-0.4673 -6.983,-0.785 -1.9508,-0.2116 -3.6901,-0.2797 -1.6401,-0.1243 -2.9822,-0.4178 -2.4297,-0.5993 -3.551,-2.6001 -1.0091,-1.8007 -0.3912,-3.7335 0.5621,-2.0329 2.3494,-3.0468 1.3901,-0.7887 2.8748,-0.708 4.2122,0.5109 10.1638,1.09 6.0509,0.5226 11.8167,1.4707 5.8651,0.8917 10.3273,2.3157 4.6175,1.4677 5.907,3.7686 2.2425,4.0017 1.4853,8.2548 -0.6019,4.2969 -3.3099,8.3382 -2.6519,4.1415 -6.8141,7.6894 -4.1063,3.648 -8.7731,6.2956 -0.2979,0.1692 -0.6951,0.3943 -0.2978,0.169 -0.5525,0.1815 0.5046,0.9004 1.3327,2.1446 0.9274,1.1879 1.9541,2.3194 1.1821,1.1753 2.3513,2.0941 1.2685,0.8625 2.4121,1.2685 1.0875,0.306 1.6786,0.8936 0.7464,0.6313 1.1949,1.4317 0.953,1.7007 0.4909,3.6771 -0.4066,2.0765 -2.3925,3.2032 -2.4824,1.4082 -5.0931,0.2519 -2.6107,-1.1559 -5.0741,-3.4501 -2.3081,-2.2504 -4.3872,-5.0263 -2.0791,-2.7759 -3.399,-4.6641 -3.328,0.8333 -6.7378,1.0538 -3.5091,0.2766 -6.8148,-0.4848 -3.2497,-0.6615 -5.9982,-2.5303 -2.6924,-1.7687 -4.4865,-4.97 -3.7562,-6.7028 -2.9382,-11.7815 0.8741,-4.9787 5.243,-7.4573 2.7802,-1.5773 6.1164,-1.2285 3.4915,0.3925 6.9047,2.2797 3.5124,1.8309 6.679,4.9128 3.2227,3.1819 5.6638,7.0709 1.6576,-0.5449 3.3457,-1.5025 2.8795,-1.6336 5.2673,-3.9112 2.3878,-2.2775 4.0116,-4.5172 1.7792,-2.1961 2.5095,-3.9288 0.8294,-1.789 0.5491,-2.2892 z m -35.434,17.3334 q 2.2777,2.6632 4.7938,2.9498 2.5722,0.3866 6.0988,-0.5593 -0.9402,-1.4443 -2.0919,-3.0323 -0.9963,-1.5443 -2.3337,-2.7633 -1.3375,-1.2189 -3.2018,-1.7435 -1.8643,-0.5245 -4.3291,0.2149 -0.4964,0.2816 -0.389,1.4074 0.1073,1.1256 0.8923,2.5262 z"
           style="font-style:normal;font-variant:normal;font-weight:600;font-stretch:normal;font-size:70.5556px;line-height:1.25;font-family:Bimbo;-inkscape-font-specification:'Bimbo, Semi-Bold';font-variant-ligatures:normal;font-variant-caps:normal;font-variant-numeric:normal;font-variant-east-asian:normal;text-align:center;letter-spacing:-1.43404px;text-anchor:middle;fill:#1a1a1a;stroke:none;stroke-width:2.97271"
           id="path1847" />
        <path
           id="path1849"
           style="fill:#1a1a1a;fill-opacity:1;fill-rule:nonzero;stroke:none;stroke-width:13.0387;stroke-linecap:butt;stroke-linejoin:round;stroke-miterlimit:4;stroke-dasharray:none;stroke-opacity:1;paint-order:markers fill stroke"
           d="m 798.72843,355.07365 c -5.6227,-1.508 -10.5839,-1.7558 -13.611,-4.204 -2.7535,-1.9165 -2.813,-3.5817 -2.0434,-5.6291 1.002,-1.9455 0.84,-3.5455 3.318,-2.8642 5.694,1.3691 11.5978,3.009 16.4759,5.252 3.7103,1.6686 4.7542,1.7408 4.6388,5.2821 -0.025,4.8913 -6.1603,2.916 -8.7783,2.1632 z"
           sodipodi:nodetypes="ccccccc" />
      </g>
      <g
         id="g1883"
         transform="matrix(1.0232777,0,0,1.0232777,5073.9728,85.6718)">
        <path
           d="m 824.56243,552.34565 q 1.7422,0.5461 3.8037,0.8316 2.1366,0.4293 4.0406,0.064 1.8702,-0.2554 3.4327,-1.4488 1.5625,-1.1934 2.3406,-3.7147 0.5413,-1.754 0.1363,-3.9248 -0.2961,-2.1367 -1.6398,-4.3613 -1.3775,-2.115 -3.9793,-4.1328 -2.6356,-1.9082 -6.6645,-3.1711 -2.7223,-0.8533 -6.0007,-0.6786 -3.1694,0.2088 -6.2416,1.6503 -3.106,1.5512 -5.6792,4.4716 -2.5732,2.9205 -3.994,7.5247 -1.4208,4.6042 -1.388,7.9808 -10e-4,3.4863 0.8881,6.41 0.8891,2.9237 2.458,5.5796 1.5351,2.7655 3.2615,6.0719 0.7506,1.4376 0.1406,3.4109 -0.4397,1.4251 -1.2548,2.1314 -0.849,0.8159 -1.7804,1.1251 -0.8224,0.3433 -1.7612,0.2895 -0.8299,-0.019 -1.3744,-0.1903 -0.98,-0.3072 -1.7496,-0.9091 -0.7697,-0.602 -1.145,-1.3207 -2.3723,-3.1482 -4.0797,-7.2903 -1.5986,-4.1078 -2.4496,-8.7028 -0.7422,-4.5608 -0.478,-9.2871 0.1554,-4.7604 1.5086,-9.1454 1.3531,-4.3849 4.4411,-8.5868 3.088,-4.2018 7.5726,-7.1242 4.4846,-2.9225 10.0539,-3.942 5.712,-1.095 12.2454,0.9529 3.7023,1.1606 7.6446,3.4783 4.085,2.2423 7.0092,5.9242 2.9242,3.6818 3.9667,8.8177 1.1175,5.2796 -1.0476,12.2955 -1.0149,3.2887 -3.385,5.5515 -2.3703,2.2627 -5.7014,3.3826 -3.2562,1.2637 -7.1879,1.2335 -3.9317,-0.03 -7.9606,-1.293 -2.5045,-0.7851 -3.6907,-2.3592 -1.1862,-1.574 -0.3404,-4.3146 0.8796,-2.8503 2.5996,-3.3931 1.6863,-0.4333 3.4285,0.1129 z"
           style="font-style:normal;font-variant:normal;font-weight:600;font-stretch:normal;font-size:70.5556px;line-height:1.25;font-family:Bimbo;-inkscape-font-specification:'Bimbo, Semi-Bold';font-variant-ligatures:normal;font-variant-caps:normal;font-variant-numeric:normal;font-variant-east-asian:normal;text-align:center;letter-spacing:-1.43404px;text-anchor:middle;fill:#1a1a1a;stroke:none;stroke-width:2.97271"
           id="path1853" />
        <path
           d="m 789.61343,588.18185 q 0.6411,-1.4717 1.7913,-2.969 1.2548,-1.4511 2.8228,-2.7637 1.6724,-1.2664 3.7168,-2.243 1.9986,-0.8715 4.3362,-1.0917 -1.585,-2.0797 -2.3802,-3.6849 -0.7366,-1.454 0.3165,-3.8718 1.1904,-2.7332 3.2147,-3.0919 2.0243,-0.3586 3.4863,0.2877 1.6708,0.7388 3.3401,3.4827 1.715,2.6387 2.8621,5.1517 1.5994,0.3311 3.5707,0.9519 2.017,0.5157 4.1056,1.4391 3.4461,1.5236 6.3886,4.2036 3.0011,2.8313 4.7089,6.3444 1.8122,3.5593 2.0766,7.8132 0.2642,4.2539 -1.7503,8.8793 -2.0605,4.7305 -5.9275,7.0325 -3.9128,2.4071 -8.5751,3.1038 -4.5579,0.7429 -9.1928,-0.053 -4.5764,-0.6443 -7.9181,-2.1218 -2.0885,-0.9234 -4.0984,-2.3134 -2.0098,-1.3901 -3.0798,-2.3646 -4.4462,-0.085 -6.8569,1.7323 -2.352,1.9688 -3.222,3.9662 -1.0073,2.3126 -0.5125,4.0358 0.5993,1.7693 1.499,3.4208 0.8997,1.6514 1.4861,3.1643 0.6451,1.6643 -0.2706,3.7667 -0.7326,1.682 -2.581,2.4945 -1.7897,0.9638 -3.8783,0.04 -1.0442,-0.4617 -1.801,-1.2977 -1.233,-1.172 -2.3544,-3.1722 -1.017,-1.954 -1.609,-4.5977 -0.4876,-2.5976 -0.2828,-5.6411 0.2049,-3.0437 1.6242,-6.3024 0.9615,-2.2076 2.6541,-4.092 1.6925,-1.8843 3.7112,-3.3738 2.0186,-1.4894 4.063,-2.466 2.0444,-0.9766 3.7096,-1.3687 -0.9054,-2.7822 -0.7592,-5.9771 0.1004,-3.0898 1.5656,-6.4537 z m 34.2926,13.908 q 0.9615,-2.2075 0.3494,-4.2333 -0.6121,-2.0257 -2.1256,-3.6978 -1.5134,-1.6721 -3.6276,-3.1083 -2.0557,-1.2849 -3.9354,-2.116 -2.4018,-1.0619 -5.0197,-1.3418 -2.6637,-0.1749 -5.0929,0.2555 -2.3247,0.4766 -4.206,1.6507 -1.9271,1.2792 -2.7513,3.1714 -0.7326,1.6819 -0.3293,3.6154 0.5077,1.9796 1.7207,3.7695 1.1672,1.8951 2.7721,3.3569 1.605,1.4618 3.1714,2.1543 1.6709,0.7388 4.4061,1.3212 2.7939,0.7338 5.5949,0.5932 2.801,-0.1414 5.3419,-1.3992 2.495,-1.1535 3.7313,-3.9917 z"
           style="font-style:normal;font-variant:normal;font-weight:600;font-stretch:normal;font-size:70.5556px;line-height:1.25;font-family:Bimbo;-inkscape-font-specification:'Bimbo, Semi-Bold';font-variant-ligatures:normal;font-variant-caps:normal;font-variant-numeric:normal;font-variant-east-asian:normal;text-align:center;letter-spacing:-1.43404px;text-anchor:middle;fill:#1a1a1a;stroke:none;stroke-width:2.97271"
           id="path1855" />
        <path
           d="m 844.21303,654.58785 c 0.528,0.1054 0.9722,0.8683 1.6856,1.5592 0.7134,0.691 1.0826,1.2811 1.1078,1.7703 0.076,1.4678 -0.3164,2.6381 -1.1753,3.5109 -0.8084,0.9298 -1.7306,1.9615 -2.7664,3.0952 0.7702,0.64 1.6383,1.4481 2.6041,2.4244 1.0227,0.9253 2.017,1.8762 2.9829,2.8525 1.0733,0.9824 2.0676,1.9332 2.9829,2.8524 0.9659,0.9763 1.8024,1.864 2.5094,2.663 0.505,0.5707 0.8964,1.2434 1.174,2.018 0.385,0.7807 0.2933,1.426 -0.2751,1.9357 -0.739,0.6627 -1.4274,1.3826 -2.0653,2.1594 -0.5811,0.7259 -1.3201,1.3886 -2.2169,1.9882 -0.7831,0.4976 -1.484,0.512 -2.1027,0.043 -0.6187,-0.4688 -1.594,-1.283 -2.9261,-2.4428 -0.6629,-0.6338 -1.43,-1.3278 -2.3012,-2.0819 -0.8143,-0.8051 -1.6792,-1.6673 -2.5946,-2.5865 -0.8648,-0.8622 -1.755,-1.7529 -2.6704,-2.6721 -0.8648,-0.8622 -1.6792,-1.6673 -2.4431,-2.4153 -1.4779,1.3254 -2.8389,2.4949 -4.083,3.5084 -1.2506,1.1215 -2.4442,2.192 -3.5811,3.2116 -1.1368,1.0196 -2.3021,2.0646 -3.4957,3.1351 -1.2506,1.1216 -2.6147,2.345 -4.0926,3.6705 -0.7326,0.5546 -1.7556,0.5508 -3.0688,-0.011 -1.2628,-0.5053 -2.0899,-1.0943 -2.4812,-1.767 -0.4733,-1.111 -0.3688,-2.433 0.3136,-3.9663 0.6254,-1.4822 2.075,-3.2429 4.3487,-5.282 l 9.5398,-8.4023 c -3.1501,-3.2142 -18.0332,-18.6172 -21.5876,-21.3666 -3.6112,-2.6984 -7.1183,-4.8759 -10.5214,-6.5326 -3.4599,-1.6057 -6.7211,-2.4684 -9.7836,-2.588 -3.1193,-0.069 -5.7874,0.8911 -8.0042,2.8792 -1.3074,1.1725 -2.2169,2.4489 -2.7287,3.8292 -0.4614,1.4373 -0.708,2.8869 -0.7398,4.3486 -0.032,1.4617 0.047,2.8755 0.2358,4.2413 0.2396,1.4229 0.4351,2.6807 0.5864,3.7734 0.1386,1.3088 0.025,2.3322 -0.3417,3.0703 -0.3728,0.8461 -0.8433,1.5241 -1.4118,2.0339 -0.4547,0.4078 -0.9567,0.7045 -1.5062,0.8901 -0.6062,0.2366 -1.1524,0.3683 -1.6386,0.3949 -0.8083,0.01 -1.5502,-0.1964 -2.2257,-0.6142 -0.6819,-0.3098 -1.2501,-0.7214 -1.7046,-1.2351 -0.606,-0.6849 -1.0131,-1.5481 -1.2212,-2.5898 -0.2838,-1.5881 -0.5802,-3.4208 -0.8891,-5.4981 -0.3089,-2.0773 -0.34,-4.3014 -0.093,-6.6725 0.2404,-2.2629 0.9132,-4.5555 2.0191,-6.8777 0.9982,-2.3284 2.6341,-4.5121 4.9078,-6.5512 3.4673,-3.1097 7.2375,-4.9555 11.3104,-5.5374 4.0161,-0.5309 8.2403,-0.02 12.6727,1.5324 4.4892,1.5016 9.1107,3.9592 13.8647,7.3729 4.8613,3.4198 21.3448,19.9977 26.3889,24.8914 0.8463,-0.6566 1.6105,-1.2908 2.2926,-1.9025 0.7894,-0.6056 1.4652,-1.1093 2.0272,-1.5111 0.6695,-0.3956 1.2505,-0.6608 1.743,-0.7954 0.5494,-0.1856 0.9116,0.1391 1.4396,0.2445 z"
           style="font-style:normal;font-variant:normal;font-weight:600;font-stretch:normal;font-size:70.5556px;line-height:1.25;font-family:Bimbo;-inkscape-font-specification:'Bimbo, Semi-Bold';font-variant-ligatures:normal;font-variant-caps:normal;font-variant-numeric:normal;font-variant-east-asian:normal;text-align:center;letter-spacing:-1.43404px;text-anchor:middle;fill:#1a1a1a;stroke:none;stroke-width:2.97271"
           id="path1857"
           sodipodi:nodetypes="ssscccccscsccsccccccsscccccccccscscccscccscsccscccccccss" />
        <path
           d="m 770.46863,700.77155 q -4.5292,-3.3031 -6.6816,-7.3875 -2.0756,-3.9995 -2.503,-8.7337 -0.4348,-4.5719 0.5257,-9.6466 0.9606,-5.0747 2.4961,-10.366 -2.5474,-0.7709 -4.8943,-0.6384 -2.4311,0.21 -4.5701,1.0838 -2.139,0.8738 -4.055,2.1647 -1.9235,1.453 -3.6092,2.9986 -2.6127,2.3956 -4.2046,5.4085 -1.5919,3.013 -2.6387,6.4581 -1.0468,3.4451 -1.6178,7.0754 -0.5785,3.7924 -1.2413,7.6621 -0.3127,1.5294 -1.5151,3.0979 -1.2024,1.5685 -3.4576,1.4616 -1.2118,0.024 -2.1559,-0.5086 -0.944,-0.5324 -1.6352,-1.2966 -0.6912,-0.7643 -1.0527,-1.6754 -0.3616,-0.9112 -0.3242,-1.7221 -0.2423,-10.4958 3.0238,-18.3058 3.266,-7.81 9.9767,-15.0503 4.1522,-4.2732 9.3497,-6.7089 5.0365,-2.4433 10.4589,-2.7551 5.3382,-0.2337 10.6483,1.8864 5.3945,2.0437 9.8564,6.8066 3.8475,4.0835 6.5375,8.7623 2.7668,4.7638 3.6774,9.5208 0.9874,4.842 -0.028,9.3452 -1.0149,4.5032 -4.5772,8.2355 -2.2063,2.3336 -4.437,3.4469 -2.1539,1.1983 -4.1787,1.3462 -1.9479,0.2327 -3.7742,-0.4228 -1.8337,-0.4933 -3.3996,-1.5428 z m 9.5368,-10.7637 q 1.3166,-2.2945 0.968,-5.2368 -0.2718,-2.8575 -1.51,-5.7608 -1.3226,-2.826 -3.2969,-5.5203 -2.0587,-2.6171 -4.239,-4.3459 -0.7022,2.9738 -1.0897,6.1251 -0.3875,3.1513 -0.1157,6.0088 0.1875,2.9347 1.1186,5.4983 1.0078,2.6486 2.8585,4.5243 1.3974,1.2041 2.9538,0.709 1.5565,-0.4952 2.3525,-2.0017 z"
           style="font-style:normal;font-variant:normal;font-weight:600;font-stretch:normal;font-size:70.5556px;line-height:1.25;font-family:Bimbo;-inkscape-font-specification:'Bimbo, Semi-Bold';font-variant-ligatures:normal;font-variant-caps:normal;font-variant-numeric:normal;font-variant-east-asian:normal;text-align:center;letter-spacing:-1.43404px;text-anchor:middle;fill:#1a1a1a;stroke:none;stroke-width:2.97271"
           id="path1859" />
        <path
           d="m 736.58003,722.35465 q -0.7275,-1.0356 -1.4707,-2.3275 -0.7847,-1.1351 -1.6994,-2.7251 -2.4011,-4.1738 -4.4288,-9.7596 -1.9706,-5.4864 -1.5577,-12.0965 0.2221,-3.0489 2.4913,-4.3715 1.9731,-1.15 3.9002,-0.5481 1.9271,0.6018 3.0133,2.49 0.7432,1.2919 0.6815,2.7876 -0.284,4.5445 0.8863,8.6396 1.326,4.1369 3.4984,7.9133 1.8295,3.18 4.5311,5.5863 2.8575,2.4482 4.6869,5.6282 0.7432,1.292 -0.3521,2.5939 -0.9967,1.2444 -2.3779,2.0494 -1.0852,0.6326 -2.4406,1.0245 -1.4541,0.4494 -3.1055,1.0138 -1.6513,0.5644 -3.6973,1.3588 -2.1447,0.8519 -4.5125,2.232 -1.4798,0.8625 -2.9284,2.2376 -1.4899,1.5319 -2.7254,3.0482 -1.3342,1.5738 -2.3881,2.7189 -0.9966,1.2444 -1.7859,1.7044 -1.5785,0.9201 -3.5886,0.632 -2.0101,-0.2881 -2.9248,-1.8782 -0.6288,-1.0931 -2.73399,-5.4395 -2.04799,-4.2469 -5.24948,-9.812 -1.71509,-2.9814 -3.62748,-5.8477 -1.9539,-2.7094 -3.81927,-4.8069 -1.90682,-1.9407 -3.55363,-2.9713 -1.68831,-0.8738 -2.97083,-0.1264 -0.59195,0.345 -1.19402,1.3594 -0.70074,1.072 -1.22995,2.442 -0.5707,1.5269 -1.04275,2.9964 -0.41488,1.5688 -0.78826,2.9807 -0.13454,1.14 -0.80951,1.7988 -0.71643,0.8156 -1.40701,1.2181 -1.87451,1.0926 -3.80158,0.4907 -1.96858,-0.445 -2.99766,-2.2337 -0.97187,-1.6895 -0.7285,-3.5564 0.23324,-1.1975 0.72098,-2.4107 0.38909,-1.1557 0.88691,-3.0382 1.03722,-3.922 3.15508,-6.8815 2.17503,-2.8601 4.3455,-4.1252 4.93285,-2.8751 9.63904,-1.1063 4.70617,1.7687 8.90435,6.0894 4.25538,4.4201 7.78426,10.3252 3.4301,5.9626 5.8682,11.5746 0.8408,-1.2863 2.5125,-3.1895 1.6716,-1.9031 3.4474,-2.9382 1.3812,-0.805 3.2714,-1.6413 1.8487,-0.6795 3.713,-1.1026 z"
           style="font-style:normal;font-variant:normal;font-weight:600;font-stretch:normal;font-size:70.5556px;line-height:1.25;font-family:Bimbo;-inkscape-font-specification:'Bimbo, Semi-Bold';font-variant-ligatures:normal;font-variant-caps:normal;font-variant-numeric:normal;font-variant-east-asian:normal;text-align:center;letter-spacing:-1.43404px;text-anchor:middle;fill:#1a1a1a;stroke:none;stroke-width:2.97271"
           id="path1861" />
        <path
           d="m 704.87736,753.94125 q 0.59855,2.0298 0.23365,4.2043 -0.4092,2.3305 -4.09666,4.3922 -1.39528,0.7801 -2.72431,0.735 -1.329,-0.046 -2.42558,-0.6143 -1.04116,-0.4688 -1.89416,-1.3055 -0.79758,-0.7363 -1.18538,-1.439 -1.27423,-2.309 -0.87614,-4.896 0.35379,-2.431 3.74229,-4.3254 2.29224,-1.2816 4.64016,-1.2807 2.24823,0.057 3.96564,3.1686 0.16614,0.3012 0.33241,0.6023 0.22159,0.4016 0.28814,0.7585 z m -16.72088,-34.7888 q 2.17087,0.6253 3.27889,2.633 0.66479,1.2047 0.52115,2.5986 0.0113,1.4386 -0.17639,2.9886 -0.0883,1.4943 -0.1206,3.089 0.12223,1.6394 0.95321,3.1452 1.49582,2.7105 1.41873,4.4612 -0.12134,1.907 -2.71257,3.3557 -1.79391,1.0029 -3.01212,1.1586 -1.16284,0.256 -2.14861,-0.1124 -0.93035,-0.268 -1.72794,-1.0043 -0.89727,-0.6806 -1.75025,-1.5174 -1.97181,-1.9188 -4.41997,-4.2282 -2.49242,-2.1532 -5.26156,-3.6263 -2.76913,-1.4731 -5.84809,-1.8535 -3.12322,-0.2243 -6.6114,1.726 -2.5912,1.4487 -3.65377,4.0132 -1.16224,2.6202 -1.75963,5.3187 -0.64163,2.8546 -1.20592,5.1405 -0.66392,2.3416 -2.25851,3.2332 -1.29559,0.7243 -3.38879,0.7124 -2.03782,0.088 -3.47819,-2.5217 -0.38782,-0.7027 -0.63169,-1.6172 -0.18839,-0.8142 -0.0337,-1.9516 0.49686,-6.189 3.55208,-12.2321 3.01097,-5.887 8.99067,-9.2302 6.57769,-3.6776 12.60281,-2.4485 5.92549,1.2847 12.53833,5.4692 l 0.33153,-2.944 q 0.15483,-1.1374 0.78587,-1.8843 0.63109,-0.7469 1.42839,-1.1927 1.09628,-0.6129 2.15945,-0.8132 1.11853,-0.1 1.63912,0.1344 z"
           style="font-style:normal;font-variant:normal;font-weight:600;font-stretch:normal;font-size:70.5556px;line-height:1.25;font-family:Bimbo;-inkscape-font-specification:'Bimbo, Semi-Bold';font-variant-ligatures:normal;font-variant-caps:normal;font-variant-numeric:normal;font-variant-east-asian:normal;text-align:center;letter-spacing:-1.43404px;text-anchor:middle;fill:#1a1a1a;stroke:none;stroke-width:2.97271"
           id="path1863" />
        <path
           d="m 605.35375,774.57965 q 1.44618,-0.6797 2.40285,-2.1431 0.95669,-1.4635 1.51365,-3.2461 0.55697,-1.7825 0.81079,-3.6761 0.15041,-1.845 0.0876,-3.3363 -0.10432,-1.852 -0.45688,-3.9675 -0.35249,-2.1156 -0.14689,-4.1132 0.10217,-1.9491 0.96234,-3.6207 0.86012,-1.6715 3.13273,-2.7395 2.06599,-0.971 4.29812,-0.4992 2.23214,0.4718 3.05287,2.2406 1.3035,2.8093 2.29711,5.7642 1.04189,3.0589 2.44195,6.0762 0.77244,1.6648 1.79976,3.3365 0.9723,1.8242 2.06138,3.0867 0.98581,1.311 2.14342,1.9076 1.05429,0.6451 1.98398,0.2083 2.99571,-1.4079 4.58567,-3.6759 1.58997,-2.268 2.43554,-5.3268 0.89382,-2.9548 1.34641,-6.5893 0.45262,-3.6346 1.17359,-7.7754 0.29533,-1.5329 1.13521,-2.4346 0.8399,-0.9016 1.6663,-1.29 1.3429,-0.6311 2.66557,-0.4923 1.37093,0.2429 2.37021,1.0406 1.10258,0.7492 1.68191,1.9977 0.68266,1.2 0.43558,2.837 -0.4998,5.431 -1.23424,10.0851 -0.83778,4.7027 -2.52322,8.6632 -1.68543,3.9604 -4.57003,6.9636 -2.93963,3.1558 -7.79471,5.4375 -2.89241,1.3593 -5.33788,1.2412 -2.39721,-0.014 -4.45753,-1.2003 -2.01204,-1.0822 -3.69396,-3.0799 -1.63366,-1.8937 -3.25378,-4.3006 -1.88532,3.8009 -4.77665,7.0607 -2.99464,3.3084 -7.12664,5.2502 -2.8924,1.3593 -5.79933,1.3314 -2.90699,-0.028 -5.84198,-0.9299 -2.93501,-0.9018 -5.95308,-2.5251 -3.01805,-1.6233 -6.07766,-3.6073 -3.51435,-2.1504 -5.84303,-2.8303 -2.38373,-0.5273 -3.93321,0.2009 -2.16931,1.0195 -3.16646,4.0228 -1.10044,3.0518 -1.71808,7.1441 -0.13705,1.3318 -0.92865,2.3375 -0.79161,1.0057 -1.92789,1.5397 -1.34291,0.6311 -2.4107,0.4992 -1.17109,-0.083 -1.92224,-0.6174 -0.85444,-0.4856 -1.44726,-1.2208 -0.54455,-0.6313 -0.78596,-1.1515 -0.24137,-0.5203 -0.42774,-1.1931 -0.24139,-0.5202 -0.13151,-0.8254 0.17746,-2.8716 0.71316,-5.7847 0.53566,-2.9132 1.72591,-5.5003 1.19026,-2.5872 3.18669,-4.7927 1.99642,-2.2056 4.9921,-3.6134 3.71881,-1.7477 7.08051,-1.5533 3.2584,0.243 6.33823,1.457 2.97653,1.2626 5.73299,3.1356 2.75644,1.8729 5.31979,3.3297 2.56334,1.4568 5.0986,2.0396 2.53531,0.5828 5.01452,-0.5823 z"
           style="font-style:normal;font-variant:normal;font-weight:600;font-stretch:normal;font-size:70.5556px;line-height:1.25;font-family:Bimbo;-inkscape-font-specification:'Bimbo, Semi-Bold';font-variant-ligatures:normal;font-variant-caps:normal;font-variant-numeric:normal;font-variant-east-asian:normal;text-align:center;letter-spacing:-1.43404px;text-anchor:middle;fill:#1a1a1a;stroke:none;stroke-width:2.97271"
           id="path1865" />
        <path
           d="m 543.38591,811.72745 c -0.20257,1.2853 -0.93254,2.256 -2.19027,2.9121 -1.25774,0.6562 -2.63777,0.8672 -4.14014,0.6333 -0.52579,-0.082 -1.00811,-0.1958 -1.44695,-0.3415 -0.5139,-0.1576 -0.93499,-0.4163 -1.26283,-0.7776 -1.94394,-2.3168 -3.41887,-5.4125 -4.42479,-9.2872 -1.09292,-3.8108 -1.8575,-7.9965 -2.29361,-12.557 -0.44805,-4.485 -0.60936,-9.0802 -0.48398,-13.7857 0.0504,-4.7171 0.30995,-9.0531 0.77886,-13.0079 -1.48768,1.6273 -2.86447,3.0395 -4.13046,4.2365 -1.3411,1.1854 -2.59516,2.3068 -3.7622,3.3644 l -3.53687,3.3995 c -1.19086,1.2088 -2.44906,2.6007 -3.77454,4.1758 -0.45896,0.4707 -1.05624,0.8424 -1.79183,1.1152 -0.73558,0.2727 -1.5541,0.3388 -2.45549,0.1984 -1.50238,-0.234 -2.62089,-0.9505 -3.35559,-2.1493 -0.73474,-1.1989 -1.00684,-2.4031 -0.81632,-3.6128 0.19051,-1.2096 0.59566,-2.0762 1.2174,-2.5989 4.15428,-4.3877 8.40337,-8.6445 12.74727,-12.7704 4.34388,-4.1258 8.12807,-7.8741 11.35257,-11.2448 0.33795,-3.1231 0.66217,-6.4034 0.97266,-9.8407 1.64649,-16.6007 3.90683,-33.566 6.32811,-48.9753 0.38101,-2.4193 1.07033,-4.597 2.06788,-6.533 0.93431,-2.0233 2.15909,-3.6916 3.67425,-5.0047 1.52703,-1.3888 3.30101,-2.3906 5.32181,-3.0053 2.02082,-0.6148 4.27068,-0.729 6.74956,-0.3429 3.83101,0.5967 6.94796,1.818 9.35082,3.6641 2.32777,1.8342 4.06421,4.0025 5.20934,6.5046 1.15704,2.4266 1.8533,5.0912 2.08879,7.9938 0.16039,2.891 0.0262,5.6973 -0.40233,8.4191 -2.21496,16.4337 -9.52625,30.713 -20.33859,41.9131 -3.46172,3.4112 -7.26563,7.0402 -11.41167,10.887 -0.29032,2.8207 -0.66952,5.4728 -1.13758,7.956 -0.45615,2.4076 -0.70298,5.1964 -0.74046,8.3664 2.35422,-2.7317 4.82067,-4.71 7.3994,-5.9349 2.51548,-1.3123 4.9,-1.793 7.15352,-1.4419 2.62914,0.4095 5.08181,1.4503 7.35839,3.1213 2.21323,1.5841 4.13562,3.5489 5.76718,5.8944 1.55645,2.3339 2.68967,4.9116 3.39968,7.7332 0.71002,2.8217 0.85069,5.5934 0.42202,8.3152 -0.39293,2.4949 -1.23062,4.8818 -2.51308,7.1608 -1.28244,2.2789 -2.82368,4.2464 -4.62372,5.9025 -1.88705,1.72 -3.90237,3.0327 -6.04595,3.9382 -2.14358,0.9054 -4.267,1.1944 -6.3703,0.8668 -1.50236,-0.2341 -2.91359,-0.8024 -4.23365,-1.7051 -1.3201,-0.9028 -2.48992,-1.7821 -3.50952,-2.638 0.21255,1.5822 0.46864,3.1326 0.76821,4.651 0.29958,1.5183 0.65459,2.9292 1.06502,4.2324 z m 2.33234,-110.8289 c -0.16675,1.0584 -0.40302,2.8032 -0.70893,5.2342 -1.09047,8.8401 -2.41302,17.3259 -3.28358,25.9795 -0.32973,2.5822 -0.58802,4.7108 -0.77486,6.3859 l -0.28024,2.5124 c 2.00611,-2.476 4.07958,-5.1352 6.22036,-7.9776 6.11978,-8.5139 12.1593,-17.4434 13.81183,-27.5928 0.3096,-1.9657 0.51246,-3.9868 0.60862,-6.0632 0.021,-2.0881 -0.16956,-4.0543 -0.57173,-5.8985 -0.47731,-1.8559 -1.3087,-3.4184 -2.4941,-4.6874 -1.24862,-1.3564 -2.99971,-2.2101 -5.25324,-2.5611 -1.20193,-0.1871 -2.14502,-0.062 -2.82926,0.3726 -0.75942,0.4239 -1.36082,1.0661 -1.80418,1.9266 -0.50654,0.7731 -0.89265,1.7586 -1.1583,2.9566 -0.25365,1.1224 -0.48183,2.3262 -0.68422,3.6114 -0.14297,0.9073 -0.25417,1.8582 -0.33385,2.8528 l -0.46437,2.9485 z m -6.40429,86.8408 c 0.0312,0.7795 0.27577,1.6696 0.73382,2.6705 0.38295,0.9891 0.92803,1.9261 1.63523,2.8108 0.69533,0.9604 1.52713,1.787 2.49544,2.4801 0.95637,0.7687 2.03552,1.2465 3.23741,1.4338 1.20187,0.1872 2.40787,0.1039 3.61799,-0.2498 1.19819,-0.2781 2.3254,-0.8384 3.38162,-1.6809 1.04429,-0.7668 1.97408,-1.7838 2.78935,-3.0511 0.72825,-1.2034 1.2174,-2.5989 1.4675,-4.1866 0.21429,-1.3608 0.21529,-2.8325 0.003,-4.4147 -0.2996,-1.5184 -0.80483,-2.9526 -1.51572,-4.3027 -0.72281,-1.2745 -1.6572,-2.427 -2.80323,-3.4576 -1.23304,-0.9666 -2.67586,-1.5786 -4.32847,-1.836 -2.40376,-0.3745 -4.60458,0.4059 -6.60249,2.341 -2.073,1.9234 -3.38933,4.6618 -3.949,8.2152 -0.0953,0.6048 -0.15298,1.2155 -0.17301,1.8321 -0.0323,0.6921 -0.0292,1.1574 0.0111,1.3959 z"
           style="font-style:normal;font-variant:normal;font-weight:600;font-stretch:normal;font-size:70.5556px;line-height:1.25;font-family:Bimbo;-inkscape-font-specification:'Bimbo, Semi-Bold';font-variant-ligatures:normal;font-variant-caps:normal;font-variant-numeric:normal;font-variant-east-asian:normal;text-align:center;letter-spacing:-1.43404px;text-anchor:middle;fill:#1a1a1a;stroke:none;stroke-width:2.97271"
           id="path1867"
           sodipodi:nodetypes="sssccccccccccsssscscccccsscccccccccsccssscssscssssccsccccccscccsccsccccscccscccscscc" />
        <path
           d="m 391.75328,772.85115 q -0.86528,1.6117 -1.53719,3.5894 -0.8265,2.0235 -0.83353,3.9732 -0.10759,1.8949 0.75889,3.67 0.86652,1.7752 3.17851,3.0367 1.60836,0.8775 3.80397,0.9033 2.14151,0.1265 4.56871,-0.7631 2.32668,-0.9446 4.79212,-3.1158 2.36489,-2.226 4.36591,-5.953 1.35201,-2.5183 1.80698,-5.7864 0.40089,-3.1675 -0.41975,-6.4805 -0.92123,-3.3678 -3.28023,-6.4783 -2.35903,-3.1104 -6.58098,-5.414 -4.2219,-2.3035 -7.52324,-2.9327 -3.40187,-0.6839 -6.42458,-0.3797 -3.02271,0.3043 -5.9137,1.3318 -2.99153,0.9724 -6.54741,2.0277 -1.54607,0.4588 -3.35542,-0.5284 -1.3068,-0.7129 -1.84057,-1.6554 -0.63427,-0.9973 -0.75829,-1.9766 -0.17808,-0.8786 0.0527,-1.7942 0.17747,-0.8148 0.44791,-1.3184 0.48675,-0.9066 1.22095,-1.5479 0.73422,-0.6413 1.50724,-0.8707 3.52472,-1.7235 7.8924,-2.5963 4.3136,-0.7721 8.95993,-0.7115 4.59228,0.1608 9.15396,1.3479 4.61576,1.0858 8.63662,3.2797 4.0209,2.1938 7.53213,6.0632 3.51122,3.8693 5.50755,8.8657 1.99628,4.9964 1.9288,10.6899 -0.0212,5.8492 -3.266,11.8929 -1.83876,3.4249 -4.85263,6.8597 -2.96744,3.5904 -7.11819,5.7537 -4.15076,2.1634 -9.3614,2.1856 -5.36529,0.068 -11.7987,-3.4422 -3.01567,-1.6453 -4.77156,-4.4267 -1.75591,-2.7814 -2.21325,-6.2869 -0.61206,-3.4596 0.16747,-7.3321 0.77945,-3.8725 2.78046,-7.5995 1.24387,-2.3168 3.00623,-3.1786 1.76234,-0.8618 4.27542,0.5094 2.61354,1.426 2.8152,3.2292 0.1012,1.7482 -0.76419,3.3599 z"
           style="font-style:normal;font-variant:normal;font-weight:600;font-stretch:normal;font-size:70.5556px;line-height:1.25;font-family:Bimbo;-inkscape-font-specification:'Bimbo, Semi-Bold';font-variant-ligatures:normal;font-variant-caps:normal;font-variant-numeric:normal;font-variant-east-asian:normal;text-align:center;letter-spacing:-1.43404px;text-anchor:middle;fill:#1a1a1a;stroke:none;stroke-width:2.97271"
           id="path1869" />
        <path
           d="m 356.15268,791.16305 q -0.96748,-0.1331 -1.67316,-0.5143 -0.7593,-0.2804 -1.465,-0.6616 -3.62912,-1.9607 0.12788,-9.0216 0.6441,-1.2104 1.77118,-3.3287 1.12711,-2.1183 2.40866,-4.283 1.18081,-2.2191 2.25422,-4.2365 1.07344,-2.0174 1.66382,-3.127 1.61015,-3.0261 2.46096,-6.3326 0.79714,-3.2056 0.56661,-6.1872 -0.33136,-3.0361 -1.69698,-5.592 -1.52011,-2.5094 -4.44355,-4.0888 -3.12508,-1.6884 -6.04714,-1.319 -3.02285,0.3149 -5.62149,2.0278 -2.75313,1.7593 -5.22341,4.4505 -2.47029,2.6913 -4.63813,5.546 -2.32233,2.9011 -4.23492,5.7638 -2.01338,2.8083 -3.69823,4.7551 -0.89278,0.9462 -2.69288,1.4022 -1.90094,0.4015 -3.91709,-0.6877 -0.90729,-0.4902 -2.21124,-1.4544 -1.40482,-1.0187 -1.37868,-2.0435 -0.0485,-2.1041 0.79588,-5.1543 0.68982,-3.0039 1.74875,-6.4576 1.05897,-3.4538 2.17162,-7.0084 0.95813,-3.5082 1.3455,-6.6754 0.28659,-3.2217 -0.36691,-5.6526 -0.65334,-2.4309 -2.87115,-3.629 -2.21779,-1.1982 -4.74318,-0.3548 -2.62615,0.789 -7.10608,2.1348 -1.23588,0.3712 -2.04887,0.1917 -0.9675,-0.1331 -1.77397,-0.5688 -2.62104,-1.416 -2.66954,-3.5201 -0.2031,-2.0577 0.54769,-3.47 0.42934,-0.8069 1.57745,-1.745 1.14157,-0.682 3.4653,-1.6343 2.22294,-1.0068 5.35315,-1.5234 3.07653,-0.4157 6.64404,-0.047 3.46672,0.3145 7.09587,2.2751 3.22589,1.7428 4.74594,4.2523 1.41926,2.455 1.95877,5.3438 0.38501,2.9352 0.25287,6.1105 -0.23283,3.1208 -0.41207,6.1408 2.71902,-2.427 6.14368,-4.4728 3.27028,-1.9994 6.87702,-3.1676 3.55301,-1.0675 7.38235,-0.9466 3.72856,0.066 7.31055,1.8717 7.41271,3.8748 10.29837,8.9402 2.78475,5.0109 2.59392,10.492 -0.14374,5.6365 -2.53799,11.3558 -2.34706,5.8746 -5.29899,11.4225 -1.23445,2.32 -2.51603,4.4847 -1.18077,2.2191 -2.2542,4.2366 -0.32203,0.6052 -1.01325,1.6603 -0.59035,1.1095 -1.32872,2.0093 -0.79198,1.0007 -1.7254,1.5353 -0.98704,0.6356 -1.95459,0.5024 z"
           style="font-style:normal;font-variant:normal;font-weight:600;font-stretch:normal;font-size:70.5556px;line-height:1.25;font-family:Bimbo;-inkscape-font-specification:'Bimbo, Semi-Bold';font-variant-ligatures:normal;font-variant-caps:normal;font-variant-numeric:normal;font-variant-east-asian:normal;text-align:center;letter-spacing:-1.43404px;text-anchor:middle;fill:#1a1a1a;stroke:none;stroke-width:2.97271"
           id="path1871" />
        <path
           d="m 273.55042,730.80775 q 0.38204,0.2539 3.10134,-0.5431 2.65665,-0.7015 6.35519,-1.9438 3.69841,-1.2428 7.58495,-2.7717 3.82382,-1.4335 6.57302,-2.4848 1.83279,-0.7008 3.41192,-1.4331 1.51637,-0.6371 2.84469,-0.9879 2.4357,-0.5742 4.34585,0.6955 1.7191,1.1427 2.05019,3.1446 0.42651,2.0656 -0.70203,3.7828 -0.87775,1.3357 -2.23594,1.9407 -3.982,1.4656 -9.54313,3.6633 -5.62379,2.2933 -11.18787,4.078 -5.62672,1.8801 -10.24738,2.6469 -4.77887,0.7987 -6.97551,-0.6614 -3.82024,-2.5393 -5.08516,-6.67 -1.42316,-4.0988 -0.85531,-8.9302 0.47237,-4.895 2.55954,-9.9503 1.99168,-5.1188 4.93841,-9.6028 0.18803,-0.2863 0.43886,-0.6678 0.18812,-0.2862 0.40903,-0.4135 -0.85956,-0.5714 -2.16383,-1.3013 -1.36697,-0.6344 -2.79663,-1.1735 -1.58787,-0.5071 -3.04742,-0.7919 -1.52224,-0.1894 -2.72516,-0.029 -1.10739,0.2235 -1.90134,-0.03 -0.95215,-0.2217 -1.71619,-0.7295 -1.62359,-1.0792 -2.11281,-3.0493 -0.5847,-2.0336 0.66918,-3.9417 1.56744,-2.3851 4.418,-2.5465 2.85057,-0.1614 6.08898,0.7575 3.08023,0.9508 6.19619,2.4737 3.11593,1.5229 5.15143,2.6017 2.58224,-2.2588 5.51662,-4.0094 2.9971,-1.846 6.28652,-2.6752 3.1939,-0.8928 6.49211,-0.4824 3.20271,0.3468 6.2589,2.3782 6.39887,4.2534 7.98606,9.1466 1.4917,4.8297 -1.26694,9.0274 -1.75552,2.6713 -4.88382,3.8818 -3.28649,1.2424 -7.1847,1.1187 -3.96089,-0.028 -8.18429,-1.3278 -4.31885,-1.3629 -8.26447,-3.7114 -1.22695,1.2406 -2.29281,2.8625 -1.81816,2.7666 -2.90514,5.8823 -1.08697,3.1157 -1.51123,5.8494 -0.58244,2.7656 -0.44248,4.6407 0.0773,1.9704 0.55477,2.2879 z m 23.63588,-31.5811 q -3.24131,-1.332 -5.61143,-0.44 -2.46561,0.8285 -5.17326,3.2781 1.49526,0.8568 3.24425,1.7452 1.59078,0.9204 3.33686,1.3956 1.74607,0.4752 3.64448,0.092 1.89842,-0.3831 3.75537,-2.1644 0.31348,-0.477 -0.29529,-1.43 -0.60874,-0.953 -1.94583,-1.8417 z"
           style="font-style:normal;font-variant:normal;font-weight:600;font-stretch:normal;font-size:70.5556px;line-height:1.25;font-family:Bimbo;-inkscape-font-specification:'Bimbo, Semi-Bold';font-variant-ligatures:normal;font-variant-caps:normal;font-variant-numeric:normal;font-variant-east-asian:normal;text-align:center;letter-spacing:-1.43404px;text-anchor:middle;fill:#1a1a1a;stroke:none;stroke-width:2.97271"
           id="path1873" />
        <path
           d="m 230.61658,683.88855 q -1.43091,1.1396 -2.82849,2.6918 -1.55777,1.5334 -2.33337,3.3222 -0.84635,1.6988 -0.75045,3.6718 0.0951,1.973 1.72279,4.0442 1.13175,1.4409 3.1391,2.3308 1.91791,0.961 4.49921,1.101 2.51064,0.05 5.63266,-0.9726 3.05126,-1.1126 6.36026,-3.748 2.23581,-1.7806 3.94314,-4.6042 1.6179,-2.7524 2.17077,-6.1205 0.48205,-3.4581 -0.4586,-7.2469 -0.94066,-3.7888 -3.91147,-7.5711 -2.97076,-3.7822 -5.75617,-5.6627 -2.85616,-1.9705 -5.75378,-2.8833 -2.89759,-0.9128 -5.95944,-1.1092 -3.13254,-0.2865 -6.81634,-0.7196 -1.60168,-0.1883 -2.87485,-1.8092 -0.91955,-1.1707 -1.03825,-2.2473 -0.18948,-1.1666 0.083,-2.1154 0.18299,-0.8777 0.75692,-1.6276 0.48457,-0.6787 0.93174,-1.0348 0.80489,-0.641 1.73255,-0.9407 0.92766,-0.2996 1.72851,-0.2055 3.91878,-0.1925 8.27652,0.7277 4.26837,0.9922 8.51397,2.8809 4.15614,1.9598 7.87979,4.8497 3.81308,2.8187 6.64238,6.4208 2.82934,3.6022 4.52937,8.5429 1.7,4.9407 1.56343,10.3194 -0.13659,5.3787 -2.44474,10.5838 -2.3269,5.3665 -7.69281,9.64 -3.04071,2.4217 -7.16515,4.389 -4.14318,2.1286 -8.81072,2.479 -4.66756,0.3504 -9.46436,-1.6847 -4.95702,-2.054 -9.48393,-7.8175 -2.12198,-2.7016 -2.63824,-5.9501 -0.51625,-3.2485 0.44634,-6.6501 0.80244,-3.4204 3.04641,-6.6714 2.24392,-3.251 5.55291,-5.8863 2.05694,-1.6382 4.01633,-1.7348 1.9594,-0.096 3.7277,2.1547 1.83907,2.3414 1.31304,4.0778 -0.59676,1.6464 -2.02769,2.786 z"
           style="font-style:normal;font-variant:normal;font-weight:600;font-stretch:normal;font-size:70.5556px;line-height:1.25;font-family:Bimbo;-inkscape-font-specification:'Bimbo, Semi-Bold';font-variant-ligatures:normal;font-variant-caps:normal;font-variant-numeric:normal;font-variant-east-asian:normal;text-align:center;letter-spacing:-1.43404px;text-anchor:middle;fill:#1a1a1a;stroke:none;stroke-width:2.97271"
           id="path1875" />
        <path
           d="m 198.66994,669.12515 q -0.74796,-0.628 -1.14217,-1.3265 -0.49327,-0.6418 -0.88752,-1.3402 -2.02722,-3.5924 4.91336,-7.5673 1.18984,-0.6815 3.27201,-1.8739 2.08214,-1.1925 4.31979,-2.342 2.18132,-1.2493 4.16432,-2.385 1.98305,-1.1357 3.0737,-1.7603 2.97453,-1.7036 5.45571,-4.0488 2.38203,-2.2885 3.77503,-4.9348 1.33663,-2.7461 1.54223,-5.6366 0.0503,-2.9335 -1.58294,-5.8274 -1.7457,-3.0934 -4.4155,-4.3371 -2.72612,-1.3436 -5.8378,-1.278 -3.26718,0.023 -6.79134,0.9847 -3.52417,0.962 -6.87941,2.2234 -3.51068,1.2184 -6.65418,2.6226 -3.19976,1.3044 -5.66265,2.0547 -1.25958,0.3253 -3.02599,-0.2475 -1.82271,-0.6726 -2.94895,-2.6684 -0.50681,-0.8981 -1.09688,-2.4086 -0.64638,-1.6104 -0.0784,-2.4639 1.07961,-1.8066 3.41878,-3.9385 2.18377,-2.175 4.91956,-4.534 2.7358,-2.3591 5.57078,-4.7749 2.6795,-2.4589 4.69428,-4.9332 1.95851,-2.574 2.70025,-4.9794 0.74175,-2.4054 -0.49713,-4.6007 -1.23886,-2.1953 -3.8254,-2.8266 -2.64286,-0.731 -7.15127,-1.9781 -1.24371,-0.3441 -1.83619,-0.929 -0.74798,-0.6279 -1.19848,-1.4263 -1.4641,-2.5944 -0.38449,-4.4011 0.92416,-1.8496 2.31227,-2.6446 0.7932,-0.4543 2.26459,-0.6368 1.32934,0.032 3.80331,0.4626 2.41761,0.3318 5.34204,1.5619 2.82527,1.2867 5.64812,3.4991 2.76655,2.1127 4.79381,5.705 1.80198,3.1932 1.75185,6.1267 -0.10614,2.8338 -1.18843,5.5661 -1.23748,2.6893 -3.04054,5.3064 -1.85935,2.5172 -3.61951,4.9777 3.59396,-0.6058 7.58208,-0.5132 3.83269,0.05 7.5075,0.9819 3.57563,0.9891 6.75226,3.1309 3.12032,2.042 5.19039,5.4778 4.20992,7.2277 3.95424,13.0518 -0.3121,5.7242 -3.39289,10.2616 -3.12382,4.6938 -8.19639,8.2591 -5.11544,3.7219 -10.56874,6.8451 -2.28047,1.306 -4.51812,2.4555 -2.18131,1.2493 -4.16432,2.385 -0.59493,0.3407 -1.7419,0.8655 -1.09067,0.6247 -2.19481,0.993 -1.20327,0.425 -2.27804,0.3804 -1.17392,0.012 -1.92182,-0.616 z"
           style="font-style:normal;font-variant:normal;font-weight:600;font-stretch:normal;font-size:70.5556px;line-height:1.25;font-family:Bimbo;-inkscape-font-specification:'Bimbo, Semi-Bold';font-variant-ligatures:normal;font-variant-caps:normal;font-variant-numeric:normal;font-variant-east-asian:normal;text-align:center;letter-spacing:-1.43404px;text-anchor:middle;fill:#1a1a1a;stroke:none;stroke-width:2.97271"
           id="path1877" />
        <path
           d="m 164.26697,577.62335 q 0.22424,0.4002 3.00786,0.9305 2.68431,0.5868 6.54262,1.1667 3.8583,0.5799 8.01448,0.9908 4.05686,0.4673 6.98301,0.7849 1.95078,0.2116 3.69011,0.2798 1.64006,0.1243 2.98221,0.4177 2.42964,0.5994 3.55094,2.6002 1.00915,1.8007 0.3912,3.7335 -0.56203,2.0328 -2.34932,3.0468 -1.39012,0.7886 -2.8748,0.708 -4.21228,-0.5109 -10.16383,-1.09 -6.05087,-0.5226 -11.81669,-1.4707 -5.86515,-0.8918 -10.32729,-2.3157 -4.61751,-1.4677 -5.90699,-3.7687 -2.24254,-4.0016 -1.48531,-8.2547 0.60183,-4.2969 3.30982,-8.3383 2.65194,-4.1414 6.81419,-7.6893 4.10623,-3.648 8.77308,-6.2956 0.29786,-0.1692 0.69505,-0.3943 0.29787,-0.169 0.55254,-0.1815 -0.50458,-0.9004 -1.33268,-2.1446 -0.92744,-1.1879 -1.95416,-2.3194 -1.18206,-1.1753 -2.35132,-2.0941 -1.26849,-0.8625 -2.41208,-1.2685 -1.08752,-0.306 -1.67855,-0.8936 -0.74641,-0.6314 -1.19491,-1.4317 -0.95307,-1.7007 -0.49095,-3.6771 0.40665,-2.0766 2.39253,-3.2032 2.48239,-1.4083 5.0931,-0.2519 2.61069,1.1558 5.07413,3.45 2.30808,2.2505 4.38717,5.0264 2.07908,2.7759 3.39896,4.6641 3.32805,-0.8333 6.73782,-1.0538 3.50908,-0.2766 6.81484,0.4848 3.24968,0.6615 5.99817,2.5303 2.69245,1.7687 4.48646,4.97 3.75629,6.7028 2.93826,11.7815 -0.87407,4.9787 -5.24303,7.4572 -2.78024,1.5773 -6.11639,1.2286 -3.49153,-0.3925 -6.90468,-2.2797 -3.51245,-1.8309 -6.67906,-4.9128 -3.22266,-3.1819 -5.66379,-7.0709 -1.6576,0.5448 -3.34564,1.5025 -2.87951,1.6336 -5.26733,3.9111 -2.38782,2.2776 -4.01164,4.5173 -1.7792,2.196 -2.50941,3.9287 -0.82947,1.7891 -0.54918,2.2893 z m 35.43397,-17.3334 q -2.27766,-2.6633 -4.79378,-2.9499 -2.57222,-0.3866 -6.09886,0.5594 0.94023,1.4442 2.09191,3.0322 0.9963,1.5444 2.33375,2.7633 1.33745,1.219 3.20172,1.7436 1.86431,0.5244 4.32911,-0.2149 0.49647,-0.2817 0.38907,-1.4074 -0.10729,-1.1257 -0.89229,-2.5263 z"
           style="font-style:normal;font-variant:normal;font-weight:600;font-stretch:normal;font-size:70.5556px;line-height:1.25;font-family:Bimbo;-inkscape-font-specification:'Bimbo, Semi-Bold';font-variant-ligatures:normal;font-variant-caps:normal;font-variant-numeric:normal;font-variant-east-asian:normal;text-align:center;letter-spacing:-1.43404px;text-anchor:middle;fill:#1a1a1a;stroke:none;stroke-width:2.97271"
           id="path1879" />
        <path
           id="path1881"
           style="fill:#1a1a1a;fill-opacity:1;fill-rule:nonzero;stroke:none;stroke-width:13.0387;stroke-linecap:butt;stroke-linejoin:round;stroke-miterlimit:4;stroke-dasharray:none;stroke-opacity:1;paint-order:markers fill stroke"
           d="m 179.03673,656.69345 c -5.62263,-1.508 -10.58388,-1.7557 -13.61095,-4.204 -2.7535,-1.9165 -2.81307,-3.5817 -2.04343,-5.6291 1.00205,-1.9455 0.84004,-3.5455 3.318,-2.8642 5.69405,1.3692 11.59776,3.009 16.4759,5.252 3.71033,1.6686 4.75416,1.7408 4.63876,5.2821 -0.0249,4.8914 -6.16028,2.9161 -8.77828,2.1632 z"
           sodipodi:nodetypes="ccccccc" />
      </g>
    </g>
  </g>
</svg>
