<?xml version="1.0" encoding="UTF-8" standalone="no"?>
<svg
   xmlns:dc="http://purl.org/dc/elements/1.1/"
   xmlns:cc="http://creativecommons.org/ns#"
   xmlns:rdf="http://www.w3.org/1999/02/22-rdf-syntax-ns#"
   xmlns:svg="http://www.w3.org/2000/svg"
   xmlns="http://www.w3.org/2000/svg"
   xmlns:sodipodi="http://sodipodi.sourceforge.net/DTD/sodipodi-0.dtd"
   xmlns:inkscape="http://www.inkscape.org/namespaces/inkscape"
   width="87.085602mm"
   height="56.853916mm"
   viewBox="0 0 87.085602 56.853916"
   version="1.1"
   id="svg5160"
   inkscape:version="1.0.1 (3bc2e813f5, 2020-09-07)"
   sodipodi:docname="zuchini.svg">
  <defs
     id="defs5154" />
  <sodipodi:namedview
     id="base"
     pagecolor="#ffffff"
     bordercolor="#666666"
     borderopacity="1.0"
     inkscape:pageopacity="0.0"
     inkscape:pageshadow="2"
     inkscape:zoom="0.4609029"
     inkscape:cx="178.37273"
     inkscape:cy="276.90268"
     inkscape:document-units="mm"
     inkscape:current-layer="layer1"
     inkscape:document-rotation="0"
     showgrid="false"
     inkscape:window-width="1920"
     inkscape:window-height="1027"
     inkscape:window-x="-8"
     inkscape:window-y="-8"
     inkscape:window-maximized="1" />
  <metadata
     id="metadata5157">
    <rdf:RDF>
      <cc:Work
         rdf:about="">
        <dc:format>image/svg+xml</dc:format>
        <dc:type
           rdf:resource="http://purl.org/dc/dcmitype/StillImage" />
        <dc:title></dc:title>
      </cc:Work>
    </rdf:RDF>
  </metadata>
  <g
     inkscape:label="Layer 1"
     inkscape:groupmode="layer"
     id="layer1"
     transform="translate(-58.638882,-74.902833)">
    <g
       id="g3549"
       transform="matrix(0.26458333,0,0,0.26458333,-3.9621731,22.8511)"
       style="fill:#d6a800;fill-opacity:1">
      <g
         id="g897"
         transform="matrix(1.3333333,0,0,-1.3333333,536.51749,291.38623)"
         style="fill:#d6a800;fill-opacity:1">
        <path
           d="M 0,0 C 0.052,0.366 0.093,0.733 0.116,1.1 0.793,1.557 1.46,2.025 2.108,2.511 2.136,2.366 2.164,2.221 2.193,2.076 1.477,1.367 0.745,0.676 0,0 m -79.214,-65.7 c -1.742,-4.239 -4.365,-7.723 -7.576,-10.556 -3.736,-2.059 -8.128,-3.258 -12.263,-3.921 -5.106,-0.818 -10.495,-1.564 -15.671,-1.143 -0.257,0.021 -0.515,0.052 -0.773,0.078 1.698,0.382 3.394,0.81 5.051,0.797 2.001,-0.015 3.894,-0.348 5.894,0.016 2.33,0.424 4.61,1.266 6.844,2.035 3.719,1.28 7.243,2.885 10.394,5.273 0.616,0.467 1.214,0.964 1.799,1.478 -1.999,-1.739 -4.547,-3.18 -6.581,-4.217 -3.654,-1.863 -8.04,-3.473 -12.081,-4.265 -2.172,-0.427 -4.111,-0.115 -6.269,-0.102 -1.641,0.011 -3.243,-0.362 -4.838,-0.703 -0.351,-0.074 -0.707,-0.152 -1.068,-0.226 -0.837,0.098 -1.675,0.219 -2.514,0.356 0.039,0.11 0.072,0.22 0.112,0.33 0.04,0.112 -0.137,0.159 -0.178,0.049 -0.043,-0.116 -0.081,-0.232 -0.122,-0.347 -1.628,0.27 -3.253,0.601 -4.865,0.976 -0.064,0.042 -0.122,0.09 -0.189,0.13 -0.026,0.016 -0.048,-0.024 -0.024,-0.04 0.031,-0.019 0.058,-0.041 0.088,-0.061 -0.141,0.033 -0.28,0.068 -0.42,0.101 -0.713,0.629 -1.388,1.309 -2.179,1.837 -2.93,1.954 -6.78,0.984 -8.92,4.266 -0.776,1.19 -1.132,2.392 -2.328,3.263 -0.975,0.71 -2.155,1.117 -3.261,1.579 -1.816,0.759 -3.633,1.515 -5.45,2.272 -2.205,0.92 -4.858,1.495 -6.293,3.478 -1.049,1.451 -0.975,3.413 -1.772,5.072 -1.303,2.713 -1.585,4.579 -0.604,7.455 0.911,2.669 1.461,4.863 -0.711,7.028 -1.869,1.863 -3.274,3.292 -3.299,6.089 -0.02,2.403 0.992,4.811 2.076,6.901 0.706,1.36 1.524,2.648 2.425,3.87 2.271,2.695 4.951,5.194 7.857,7.385 0.324,0.203 0.647,0.405 0.977,0.599 1.827,1.076 3.718,1.643 5.68,2.241 0,-0.149 0.144,-0.293 0.297,-0.184 0.245,0.177 0.496,0.344 0.749,0.509 0.064,0.02 0.128,0.039 0.192,0.06 4.647,1.484 8.743,1.672 13.585,1.252 1.862,-0.162 3.698,-0.397 5.508,-0.705 0.622,-0.182 1.246,-0.351 1.877,-0.489 1.671,-0.365 3.378,-0.654 4.987,-1.252 2.381,-0.884 3.592,-2.395 5.135,-4.305 2.001,-2.479 4.396,-2.21 7.219,-3.164 3.467,-1.173 5.824,-4.1 8.562,-6.364 1.206,-0.998 2.668,-1.684 4.046,-2.445 2.065,-2.358 3.932,-4.882 5.546,-7.543 0.877,-1.444 1.69,-2.949 2.412,-4.497 0.07,-0.458 0.123,-0.939 0.155,-1.473 0.239,-4.053 0.4,-8.287 -0.96,-12.177 -0.541,-1.547 -1.613,-3.044 -1.862,-4.687 -0.266,-1.747 0.692,-3.525 -0.337,-5.189 -0.418,-0.675 -0.957,-1.321 -1.575,-1.936 0.604,0.569 1.193,1.153 1.736,1.775 1.067,1.222 1.063,1.497 0.892,2.953 -0.305,2.616 -0.667,2.308 0.104,4.103 0.366,0.852 0.803,1.668 1.134,2.535 0.685,1.792 1.034,3.684 1.196,5.591 0.176,2.064 0.124,4.139 0.026,6.207 -0.019,0.415 -0.029,0.842 -0.045,1.274 0.799,-1.848 1.454,-3.756 1.897,-5.707 1.054,-4.634 0.367,-9.156 -1.424,-13.515 m -25.701,-19.422 c 1.035,0.596 2.065,1.203 3.093,1.813 -0.06,-0.397 0.236,-0.767 0.643,-0.769 -1.229,-0.393 -2.477,-0.736 -3.736,-1.044 m -13.864,-1.828 c 0.24,0.145 0.437,0.27 0.567,0.35 -0.017,-0.11 -0.034,-0.22 -0.05,-0.331 -0.173,-0.007 -0.345,-0.014 -0.517,-0.019 m -31.468,7.282 c -5.611,3.723 -9.63,8.757 -11.83,14.754 -0.143,0.747 -0.292,1.496 -0.444,2.256 -0.04,0.201 -0.204,0.257 -0.352,0.215 -0.43,1.58 -0.745,3.218 -0.933,4.911 -0.865,7.778 0.449,15.997 3.887,23.093 -1.802,-6.069 -1.569,-12.57 0.297,-18.588 -1.135,2.239 -1.947,4.606 -2.037,7.191 -0.001,0.029 -0.047,0.029 -0.046,0 0.089,-2.707 0.965,-5.149 2.17,-7.463 0.866,-2.715 2.062,-5.328 3.557,-7.755 2.42,-3.927 5.553,-7.091 9.12,-9.7 2.968,-2.922 6.356,-5.286 10.254,-6.841 2.548,-1.017 5.19,-1.815 7.792,-2.682 1.476,-0.492 2.961,-0.954 4.445,-1.423 0.443,-0.14 1.41,-0.32 2.325,-0.587 0.138,-0.369 0.241,-0.757 0.31,-1.16 0.121,-0.718 0.131,-1.464 0.055,-2.187 -0.037,-0.351 -0.25,-0.899 -0.308,-1.345 -0.642,0.008 -1.281,0.021 -1.91,0.046 -9.006,0.352 -18.73,2.208 -26.352,7.265 m -11.872,8.627 c 0.001,0.035 0.007,0.067 0.001,0.103 -0.005,0.036 -0.013,0.069 -0.018,0.104 0.365,-0.061 0.734,0.242 0.646,0.664 0.15,-0.243 0.297,-0.486 0.452,-0.725 -0.36,-0.051 -0.72,-0.098 -1.081,-0.146 m -13.132,-0.986 c 0.331,0.532 0.668,1.059 1.009,1.586 0.037,0.057 -0.052,0.128 -0.096,0.074 -0.535,-0.648 -0.993,-1.88 -0.957,-0.383 0.025,1.062 0.248,2.138 0.438,3.183 0.324,1.788 0.774,3.544 1.288,5.287 0.031,0.106 -0.125,0.145 -0.163,0.045 -1.201,-3.163 -1.834,-6.432 -2.065,-9.798 -0.401,-0.006 -0.801,-0.012 -1.202,-0.014 0.245,0.36 0.494,0.717 0.748,1.074 0.049,0.071 -0.066,0.161 -0.121,0.093 -0.625,-0.779 -1.01,-1.837 -0.842,-0.138 0.112,1.132 0.361,2.273 0.591,3.386 0.444,2.155 1.021,4.28 1.677,6.379 1.629,0.127 3.254,0.321 4.874,0.584 -0.374,-1.42 -0.82,-2.82 -1.244,-4.226 -0.374,-1.239 -0.696,-3.841 -1.624,-4.768 -0.554,-0.552 -0.431,-0.738 -0.425,0.462 0.005,1.009 0.281,2.096 0.455,3.088 0.288,1.646 0.659,3.262 1.098,4.875 0.044,0.163 -0.203,0.23 -0.252,0.07 -0.994,-3.23 -1.627,-6.478 -1.921,-9.842 -0.018,-0.207 0.253,-0.282 0.386,-0.159 0.882,0.81 1.321,1.73 1.702,2.851 0.153,0.451 0.332,0.939 0.515,1.445 -0.192,-1.601 -0.274,-3.207 -0.279,-4.821 -0.001,-0.086 0.039,-0.155 0.094,-0.208 -1.227,-0.061 -2.455,-0.102 -3.684,-0.125 m -3.739,-0.008 c 0.109,0.085 0.144,0.259 -0.014,0.328 -0.066,0.03 -0.126,0.048 -0.191,0.075 0.26,0.237 0.403,0.501 0.538,0.957 0.017,0.058 -0.067,0.078 -0.089,0.025 -0.781,-0.696 -0.975,-0.558 -0.579,0.411 0.104,0.553 0.216,1.105 0.335,1.655 0.179,0.825 0.375,1.646 0.585,2.464 0.411,1.599 0.886,3.177 1.4,4.745 0.622,0.026 1.243,0.06 1.865,0.106 -1.228,-3.494 -2.146,-7.106 -2.592,-10.786 -0.42,0.001 -0.839,0.014 -1.258,0.02 m -9.596,0.516 c -8.939,0.864 -19.416,2.597 -26.263,8.923 -2.875,2.656 -5.185,5.844 -6.79,9.4 -2.022,4.484 -3.22,10.292 -1.641,15.148 0.096,0.294 0.21,0.584 0.32,0.875 0.249,-2.68 1.407,-5.199 3.131,-7.502 0.112,-0.187 0.222,-0.376 0.342,-0.558 1.389,-2.124 3.249,-3.743 5.341,-5.049 4.185,-3.231 9.074,-5.695 12.854,-7.13 1.251,-0.475 2.516,-0.899 3.788,-1.292 0.025,-0.015 0.05,-0.029 0.075,-0.046 2.242,-1.455 6.657,-3.962 6.118,-7.211 -0.015,-0.096 0.075,-0.18 0.168,-0.129 l 2.937,-2.916 c -0.037,-0.072 -0.019,-0.162 0.054,-0.204 0.897,-0.524 0.113,-0.833 0.787,-1.692 0.451,-0.575 1.351,-0.682 2.005,-0.757 1.078,-0.123 2.092,0.014 3.103,0.061 -0.026,-0.115 -0.054,-0.23 -0.079,-0.345 -2.088,0.089 -4.173,0.223 -6.25,0.424 m -33.376,33.287 c -0.234,0.779 -0.386,1.581 -0.438,2.404 0.136,0.299 0.279,0.594 0.429,0.887 -0.11,-1.092 -0.11,-2.197 0.009,-3.291 m 5.019,9.815 c 2.44,2.152 5.431,3.294 8.066,5.035 0.021,-3.272 0.487,-6.579 1.242,-9.534 0.716,-2.803 1.887,-5.155 3.44,-7.295 -0.705,-3.306 6.807,-8.231 8.382,-9.662 1.121,-1.019 2.203,-2.149 3.488,-2.971 1.163,-0.743 2.201,-0.867 3.479,-1.276 1.154,-0.37 2.087,-1.095 3.005,-1.839 0.056,-0.099 0.138,-0.168 0.244,-0.198 1.233,-1.002 2.472,-1.985 4.221,-2.133 0.184,-0.016 0.27,0.282 0.097,0.357 -0.304,0.132 -0.615,0.247 -0.928,0.361 0.432,0.308 0.806,0.644 1.12,1.015 -0.217,-0.919 -0.227,-1.762 0.403,-1.955 -0.133,0.002 -0.267,10e-4 -0.399,0.004 -6.471,0.174 -12.916,1.181 -19.133,2.982 -2.303,0.667 -4.692,1.429 -7.012,2.373 -2.1,1.255 -4.124,2.631 -6.032,4.135 -2.594,2.045 -5.325,4.527 -7.124,7.387 -0.916,2.466 -1.219,5.145 -0.971,7.818 1.189,2.024 2.692,3.88 4.412,5.396 m 43.872,34.072 c -0.336,-0.078 -0.674,-0.154 -1.009,-0.239 0.368,0.087 0.738,0.166 1.108,0.246 3.256,0.214 6.563,0.064 9.822,-0.344 -0.458,-0.054 -0.916,-0.113 -1.374,-0.185 -2.487,-0.387 -5.102,-1.505 -7.63,-1.439 -1.716,0.045 -3.234,0.667 -4.873,0.885 0.974,0.304 1.957,0.586 2.947,0.837 -1.028,-0.244 -2.047,-0.522 -3.059,-0.824 -0.524,0.063 -1.06,0.085 -1.62,0.031 -3.855,-0.377 -7.375,-3.116 -10.614,-5.014 -1.511,-0.885 -3.089,-1.734 -4.666,-2.597 2.721,2.197 5.561,4.203 8.804,5.696 3.823,1.761 7.95,2.66 12.164,2.947 m -13.921,-4.967 c 0.099,0.058 0.198,0.116 0.297,0.174 1.886,1.103 3.79,2.383 5.887,3.044 0.981,0.309 1.881,0.417 2.758,0.406 -3.06,-0.968 -6.041,-2.19 -8.942,-3.624 m 22.098,-37.723 c -0.002,0.006 0.001,0.011 -0.002,0.016 -0.344,0.606 -0.871,1.115 -1.385,1.577 -0.09,0.081 -0.213,10e-4 -0.194,-0.113 0.155,-0.877 0.237,-1.756 0.255,-2.643 -0.426,0.722 -0.857,1.443 -1.286,2.163 -0.061,0.102 -0.215,0.012 -0.159,-0.093 0.49,-0.914 0.975,-1.833 1.474,-2.744 0.076,-0.139 0.3,-0.076 0.298,0.081 -0.015,0.985 -0.115,1.957 -0.291,2.923 0.394,-0.41 0.735,-0.856 1.107,-1.291 0.039,-0.044 0.089,-0.039 0.129,-0.016 -0.389,-1.083 -0.731,-2.183 -1.024,-3.296 -1.174,-0.16 -2.318,-0.244 -3.447,-0.265 0.409,0.669 0.835,1.467 0.648,2.058 0.034,-0.109 -0.712,0.989 -0.666,0.717 -0.2,1.174 2.346,2.287 3.221,2.813 0.944,0.568 1.888,1.135 2.832,1.703 -0.559,-1.173 -1.066,-2.369 -1.51,-3.59 m -13.188,-21.428 c 0.347,0.249 0.667,0.683 0.928,1.11 0.007,-0.185 0.013,-0.369 0.019,-0.553 0.005,-0.151 0.1,-0.275 0.244,-0.32 0.909,-0.285 1.297,0.647 2.16,0.728 1.235,0.116 2.079,-0.535 3.34,0.038 0.283,0.128 0.079,0.565 -0.207,0.49 -1.371,-0.358 -2.328,0.661 -3.545,0.36 -0.916,-0.226 -1.318,-1.503 -1.406,0.419 -0.014,0.307 -0.438,0.453 -0.6,0.162 -0.176,-0.79 -0.677,-1.002 -1.504,-0.638 l 0.269,1.32 c 3.971,-0.937 8.006,-1.568 11.926,-2.038 0.06,-0.308 0.123,-0.616 0.19,-0.923 -3.853,0.577 -7.88,0.028 -11.814,-0.155 m 14.263,-7.723 c -0.034,0.205 -0.06,0.415 -0.086,0.624 0.089,-0.201 0.17,-0.404 0.261,-0.604 -0.058,0.002 -0.117,-0.004 -0.175,-0.02 m -5.766,-2.35 c 0.045,0.179 0.089,0.357 0.134,0.535 -0.042,-0.354 -0.079,-0.707 -0.107,-1.06 -0.087,-1.069 -0.043,-1.969 1.025,-2.377 0.161,-0.062 0.353,0.069 0.394,0.224 0.381,1.43 0.727,2.866 1.057,4.307 0.029,-0.786 0.131,-1.548 0.342,-2.259 -0.281,-0.145 -0.549,-0.306 -0.785,-0.489 -0.454,-0.35 -0.225,-1.288 0.437,-1.036 0.251,0.096 0.501,0.191 0.746,0.295 0.788,-0.732 2.107,-0.966 3.075,-0.499 0.047,-0.094 0.093,-0.188 0.143,-0.282 -2.612,-0.322 -5.237,-0.557 -7.868,-0.701 1.099,0.527 1.143,2.29 1.407,3.342 m 1.435,8.207 c -0.412,-1.634 -0.823,-3.268 -1.234,-4.902 -0.226,-0.898 -0.453,-1.795 -0.678,-2.693 -0.082,-0.324 -0.421,-2.502 -0.674,-2.694 -0.764,-0.578 -0.286,1.2 -0.267,1.545 0.049,0.872 0.127,1.744 0.231,2.611 0.24,1.991 0.668,3.927 1.158,5.868 0.489,0.083 0.977,0.17 1.464,0.265 m 3.277,-4.854 c -0.035,0.687 -0.036,1.38 -0.016,2.078 0.228,-0.637 0.477,-1.265 0.739,-1.888 -0.254,0.17 -0.644,0.111 -0.723,-0.19 m 0.978,-4.336 c 0.102,-0.257 0.213,-0.511 0.329,-0.765 -0.128,-0.088 -0.27,-0.154 -0.423,-0.204 0.037,0.324 0.069,0.647 0.094,0.969 m -1.65,-0.619 0.022,0.252 c 0.126,0.053 0.256,0.101 0.39,0.145 0.061,-0.281 0.127,-0.563 0.198,-0.845 -0.086,0.008 -0.174,0.011 -0.254,0.027 -0.168,0.033 -0.331,0.09 -0.488,0.159 0.07,0.067 0.123,0.156 0.132,0.262 m 0.152,1.732 c 0.014,-0.082 0.033,-0.165 0.047,-0.247 -0.023,-0.006 -0.047,-0.011 -0.07,-0.017 0.008,0.088 0.016,0.176 0.023,0.264 m -0.331,7.937 c 0.157,-0.561 0.327,-1.117 0.509,-1.67 -0.219,0.022 -0.466,-0.106 -0.489,-0.391 -0.155,-1.929 -0.31,-3.859 -0.465,-5.789 -0.489,2.402 0.116,5.464 0.445,7.85 m -0.653,0.508 c -0.273,-1.622 -0.566,-3.239 -0.902,-4.849 -0.228,-1.093 -0.403,-4.138 -1.134,-4.905 -0.034,-0.64 -0.223,-0.608 -0.565,0.095 0.061,0.451 0.122,0.901 0.183,1.351 0.137,0.92 0.299,1.837 0.447,2.755 0.289,1.775 0.575,3.55 0.868,5.324 0.368,0.076 0.736,0.145 1.103,0.229 m -13.052,2.19 c 0.031,-0.306 0.136,-0.562 0.346,-0.73 -0.388,-0.011 -0.774,-0.016 -1.159,-0.016 0.305,0.096 0.577,0.378 0.813,0.746 m -0.768,2.693 c 0.023,0.054 0.041,0.112 0.062,0.167 0.392,-0.103 0.785,-0.202 1.179,-0.298 -0.196,-0.522 -0.952,-2.485 -1.131,-2.453 -0.831,0.147 -0.209,1.8 -0.11,2.584 m -1.858,0.695 c 0.509,-0.148 1.02,-0.289 1.533,-0.426 -0.091,-0.237 -0.19,-0.504 -0.286,-0.786 -0.303,-0.57 -0.692,-1.18 -1.124,-1.076 -0.606,0.146 -0.367,1.333 -0.123,2.288 m -8.174,1.056 c -0.396,0.686 -0.564,1.435 -0.381,2.184 0.58,-0.28 1.168,-0.547 1.76,-0.805 -0.084,-0.352 -0.108,-0.708 -0.059,-1.09 0.009,-0.068 0.071,-0.148 0.152,-0.116 0.424,0.17 0.794,0.408 1.131,0.692 0.017,-0.007 0.034,-0.014 0.051,-0.021 -0.217,-0.615 -0.185,-1.288 0.154,-1.881 -0.885,0.468 -1.873,0.66 -2.844,0.933 0.036,0.02 0.06,0.062 0.036,0.104 m -9.882,8.59 c 2.388,-2.231 5.059,-4.069 7.915,-5.595 -0.163,-0.587 -0.197,-1.211 0.063,-1.716 0.044,-0.086 0.166,-0.038 0.171,0.047 0.025,0.42 -0.067,0.838 -0.037,1.263 0.008,0.095 0.023,0.188 0.037,0.281 0.405,-0.213 0.812,-0.421 1.224,-0.623 -0.273,-0.787 -0.179,-1.664 0.377,-2.323 -0.635,0.183 -1.26,0.405 -1.839,0.773 -2.105,1.337 -3.882,3.444 -5.621,5.206 -0.989,1.001 -4.64,3.771 -5.523,6.109 0.962,-1.183 2.042,-2.31 3.233,-3.422 m 11.47,-7.303 c 0.262,-0.112 0.526,-0.221 0.79,-0.329 -0.257,-0.19 -0.535,-0.351 -0.834,-0.487 -0.026,0.28 -0.009,0.55 0.044,0.816 m 7.139,13.116 c 0.004,0.006 0.007,0.013 0.011,0.019 0.255,-0.073 0.511,-0.146 0.766,-0.218 -0.259,0.066 -0.518,0.132 -0.777,0.199 m 1.294,-14.524 c -0.937,1.841 0.318,5.509 0.714,7.373 0.414,1.95 0.852,3.892 1.325,5.828 0.49,-0.134 0.987,-0.265 1.489,-0.392 -0.017,-0.004 -0.032,-0.012 -0.037,-0.034 -0.666,-2.816 -1.207,-5.646 -1.598,-8.513 -0.172,-1.266 -0.848,-3.259 -0.376,-4.543 -0.508,0.087 -1.013,0.181 -1.517,0.281 m -1.944,0.419 c -0.002,0.012 0.002,0.024 -0.007,0.037 -1.18,1.737 0.152,5.694 0.478,7.645 0.05,0.298 0.097,0.596 0.145,0.893 0.137,0.2 0.217,0.409 0.193,0.616 -0.009,0.074 -0.031,0.14 -0.06,0.199 0.222,1.371 0.44,2.742 0.655,4.113 0.32,-0.09 0.641,-0.181 0.96,-0.27 0.52,-0.147 1.051,-0.295 1.588,-0.442 -0.752,-2.823 -1.429,-5.659 -1.996,-8.526 -0.301,-1.518 -0.927,-3.203 -0.214,-4.645 -0.584,0.117 -1.164,0.244 -1.742,0.38 m -0.555,10.165 c -1.362,0.994 -0.037,2.261 0.712,3.192 0.111,0.137 0.207,0.276 0.298,0.415 0.299,-0.085 0.598,-0.17 0.897,-0.254 -0.241,-1.324 -0.479,-2.649 -0.713,-3.974 -0.294,0.31 -0.888,0.398 -1.194,0.621 m -0.602,-9.863 c -0.002,-0.005 -0.003,-0.01 -0.005,-0.016 -0.473,0.124 -0.944,0.256 -1.413,0.394 l 0.206,0.64 c 0.024,0.076 -0.091,0.105 -0.119,0.032 -0.08,-0.209 -0.159,-0.418 -0.239,-0.627 -0.041,0.012 -0.082,0.024 -0.123,0.036 -0.55,0.851 -0.241,2.777 -0.144,3.559 0.116,0.938 0.337,1.83 0.64,2.711 0.531,0.023 1.052,0.16 1.581,0.432 0.307,0.157 0.839,0.485 1.201,0.878 -0.202,-1.152 -0.404,-2.304 -0.602,-3.456 -0.271,-1.575 -0.951,-3.376 -0.077,-4.827 -0.235,0.057 -0.469,0.116 -0.702,0.176 10e-4,0.003 10e-4,0.007 0.003,0.011 0.044,0.133 -0.16,0.185 -0.207,0.057 m 16.118,1.76 c 0.043,-1.361 0.164,-2.715 0.344,-4.058 -3.889,0.293 -7.743,0.614 -11.499,1.239 -0.959,1.361 1.432,11.665 1.732,13.084 0.005,0.024 -0.006,0.04 -0.021,0.052 0.694,-0.176 1.397,-0.342 2.106,-0.491 -1.313,-3.947 -2.138,-8.464 -1.828,-12.629 0.007,-0.099 0.146,-0.099 0.153,0 0.307,4.313 0.698,8.407 1.736,12.617 0.51,-0.107 1.022,-0.202 1.536,-0.287 -1.156,-4.134 -1.801,-8.328 -1.935,-12.639 -0.004,-0.124 0.131,-0.18 0.231,-0.132 0.139,0.067 0.279,0.135 0.418,0.202 0.118,0.057 0.035,0.247 -0.089,0.21 -0.365,-0.108 0.387,6.968 0.435,7.27 0.272,1.71 0.633,3.397 1.065,5.069 0.499,-0.08 0.999,-0.151 1.5,-0.205 -0.701,-4.032 -1.446,-8.258 -1.397,-12.353 0.002,-0.141 0.235,-0.185 0.256,-0.035 0.569,4.108 0.761,8.256 1.375,12.367 0.458,-0.045 0.915,-0.075 1.371,-0.092 -0.373,-2.412 -0.676,-4.835 -0.91,-7.264 -0.153,-1.586 -0.712,-3.532 0.524,-4.773 0.086,-0.086 0.252,-0.074 0.31,0.04 l 0.393,0.763 c 0.056,0.109 -0.096,0.247 -0.181,0.139 -0.738,0.294 -1.016,0.776 -0.834,1.446 0.025,0.318 0.05,0.636 0.075,0.955 0.078,1.113 0.181,2.225 0.283,3.336 0.163,1.785 0.361,3.567 0.56,5.348 0.472,-0.012 0.942,-0.006 1.41,0.017 -0.982,-4.019 -1.327,-8.184 -0.805,-12.3 0.017,-0.137 0.158,-0.262 0.298,-0.171 0.59,0.385 0.511,0.282 0.78,0.95 0.046,0.116 -0.136,0.183 -0.197,0.083 -0.527,-0.866 -0.67,1.546 -0.681,1.795 -0.048,1.036 -0.048,2.072 -0.005,3.108 0.092,2.205 0.406,4.389 0.849,6.548 0.536,0.033 1.067,0.09 1.593,0.177 -0.711,-3.067 -1.053,-6.219 -0.951,-9.386 m -36.79,28.986 c 2.454,-5.945 7.072,-10.691 12.843,-13.477 0.949,-0.536 1.964,-0.966 3.022,-1.298 2.152,-0.827 4.366,-1.501 6.581,-2.136 -0.004,-0.007 -0.009,-0.014 -0.013,-0.021 -3.636,0.937 -7.266,1.947 -10.687,3.512 -7.172,3.281 -12.337,9.323 -13.958,16.885 0.143,0.863 0.349,1.675 0.61,2.445 0.144,-2.042 0.863,-4.12 1.602,-5.91 m 0.18,9.515 c 0.056,-0.705 0.229,-1.445 0.516,-2.222 0.555,-1.499 1.386,-2.9 1.807,-4.448 0.583,-2.14 -0.534,-3.894 -0.286,-5.93 0.122,-1.008 0.543,-1.677 1.496,-2.058 0.392,-0.097 0.788,-0.168 1.188,-0.21 1.087,-0.33 1.798,-0.972 2.136,-1.928 0.523,-0.789 0.888,-1.653 1.468,-2.419 0.696,-0.92 1.494,-1.732 2.369,-2.438 -3.476,2.045 -6.434,4.877 -8.603,8.288 -1.76,2.769 -3.668,6.735 -3.675,10.31 0.42,1.092 0.952,2.103 1.584,3.055 m -2.558,-7.332 c 0.034,0.392 0.083,0.772 0.141,1.145 1.516,-7.27 6.346,-13.219 13.161,-16.558 3.585,-1.757 7.445,-2.932 11.288,-4.025 -0.799,-1.084 -2.172,-2.216 -1.48,-3.555 0.214,-0.413 0.475,-0.314 0.732,-0.578 1.314,-1.344 -0.394,-2.025 -1.86,-2.272 0.04,0.107 0.075,0.215 0.117,0.322 0.01,0.024 -0.032,0.041 -0.042,0.017 -0.05,-0.115 -0.095,-0.233 -0.142,-0.35 -0.546,-0.087 -1.051,-0.116 -1.344,-0.095 -0.052,0.003 -0.061,-0.077 -0.012,-0.09 0.419,-0.119 0.822,-0.172 1.219,-0.163 -0.505,-1.348 -0.826,-2.757 -0.871,-4.205 -0.015,-0.496 -0.113,-1.406 0.159,-1.976 -1.687,0.523 -3.344,1.153 -4.965,1.913 -0.097,1.647 0.168,3.177 0.94,4.657 0.013,0.027 -0.026,0.049 -0.04,0.024 -0.77,-1.423 -1.153,-3.013 -1.017,-4.626 -0.445,0.211 -0.888,0.431 -1.328,0.663 0.045,0.106 0.093,0.211 0.146,0.314 0.045,0.088 -0.081,0.162 -0.132,0.078 -0.059,-0.096 -0.116,-0.199 -0.171,-0.307 -0.594,0.316 -1.182,0.652 -1.765,1.01 0.233,0.006 0.461,0.045 0.617,0.087 0.076,0.021 0.043,0.141 -0.033,0.118 -0.142,-0.041 -0.435,-0.128 -0.686,-0.142 -0.127,0.079 -0.255,0.155 -0.381,0.236 l -0.134,0.742 c 0.124,0.088 0.248,0.177 0.371,0.265 0.205,0.122 0.434,0.206 0.65,0.304 0.431,0.196 0.861,0.403 1.293,0.605 -0.441,-0.186 -0.885,-0.366 -1.322,-0.555 -0.408,-0.177 -1.169,-0.406 -1.281,-0.933 -0.011,-0.049 -0.016,-0.095 -0.018,-0.139 -0.409,0.271 -0.817,0.548 -1.221,0.841 -3.034,2.202 -5.356,4.977 -7.054,8.094 0.126,0.108 -0.009,0.311 -0.152,0.284 -2.985,5.641 -3.955,12.367 -3.383,18.85 m 19.446,-34.875 c -0.09,0.064 -0.182,0.122 -0.274,0.178 0.048,0.035 0.078,0.097 0.043,0.168 -0.281,0.564 -0.355,1.177 -0.199,1.751 0.682,-0.271 1.37,-0.529 2.065,-0.774 -0.059,-0.155 -0.12,-0.311 -0.178,-0.466 -0.18,-0.479 -0.473,-1.017 -0.502,-1.529 -0.001,-0.027 0,-0.054 0,-0.082 -0.31,0.26 -0.622,0.518 -0.955,0.754 m 2.855,-2.143 c -0.432,0.228 -0.817,0.506 -1.189,0.802 -0.01,0.044 -0.049,0.075 -0.101,0.082 -0.095,0.077 -0.19,0.154 -0.283,0.231 -0.083,0.544 0.435,1.886 0.463,1.974 0.033,0.102 0.065,0.205 0.098,0.306 0.471,-0.163 0.945,-0.32 1.42,-0.473 -0.203,-0.87 -0.292,-1.757 -0.245,-2.668 0.005,-0.088 0.074,-0.171 0.168,-0.168 0.562,0.021 0.945,0.355 1.006,0.916 0.008,0.07 -0.102,0.082 -0.12,0.017 -0.146,-0.418 -0.39,-0.611 -0.722,-0.604 -0.05,0.824 0.007,1.631 0.161,2.428 0.39,-0.123 0.781,-0.242 1.173,-0.358 -0.218,-1.023 -0.335,-2.033 -0.36,-3.102 -0.501,0.181 -0.998,0.369 -1.469,0.617 m -0.657,-4.394 c 0.975,-0.084 1.951,-0.141 2.928,-0.178 -1.063,-2.52 -1.687,-5.262 -1.485,-8.005 0.012,-0.166 0.256,-0.169 0.26,0 0.077,2.793 0.429,5.407 1.417,7.999 0.695,-0.024 1.39,-0.036 2.086,-0.036 -1.001,-3.208 -1.894,-6.443 -2.645,-9.717 -0.525,-0.025 -1.048,-0.085 -1.573,-0.104 -0.307,-0.011 -1.991,0.042 -2.96,0.454 0.431,3.297 0.89,6.434 1.972,9.587 m -5.081,0.65 c 1.026,-0.176 2.056,-0.317 3.087,-0.441 -0.84,-1.521 -1.482,-3.154 -1.826,-4.855 -0.074,0.052 -0.143,0.11 -0.225,0.153 -0.612,0.316 -1.073,0.04 -1.619,0.192 -0.13,0.036 -0.223,0.071 -0.302,0.105 0.257,1.627 0.535,3.24 0.885,4.846 m -1.387,-3.718 c -0.713,2.071 -3.042,3.522 -4.751,4.721 -0.328,0.23 -0.659,0.453 -0.994,0.671 2.334,-0.695 4.697,-1.253 7.08,-1.665 -0.382,-1.589 -0.709,-3.195 -0.921,-4.814 -0.297,0.169 -0.175,0.393 -0.414,1.087 m 4.004,-4.818 c -0.718,-0.116 -0.364,1.538 -0.433,1.857 -0.111,0.508 -0.389,0.966 -0.787,1.291 0.376,1.725 0.939,3.353 1.796,4.935 0.58,-0.069 1.159,-0.134 1.741,-0.186 -1.089,-3.024 -1.946,-6.299 -1.972,-9.53 -0.555,0.282 -0.787,0.709 -0.184,1.355 0.121,0.129 -0.002,0.303 -0.161,0.278 m 5.46,-2.038 c -0.06,0 -0.119,-0.004 -0.178,-0.006 0.093,0.321 0.214,0.66 0.272,0.9 0.228,0.962 0.466,1.92 0.708,2.878 0.501,1.989 1.043,3.965 1.62,5.933 0.687,0.003 1.374,0.017 2.06,0.043 -1.148,-3.264 -2.037,-6.592 -2.623,-10.007 -0.588,0.176 -1.164,0.257 -1.859,0.259 m 1.925,-0.886 c -0.464,0.01 -0.929,0.013 -1.393,0.027 l 0.002,0.002 c 0.084,0.064 0.011,0.203 -0.085,0.146 -0.103,-0.062 -0.188,-0.104 -0.267,-0.138 -0.146,0.005 -0.293,0.017 -0.439,0.022 -0.047,0.083 -0.05,0.214 -0.026,0.372 0.681,0.02 1.365,-0.017 2.068,-0.216 0,-0.003 -0.001,-0.006 -0.001,-0.009 -0.016,-0.097 0.052,-0.195 0.141,-0.206 m 0.217,0.102 c 0.092,-0.034 0.184,-0.072 0.277,-0.111 -0.164,0.003 -0.328,0.006 -0.492,0.009 0.03,-0.002 0.062,0.004 0.094,0.024 0.044,0.027 0.081,0.052 0.121,0.078 m 2.701,10.946 c 0.057,0.169 0.106,0.341 0.164,0.51 0.038,0.113 -0.138,0.159 -0.178,0.049 -0.07,-0.19 -0.135,-0.38 -0.203,-0.571 -1.449,-0.066 -2.901,-0.075 -4.351,-0.022 0.036,0.089 0.067,0.179 0.105,0.268 0.037,0.089 -0.091,0.168 -0.133,0.077 -0.052,-0.111 -0.097,-0.227 -0.148,-0.34 -1.589,0.063 -3.175,0.199 -4.752,0.405 0.03,0.052 0.057,0.105 0.087,0.157 0.031,0.051 -0.049,0.097 -0.079,0.046 -0.037,-0.062 -0.071,-0.126 -0.107,-0.189 -1.076,0.144 -2.147,0.32 -3.21,0.529 0.048,0.209 0.091,0.418 0.142,0.627 0.004,0.019 -0.025,0.027 -0.03,0.008 -0.053,-0.208 -0.102,-0.418 -0.154,-0.627 -2.882,0.571 -5.711,1.38 -8.435,2.443 -2.501,0.977 -4.952,2.132 -7.32,3.441 0.004,-10e-4 0.008,-0.003 0.012,-0.004 6.272,-2.242 12.779,-3.752 19.415,-4.367 3.455,-0.32 6.93,-0.403 10.397,-0.248 3.211,0.142 6.389,0.446 9.528,-0.136 0.021,-0.088 0.04,-0.177 0.062,-0.266 -0.084,-0.022 -0.152,-0.075 -0.189,-0.159 -0.449,-0.117 -0.898,-0.234 -1.35,-0.34 -0.13,0.078 -0.303,0.064 -0.388,-0.084 -2.911,-0.655 -5.889,-1.058 -8.885,-1.207 m 34.411,59.696 c 0.133,-0.213 0.262,-0.43 0.378,-0.659 0.75,-1.479 0.824,-3.287 1.77,-4.675 1.568,-2.305 5.168,-2.146 6.806,-4.125 -1.688,-0.141 -3.362,-0.44 -4.994,-0.931 -1.897,-0.57 -3.39,-1.563 -4.823,-2.755 -5.351,-1.944 -10.013,-5.139 -13.932,-9.645 -0.162,1.059 -1.962,1.699 -2.799,1.979 -1.674,0.56 -3.456,0.456 -4.797,-0.77 -0.022,-0.02 0.01,-0.051 0.033,-0.032 1.23,1.036 2.727,1.167 4.242,0.717 1.157,-0.344 2.673,-0.945 3.073,-2.185 -0.211,-0.247 -0.421,-0.496 -0.627,-0.75 -0.227,-0.281 -0.443,-0.568 -0.661,-0.854 -0.122,0.444 -0.443,0.817 -0.909,0.992 -0.119,0.044 -0.201,-0.123 -0.119,-0.205 0.076,-0.076 0.152,-0.153 0.228,-0.229 -0.261,-0.688 -0.524,-1.376 -0.785,-2.064 -0.244,-0.109 -0.994,0.115 -1.317,0.213 -0.745,0.226 -1.445,0.617 -2.031,1.131 -1.048,0.919 -1.721,2.114 -1.96,3.484 -0.022,0.126 -0.24,0.098 -0.226,-0.031 0.286,-2.572 2.2,-4.834 4.817,-5.259 0.286,-0.046 0.578,-0.052 0.858,-0.018 -1.164,-1.715 -2.194,-3.521 -3.092,-5.389 -1.824,-1.019 -3.652,-2.035 -5.462,-3.08 -0.646,-0.372 -1.765,-0.964 -1.174,-1.809 0.036,-0.052 0.086,-0.07 0.147,-0.06 1.108,0.196 0.454,-1.46 -0.027,-2.458 -0.918,-0.003 -1.828,0.035 -2.736,0.11 0.061,0.223 0.117,0.446 0.181,0.669 0.016,0.057 -0.072,0.08 -0.089,0.024 -0.071,-0.227 -0.133,-0.455 -0.2,-0.682 -0.641,0.056 -1.281,0.13 -1.922,0.221 -1.973,0.404 -3.931,0.923 -5.886,1.483 -0.291,0.084 -0.582,0.168 -0.873,0.251 0.041,0.09 0.081,0.179 0.119,0.274 0.011,0.029 -0.038,0.044 -0.048,0.013 -0.026,-0.092 -0.063,-0.184 -0.107,-0.276 -3.3,0.951 -6.618,1.96 -9.71,3.464 -2.204,1.28 -4.039,3.113 -5.3,5.418 -0.506,0.924 -0.753,1.884 -1.717,2.411 -0.446,0.243 -1.089,0.109 -1.482,0.348 l -1.73,3.517 c 0.165,0.578 0.295,1.164 0.389,1.757 0.241,2.587 -1.219,4.791 -2.082,7.12 -0.352,0.951 -0.5,1.794 -0.484,2.553 1.392,1.98 3.198,3.726 5.242,5.494 0.436,0.376 0.871,0.752 1.306,1.126 0.49,0.31 0.959,0.61 1.388,0.896 3.501,2.348 7.173,4.469 11.009,6.223 2.163,0.989 4.408,1.88 6.706,2.636 1.326,-0.041 2.609,-0.349 4.054,-0.658 3.161,-0.677 6.265,0.722 9.373,1.204 0.834,0.129 1.672,0.225 2.51,0.301 2.938,-0.424 5.827,-1.044 8.591,-1.78 3.85,-1.025 7.485,-2.614 10.881,-4.65 m 11.631,-9.365 c -0.775,0.008 -1.551,-0.013 -2.324,-0.067 -0.294,0.384 -0.673,0.719 -1.135,1.018 -2.446,1.579 -5.203,1.259 -6.493,4.42 -0.55,1.348 -0.858,2.681 -1.542,3.91 0.912,-0.552 1.811,-1.128 2.687,-1.743 3.183,-2.233 5.882,-5.028 8.807,-7.538 m -3.487,11.215 c 0.072,-0.81 0.155,-1.617 0.246,-2.418 0.007,-0.059 0.099,-0.059 0.093,0 -0.126,1.12 -0.243,2.26 -0.339,3.411 0.017,3.666 0.211,7.351 0.887,10.87 0.315,1.64 0.724,3.27 1.247,4.859 0.149,-1.051 0.5,-2.092 0.894,-3.028 0.73,-1.73 1.393,-3.136 0.45,-5 -0.401,-0.793 -1.075,-1.435 -1.596,-2.146 -0.573,-0.783 -1.094,-1.561 -1.269,-2.528 -0.197,-1.09 -0.025,-2.132 0.274,-3.158 -0.125,0.072 -0.253,0.143 -0.376,0.218 -0.027,0.016 -0.052,-0.028 -0.024,-0.043 0.133,-0.07 0.274,-0.142 0.412,-0.214 0.194,-0.662 0.439,-1.318 0.674,-1.977 -0.439,-0.647 -0.797,-1.343 -1.053,-2.094 -0.019,-0.056 0.071,-0.081 0.089,-0.025 0.235,0.744 0.568,1.429 0.982,2.071 0.172,-0.483 0.337,-0.967 0.469,-1.456 -0.266,-0.395 -0.511,-0.799 -0.721,-1.213 -0.23,-0.139 -0.461,-0.275 -0.691,-0.41 -0.197,0.187 -0.395,0.373 -0.596,0.555 -0.027,1.233 -0.048,2.477 -0.052,3.726 m 67.806,45.953 c 3.642,1.02 7.252,2.189 10.867,3.356 0.536,-0.057 1.074,-0.119 1.615,-0.192 -0.488,0.085 -0.979,0.164 -1.469,0.239 4.139,1.335 8.282,2.659 12.481,3.751 2.119,0.301 4.229,0.57 6.298,0.825 4.181,0.516 8.49,1.01 12.748,0.888 -1.142,-0.461 -2.264,-0.956 -3.372,-1.475 -1.404,-0.273 -2.799,-0.577 -4.184,-0.91 -5.226,-1.257 -10.341,-2.895 -15.381,-4.743 -0.343,0.086 -0.686,0.168 -1.029,0.246 0.327,-0.085 0.651,-0.175 0.974,-0.265 -2.221,-0.816 -4.43,-1.67 -6.627,-2.555 -3.423,0.55 -6.876,0.928 -10.324,1.224 -0.02,0.002 -0.02,-0.029 0,-0.031 3.422,-0.295 6.855,-0.674 10.258,-1.219 -0.203,-0.082 -0.407,-0.162 -0.611,-0.244 -0.916,-0.371 -1.83,-0.753 -2.742,-1.137 -7.612,-1.396 -15.205,-2.815 -22.344,-6.059 -1.677,-0.762 -3.333,-1.567 -4.989,-2.375 -4.295,-0.915 -8.446,-2.229 -11.921,-5.148 -0.017,-0.016 -0.029,-0.034 -0.04,-0.051 -3.019,1.25 -6.165,2.145 -9.319,2.588 -3.182,1.094 -6.625,1.938 -9.929,1.534 5.296,1.787 11.067,2.711 15.901,3.804 11.079,2.505 22.197,4.885 33.139,7.949 m 46.052,9.988 c -1.055,-0.244 -2.111,-0.561 -3.171,-0.979 -0.016,-0.007 -0.034,-0.015 -0.051,-0.021 -4.965,0.193 -10.012,-0.46 -14.875,-1.108 -1.274,-0.17 -2.545,-0.357 -3.816,-0.556 2.73,0.692 5.483,1.281 8.275,1.702 4.51,0.679 9.076,0.991 13.638,0.962 m 32.949,-6.293 c -0.24,0.06 -0.491,0.101 -0.757,0.114 C 10.202,50.412 8.68,49.628 7.225,49.288 6.423,49.1 5.61,48.957 4.792,48.835 c -1.348,0.363 -2.697,0.602 -4.121,0.619 -2.073,2.186 -4.453,4.059 -7.062,5.484 6.109,-0.479 12.141,-1.851 17.928,-4.369 0.044,-0.019 0.083,0.045 0.038,0.066 -4.042,1.877 -8.253,3.149 -12.552,3.918 0.098,-0.008 0.195,-0.02 0.292,-0.027 4.817,-0.346 9.142,-1.543 13.171,-4.304 m 4.871,-6.109 c -2.984,1.28 -5.964,2.535 -9.035,3.595 -0.678,0.234 -1.343,0.461 -2,0.672 1.377,0.122 2.709,0.345 4.081,0.617 2.632,0.522 4.083,-1.214 5.557,-3.088 0.149,-0.189 0.386,-0.016 0.394,0.178 0.381,-0.63 0.712,-1.293 1.003,-1.974 m 1.448,-6.891 C 18.837,35.093 18.651,32.966 18.286,30.861 18.134,30.649 17.982,30.436 17.825,30.228 16.109,28.59 14.57,26.789 13.078,24.94 12.086,24 11.053,23.098 9.987,22.232 c 0.044,2.928 -0.141,5.87 -0.608,8.761 0.881,0.763 1.72,1.566 2.508,2.415 3.008,1.89 5.696,4.219 6.01,8.056 0.005,0.069 -0.099,0.067 -0.107,0 -0.394,-3.406 -2.709,-5.734 -5.484,-7.595 1.84,2.068 3.389,4.399 4.539,7.075 0.049,0.108 0.08,0.185 0.092,0.227 0.121,0.286 0.245,0.567 0.354,0.86 0.032,0.086 -0.104,0.122 -0.136,0.038 -0.237,-0.625 -0.506,-1.222 -0.794,-1.803 -0.032,-0.058 -0.064,-0.115 -0.099,-0.179 -0.672,-1.209 -1.394,-2.358 -2.197,-3.446 -1.39,-1.761 -3.041,-3.282 -4.864,-4.625 -0.483,2.602 -1.199,5.157 -2.197,7.615 -1.246,3.068 -2.997,5.956 -5.141,8.494 1.079,0.072 2.16,0.131 3.248,0.174 0.205,0.008 0.404,0.028 0.605,0.041 1.71,-0.661 3.307,-1.568 4.958,-2.378 2.344,-1.149 4.758,-2.166 7.145,-3.221 0.024,-0.011 0.048,-0.016 0.072,-0.024 0.584,-1.78 0.886,-3.657 0.914,-5.495 M 15.742,22.293 C 14.323,19.549 12.854,16.786 11.3,14.083 l 0.756,3.087 c 0.167,-0.169 0.442,-0.212 0.573,0.07 0.633,1.353 1.225,2.719 1.784,4.1 0.15,-0.23 0.512,-0.268 0.725,0.009 0.942,1.228 1.173,2.339 0.932,3.845 -0.028,0.18 -0.138,0.27 -0.268,0.302 -0.003,0.005 -0.007,0.008 -0.011,0.013 0.685,0.854 1.33,1.738 1.928,2.657 -0.437,-1.768 -0.993,-3.513 -1.65,-5.226 -0.109,-0.215 -0.215,-0.432 -0.327,-0.647 M 4.385,4.355 C 3.742,3.654 3.085,2.97 2.416,2.301 2.396,2.435 2.377,2.568 2.356,2.702 c 0.7,0.531 1.377,1.081 2.029,1.653 m -2.609,1.68 c -0.087,0.798 -0.151,1.598 -0.19,2.399 -0.032,0.669 -0.244,2.38 -0.2,3.718 0.371,0.286 0.74,0.573 1.106,0.865 C 2.996,11.802 3.553,9.596 3.801,8.41 3.803,7.508 3.836,6.603 3.906,5.691 3.919,5.528 4.151,5.526 4.161,5.691 4.219,6.657 4.179,7.594 4.063,8.51 4.057,9.062 4.04,9.614 4.065,10.165 c 0.03,0.632 0.051,2.834 0.316,4.424 0.306,0.266 0.611,0.534 0.912,0.807 C 5.397,14.725 5.528,13.767 5.652,12.793 5.354,10.94 5.425,9.032 5.879,7.133 5.409,6.633 4.933,6.146 4.464,5.669 4.416,5.621 4.478,5.541 4.537,5.575 5.086,5.888 5.568,6.257 6.004,6.664 6.022,6.595 6.039,6.525 6.059,6.457 4.899,5.252 3.627,4.171 2.289,3.161 2.138,4.124 1.972,5.083 1.776,6.035 M -0.094,4.44 c -0.033,0.165 -0.125,0.521 -0.259,0.976 0.004,1.151 0.032,2.303 0.083,3.454 0.008,0.179 0.022,1.286 0.084,2.094 0.152,0.112 0.301,0.226 0.453,0.339 C 0.496,10.629 0.756,9.518 0.816,9.292 1.194,7.869 1.431,6.422 1.705,4.984 1.794,4.308 1.902,3.633 2.021,2.958 1.404,2.5 0.775,2.054 0.138,1.616 0.164,2.558 0.095,3.5 -0.094,4.44 M -0.316,1.308 c 0.009,0.321 0.024,0.609 0.019,0.748 -0.032,0.896 -0.047,1.793 -0.051,2.69 0.027,-0.118 0.059,-0.234 0.083,-0.353 0.056,-0.284 0.018,-1.84 0.013,-3.041 z m -3.813,-3.741 c 0.237,0.402 0.477,0.837 0.709,1.294 1.004,0.601 2.004,1.22 2.983,1.865 0.018,-0.354 0.041,-0.708 0.063,-1.063 -1.513,-1.354 -3.079,-2.645 -4.694,-3.882 0.401,0.566 0.712,1.163 0.939,1.786 M -5.67,-4.682 c 0.39,0.567 0.805,1.1 1.181,1.673 -0.229,-0.496 -0.508,-0.967 -0.833,-1.407 -0.116,-0.088 -0.232,-0.178 -0.348,-0.266 m 1.83,3.291 c 0.057,0.034 0.112,0.068 0.169,0.101 -0.084,-0.163 -0.165,-0.329 -0.253,-0.49 0.034,0.128 0.056,0.259 0.084,0.389 m 3.383,2.603 c -0.839,-0.565 -1.688,-1.118 -2.537,-1.671 -0.043,-0.028 -0.088,-0.055 -0.131,-0.083 1.307,2.747 2.287,6.184 1.345,8.905 0.525,-0.899 0.938,-1.855 1.235,-2.861 -0.007,-1.429 0.024,-2.859 0.088,-4.29 m -1.62,8.363 c 0.203,0.149 0.407,0.297 0.611,0.446 0.37,0.27 0.738,0.542 1.106,0.814 C -0.464,9.237 -0.526,7.641 -0.543,6.043 -0.937,7.289 -1.524,8.875 -2.077,9.575 m -98.036,-32.559 c 4.187,-2.753 8.077,-6.073 11.462,-9.827 -0.546,0.26 -1.085,0.533 -1.59,0.868 -1.86,1.235 -3.414,2.86 -5.073,4.338 -1.301,1.158 -2.68,2.279 -4.283,2.995 -2.324,1.038 -5.032,0.766 -7.11,2.404 -1.468,1.157 -2.155,3.029 -3.703,4.162 -0.192,0.139 -0.388,0.269 -0.588,0.391 3.779,-1.305 7.414,-3.049 10.885,-5.331 m -21.685,12.985 c -0.25,0.112 -0.499,0.226 -0.733,0.361 0.3,-0.015 0.578,-0.146 0.733,-0.361 m 39.645,30.331 c 2.939,-3.113 5.132,-6.583 6.681,-10.32 -0.13,-1.573 -0.5,-3.355 -0.89,-4.869 -0.68,1.841 -1.468,3.638 -2.373,5.372 -3.507,6.718 -8.656,12.59 -14.902,16.889 -2.018,1.39 -4.142,2.565 -6.347,3.585 6.796,-1.792 12.988,-5.527 17.831,-10.657 m 34.936,18.435 c -0.821,-0.304 -1.652,-0.581 -2.501,-0.812 -3.36,-0.916 -6.854,-1.207 -10.22,-2.098 -6.441,-1.704 -12.045,-5.343 -17.676,-8.763 -1.077,-0.654 -3.118,-2.273 -4.358,-2.352 -0.258,-0.075 -0.518,-0.149 -0.777,-0.223 -0.406,0.887 -0.236,1.445 0.51,1.674 0.352,0.27 1.373,0.585 1.818,0.788 2.942,1.339 5.568,3.161 8.278,4.901 2.814,1.807 5.692,3.339 8.941,4.207 3.756,1.005 7.66,1.329 11.493,1.92 1.501,0.231 2.998,0.488 4.492,0.758 m 3.682,8.353 c -2.62,-0.7 -5.269,-1.273 -7.928,-1.795 -0.223,0.041 -0.445,0.082 -0.669,0.121 2.081,0.849 4.173,1.678 6.278,2.471 0.787,-0.244 1.561,-0.509 2.319,-0.797 m 1.912,0.533 c -0.561,-0.165 -1.123,-0.321 -1.687,-0.473 -0.047,0.017 -0.094,0.037 -0.142,0.054 -0.754,0.271 -1.519,0.51 -2.29,0.725 3.15,1.186 6.329,2.292 9.549,3.26 2.338,0.703 4.707,1.328 7.096,1.864 -4.087,-1.991 -8.079,-4.12 -12.526,-5.43 m 23.311,7.157 c 0.412,-0.078 0.822,-0.164 1.23,-0.26 4.616,-1.085 8.092,-3.231 11.017,-6.329 -1.403,-0.421 -2.795,-0.882 -4.184,-1.286 -0.314,-0.092 -0.627,-0.185 -0.94,-0.277 -3.939,-0.705 -7.858,-1.522 -11.764,-2.388 -1.308,-0.291 -2.615,-0.586 -3.922,-0.882 -0.465,0.052 -0.937,0.116 -1.429,0.198 -1.437,0.241 -2.851,0.406 -4.312,0.296 -1.197,-0.09 -2.364,-0.332 -3.512,-0.658 -2.133,1.589 -4.441,2.922 -6.97,3.875 4.473,1.268 8.796,2.904 13.029,5.093 0.756,0.391 1.515,0.786 2.281,1.173 3.135,0.656 6.302,1.147 9.476,1.445 m -1.517,0.246 c -2.147,-0.228 -4.285,-0.54 -6.405,-0.927 0.939,0.449 1.89,0.87 2.858,1.245 1.189,-0.05 2.372,-0.153 3.547,-0.318 M -1.35,49.329 c -1.482,-0.211 -2.943,-0.586 -4.391,-1.012 -3.12,3.496 -7.51,5.568 -12.059,6.512 -0.036,0.007 -0.072,0.012 -0.108,0.02 3.637,0.322 7.283,0.382 10.904,0.134 2.724,-1.404 5.21,-3.291 7.367,-5.525 -0.557,-0.007 -1.127,-0.046 -1.713,-0.129 M 6.916,30.774 c -0.603,1.318 -1.281,2.582 -2.068,3.743 -1.491,2.197 -3.412,4.048 -5.071,6.111 -1.74,2.166 -3.063,4.63 -4.782,6.808 2.198,0.292 4.392,0.513 6.597,0.667 2.179,-2.542 3.959,-5.446 5.223,-8.538 1.01,-2.467 1.737,-5.03 2.225,-7.64 C 8.319,31.53 7.604,31.149 6.916,30.774 m 2.328,1.018 c 0.11,0.083 0.224,0.162 0.333,0.246 0.079,0.045 0.157,0.09 0.237,0.135 C 9.63,32.015 9.449,31.852 9.262,31.697 9.256,31.729 9.249,31.76 9.244,31.792 M 7.216,30.118 c -0.03,0.07 -0.065,0.138 -0.095,0.209 0.673,0.426 1.326,0.878 1.964,1.349 0.007,-0.034 0.012,-0.07 0.019,-0.105 C 8.489,31.068 7.857,30.586 7.216,30.118 m 6.113,-7.39 c 0.428,0.439 0.846,0.887 1.252,1.344 -0.484,-1.343 -0.993,-2.675 -1.547,-3.989 0.11,0.823 0.219,1.645 0.328,2.468 0.009,0.07 -0.008,0.126 -0.033,0.177 m -1.465,-1.424 c 0.191,0.177 0.383,0.353 0.571,0.533 -0.204,-0.848 -0.406,-1.696 -0.609,-2.544 0.028,0.668 0.042,1.338 0.038,2.011 m -1.612,-2.131 c -0.034,0.201 -0.071,0.404 -0.107,0.606 0.163,0.138 0.324,0.277 0.486,0.417 -0.134,-0.34 -0.262,-0.68 -0.379,-1.023 M 5.982,6.744 C 5.364,6.147 4.572,5.468 5.607,6.67 5.71,6.791 5.807,6.907 5.907,7.026 5.931,6.932 5.957,6.838 5.982,6.744 M 6.268,7.452 C 6.266,7.336 6.241,7.292 6.187,7.357 6.213,7.389 6.241,7.421 6.268,7.452 m 0.807,9.652 C 6.525,16.035 6.116,14.925 5.848,13.79 5.752,14.396 5.644,15.002 5.523,15.607 6.052,16.093 6.57,16.591 7.075,17.104 M 4.651,15.702 c 0.179,0.115 0.354,0.237 0.531,0.355 0.02,-0.104 0.044,-0.236 0.069,-0.395 -0.269,-0.266 -0.541,-0.529 -0.819,-0.787 0.061,0.314 0.133,0.597 0.219,0.827 M 1.82,13.843 c 0.166,0.134 0.382,-0.162 0.613,-0.685 -0.346,-0.283 -0.69,-0.567 -1.039,-0.846 0.036,0.719 0.152,1.311 0.426,1.531 m 4.037,2.668 c 0.235,0.162 0.466,0.33 0.699,0.495 -0.356,-0.385 -0.719,-0.764 -1.09,-1.137 -0.023,0.11 -0.049,0.22 -0.072,0.331 0.154,0.104 0.31,0.205 0.463,0.311 m 4.029,3.054 c 0.077,0.064 0.155,0.127 0.231,0.192 0.041,-0.215 0.079,-0.431 0.113,-0.646 -0.09,-0.27 -0.177,-0.541 -0.258,-0.813 -0.027,0.341 -0.06,0.683 -0.099,1.026 0.005,0.08 0.009,0.161 0.013,0.241 m -1.67,-5.329 c 0.232,1.545 0.645,3.041 1.19,4.502 0.071,-0.8 0.096,-1.592 0.083,-2.382 C 9.3,15.431 9.17,14.491 9.094,13.535 9.021,13.162 8.943,12.791 8.856,12.422 8.666,11.619 8.432,10.812 8.124,10.038 c 0.088,1.401 0.117,2.8 0.092,4.198 m 0.653,4.505 C 8.58,17.911 8.337,17.076 8.145,16.235 c -0.035,0.613 -0.076,1.226 -0.131,1.84 0.288,0.219 0.572,0.442 0.855,0.666 M 6.374,7.672 c -0.026,1.625 -0.14,3.235 -0.344,4.836 0.411,2.014 1.164,5.166 1.552,4.87 C 7.876,17.154 7.995,16.486 8.027,15.687 7.603,13.594 7.474,11.458 7.652,9.256 7.653,9.239 7.66,9.227 7.664,9.212 7.569,9.083 7.478,8.955 7.379,8.827 7.478,8.948 7.572,9.071 7.669,9.194 7.678,9.168 7.69,9.146 7.706,9.127 7.642,8.998 7.582,8.865 7.51,8.74 7.204,8.211 6.85,7.662 6.438,7.206 6.421,7.187 6.398,7.162 6.376,7.139 c 0,0.147 0,0.294 -0.002,0.44 C 6.722,7.997 7.061,8.412 7.379,8.827 7.056,8.432 6.717,8.049 6.374,7.672 M -25.034,-5.905 c -0.838,-0.555 -1.691,-1.091 -2.557,-1.605 0.068,0.149 0.143,0.294 0.208,0.444 0.443,1.009 0.852,2.033 1.234,3.066 1.029,0.762 2.051,1.534 3.071,2.309 -0.237,-1.122 -0.476,-2.244 -0.712,-3.366 -0.415,-0.283 -0.825,-0.571 -1.244,-0.848 m 3.71,-0.86 c 0.102,0.402 0.193,0.807 0.265,1.217 0.255,-0.264 0.606,-0.409 0.986,-0.385 -0.414,-0.283 -0.831,-0.56 -1.251,-0.832 m -1.273,-1.064 c 0.16,0.095 0.317,0.194 0.475,0.292 0.058,-0.083 0.115,-0.166 0.174,-0.248 0.094,-0.133 0.294,-0.117 0.346,0.045 0.07,0.216 0.125,0.433 0.185,0.65 0.577,0.376 1.145,0.765 1.705,1.166 -0.823,-1.29 -1.858,-2.331 -3.1,-3.053 0.125,0.382 0.188,0.764 0.215,1.148 m -1.266,-0.713 c 0.347,0.184 0.69,0.375 1.029,0.574 -0.008,-0.304 -0.07,-0.563 -0.223,-0.706 -0.369,-0.344 -0.625,-0.183 -0.806,0.132 m 1.245,1.71 c 0.122,-0.173 0.243,-0.346 0.365,-0.519 -0.106,-0.065 -0.213,-0.127 -0.319,-0.191 0.002,0.235 -0.013,0.471 -0.046,0.71 m -1.902,-2.049 c 0.141,0.069 0.279,0.143 0.417,0.214 0.107,-0.198 0.228,-0.39 0.365,-0.576 -0.008,-0.003 -0.015,-10e-4 -0.022,-0.006 -0.28,-0.177 -0.566,-0.34 -0.85,-0.509 -0.03,-0.009 -0.061,-0.014 -0.09,-0.023 0.061,0.3 0.122,0.6 0.18,0.9 m -4.518,-3.059 c -0.033,0.377 -0.092,0.753 -0.163,1.128 0.067,0.127 0.131,0.256 0.197,0.383 0.355,0.089 0.707,0.182 1.058,0.279 0.092,-0.432 0.295,-0.813 0.71,-1.001 -0.594,-0.282 -1.194,-0.546 -1.802,-0.789 m -0.45,0.658 c 0.047,-0.261 0.1,-0.521 0.17,-0.775 -0.146,-0.056 -0.294,-0.105 -0.44,-0.159 0.011,0.316 0.103,0.627 0.27,0.934 m -0.975,-1.19 c -0.245,0.524 -0.431,1.02 -0.498,1.565 0.455,0.113 0.907,0.222 1.358,0.332 0.022,-0.154 0.047,-0.305 0.072,-0.458 -0.263,-0.441 -0.502,-0.892 -0.662,-1.342 -0.09,-0.031 -0.179,-0.066 -0.27,-0.097 m -1.913,-0.592 c -0.002,0.009 0.002,0.019 -0.003,0.029 -0.24,0.528 -0.444,1.009 -0.449,1.559 0.046,0.027 0.092,0.052 0.138,0.079 0.299,0.102 0.602,0.198 0.91,0.28 0.202,0.054 0.403,0.104 0.604,0.155 0.039,-0.562 0.19,-1.122 0.49,-1.59 -0.557,-0.188 -1.122,-0.355 -1.69,-0.512 m -1.991,0.592 c -0.007,0.034 -0.012,0.068 -0.018,0.102 0.426,0.241 0.85,0.485 1.273,0.731 0.002,-0.546 0.155,-1.097 0.541,-1.477 -0.55,-0.148 -1.104,-0.281 -1.663,-0.401 0.026,0.355 -0.064,0.693 -0.133,1.045 m -0.352,-0.091 c 0.042,-0.344 0.08,-0.696 0.223,-1.011 -0.585,-0.12 -1.175,-0.23 -1.771,-0.319 -0.387,-0.058 -0.776,-0.108 -1.166,-0.151 0.911,0.482 1.816,0.975 2.714,1.481 m -3.975,-1.595 c 0.026,0.061 0.056,0.117 0.086,0.175 1.306,0.521 2.562,1.166 3.842,1.747 0.006,-0.035 0.012,-0.071 0.018,-0.106 -1.07,-0.6 -2.147,-1.186 -3.232,-1.753 -0.239,-0.022 -0.476,-0.047 -0.714,-0.063 m -28.317,-8.721 c 0.927,0.266 1.886,0.483 2.895,0.645 3.745,0.602 6.986,1.484 10.33,3.305 1.806,0.983 3.655,1.871 5.52,2.724 0.188,0.03 0.374,0.06 0.562,0.09 2.614,0.409 5.24,0.852 7.765,1.66 0.016,-0.072 0.025,-0.14 0.049,-0.216 0.037,-0.116 0.146,-0.233 0.275,-0.261 -8.74,-4.379 -17.989,-7.539 -27.769,-8.204 0.126,0.086 0.251,0.172 0.373,0.257 m -0.752,-0.223 c -0.03,-0.023 -0.06,-0.045 -0.091,-0.067 -0.038,-0.002 -0.075,-0.003 -0.113,-0.006 0.07,0.024 0.136,0.05 0.204,0.073 m -5.71,-0.574 c 0.094,-0.162 0.193,-0.309 0.3,-0.436 -0.143,-0.094 -0.29,-0.182 -0.431,-0.281 0.045,0.239 0.086,0.478 0.131,0.717 m -0.781,30.271 c 0.893,-2.976 1.417,-6.095 1.614,-9.321 -0.347,3.133 -0.903,6.246 -1.614,9.321 m -2.379,7.375 c 0.782,-0.202 1.124,-1.104 1.195,-2.334 -0.363,0.789 -0.762,1.567 -1.195,2.334 m 4.205,-37.612 c -0.379,0.423 -0.041,0.336 0.472,0.252 -0.157,-0.085 -0.317,-0.162 -0.472,-0.252 m 22.381,7.142 c -1.084,-0.527 -2.159,-1.075 -3.217,-1.664 -2.044,-1.137 -4.125,-2.243 -6.431,-2.74 -1.684,-0.364 -3.405,-0.334 -5.114,-0.446 0.003,0.002 0.007,0.005 0.011,0.007 4.641,2.717 9.58,3.947 14.751,4.843 m 14.443,5.161 c -1.479,-0.529 -4.693,-0.873 -4.37,-2.964 -0.64,-0.225 -1.292,-0.428 -1.964,-0.598 -1.949,-0.495 -3.93,-0.817 -5.916,-1.117 4.961,2.252 10.021,4.282 14.668,7.176 2.384,1.484 4.673,3.099 6.928,4.763 -0.438,-1.178 -0.915,-2.343 -1.433,-3.489 -2.52,-1.489 -5.159,-2.786 -7.913,-3.771 m 6.415,0.864 c -0.021,-0.031 -0.04,-0.062 -0.059,-0.094 -0.006,0.026 -0.011,0.051 -0.016,0.076 0.025,0.006 0.049,0.012 0.075,0.018 m -0.093,0.073 c -0.062,0.3 -0.123,0.599 -0.18,0.897 0.118,0.067 0.238,0.131 0.356,0.199 0.278,0.16 0.553,0.326 0.829,0.49 -0.085,-0.177 -0.166,-0.355 -0.253,-0.531 -0.157,-0.317 -0.367,-0.658 -0.588,-1.012 -0.055,-0.014 -0.11,-0.03 -0.164,-0.043 m -1.7,0.036 c 0.14,0.085 0.281,0.17 0.42,0.256 0.278,0.148 0.552,0.298 0.827,0.451 0.041,-0.272 0.08,-0.548 0.119,-0.823 -0.456,-0.106 -0.908,-0.214 -1.355,-0.325 -0.012,0.142 -0.014,0.29 -0.011,0.441 m -0.201,-0.122 c -0.004,-0.124 -0.005,-0.249 0,-0.375 -0.367,-0.094 -0.735,-0.186 -1.097,-0.292 0.369,0.217 0.73,0.446 1.097,0.667 m -1.632,-0.737 c 0.03,0.015 0.062,0.027 0.093,0.041 -0.032,-0.019 -0.063,-0.038 -0.096,-0.057 10e-4,0.005 0.002,0.011 0.003,0.016 m -1.988,-0.788 c 0.004,-0.023 0.007,-0.045 0.011,-0.067 -10e-4,0 -0.002,-10e-4 -0.002,-10e-4 -1.23,-0.573 -2.437,-1.141 -3.67,-1.646 0.369,0.578 0.896,0.906 1.586,0.977 0.65,0.305 1.371,0.51 2.075,0.737 m 0.983,0.19 c -0.2,-0.114 -0.401,-0.223 -0.6,-0.336 -0.004,0.025 -0.009,0.049 -0.013,0.073 0.204,0.09 0.408,0.179 0.613,0.263 m 0.705,0.405 c -0.45,-0.152 -0.898,-0.326 -1.343,-0.519 -0.002,0.013 -0.004,0.025 -0.006,0.039 0.204,0.069 0.408,0.14 0.606,0.22 0.255,0.105 0.506,0.219 0.758,0.33 -0.002,-0.021 -0.003,-0.042 -0.004,-0.064 -0.003,-0.002 -0.007,-0.005 -0.011,-0.006 m 8.248,2.371 -0.006,-0.033 c -0.044,-0.239 -0.086,-0.48 -0.126,-0.72 -0.366,0.024 -0.593,0.157 -0.687,0.396 0.274,0.11 0.547,0.229 0.819,0.357 m 0.599,1.682 c -0.071,0.107 -0.264,0.108 -0.292,-0.038 -0.086,-0.454 -0.17,-0.908 -0.254,-1.362 -0.303,-0.149 -0.608,-0.291 -0.916,-0.427 -0.015,0.188 0.021,0.416 0.117,0.691 0.034,0.124 -0.155,0.175 -0.192,0.052 -0.089,-0.284 -0.107,-0.555 -0.07,-0.807 -0.615,-0.266 -1.243,-0.508 -1.888,-0.718 -0.063,0.348 -0.054,0.722 -0.049,1.025 0.001,0.129 -0.195,0.128 -0.201,0 -0.013,-0.326 -0.016,-0.718 0.046,-1.088 -0.322,-0.101 -0.648,-0.193 -0.978,-0.278 0.161,0.31 0.324,0.618 0.479,0.931 0.104,0.208 0.195,0.422 0.295,0.631 1.416,0.847 2.803,1.742 4.168,2.669 -0.089,-0.427 -0.177,-0.854 -0.265,-1.281 m -0.096,-0.744 c 0.047,-0.121 0.099,-0.236 0.154,-0.35 -0.084,-0.044 -0.167,-0.09 -0.251,-0.133 0.031,0.161 0.065,0.321 0.097,0.483 m -33.515,7.277 c 4.387,0.714 8.755,1.299 12.816,3.211 4.047,1.907 7.657,4.592 11.53,6.809 3.495,2.001 7.145,3.758 10.783,5.5 -0.082,-6.037 -1.144,-12.061 -3.138,-17.758 -0.035,-0.1 -0.074,-0.199 -0.109,-0.299 -2.3,-1.702 -4.634,-3.354 -7.055,-4.881 -5.23,-3.301 -11.011,-5.381 -16.548,-8.032 -1.891,-0.285 -3.781,-0.588 -5.642,-1.035 -3.498,-0.843 -6.853,-2.216 -9.937,-4.062 -0.414,-0.033 -0.827,-0.073 -1.238,-0.134 -1.84,-0.276 -3.641,-0.885 -5.305,-1.752 -0.554,0.005 -1.111,0.016 -1.669,0.039 0.681,3.765 1.152,7.578 1.371,11.381 0.165,2.843 0.204,5.69 0.042,8.503 4.688,0.893 9.391,1.744 14.099,2.51 m 37.581,17.962 c -0.774,-0.307 -1.546,-0.618 -2.315,-0.934 0,0.335 -0.002,0.669 -0.008,1.004 0.758,0.368 1.517,0.732 2.281,1.09 0.022,-0.384 0.034,-0.771 0.042,-1.16 m 8.295,4.828 c 3.562,1.451 7.372,2.764 11.073,4.307 -2.581,-1.492 -5.161,-2.982 -7.742,-4.473 -0.034,-0.021 -0.003,-0.073 0.031,-0.054 3.012,1.7 6.027,3.395 9.04,5.095 2.275,0.994 4.492,2.092 6.561,3.388 0.032,-0.074 0.06,-0.149 0.091,-0.223 -2.818,-2.038 -5.867,-3.77 -8.976,-5.289 -5.903,-2.886 -12.105,-5.099 -18.211,-7.515 0.002,0.395 -0.004,0.789 -0.016,1.183 2.676,1.255 5.387,2.457 8.149,3.581 m 19.009,8.62 c 0.223,0.128 0.449,0.254 0.673,0.381 C 7.462,30.818 7.242,30.68 7.022,30.542 7.017,30.554 7.012,30.566 7.006,30.578 M 6.864,30.442 C 5.679,29.71 4.44,29.036 3.172,28.404 c 1.224,0.693 2.449,1.387 3.672,2.082 0.007,-0.014 0.014,-0.029 0.02,-0.044 M -8.686,47.09 c 0.915,0.334 1.841,0.662 2.778,0.961 0.143,-0.154 0.287,-0.306 0.428,-0.465 -1.07,-0.156 -2.139,-0.32 -3.206,-0.496 m -17.417,-3.774 c 4.319,0.986 8.644,1.947 12.995,2.776 -2.753,-0.817 -5.51,-1.639 -8.283,-2.361 -1.669,-0.434 -3.151,-0.528 -4.712,-0.415 m -4.867,-1.115 c 0.628,0.144 1.257,0.288 1.886,0.433 1.691,-0.274 3.359,-0.687 5.098,-0.545 4.412,0.362 8.81,2.653 12.925,4.132 0.435,0.156 0.874,0.318 1.317,0.481 0.724,0.125 1.449,0.251 2.177,0.366 0.753,0.12 1.503,0.221 2.253,0.323 0.93,-1.072 1.808,-2.242 2.65,-3.515 1.744,-2.635 3.811,-4.903 5.82,-7.33 C 4.657,34.732 5.819,32.77 6.753,30.685 6.379,30.48 6.014,30.277 5.662,30.073 4.1,29.171 2.537,28.268 0.975,27.365 c -4.647,-2.094 -9.562,-3.726 -13.874,-5.501 -2.423,-0.997 -4.85,-2.033 -7.269,-3.11 -0.117,2.582 -0.586,5.129 -1.633,7.55 -2.004,4.64 -5.7,8.715 -9.169,12.319 -0.97,1.009 -1.98,1.976 -3.033,2.888 1.012,0.228 2.023,0.459 3.033,0.69 m -4.143,0.239 c 1.343,0.295 2.713,0.462 4.092,0.408 0.423,-0.016 0.84,-0.062 1.257,-0.117 -1.493,-0.34 -2.986,-0.678 -4.48,-1.012 -0.287,0.244 -0.576,0.486 -0.869,0.721 m -4.293,-0.365 c -0.245,0.091 -0.49,0.182 -0.734,0.27 -3.539,1.274 -7.174,2.197 -10.858,2.893 2.615,0.507 5.173,1.097 7.683,1.801 1.505,-0.582 2.942,-1.254 4.267,-2.021 0.959,-0.557 1.887,-1.172 2.787,-1.832 -1.066,-0.311 -2.115,-0.694 -3.145,-1.111 m 2.331,-0.982 c -1.669,-0.364 -3.34,-0.722 -5.014,-1.062 1.289,0.538 2.582,1.067 3.901,1.524 0.03,-0.012 0.06,-0.023 0.089,-0.034 0.34,-0.138 0.682,-0.284 1.024,-0.428 m -1.036,0.487 c 0.314,0.108 0.63,0.217 0.948,0.316 0.633,0.196 1.274,0.369 1.922,0.515 0.297,-0.235 0.59,-0.474 0.881,-0.718 -0.872,-0.195 -1.744,-0.388 -2.617,-0.578 -0.376,0.159 -0.754,0.314 -1.134,0.465 M -45.43,4.86 c 2.381,1.374 4.759,2.735 7.142,4.074 2.134,1.012 4.252,2.053 6.355,3.124 0.028,0.014 0.004,0.053 -0.022,0.04 -1.354,-0.658 -2.718,-1.29 -4.087,-1.91 4.374,2.425 8.78,4.757 13.275,6.942 0.011,-0.33 0.014,-0.66 0.018,-0.99 -3.969,-1.63 -7.873,-3.4 -11.599,-5.558 -5.798,-3.36 -11.024,-7.672 -17.574,-9.537 -6.242,-1.777 -12.815,-2.728 -19.244,-3.763 2.845,1.072 6.128,1.428 8.975,2.296 3.627,1.104 7.208,2.331 10.749,3.688 2.964,1.136 5.892,2.365 8.791,3.659 -0.971,-0.615 -1.937,-1.239 -2.887,-1.879 -0.113,-0.077 -0.013,-0.255 0.108,-0.186 m -29.893,4.793 c 0.183,-0.456 0.355,-0.916 0.519,-1.38 0.8,-3.736 1.391,-7.524 1.651,-11.328 l -0.006,-0.003 c -0.198,-0.123 -0.138,-0.369 0.031,-0.448 0.172,-2.8 0.161,-5.608 -0.075,-8.411 -0.128,5.65 -1.097,11.26 -2.962,16.508 0.464,1.548 0.751,3.155 0.828,4.766 0.004,0.087 0.009,0.187 0.014,0.296 m 0.383,-30.972 c -0.002,0.014 -0.004,0.028 -0.018,0.04 -0.538,0.5 -0.971,1.083 -1.294,1.743 -0.047,0.098 -0.193,0.012 -0.145,-0.085 0.333,-0.67 0.779,-1.261 1.331,-1.766 0.036,-0.032 0.08,-0.023 0.107,0.003 -0.294,-0.989 -0.623,-1.967 -0.988,-2.933 -0.383,1.284 -1.32,2.546 -2.127,3.608 1.957,2.366 3.901,5.29 2.584,8.416 -1.043,2.475 -2.701,3.467 -2.082,6.512 0.26,1.286 0.807,2.67 0.37,3.987 -0.442,1.327 -0.962,0.809 -0.441,2.758 0.213,0.795 0.782,1.618 1.075,2.41 0.084,0.227 0.163,0.457 0.239,0.688 1.657,-4.776 2.555,-9.826 2.582,-14.928 0.011,-2.016 -0.108,-4.007 -0.332,-5.974 -0.131,-0.129 -0.262,-0.258 -0.394,-0.387 -0.07,-0.069 0.039,-0.179 0.109,-0.108 0.086,0.087 0.172,0.175 0.259,0.263 -0.097,-0.818 -0.208,-1.634 -0.341,-2.444 -0.152,-0.605 -0.318,-1.205 -0.494,-1.803 m -9.214,-10.523 c -0.95,1.668 -1.959,3.305 -2.945,4.952 0.354,0.406 0.652,0.862 0.792,1.302 1.244,-2.623 2.153,-5.327 3.273,-8.085 0.028,-0.072 0.136,-0.047 0.118,0.032 -0.655,2.925 -1.852,5.74 -3.313,8.38 0.02,0.162 0.015,0.319 -0.023,0.469 -0.092,0.357 -0.086,0.297 -0.428,0.473 -0.031,0 -0.062,0.005 -0.093,0.006 -0.38,0.648 -0.771,1.289 -1.176,1.913 -0.028,0.041 -0.093,0.003 -0.067,-0.039 0.388,-0.614 0.734,-1.237 1.064,-1.862 -0.393,0.041 -0.762,0.162 -1.107,0.373 -0.2,2.123 0.08,2.753 0.839,1.887 0.284,-0.166 0.556,-0.422 0.818,-0.685 1.867,-3.937 3.141,-7.927 4.246,-12.116 -1.842,2.484 -3.923,4.787 -6.21,6.862 0.382,0.226 0.844,0.61 1.242,1.061 0.958,-1.659 1.896,-3.332 2.89,-4.969 0.031,-0.051 0.109,-0.006 0.08,0.046 m 3.513,-5.166 c 0.332,0.337 0.648,0.695 0.949,1.072 -0.226,-0.485 -0.458,-0.969 -0.695,-1.451 -0.083,0.128 -0.17,0.253 -0.254,0.379 m 12.493,13.632 c -0.324,-0.229 -0.651,-0.45 -0.994,-0.637 -0.931,-0.509 -1.464,-0.796 -2.061,-0.583 0.846,0.467 1.716,0.866 2.618,1.202 0.146,0.007 0.291,0.01 0.437,0.018 m 40.886,13.155 c 0.649,-0.065 1.259,-0.061 1.84,-0.008 -0.16,-0.089 -0.323,-0.168 -0.484,-0.254 -0.032,0.024 -0.088,0.019 -0.098,-0.028 -0.002,-0.011 -0.009,-0.019 -0.012,-0.03 -0.287,-0.151 -0.574,-0.301 -0.865,-0.443 -0.151,0.022 -0.297,0.072 -0.409,0.152 -0.246,0.175 -0.374,0.445 -0.445,0.742 0.641,0.181 1.277,0.387 1.906,0.632 0.055,-0.188 0.145,-0.361 0.27,-0.518 -0.544,-0.097 -1.109,-0.153 -1.703,-0.152 -0.06,0 -0.057,-0.087 0,-0.093 m 15.936,13.006 c 0.396,0.425 0.878,0.583 1.445,0.471 -0.691,-0.678 -1.494,-1.047 -2.407,-1.108 -0.13,-0.021 -0.226,-0.171 -0.225,-0.295 0.02,-2.457 -3.184,-2.479 -4.569,-3.602 -0.676,-0.548 -1.108,-1.253 -1.485,-2.002 0.001,0.056 0.003,0.113 0.002,0.168 -0.005,0.21 -0.304,0.204 -0.323,0 -0.011,-0.287 -0.058,-0.566 -0.139,-0.838 -0.142,-0.728 -0.792,-0.912 -1.951,-0.55 -0.061,0.157 -0.349,0.216 -0.38,0 -0.103,-0.716 -0.257,-1.41 -0.451,-2.102 -0.042,-0.026 -0.084,-0.053 -0.127,-0.079 -0.302,0.426 -0.605,0.852 -0.908,1.278 -0.113,0.159 -0.404,0.071 -0.336,-0.141 0.097,-0.297 0.304,-1.041 0.341,-1.685 -0.372,-0.218 -0.748,-0.429 -1.128,-0.632 -0.137,0.327 -0.219,0.719 -0.272,0.926 0.108,0.46 0.216,0.919 0.321,1.38 1.657,1.126 3.287,2.294 4.91,3.464 0.309,0.223 0.618,0.445 0.927,0.667 2.111,1.464 4.214,2.941 6.304,4.437 0.149,0.087 0.298,0.17 0.451,0.243 m -3.885,1.972 c -2.563,-1.865 -5.076,-3.808 -7.602,-5.731 0.531,2.588 1.016,5.188 1.449,7.786 -0.486,-2.638 -1.03,-5.264 -1.583,-7.888 -0.978,-0.743 -1.958,-1.483 -2.945,-2.214 0.12,0.335 0.237,0.671 0.349,1.008 1.167,3.511 1.983,7.139 2.439,10.811 0.249,2.004 0.416,4.095 0.471,6.215 0.479,0.229 0.958,0.458 1.436,0.687 0.296,0.142 0.596,0.281 0.896,0.422 -0.034,-1.604 -0.176,-3.243 -0.419,-4.926 -0.198,-1.369 -0.416,-2.742 -0.644,-4.115 0.171,0.929 0.336,1.859 0.489,2.792 0.341,2.073 0.616,4.193 0.709,6.312 8.714,4.039 19.443,7.398 27.484,13.42 C 7.719,28.314 8.076,27.267 8.39,26.19 8.777,24.862 9.229,23.417 9.617,21.937 7.938,20.594 6.188,19.331 4.397,18.134 -2.168,13.745 -8.825,9.403 -15.211,4.757 m 15.444,6.639 c -0.136,-0.106 -0.272,-0.215 -0.409,-0.322 0.037,0.425 0.09,0.745 0.165,0.755 0.063,0.008 0.151,-0.17 0.244,-0.433 m 1.134,0.742 C 1.315,10.602 1.337,9.071 1.446,7.546 c -0.3,1.3 -0.642,2.59 -1.026,3.873 0.316,0.238 0.633,0.477 0.947,0.719 M 0.39,11.52 c -0.127,0.421 -0.259,0.843 -0.396,1.263 -0.021,0.065 -0.077,0.083 -0.128,0.07 0.531,0.293 1.06,0.592 1.585,0.896 C 1.417,13.263 1.39,12.778 1.371,12.293 1.047,12.033 0.718,11.777 0.39,11.52 m 3.941,3.027 C 4.062,12.99 3.886,11.429 3.826,9.855 3.57,10.987 3.177,12.082 2.645,13.141 3.216,13.6 3.777,14.069 4.331,14.547 M 3.106,13.706 C 2.932,13.561 2.752,13.418 2.576,13.274 2.429,13.561 2.274,13.845 2.105,14.126 2.923,14.607 3.73,15.104 4.526,15.621 4.473,15.355 4.427,15.089 4.379,14.824 3.965,14.442 3.543,14.067 3.106,13.706 m 2.97,-6.157 c -0.43,0.914 -0.359,2.35 -0.33,3.368 0.002,0.06 0.029,0.243 0.076,0.506 C 5.951,10.348 6.049,9.438 6.061,9.135 6.069,8.917 6.243,7.991 6.266,7.553 6.225,7.508 6.185,7.463 6.144,7.419 6.123,7.453 6.102,7.495 6.076,7.549 m 4.911,5.988 C 10.248,12.266 9.495,11.006 8.707,9.779 8.012,8.695 7.227,7.708 6.378,6.792 6.378,6.872 6.377,6.951 6.377,7.031 6.947,7.637 7.416,8.323 7.806,9.063 7.921,9.032 8.06,9.094 8.072,9.256 8.083,9.392 8.09,9.527 8.099,9.664 8.139,9.751 8.183,9.837 8.221,9.927 8.184,9.874 8.144,9.823 8.106,9.771 8.107,9.79 8.108,9.808 8.11,9.827 c 0.055,0.078 0.111,0.156 0.163,0.234 0.32,0.774 0.565,1.594 0.762,2.432 C 9.03,12.354 9.021,12.218 9.019,12.08 9.016,11.911 9.153,11.809 9.296,11.792 8.999,11.203 8.656,10.628 8.273,10.061 8.256,10.017 8.239,9.971 8.221,9.927 c 0.424,0.596 0.805,1.218 1.131,1.866 0.115,0.006 0.221,0.068 0.249,0.208 0.033,0.174 0.06,0.348 0.089,0.522 0.234,0.557 0.42,1.135 0.55,1.737 0.057,0.266 0.1,0.537 0.134,0.81 -0.126,-0.806 -0.348,-1.566 -0.64,-2.297 0.172,1.061 0.275,2.116 0.301,3.173 0.106,0.536 0.236,1.066 0.381,1.593 0.062,-0.84 0.059,-1.668 -0.042,-2.469 0.129,0.825 0.164,1.697 0.086,2.632 0.205,0.722 0.443,1.436 0.724,2.143 -0.067,-1.974 -0.27,-3.918 -0.631,-5.885 -0.054,-0.292 0.217,-0.468 0.434,-0.423 M 9.835,22.111 C 9.795,22.078 9.753,22.046 9.712,22.013 9.175,24.52 8.456,27.064 7.485,29.46 c 0.596,0.452 1.177,0.917 1.741,1.399 0.466,-2.887 0.65,-5.823 0.609,-8.748 m 0.577,10.584 c -0.029,-0.017 -0.059,-0.034 -0.089,-0.051 0.145,0.119 0.294,0.232 0.436,0.354 -0.113,-0.104 -0.233,-0.201 -0.347,-0.303 m -9.583,16.59 c 1.04,-0.002 2.08,-0.114 3.117,-0.375 0.154,-0.039 0.302,-0.087 0.453,-0.131 -0.937,-0.13 -1.879,-0.23 -2.82,-0.327 -0.245,0.282 -0.495,0.56 -0.75,0.833 m 0.483,-0.861 c -0.391,-0.04 -0.784,-0.081 -1.173,-0.122 -1.772,-0.188 -3.537,-0.416 -5.299,-0.67 -0.056,0.07 -0.109,0.141 -0.165,0.21 -0.088,0.106 -0.181,0.206 -0.271,0.309 2.013,0.625 4.068,1.089 6.125,1.129 C 0.796,49 1.057,48.714 1.312,48.424 m -18.366,8.01 c 2.749,-0.122 5.497,-0.376 8.231,-0.694 0.109,-0.012 0.219,-0.03 0.328,-0.043 0.246,-0.108 0.489,-0.222 0.732,-0.338 -3.847,0.241 -7.729,0.134 -11.588,-0.254 -1.231,0.193 -2.47,0.318 -3.717,0.384 1.104,0.415 2.229,0.768 3.384,1.019 0.877,-0.013 1.754,-0.035 2.63,-0.074 M -4.92,55.117 c -0.732,0.08 -1.466,0.148 -2.2,0.201 -0.179,0.09 -0.359,0.178 -0.539,0.265 0.915,-0.138 1.827,-0.304 2.739,-0.466 M -52.195,45.42 c 0.21,-0.037 0.421,-0.076 0.631,-0.115 -0.576,-0.113 -1.152,-0.223 -1.728,-0.332 0.364,0.15 0.73,0.298 1.097,0.447 M -82.97,36.131 c 2.799,1.402 5.618,2.757 8.573,3.817 5.431,1.95 11.093,3.048 16.762,4.073 -6.094,-2.583 -12.159,-5.3 -18.665,-6.641 -2.198,-0.452 -4.445,-0.815 -6.67,-1.249 m -11.829,-4.917 c 0.753,0.594 1.629,1.075 2.481,1.509 1.88,0.958 3.864,1.612 5.896,2.116 -0.818,-0.397 -1.64,-0.79 -2.465,-1.174 -1.57,-0.732 -3.153,-1.437 -4.776,-2.045 -0.318,-0.119 -2.263,-1.294 -1.136,-0.406 m 10.001,3.998 c 3.244,0.681 6.577,1.072 9.785,1.737 6.733,1.396 12.971,4.37 19.278,7.009 0.575,0.24 1.15,0.479 1.726,0.717 0.931,0.17 1.861,0.341 2.788,0.519 0.043,0.008 0.085,0.017 0.127,0.025 3.955,-0.744 7.853,-1.753 11.627,-3.168 -0.371,-0.15 -0.74,-0.303 -1.106,-0.459 -1.77,-0.752 -3.515,-1.572 -5.295,-2.298 -0.31,-0.058 -0.619,-0.12 -0.929,-0.176 -7.352,-1.337 -15.306,-1.42 -22.075,-4.879 -3.461,-1.768 -6.559,-4.161 -10.028,-5.913 -1.843,-0.93 -5.751,-1.573 -5.672,-4.283 0.007,-0.205 0.179,-0.308 0.367,-0.279 3.834,0.579 7.182,3.365 10.418,5.343 3.88,2.371 7.888,4.714 12.266,6.039 4.181,1.265 8.597,1.311 12.807,2.44 1.832,0.493 3.591,1.187 5.339,1.912 2.244,0.447 4.483,0.926 6.719,1.42 1.513,-0.652 3.025,-1.38 4.444,-2.241 -1.371,0.862 -2.843,1.6 -4.359,2.261 0.819,0.181 1.638,0.363 2.457,0.547 2.037,-1.738 3.917,-3.696 5.664,-5.735 -1.112,1.134 -2.391,2.095 -3.762,2.927 1.722,-1.083 3.285,-2.359 4.587,-3.908 0.002,-0.002 0.004,-0.004 0.006,-0.006 0.433,-0.516 0.838,-1.062 1.209,-1.64 -0.161,0.264 -0.332,0.524 -0.509,0.78 0.56,-0.695 1.107,-1.395 1.638,-2.094 3.137,-4.126 4.59,-8.476 4.916,-13.144 -0.757,-0.338 -1.513,-0.683 -2.268,-1.03 -0.12,4.506 -0.825,9.027 -2.482,13.026 -0.366,0.884 -0.805,1.699 -1.295,2.462 2.073,-3.401 2.86,-7.504 3.311,-11.403 0.16,-1.38 0.26,-2.766 0.314,-4.154 C -28.877,14.764 -34.881,11.681 -40.583,8.21 -44.781,6.454 -49.044,4.856 -53.36,3.404 -56.804,2.246 -60.271,1.15 -63.766,0.16 c -2.679,-0.76 -5.716,-1.345 -8.27,-2.602 -0.352,4.791 -1.32,9.466 -3.29,13.831 -0.082,1.194 -0.393,2.412 -1.335,2.632 -0.501,0.885 -1.047,1.754 -1.647,2.605 -4.036,5.735 -10.331,10.714 -17.367,13.761 3.782,1.263 7.333,3.036 10.877,4.825 m -33.965,-5.673 c -0.178,0.461 -0.331,0.635 -0.792,0.779 4.473,1.596 9.425,2.1 14.049,1.662 -2.32,-0.271 -4.638,-1.207 -7.026,-1.296 -0.072,-0.002 -0.142,-0.061 -0.139,-0.139 0.062,-1.346 -2.69,-0.445 -3.439,-0.712 -0.908,-0.322 -1.113,-1.34 -1.856,-1.776 -1.263,-0.742 -0.505,0.725 -0.797,1.482 m -13.339,-32.315 c -0.133,-0.077 -0.267,-0.153 -0.398,-0.232 0.103,0.196 0.211,0.388 0.321,0.58 0.028,-0.116 0.054,-0.232 0.077,-0.348 m 0.089,3.149 c -0.136,-0.152 -0.258,-0.312 -0.383,-0.471 -0.019,0.06 -0.037,0.119 -0.057,0.179 -0.108,0.331 -0.201,0.648 -0.283,0.957 0.675,-0.372 1.372,-0.732 2.069,-1.096 -0.443,-0.497 -0.883,-1.026 -1.287,-1.582 -0.118,0.499 -0.268,1 -0.432,1.51 0.124,0.166 0.246,0.333 0.384,0.492 0.006,0.007 -0.005,0.018 -0.011,0.011 m -0.642,-3.673 c 0.197,0.105 0.392,0.213 0.588,0.321 0.12,-0.715 0.147,-1.443 -0.007,-2.196 -0.022,-0.106 0.134,-0.151 0.163,-0.045 0.228,0.838 0.252,1.634 0.163,2.421 0.292,0.167 0.581,0.338 0.858,0.521 0.076,0.049 0.011,0.158 -0.069,0.119 -0.273,-0.132 -0.543,-0.276 -0.811,-0.426 -0.03,0.215 -0.068,0.43 -0.114,0.645 0.411,0.633 0.862,1.237 1.344,1.815 0.408,-0.213 0.813,-0.431 1.216,-0.652 -1.088,-1.427 -2.049,-3.003 -2.632,-4.699 -0.384,0.431 -0.782,0.85 -1.191,1.257 0.169,0.303 0.332,0.61 0.492,0.919 m -0.92,-0.499 c 0.16,0.089 0.32,0.176 0.482,0.262 -0.08,-0.169 -0.159,-0.339 -0.227,-0.511 -0.085,0.083 -0.169,0.167 -0.255,0.249 m 3.541,-4.144 c 0.798,1.628 1.596,3.256 2.393,4.884 0.018,0.036 -0.035,0.067 -0.052,0.031 -0.797,-1.615 -1.593,-3.23 -2.39,-4.845 -0.294,0.437 -0.604,0.866 -0.932,1.282 0.015,0.006 0.029,0.017 0.036,0.035 0.467,1.127 0.999,2.273 1.612,3.365 -0.638,-1.058 -1.228,-2.141 -1.721,-3.309 -0.257,0.322 -0.525,0.637 -0.799,0.947 0.755,1.678 1.551,3.258 2.627,4.74 0.228,-0.126 0.456,-0.25 0.68,-0.381 -0.22,0.135 -0.446,0.263 -0.672,0.393 0.1,0.136 0.198,0.274 0.303,0.409 0.024,0.031 -0.019,0.075 -0.043,0.043 -0.109,-0.136 -0.216,-0.276 -0.322,-0.416 -0.398,0.228 -0.799,0.451 -1.206,0.666 0.223,0.267 0.452,0.531 0.687,0.788 0.047,0.051 -0.027,0.126 -0.076,0.076 -0.241,-0.253 -0.488,-0.521 -0.735,-0.797 -0.705,0.372 -1.411,0.729 -2.094,1.077 -0.665,2.492 -0.477,4.347 1.187,6.689 0.947,1.333 1.568,2.511 1.267,4.16 -0.179,0.978 -0.686,1.87 -1.065,2.776 -0.368,0.881 -0.721,1.821 -0.789,2.785 0.2,0.594 0.413,1.182 0.648,1.762 0.09,0.221 0.176,0.443 0.261,0.665 0.292,0.449 0.587,0.896 0.888,1.34 0.475,0.144 1.039,0.222 1.717,0.215 0.015,-0.026 0.054,-0.003 0.039,0.023 -0.279,0.505 -0.653,0.746 -1.05,0.791 1.299,1.844 2.7,3.604 4.278,5.156 0.078,0.054 0.161,0.101 0.241,0.155 -0.076,-0.071 -0.154,-0.139 -0.224,-0.213 -1.819,-1.935 -0.374,-4.856 -0.784,-7.169 -0.004,-0.02 0.026,-0.028 0.029,-0.009 0.422,2.253 -0.936,5.187 0.827,7.105 0.281,0.306 0.703,0.629 1.165,0.931 0.587,0.348 1.194,0.664 1.811,0.964 0.072,0.03 0.148,0.063 0.216,0.088 1.205,0.447 2.713,0.719 2.985,-1.271 -0.072,0.531 -0.123,-2.265 -0.088,-0.994 -0.002,-0.064 0.073,-0.104 0.127,-0.073 0.489,0.29 0.82,0.585 1.21,1.011 1.244,1.357 0.871,1.471 3.473,1.548 0.822,0.025 0.941,-0.194 1.689,0.2 0.148,0.077 0.201,0.384 0.298,0.439 0.705,0.398 1.502,0.387 2.283,0.541 2.223,0.437 4.296,1.281 6.472,1.084 0.261,-0.04 0.523,-0.076 0.78,-0.122 0.074,-0.013 0.146,-0.029 0.219,-0.043 0.355,-0.089 0.713,-0.208 1.076,-0.368 0.046,-0.02 0.088,-0.016 0.125,0.001 2.471,-0.997 4.837,-2.279 7.02,-3.709 8.343,-5.462 14.56,-13.655 17.896,-22.921 -0.363,-1.336 -0.719,-2.385 -0.887,-2.752 -0.291,-0.635 -0.875,-1.381 -0.759,-2.151 0.026,-0.178 0.182,-0.334 0.224,-0.509 0.328,-1.365 0.819,-1.996 0.522,-3.542 -0.387,-2.013 -0.95,-3.57 0.135,-5.475 1.117,-1.963 2.262,-3.229 1.912,-5.751 -0.258,-1.857 -1.559,-3.575 -2.763,-5.042 -0.029,0.039 -0.06,0.079 -0.089,0.117 -0.053,0.069 -0.172,0.003 -0.119,-0.069 0.039,-0.054 0.074,-0.11 0.112,-0.164 -0.172,-0.209 -0.341,-0.413 -0.506,-0.612 -0.031,-0.037 0.022,-0.091 0.054,-0.054 0.166,0.193 0.334,0.392 0.502,0.594 0.393,-0.556 0.766,-1.124 1.102,-1.716 0.367,-0.65 0.631,-1.382 1.036,-2.006 -0.236,-0.614 -0.482,-1.223 -0.747,-1.826 -0.014,-0.032 -0.031,-0.061 -0.045,-0.093 -0.481,1.835 -1.335,3.588 -2.281,5.219 -0.03,0.051 -0.107,0.006 -0.08,-0.046 0.933,-1.759 1.575,-3.584 2.227,-5.452 -0.307,-0.66 -0.64,-1.297 -0.994,-1.916 -0.417,2.424 -1.569,4.867 -2.639,7.051 -0.039,0.08 -0.157,0.01 -0.119,-0.07 1.109,-2.356 1.726,-4.795 2.633,-7.206 -0.245,-0.42 -0.498,-0.832 -0.758,-1.24 -0.501,2.816 -1.511,5.545 -2.762,8.106 -0.007,0.018 -0.034,0.002 -0.026,-0.016 1.272,-2.696 2.054,-5.416 2.662,-8.285 -0.305,-0.473 -0.615,-0.941 -0.93,-1.406 -0.307,3.064 -1.428,6.05 -2.887,8.737 -0.025,0.043 -0.089,0.005 -0.067,-0.039 1.523,-2.926 2.252,-5.83 2.747,-9.005 -0.338,-0.5 -0.677,-1 -1.014,-1.503 -0.833,3.348 -1.971,6.618 -3.286,9.805 -0.023,0.053 -0.111,0.03 -0.089,-0.025 1.314,-3.279 2.338,-6.611 3.217,-10.017 -0.234,-0.351 -0.465,-0.704 -0.693,-1.062 -0.808,4.199 -2.396,8.259 -4.366,12.043 0.176,-0.178 0.348,-0.354 0.515,-0.504 0.014,-0.012 0.036,0.008 0.021,0.022 -0.177,0.163 -0.396,0.416 -0.641,0.686 -0.036,0.07 -0.071,0.142 -0.108,0.212 -0.004,0.008 -0.018,0 -0.013,-0.008 0.023,-0.048 0.043,-0.096 0.066,-0.143 -0.532,0.584 -1.176,1.221 -1.766,1.189 -0.708,-0.039 -0.921,-0.831 -0.804,-1.402 0.179,-0.871 0.918,-1.29 1.652,-1.617 0.439,-0.196 0.294,0.09 0.679,-0.384 0.018,-0.023 0.029,-0.044 0.044,-0.066 0.042,-0.084 0.089,-0.167 0.13,-0.251 0.101,-0.334 -0.078,-0.635 -0.303,-1.04 -0.113,-0.203 -0.24,-0.388 -0.376,-0.56 -0.01,0.016 -0.036,10e-4 -0.027,-0.016 0.002,-0.002 0.003,-0.005 0.005,-0.008 -0.358,-0.444 -0.791,-0.806 -1.247,-1.17 -1.106,0.996 -2.256,1.943 -3.453,2.826 -2.81,2.071 -5.839,3.886 -9.002,5.491 0.039,-0.006 0.076,-0.015 0.116,-0.02 1.226,-0.164 2.454,0.097 3.682,-0.157 0.887,-0.183 1.724,-0.609 2.636,-0.685 2.572,-0.214 3.442,1.712 2.182,3.745 -2.139,3.455 -5.977,5.745 -9.33,7.844 -0.008,0.005 -0.015,-0.008 -0.007,-0.013 2.153,-1.377 4.332,-2.764 6.233,-4.484 0.818,-0.741 2.507,-2.098 2.774,-3.099 0.541,-0.589 0.368,-1.245 -0.518,-1.969 0.028,-1.361 -0.413,-1.888 -1.326,-1.58 -0.647,0.004 -1.27,0.301 -1.879,0.476 -0.69,0.197 -1.332,0.341 -2.047,0.375 -0.549,0.026 -1.185,-0.114 -1.731,-0.026 -1.034,0.167 -2.683,1.422 -2.944,2.424 -0.333,1.274 0.267,2.654 0.401,3.927 0.141,1.324 -0.184,2.636 0.363,3.927 0.026,0.062 -0.065,0.118 -0.093,0.054 -0.714,-1.626 -0.369,-3.588 -0.742,-5.318 -0.272,-1.254 -0.664,-2.616 -0.062,-3.849 0.126,-0.258 0.277,-0.478 0.449,-0.667 -2.026,0.961 -4.1,1.838 -6.2,2.645 1.131,0.014 2.275,0.129 3.283,0.163 0.041,0.001 0.085,0.029 0.094,0.072 0.109,0.514 0.202,1.027 0.285,1.542 -0.072,-0.293 -0.167,-0.556 -0.301,-0.757 -0.587,-0.886 -2.585,-0.895 -4.152,-0.719 -1,0.375 -2.006,0.732 -3.014,1.075 -0.278,0.239 -0.551,0.491 -0.881,0.714 0.171,-0.116 -0.921,0.473 -0.814,0.326 -1.014,1.385 2.885,4.305 3.779,4.943 0.047,0.034 0.005,0.11 -0.047,0.079 -1.453,-0.861 -2.689,-1.955 -3.642,-3.359 -0.386,-0.568 -0.978,-1.151 -0.546,-1.782 0.081,-0.118 0.248,-0.236 0.445,-0.354 -1.87,0.603 -3.746,1.159 -5.614,1.67 0.191,0.413 0.103,0.956 -0.16,1.338 -0.356,0.516 -0.91,0.771 -1.472,1.022 -0.168,0.328 -0.529,0.561 -0.958,0.525 -0.011,-0.001 -0.018,-0.006 -0.028,-0.007 -0.155,0.107 -0.304,0.223 -0.432,0.367 -0.066,0.074 -0.171,-0.034 -0.108,-0.108 0.085,-0.102 0.204,-0.203 0.346,-0.305 -0.36,-0.106 -0.593,-0.366 -0.864,-0.652 -0.161,-0.171 -0.646,-0.757 -0.931,-0.29 -0.052,0.085 0.105,0.485 0.125,0.576 0.09,0.423 0.182,0.845 0.274,1.267 0.013,0.058 -0.072,0.081 -0.089,0.024 -0.202,-0.676 -0.404,-1.353 -0.606,-2.029 -0.018,-0.057 0.011,-0.112 0.058,-0.144 0.355,-0.243 0.745,-0.131 1.052,0.147 0.248,0.226 0.38,0.563 0.641,0.775 0.146,0.12 0.32,0.188 0.497,0.218 0.32,-0.21 0.719,-0.423 1.104,-0.65 0.019,-0.161 -0.015,-0.344 -0.129,-0.549 -0.009,-0.017 0.017,-0.032 0.027,-0.015 0.106,0.186 0.136,0.377 0.114,0.557 0.913,-0.539 1.742,-1.157 1.242,-1.988 -0.522,0.141 -1.046,0.282 -1.567,0.417 -1.401,0.363 -2.832,0.659 -4.278,0.873 0.271,0.09 0.497,0.309 0.589,0.634 0.026,0.09 -0.112,0.153 -0.154,0.065 -0.179,-0.373 -0.585,-0.541 -0.958,-0.398 0.602,1.115 1.176,2.241 1.745,3.372 0.027,0.052 -0.049,0.098 -0.079,0.046 -0.68,-1.13 -1.352,-2.26 -1.998,-3.41 -0.038,-0.07 -0.015,-0.154 0.05,-0.198 -0.482,0.06 -0.965,0.107 -1.449,0.147 -0.408,0.979 -0.917,1.915 -1.51,2.806 m -25.486,-51.68 c -0.797,1.189 -1.619,2.392 -2.394,3.622 -2.402,5.946 -3.104,12.552 -1.742,18.898 0.086,0.401 0.191,0.79 0.292,1.182 -0.069,-0.582 -0.101,-1.166 -0.085,-1.751 0.034,-1.275 0.357,-2.518 1.082,-3.576 1.366,-1.991 3.945,-2.993 3.805,-5.821 -0.176,-3.585 -2.634,-5.979 -0.96,-9.595 0.467,-1.009 1.068,-1.937 1.355,-3.027 0.2,-0.754 0.124,-1.581 0.352,-2.327 0.022,-0.071 0.049,-0.134 0.073,-0.202 -0.602,0.86 -1.194,1.727 -1.778,2.597 m 26.478,-18.872 c -6.852,1.848 -13.606,4.686 -19.089,9.187 -1.57,1.693 -3.011,3.499 -4.377,5.363 0.326,-0.255 0.698,-0.48 1.126,-0.695 4.036,-2.025 8.545,-3.149 12.509,-5.312 2.158,-1.176 2.309,-3.024 3.787,-4.697 0.95,-1.076 2.326,-1.485 3.676,-1.808 2.157,-0.514 3.977,-0.921 5.726,-2.403 0.272,-0.23 0.536,-0.467 0.799,-0.702 -1.399,0.339 -2.789,0.698 -4.157,1.067 m -23.74,14.787 c 1.282,-1.77 2.627,-3.491 4.084,-5.118 -1.514,1.298 -2.931,2.72 -4.212,4.299 -2.034,2.508 -3.675,5.305 -4.901,8.267 0.443,-0.7 0.899,-1.394 1.354,-2.084 0.928,-1.407 1.869,-2.811 2.839,-4.194 0.211,-0.47 0.49,-0.847 0.836,-1.17 m 30.189,-17.492 c 0.12,-0.183 0.232,-0.371 0.328,-0.569 -8.63,2.427 -17.318,4.334 -24.048,10.621 4.031,-2.85 8.589,-5.015 13.31,-6.753 3.227,-1.189 6.532,-2.163 9.868,-3.015 0.174,-0.103 0.355,-0.197 0.542,-0.284 m 0.498,0.025 c 0.448,-0.11 0.894,-0.219 1.342,-0.325 -0.455,0.061 -0.903,0.166 -1.342,0.325 m 7.486,-2.727 c -0.313,0.233 -0.598,-0.09 -0.858,-0.97 -0.39,0.075 -0.127,1.738 -0.057,2.244 0.473,-0.08 0.945,-0.151 1.417,-0.213 -0.204,-0.359 -0.373,-0.71 -0.502,-1.061 m 1.768,-0.751 c -0.441,-0.333 -0.882,-0.665 -1.323,-0.998 -0.535,-0.048 -0.633,0.21 -0.292,0.776 0.231,0.323 0.242,0.573 0.06,0.761 0.258,0.365 0.483,0.765 0.684,1.224 0.869,-0.106 1.735,-0.188 2.602,-0.24 -0.562,-0.525 -1.129,-1.04 -1.731,-1.523 m 1.108,-0.686 c 0.286,0.721 0.654,1.377 1.187,2.022 0.042,0.051 0.058,0.104 0.062,0.157 0.452,-0.021 0.904,-0.037 1.356,-0.045 -0.825,-0.774 -1.688,-1.483 -2.605,-2.134 m 2.672,0.864 c 0.205,0.29 0.436,0.58 0.713,0.893 0.106,0.12 0.121,0.253 0.09,0.372 0.229,0 0.457,0.002 0.687,0.005 -0.497,-0.423 -0.994,-0.846 -1.49,-1.27 m 3.802,-0.729 c -0.221,-0.052 -0.443,-0.109 -0.666,-0.159 0.105,0.096 0.214,0.189 0.318,0.287 0.102,-0.073 0.223,-0.118 0.348,-0.128 m -1.807,0.273 c 0.315,0.615 0.69,1.197 1.138,1.774 0.224,0.01 0.449,0.023 0.673,0.035 -0.579,-0.628 -1.181,-1.231 -1.811,-1.809 m -3.868,-1.35 c -0.363,-0.052 -0.726,-0.096 -1.089,-0.142 0.502,0.322 0.987,0.657 1.459,1.006 -0.121,-0.243 -0.237,-0.489 -0.344,-0.749 -0.018,-0.041 -0.021,-0.078 -0.026,-0.115 m -5.165,1.634 c 0.019,0.049 0.252,0.697 0.362,1.1 -0.096,-0.57 -0.287,-1.729 -0.299,-1.855 -0.015,-0.155 0.176,-0.187 0.272,-0.113 0.357,0.276 0.663,0.556 0.934,0.855 -0.114,-0.517 -0.163,-1.058 -0.149,-1.661 0.003,-0.155 0.182,-0.279 0.323,-0.186 0.887,0.589 1.729,1.21 2.548,1.867 -0.264,-0.471 -0.491,-0.965 -0.669,-1.515 -0.044,-0.135 0.008,-0.263 0.101,-0.351 -1.584,-0.184 -3.162,-0.313 -4.723,-0.39 0.531,0.686 0.978,1.421 1.3,2.249 m 0.323,2.064 c -0.121,-1.033 -0.453,-2.037 -0.986,-2.93 -0.4,-0.672 -1.237,-2.544 -1.05,-0.378 0.103,1.185 0.526,2.386 0.977,3.508 0.354,-0.072 0.706,-0.139 1.059,-0.2 m -3.667,-4.385 c 0.545,0.743 0.962,1.566 1.273,2.465 0.016,0.047 -0.057,0.065 -0.074,0.021 -0.365,-0.915 -0.836,-1.737 -1.463,-2.49 -0.229,-0.005 -0.456,-0.008 -0.683,-0.01 0.048,0.445 0.217,1.082 0.272,1.406 0.103,0.612 0.235,1.216 0.38,1.816 0.19,-0.02 0.412,0.133 0.356,0.379 -0.041,0.18 -0.083,0.36 -0.124,0.541 0.091,0.328 0.187,0.654 0.288,0.98 0.581,-0.133 1.162,-0.264 1.744,-0.392 0.157,-0.034 0.312,-0.064 0.467,-0.096 -0.563,-1.347 -0.956,-2.715 -1.188,-4.149 -0.009,0.002 -0.02,0.003 -0.031,-0.003 -0.245,-0.13 -0.531,-0.297 -0.83,-0.46 -0.13,-0.004 -0.258,-0.005 -0.387,-0.008 m -2.762,5.6 c 0.916,-0.339 1.846,-0.456 2.784,-0.446 0.004,-0.001 0.009,-0.002 0.014,-0.004 -0.078,-0.247 -0.154,-0.496 -0.226,-0.745 -0.035,0.029 -0.073,0.055 -0.116,0.068 -0.807,0.241 -1.615,0.473 -2.425,0.701 -0.092,0.189 -0.195,0.37 -0.307,0.546 0.091,-0.04 0.18,-0.084 0.276,-0.12 m 0.592,-4.72 c 0.109,0.738 0.126,1.492 0.036,2.233 -0.066,0.54 -0.194,1.055 -0.375,1.542 0.967,-0.289 1.855,-0.679 1.978,-1.231 0.01,-0.044 0.028,-0.079 0.049,-0.109 -0.271,-1.096 -0.484,-2.206 -0.634,-3.332 -0.363,-0.002 -0.722,0 -1.082,0.003 -0.045,0.246 -0.023,0.551 0.028,0.894 m 12.122,0.031 c 0.402,0.329 0.806,0.658 1.208,0.989 -0.127,-0.272 -0.244,-0.553 -0.354,-0.838 -0.285,-0.052 -0.569,-0.103 -0.854,-0.151 m 11.923,3.799 v 0 c -0.033,-0.178 -0.005,-0.343 0.06,-0.483 -0.959,-0.392 -1.935,-0.754 -2.925,-1.086 0.912,0.373 2.776,1.102 2.865,1.569 m 82.692,71.387 c 0.159,0.152 0.32,0.302 0.476,0.457 -0.172,-0.166 -0.35,-0.327 -0.527,-0.488 -0.222,-0.135 -0.442,-0.272 -0.666,-0.407 -18.994,-11.428 -39.343,-22.176 -61.214,-26.732 0.281,0.106 0.559,0.214 0.839,0.321 -0.329,-0.108 -0.657,-0.22 -0.986,-0.325 -0.014,-0.005 -0.017,-0.018 -0.015,-0.029 -0.315,-0.065 -0.632,-0.128 -0.947,-0.191 0.429,0.377 0.771,0.896 1.058,1.482 1.198,2.452 1.714,5.511 2.342,8.154 0.136,0.571 0.264,1.145 0.39,1.719 0.783,0.18 1.564,0.368 2.344,0.571 0.352,0.092 0.277,0.631 -0.086,0.633 -0.38,0.002 -0.759,-0.002 -1.139,-0.004 0.432,0.3 0.87,0.573 1.313,0.833 1.207,-0.101 2.659,0.655 3.979,1.521 1.328,0.079 2.653,0.204 3.973,0.376 4.466,0.584 8.855,1.678 13.114,3.134 3.995,1.366 7.858,3.061 11.613,4.976 3.014,0.384 5.919,1.112 8.712,2.166 -0.042,-0.165 -0.07,-0.33 -0.082,-0.492 -0.077,-1.149 0.843,-2.351 1.947,-1.434 0.007,0.006 -0.004,0.017 -0.011,0.011 -0.8,0.733 -1.221,1.444 -1.29,2.136 0.953,0.376 1.893,0.79 2.821,1.24 0.409,-0.049 0.85,0.117 0.99,0.501 0.255,0.132 0.511,0.264 0.765,0.403 0.047,-0.034 0.092,-0.068 0.144,-0.099 0.074,-0.041 0.185,-0.005 0.204,0.084 0.014,0.068 0.027,0.138 0.042,0.207 0.517,0.088 1.006,0.226 1.472,0.403 0.076,-0.028 0.176,-0.005 0.212,0.072 0.002,0.004 0.004,0.008 0.005,0.012 2.159,0.897 3.781,2.718 5.1,5.009 0.282,0.213 0.562,0.427 0.842,0.641 0.061,0.047 0.003,0.153 -0.062,0.106 -0.194,-0.14 -0.39,-0.28 -0.584,-0.419 0.896,1.519 1.92,2.094 3.437,2.935 0.661,0.367 1.378,0.73 1.854,1.342 0.604,0.776 0.522,1.315 1.41,1.855 0.838,0.51 1.418,0.751 2.102,1.558 0.135,0.16 0.117,0.381 -0.065,0.499 -0.181,0.118 -0.378,0.183 -0.581,0.224 0.869,0.627 1.739,1.252 2.607,1.881 -0.879,-0.629 -1.764,-1.251 -2.65,-1.872 -1.939,0.345 -4.694,-2.471 -6.052,-3.426 -2.657,-1.871 -5.266,-3.812 -7.947,-5.65 0.252,1.125 0.492,2.255 0.728,3.387 2.75,2.089 5.486,4.196 8.314,6.177 2.74,1.92 5.648,3.535 8.581,5.099 10e-4,-0.352 -0.001,-0.703 -0.013,-1.054 0.026,0.086 0.051,0.174 0.086,0.245 0.332,0.659 0.299,0.005 0.596,-0.54 0.114,-0.209 0.213,-0.433 0.306,-0.663 -0.266,0.722 -0.547,1.421 -0.826,2.091 1.907,1.016 3.825,2.013 5.714,3.058 -0.015,-0.017 -0.028,-0.04 -0.03,-0.068 -0.053,-0.608 -0.097,-1.214 -0.137,-1.821 -0.578,-0.449 -1.159,-0.893 -1.743,-1.335 -0.18,0.222 -0.357,0.349 -0.521,0.336 -0.154,0.203 -0.322,0.399 -0.511,0.587 -0.069,0.069 -0.168,-0.033 -0.106,-0.106 0.291,-0.344 0.555,-0.702 0.809,-1.067 -0.566,-0.427 -1.135,-0.851 -1.706,-1.273 0.573,0.418 1.147,0.836 1.719,1.254 0.132,-0.189 0.265,-0.377 0.387,-0.571 0.255,-1.01 0.422,-2.339 0.423,-2.584 0.016,-1.363 -0.299,-2.754 -0.683,-4.053 -0.29,-0.98 -0.659,-1.919 -1.09,-2.824 -0.121,-0.078 -0.243,-0.153 -0.364,-0.232 0.145,0.87 0.169,1.77 0.098,2.683 C -3.614,1.281 -3.614,0.811 -3.647,0.34 -3.68,-0.106 -3.742,-0.553 -3.834,-0.993 -5.84,-2.282 -7.87,-3.532 -9.92,-4.748 c 1.102,1.858 1.992,3.837 2.649,5.895 0.436,1.363 0.771,2.751 0.991,4.165 0.049,0.319 0.054,0.739 0.055,1.183 -0.459,-3.976 -1.799,-7.873 -3.857,-11.337 -1.881,-1.114 -3.773,-2.207 -5.678,-3.282 -9.738,-5.496 -19.551,-10.897 -29.496,-16.01 4.334,2.17 8.639,4.421 12.928,6.75 7.402,4.018 14.829,8.014 22.089,12.286 -1.174,-1.931 -2.568,-3.726 -4.161,-5.316 1.465,1.41 2.783,2.991 3.931,4.776 0.135,0.21 0.265,0.422 0.395,0.635 0.01,0.006 0.019,0.011 0.029,0.017 1.946,1.147 4.026,2.303 6.101,3.532 -0.07,-0.265 -0.145,-0.529 -0.236,-0.787 -0.555,-0.955 -1.189,-1.866 -1.889,-2.735 -2.814,-2.094 -5.763,-4.041 -8.807,-5.895 m 14.687,10.782 c -0.101,0.138 -0.129,0.5 -0.132,0.891 0.023,0.016 0.046,0.032 0.07,0.048 0.004,-0.507 0.02,-0.881 0.062,-0.939 m 18.936,46.764 c -2.485,3.206 -6.282,5.542 -9.972,7.109 -4.986,2.118 -9.992,4.024 -15.364,4.799 -5.748,0.829 -11.549,0.985 -17.342,0.585 -12.173,-0.839 -23.401,-4.708 -34.903,-8.478 -11.687,-3.832 -23.63,-6.857 -35.551,-9.865 -7.445,-1.879 -15.476,-3.312 -22.685,-6.319 -3.379,-0.769 -6.288,-2.558 -8.742,-4.925 -0.672,-0.512 -1.331,-1.048 -1.968,-1.619 -1.922,-1.719 -3.872,-3.796 -5.265,-5.976 -1.42,-2.222 -2.213,-5.126 -2.729,-7.688 -1.101,-5.464 -0.91,-10.741 -0.068,-16.096 -0.381,0.312 -0.763,0.619 -1.144,0.914 -3.864,2.997 -8.312,5.278 -12.938,6.84 -5.628,1.899 -10.967,1.889 -16.84,1.606 -5.887,-0.284 -11.908,-0.714 -17.441,-2.903 -5.109,-2.021 -9.761,-5.273 -14.073,-8.638 -4.088,-3.189 -8.286,-6.544 -9.698,-11.754 -0.52,-1.921 -0.795,-3.988 -0.876,-6.094 -2.634,-0.291 -5.301,-1.902 -7.381,-3.361 -2.486,-1.745 -4.687,-3.951 -6.308,-6.526 -3.664,-5.82 -2.315,-14.489 -1.223,-20.914 1.143,-6.725 7.208,-11.199 12.838,-14.144 7.037,-3.683 15.274,-5.209 23.07,-6.295 9.416,-1.313 18.868,-1.202 28.276,0.099 0.857,-1.138 1.776,-2.235 2.772,-3.271 6.555,-6.821 15.608,-10.939 24.807,-12.666 9.983,-1.875 20.496,-1.833 30.23,1.273 4.307,1.374 8.524,4.144 12.197,6.768 0.904,0.646 1.781,1.329 2.631,2.042 0.944,0.543 1.851,1.161 2.712,1.869 2.589,2.133 4.765,5.005 5.869,8.21 1.563,2.581 2.87,5.354 3.678,8.204 1.374,4.844 0.606,9.482 -1.142,14.124 -0.576,1.528 -1.236,3.026 -1.969,4.489 21.969,3.999 41.645,15.003 60.238,26.968 9.328,6.001 18.339,12.635 25.317,21.36 3.152,3.943 5.954,8.239 8.321,12.699 2.3,4.335 4.972,9.229 5.612,14.152 0.622,4.771 0.072,9.532 -2.946,13.422"
           style="fill:#d6a800;fill-opacity:1;fill-rule:nonzero;stroke:none"
           id="path899" />
      </g>
      <g
         id="g933"
         transform="matrix(1.3333333,0,0,-1.3333333,371.6491,333.89676)"
         style="fill:#d6a800;fill-opacity:1">
        <path
           d="M 0,0 C 1.104,0.248 3.034,-0.698 4.244,-0.892 6.629,-1.274 7.031,-0.951 8.79,-3.206 9.7,-4.373 9.059,-5.05 8.088,-5.998 7.263,-6.803 6.367,-7.559 5.528,-8.353 5.062,-8.795 4.208,-9.954 3.329,-10.565 3.46,-8.634 1.58,-6.784 0.242,-5.575 -0.262,-5.12 -0.892,-4.752 -1.298,-4.2 -2.375,-2.737 -1.729,-0.389 0,0 m 2.699,-10.888 c -0.452,-0.143 -0.887,-0.064 -1.257,0.427 -0.088,0.117 -0.264,0.02 -0.198,-0.116 0.461,-0.947 1.519,-1.277 2.353,-0.5 0.989,0.923 0.592,1.405 2.122,2.477 1.141,0.801 2.453,1.342 3.582,2.191 0.89,0.67 1.874,1.312 1.093,2.448 -0.17,0.247 -0.627,0.414 -0.853,0.65 -0.385,0.402 -0.56,0.885 -0.928,1.301 -0.371,0.418 -0.826,0.683 -1.335,0.895 -0.962,0.403 -1.976,0.376 -2.986,0.55 C 3.199,-0.377 2.256,0.331 1.215,0.494 0.16,0.66 -2.333,0.001 -2.955,-0.971 -3.89,-2.43 -1.86,-4.589 -1.163,-5.639 c 1.072,-1.615 2.082,-4.259 3.862,-5.249"
           style="fill:#d6a800;fill-opacity:1;fill-rule:nonzero;stroke:none"
           id="path935" />
      </g>
      <g
         id="g937"
         transform="matrix(1.3333333,0,0,-1.3333333,356.88403,343.84663)"
         style="fill:#d6a800;fill-opacity:1">
        <path
           d="m 0,0 c 1.663,2.819 4.678,3.012 7.207,1.285 1.772,-1.212 2.916,-2.961 3.659,-4.94 -0.022,-0.036 -0.043,-0.074 -0.065,-0.11 C 10.709,-3.924 10.9,-4.137 11.064,-4.027 8.17,-5.962 9.893,-5.045 8.083,-5.191 7.255,-5.257 6.411,-5.305 5.58,-5.359 2.625,-5.551 -2.585,-4.382 0,0 m 4.307,-5.723 c 1.5,0 3.026,0.371 4.524,0.107 0.495,-0.088 0.996,-0.495 1.535,-0.358 1.092,0.28 1.183,1.557 1.249,2.477 0.021,0.309 -0.424,0.405 -0.569,0.154 -0.01,-0.018 -0.02,-0.035 -0.031,-0.053 C 10.265,-0.445 7.928,1.969 4.991,2.852 2.115,3.715 -0.924,1.255 -1.068,-1.794 -1.203,-4.626 2.01,-5.723 4.307,-5.723"
           style="fill:#d6a800;fill-opacity:1;fill-rule:nonzero;stroke:none"
           id="path939" />
      </g>
      <g
         id="g941"
         transform="matrix(1.3333333,0,0,-1.3333333,370.9759,354.9429)"
         style="fill:#d6a800;fill-opacity:1">
        <path
           d="M 0,0 C -0.246,-0.007 -0.248,-0.382 0,-0.384 L 1.031,-2.713 C 0.767,-3.075 0.501,-3.437 0.236,-3.799 -0.333,-4.414 -1.03,-4.853 -1.738,-5.277 c -0.935,-0.56 -1.908,-1.059 -2.866,-1.58 -1.329,-0.724 -2.91,-2.174 -4.217,-0.582 -0.379,0.462 -0.582,1.283 -0.959,1.789 -0.529,0.708 -1.316,1.308 -1.735,2.089 -1.064,1.981 1.231,2.74 2.848,3.237 2.763,0.85 5.705,0.739 8.453,-0.082 0.067,-0.02 0.093,0.082 0.028,0.103 -2.036,0.68 -4.085,0.976 -6.228,0.713 -1.435,-0.177 -4.664,-0.735 -5.645,-2.031 -0.538,-0.71 -0.327,-1.081 0.105,-1.826 0.403,-0.696 1.029,-1.25 1.536,-1.866 0.643,-0.783 0.939,-1.52 1.381,-2.432 0.103,-0.212 0.051,-0.521 0.255,-0.689 0.615,-0.504 0.858,-0.44 1.672,-0.159 2.242,0.775 4.969,2.218 6.891,3.621 C 1.234,-3.91 3.365,0.091 0,0"
           style="fill:#d6a800;fill-opacity:1;fill-rule:nonzero;stroke:none"
           id="path943" />
      </g>
      <g
         id="g945"
         transform="matrix(1.3333333,0,0,-1.3333333,383.34563,374.68636)"
         style="fill:#d6a800;fill-opacity:1">
        <path
           d="m 0,0 -0.688,0.333 c -0.271,0.022 -0.556,0.163 -0.838,0.203 -0.797,0.112 -1.578,-0.132 -2.358,-0.239 -3.275,-0.454 -5.845,2.102 -4.695,5.469 0.365,1.069 1.421,2.08 1.966,3.079 0.47,0.863 0.834,1.759 1.154,2.683 1.31,0.5 2.213,0.301 2.703,-0.611 0.173,-0.234 0.327,-0.48 0.462,-0.739 0.297,-0.522 0.51,-1.076 0.778,-1.611 C -1.071,7.682 -0.644,7.039 0.09,6.368 1.074,5.467 2.232,4.771 2.764,3.479 3.698,1.97 2.777,0.811 0,0 m 1.488,5.875 c -1.259,1.133 -2.001,2.006 -2.751,3.576 -0.544,1.138 -1.623,3.475 -3.173,3.63 -1.043,0.105 -1.717,-0.614 -1.642,-1.599 0.015,-0.201 0.221,-0.274 0.361,-0.214 -1.645,-3.47 -5.579,-6.87 -2.203,-10.54 1.76,-1.913 3.444,-0.685 5.618,-0.85 1.918,-0.145 3.541,-1.752 5.174,-0.009 1.009,1.077 0.971,2.563 0.376,3.846 -0.402,0.868 -1.06,1.531 -1.76,2.16"
           style="fill:#d6a800;fill-opacity:1;fill-rule:nonzero;stroke:none"
           id="path947" />
      </g>
      <g
         id="g949"
         transform="matrix(1.3333333,0,0,-1.3333333,398.42243,366.80556)"
         style="fill:#d6a800;fill-opacity:1">
        <path
           d="m 0,0 -2.802,-1.06 c -0.377,0.297 -0.783,0.546 -1.219,0.747 -0.112,0.059 -0.21,0.023 -0.266,-0.05 -0.407,0.419 -0.781,0.833 -1.106,1.087 -0.771,0.607 -1.608,1.106 -2.466,1.578 -1.576,0.865 -2.772,1.646 -3.829,3.142 -1.231,1.74 -0.541,1.449 1.113,1.129 2.344,-0.454 4.956,0.308 6.982,-1.078 1.26,-0.862 2.731,-1.582 3.404,-2.966 C 0.122,1.889 0.571,0.675 0,0 m -0.495,3.639 c -1.122,0.919 -2.522,2.014 -3.83,2.636 -0.962,0.458 -1.816,0.265 -2.881,0.246 -1.971,-0.034 -3.871,0.308 -5.738,0.923 -0.09,0.03 -0.165,-0.079 -0.12,-0.156 1.584,-2.724 3.076,-3.949 5.755,-5.486 1.165,-0.67 2.057,-1.604 3.032,-2.457 2.51,-3.208 5.967,-0.062 4.666,3.237 -0.195,0.492 -0.469,0.717 -0.884,1.057"
           style="fill:#d6a800;fill-opacity:1;fill-rule:nonzero;stroke:none"
           id="path951" />
      </g>
      <g
         id="g953"
         transform="matrix(1.3333333,0,0,-1.3333333,384.5227,348.3909)"
         style="fill:#d6a800;fill-opacity:1">
        <path
           d="m 0,0 c 0.949,1.241 2.225,3.658 3.959,3.816 3.728,0.341 6.839,-2.773 6.239,-6.421 -0.243,-1.48 -0.754,-3.443 -3.036,-3.294 -0.707,0.046 -1.663,0.712 -2.333,1.007 -1.138,0.501 -2.28,1.111 -3.455,1.52 -0.782,0.272 -1.624,0.547 -2.464,0.383 -0.222,-0.044 -0.463,-0.175 -0.685,-0.204 -0.207,-0.095 -0.4,-0.211 -0.578,-0.349 -0.427,-0.333 -0.128,0.076 0.897,1.229 0.088,0.06 0.036,0.223 -0.077,0.182 C -1.558,-2.14 -1.577,-2.15 -1.602,-2.16 -1.076,-1.434 -0.545,-0.712 0,0 m -2.855,-4.192 c 0.008,-0.166 0.228,-0.291 0.353,-0.147 2.648,3.064 7.384,-1.923 10.289,-2.137 1.908,-0.141 2.424,1.873 2.765,3.401 0.413,1.85 0.127,3.671 -1.148,5.135 C 7.692,4.029 5.542,3.606 3.286,4.39 3.241,4.406 3.172,4.39 3.142,4.352 1.454,2.213 -0.168,0.031 -1.717,-2.208 -2.602,-2.582 -2.907,-3.157 -2.855,-4.192"
           style="fill:#d6a800;fill-opacity:1;fill-rule:nonzero;stroke:none"
           id="path955" />
      </g>
      <g
         id="g957"
         transform="matrix(1.3333333,0,0,-1.3333333,423.54363,385.94036)"
         style="fill:#d6a800;fill-opacity:1">
        <path
           d="M 0,0 C -0.22,-0.207 -0.434,-0.418 -0.658,-0.618 -0.431,-0.416 -0.211,-0.21 0,0"
           style="fill:#d6a800;fill-opacity:1;fill-rule:nonzero;stroke:none"
           id="path959" />
      </g>
      <g
         id="g961"
         transform="matrix(1.3333333,0,0,-1.3333333,298.28257,312.56663)"
         style="fill:#d6a800;fill-opacity:1">
        <path
           d="M 0,0 C -0.147,0.096 -0.283,0.196 -0.403,0.304 -0.939,0.786 -1.458,0.985 -0.85,1.922 -0.573,2.348 0.244,2.716 0.699,2.975 1.61,3.493 2.6,3.873 3.58,4.238 6.78,5.433 8.093,2.441 9.089,-0.081 9.149,-0.232 9.387,-0.177 9.341,-0.011 8.848,1.771 7.833,5.251 5.575,5.542 3.661,5.789 0.815,3.72 -0.527,2.496 -2.113,1.049 -1.66,0.764 0,0"
           style="fill:#d6a800;fill-opacity:1;fill-rule:nonzero;stroke:none"
           id="path963" />
      </g>
      <g
         id="g965"
         transform="matrix(1.3333333,0,0,-1.3333333,298.63803,312.73063)"
         style="fill:#d6a800;fill-opacity:1">
        <path
           d="M 0,0 C -0.093,0.043 -0.18,0.083 -0.267,0.123 0.278,-0.232 0.987,-0.503 1.705,-0.708 1.125,-0.499 0.557,-0.255 0,0"
           style="fill:#d6a800;fill-opacity:1;fill-rule:nonzero;stroke:none"
           id="path967" />
      </g>
      <g
         id="g969"
         transform="matrix(1.3333333,0,0,-1.3333333,307.12883,314.3869)"
         style="fill:#d6a800;fill-opacity:1">
        <path
           d="M 0,0 C 0.088,0.017 1.9,0.664 1.845,0.234 1.836,0.168 1.922,0.154 1.963,0.186 2.026,0.236 2.09,0.287 2.153,0.338 2.205,0.379 2.219,0.483 2.179,0.537 1.849,0.98 1.818,0.748 1.34,0.754 0.775,0.762 -0.083,0.213 -0.687,0.116 -1.414,-0.002 -1.972,0.019 -2.699,0.12 -3.269,0.2 -3.97,0.337 -4.663,0.535 -4.027,0.305 -3.376,0.117 -2.708,0.009 -1.825,-0.133 -0.883,-0.169 0,0"
           style="fill:#d6a800;fill-opacity:1;fill-rule:nonzero;stroke:none"
           id="path971" />
      </g>
      <g
         id="g977"
         transform="matrix(1.3333333,0,0,-1.3333333,310.2943,319.58943)"
         style="fill:#d6a800;fill-opacity:1">
        <path
           d="M 0,0 C 0.04,0 0.04,0.062 0,0.062 -0.04,0.062 -0.04,0 0,0"
           style="fill:#d6a800;fill-opacity:1;fill-rule:nonzero;stroke:none"
           id="path979" />
      </g>
      <g
         id="g981"
         transform="matrix(1.3333333,0,0,-1.3333333,311.95697,331.4273)"
         style="fill:#d6a800;fill-opacity:1">
        <path
           d="m 0,0 c -1.095,-0.255 -2.067,0.034 -3.17,-0.008 -0.72,-0.028 -1.3,-0.295 -1.975,-0.498 -0.954,-0.577 -1.408,-0.284 -1.361,0.88 -0.483,0.522 -0.538,0.98 -0.167,1.37 0.173,0.614 0.889,1.173 1.329,1.664 1.25,1.394 2.678,2.612 4.117,3.805 C -0.933,5.963 0.795,5.175 1.396,4.02 2.196,2.48 1.864,0.435 0,0 m -0.926,7.463 c 0.062,0.052 0.123,0.103 0.185,0.155 0.093,0.076 -0.038,0.201 -0.13,0.13 C -0.952,7.685 -1.037,7.62 -1.122,7.555 -1.178,7.544 -1.225,7.51 -1.246,7.459 -3.479,5.755 -6.61,3.596 -7.524,0.909 c -0.212,-0.623 -0.218,-1.318 0.397,-1.717 1.041,-0.676 2.214,0.315 3.183,0.555 2.175,0.537 4.877,-1.056 6.091,1.592 C 2.613,2.353 2.586,3.437 2.107,4.436 1.404,5.902 0.041,6.33 -0.926,7.463"
           style="fill:#d6a800;fill-opacity:1;fill-rule:nonzero;stroke:none"
           id="path983" />
      </g>
      <g
         id="g985"
         transform="matrix(1.3333333,0,0,-1.3333333,328.83137,314.96116)"
         style="fill:#d6a800;fill-opacity:1">
        <path
           d="m 0,0 c -0.51,-2.569 -0.461,-2.022 -2.763,-1.721 -0.542,0.071 -1.082,0.15 -1.628,0.195 -1.523,0.126 -3.032,0.092 -4.534,-0.176 1.339,1.142 2.866,2.037 4.514,2.662 0.665,0.252 1.349,0.461 2.042,0.622 0.683,0.159 1.375,0.27 2.074,0.335 C 0.867,2.196 0.965,1.557 0,0 m -2.082,1.881 c -2.626,-0.627 -4.861,-1.93 -6.933,-3.61 -0.015,-0.009 -0.028,-0.02 -0.04,-0.033 -0.071,-0.058 -0.143,-0.112 -0.214,-0.171 -0.023,-0.019 0.011,-0.055 0.035,-0.034 0.043,0.038 0.088,0.074 0.13,0.112 -0.022,-0.122 0.051,-0.27 0.199,-0.259 2.193,0.176 4.186,0.213 6.381,-0.048 0.957,-0.113 1.922,-0.294 2.884,-0.075 1.395,0.318 3.034,1.68 2.294,3.303 C 1.86,2.81 -0.66,2.22 -2.082,1.881"
           style="fill:#d6a800;fill-opacity:1;fill-rule:nonzero;stroke:none"
           id="path987" />
      </g>
      <g
         id="g989"
         transform="matrix(1.3333333,0,0,-1.3333333,323.76563,306.4625)"
         style="fill:#d6a800;fill-opacity:1">
        <path
           d="m 0,0 c -1.533,1.269 -4.718,0.917 -6.48,0.273 -0.79,-0.288 -1.37,-0.566 -1.532,-1.406 -0.301,-1.558 -0.018,-3.439 0.006,-5.023 10e-4,-0.089 0.134,-0.089 0.138,0 0.092,2.063 -0.473,5.445 1.993,6.279 1.59,0.537 4.553,0.579 5.861,-0.477 2.176,-1.756 -0.234,-3 -1.795,-3.741 -1.742,-0.827 -3.7,-1.738 -5.636,-1.92 -0.116,-0.011 -0.12,-0.189 0,-0.184 2.49,0.103 5.881,1.586 7.876,3.09 C 1.843,-2.045 1.296,-1.073 0,0"
           style="fill:#d6a800;fill-opacity:1;fill-rule:nonzero;stroke:none"
           id="path991" />
      </g>
      <g
         id="g993"
         transform="matrix(1.3333333,0,0,-1.3333333,394.31057,281.9169)"
         style="fill:#d6a800;fill-opacity:1">
        <path
           d="M 0,0 C -0.173,0.333 -0.356,0.665 -0.552,0.995 -0.45,0.813 -0.36,0.65 -0.287,0.524 -0.187,0.35 -0.091,0.176 0,0"
           style="fill:#d6a800;fill-opacity:1;fill-rule:nonzero;stroke:none"
           id="path995" />
      </g>
      <g
         id="g997"
         transform="matrix(1.3333333,0,0,-1.3333333,394.31057,281.9169)"
         style="fill:#d6a800;fill-opacity:1">
        <path
           d="M 0,0 0.015,-0.028 Z"
           style="fill:#d6a800;fill-opacity:1;fill-rule:nonzero;stroke:none"
           id="path999" />
      </g>
      <g
         id="g1001"
         transform="matrix(1.3333333,0,0,-1.3333333,395.15817,293.4709)"
         style="fill:#d6a800;fill-opacity:1">
        <path
           d="M 0,0 C -0.003,-0.009 0.012,-0.013 0.015,-0.004 1.281,3.322 0.716,6.043 -0.621,8.638 0.788,5.904 1.026,2.95 0,0"
           style="fill:#d6a800;fill-opacity:1;fill-rule:nonzero;stroke:none"
           id="path1003" />
      </g>
      <g
         id="g1005"
         transform="matrix(1.3333333,0,0,-1.3333333,386.5983,287.6389)"
         style="fill:#d6a800;fill-opacity:1">
        <path
           d="M 0,0 C 0.582,-0.938 1.144,-2.394 1.995,-3.097 3.056,-3.97 4.629,-3.73 5.849,-4.482 5.953,-4.545 6.066,-4.398 5.979,-4.313 4.603,-2.972 2.802,-3.336 1.62,-1.716 0.736,-0.503 0.038,0.943 -0.745,2.227 -1.648,3.708 -2.179,4.718 -0.675,6.04 0.202,6.81 1.776,8.652 3.001,8.204 3.198,8.131 3.408,7.961 3.619,7.737 3.332,8.144 3.039,8.551 2.741,8.964 2.685,9.042 2.58,9.087 2.49,9.03 1.042,8.113 -1.07,6.87 -2.09,5.465 -2.748,4.559 -2.477,4.089 -1.922,3.137 -1.306,2.079 -0.646,1.041 0,0"
           style="fill:#d6a800;fill-opacity:1;fill-rule:nonzero;stroke:none"
           id="path1007" />
      </g>
      <g
         id="g1009"
         transform="matrix(1.3333333,0,0,-1.3333333,391.42377,277.3225)"
         style="fill:#d6a800;fill-opacity:1">
        <path
           d="M 0,0 C 0.58,-0.82 1.128,-1.633 1.613,-2.451 1.204,-1.714 0.596,-0.631 0,0"
           style="fill:#d6a800;fill-opacity:1;fill-rule:nonzero;stroke:none"
           id="path1011" />
      </g>
      <g
         id="g1013"
         transform="matrix(1.3333333,0,0,-1.3333333,397.82217,293.16557)"
         style="fill:#d6a800;fill-opacity:1">
        <path
           d="m 0,0 c 0.55,2.183 0.461,4.338 0.481,6.572 0.014,1.457 0.093,2.949 0.532,4.349 0.789,2.518 2.874,2.016 4.342,0.41 C 6.379,10.212 7.159,8.872 8.011,7.624 8.979,6.204 10.995,4.179 7.877,2.924 5.62,2.016 3.149,1.848 0.891,0.782 0.742,0.712 0.848,0.459 1.003,0.516 c 2.213,0.811 4.406,1.27 6.678,1.842 0.93,0.235 2.024,0.539 2.45,1.52 0.531,1.224 -0.35,2.307 -0.985,3.297 -1.005,1.57 -2,3.292 -3.332,4.616 C 5.136,12.465 4.003,13.498 2.97,13.5 1.759,13.503 1.504,12.829 1.045,11.694 -0.449,7.999 0.812,3.828 -0.015,0.004 -0.017,-0.005 -0.002,-0.009 0,0"
           style="fill:#d6a800;fill-opacity:1;fill-rule:nonzero;stroke:none"
           id="path1015" />
      </g>
      <g
         id="g1017"
         transform="matrix(1.3333333,0,0,-1.3333333,400.73883,298.2033)"
         style="fill:#d6a800;fill-opacity:1">
        <path
           d="m 0,0 c 2.481,0.917 5.569,2.685 8.22,2.855 2.267,0.146 5.173,-1.25 5.919,-3.585 0.382,-1.197 0.555,-3.337 0.436,-4.624 0.02,-0.273 0.038,-0.547 0.058,-0.82 -0.866,-0.611 -1.732,-1.222 -2.597,-1.832 -0.338,0.035 -1.274,0.989 -1.678,1.286 -0.962,0.708 -1.956,1.375 -3.005,1.949 -0.952,0.52 -1.946,0.963 -2.958,1.349 -0.905,0.343 -5.409,1.178 -4.392,3.018 0.081,0.147 -0.141,0.277 -0.226,0.132 -0.551,-0.945 -0.252,-1.641 0.64,-2.23 0.671,-0.442 1.618,-0.56 2.361,-0.825 1.488,-0.532 2.881,-1.22 4.247,-2.005 1.533,-0.88 6.364,-5.671 7.737,-2.287 0.32,0.789 0.069,1.868 0.018,2.675 -0.081,1.292 -0.061,2.634 -0.236,3.916 -0.211,1.541 -0.971,2.446 -2.26,3.293 C 8.352,4.848 3.713,1.912 -0.064,0.154 -0.15,0.114 -0.09,-0.033 0,0"
           style="fill:#d6a800;fill-opacity:1;fill-rule:nonzero;stroke:none"
           id="path1019" />
      </g>
      <g
         id="g1021"
         transform="matrix(1.3333333,0,0,-1.3333333,396.5891,302.39343)"
         style="fill:#d6a800;fill-opacity:1">
        <path
           d="m 0,0 c -0.001,0.02 -0.031,0.02 -0.03,0 0.006,-1.006 -0.014,-2.008 -0.1,-3.011 -0.039,-0.451 -0.043,-1.105 -0.093,-1.76 C -0.029,-3.194 0.046,-1.61 0,0"
           style="fill:#d6a800;fill-opacity:1;fill-rule:nonzero;stroke:none"
           id="path1023" />
      </g>
      <g
         id="g1025"
         transform="matrix(1.3333333,0,0,-1.3333333,396.0631,310.3361)"
         style="fill:#d6a800;fill-opacity:1">
        <path
           d="M 0,0 C 0.09,0.363 0.14,0.773 0.172,1.187 0.123,0.791 0.064,0.395 0,0"
           style="fill:#d6a800;fill-opacity:1;fill-rule:nonzero;stroke:none"
           id="path1027" />
      </g>
      <g
         id="g1029"
         transform="matrix(1.3333333,0,0,-1.3333333,395.30003,301.8869)"
         style="fill:#d6a800;fill-opacity:1">
        <path
           d="m 0,0 c 0.255,-0.066 0.511,-0.133 0.766,-0.199 0.029,-0.008 0.041,0.037 0.012,0.044 L 0.008,0.03 C -0.012,0.034 -0.02,0.005 0,0"
           style="fill:#d6a800;fill-opacity:1;fill-rule:nonzero;stroke:none"
           id="path1031" />
      </g>
      <g
         id="g1033"
         transform="matrix(1.3333333,0,0,-1.3333333,380.0631,303.82503)"
         style="fill:#d6a800;fill-opacity:1">
        <path
           d="M 0,0 C 1.586,-0.186 3.487,0.83 4.829,1.6 6.365,2.482 7.563,3.918 9.472,3.49 9.607,3.459 9.659,3.652 9.529,3.697 8.211,4.149 8.627,4.716 7.42,3.826 4.447,1.636 0.909,-1.286 -2.525,2.044 -3.776,3.257 -4.936,5.385 -4.626,7.133 -4.076,10.237 -1.074,9.709 1.201,8.808 3.981,7.707 7.624,6.891 9.859,4.876 9.896,4.844 9.949,4.896 9.914,4.931 8.712,6.083 7.193,6.646 5.678,7.278 3.538,8.171 1.132,9.535 -1.154,9.922 -3.607,10.337 -5.267,8.383 -4.937,5.986 -4.632,3.775 -2.382,0.28 0,0"
           style="fill:#d6a800;fill-opacity:1;fill-rule:nonzero;stroke:none"
           id="path1035" />
      </g>
      <g
         id="g1037"
         transform="matrix(1.3333333,0,0,-1.3333333,368.0527,295.1129)"
         style="fill:#d6a800;fill-opacity:1">
        <path
           d="M 0,0 C 1.979,-1.736 1.082,-4.014 2.526,-5.883 2.54,-5.9 2.57,-5.89 2.575,-5.87 c 0.127,0.619 0.173,0.419 -0.173,0.979 -0.02,0.034 -0.073,0.003 -0.052,-0.031 -0.401,0.189 -0.591,0.5 -0.57,0.931 -0.049,0.355 -0.098,0.71 -0.147,1.066 -0.059,0.344 -0.103,0.723 -0.216,1.059 -0.271,0.797 -0.723,1.37 -1.374,1.913 -0.595,0.496 -1.25,0.935 -1.931,1.347 0.003,0.005 0.007,0.01 0.01,0.016 C -1.882,1.405 -1.885,1.399 -1.889,1.394 -2.002,1.463 -2.115,1.533 -2.231,1.601 -2.117,1.531 -2.006,1.458 -1.894,1.387 -2.299,0.82 -2.672,0.221 -3.019,-0.396 -2.658,0.202 -2.28,0.795 -1.893,1.386 -1.213,0.955 -0.568,0.499 0,0"
           style="fill:#d6a800;fill-opacity:1;fill-rule:nonzero;stroke:none"
           id="path1039" />
      </g>
      <g
         id="g1041"
         transform="matrix(1.3333333,0,0,-1.3333333,366.09443,292.39863)"
         style="fill:#d6a800;fill-opacity:1">
        <path
           d="m 0,0 c -0.139,-0.209 -0.272,-0.417 -0.409,-0.626 0.145,0.203 0.294,0.402 0.448,0.596 C 0.061,-0.002 0.02,0.029 0,0"
           style="fill:#d6a800;fill-opacity:1;fill-rule:nonzero;stroke:none"
           id="path1043" />
      </g>
      <g
         id="g1045"
         transform="matrix(1.3333333,0,0,-1.3333333,368.3587,295.71837)"
         style="fill:#d6a800;fill-opacity:1">
        <path
           d="m 0,0 c -0.777,-2.085 -1.765,-4.021 -2.892,-5.934 -0.03,-0.051 0.048,-0.096 0.08,-0.046 1.185,1.866 2.115,3.889 2.871,5.964 C 0.072,0.021 0.014,0.037 0,0"
           style="fill:#d6a800;fill-opacity:1;fill-rule:nonzero;stroke:none"
           id="path1047" />
      </g>
      <g
         id="g1049"
         transform="matrix(1.3333333,0,0,-1.3333333,367.28577,301.4657)"
         style="fill:#d6a800;fill-opacity:1">
        <path
           d="M 0,0 C 0.452,0.807 0.933,1.596 1.433,2.374 1.455,2.408 1.402,2.438 1.38,2.405 0.332,0.877 -0.619,-0.707 -1.477,-2.349 c -0.028,-0.053 -0.015,-0.125 0.041,-0.156 0.222,-0.122 0.342,-0.119 0.551,0.026 0.06,0.041 0.025,0.158 -0.053,0.126 -0.397,-0.162 0.251,1.08 0.278,1.131 C -0.446,-0.811 -0.227,-0.404 0,0"
           style="fill:#d6a800;fill-opacity:1;fill-rule:nonzero;stroke:none"
           id="path1051" />
      </g>
      <g
         id="g1105"
         transform="matrix(1.3333333,0,0,-1.3333333,330.01163,198.36223)"
         style="fill:#d6a800;fill-opacity:1">
        <path
           d="M 0,0 C -2.054,0.261 -4.072,0.636 -6.06,1.222 -6.103,1.234 -6.12,1.168 -6.078,1.155 -4.09,0.546 -2.071,0.107 0,-0.069 0.046,-0.073 0.043,-0.005 0,0"
           style="fill:#d6a800;fill-opacity:1;fill-rule:nonzero;stroke:none"
           id="path1107" />
      </g>
    </g>
  </g>
</svg>
